G04 (created by PCBNEW (2013-07-07 BZR 4022)-stable) date 6/24/2016 5:08:50 PM*
%MOIN*%
G04 Gerber Fmt 3.4, Leading zero omitted, Abs format*
%FSLAX34Y34*%
G01*
G70*
G90*
G04 APERTURE LIST*
%ADD10C,0.00590551*%
%ADD11C,0.006*%
%ADD12R,0.0531496X0.015748*%
%ADD13R,0.0629921X0.0826772*%
%ADD14C,0.0393701*%
%ADD15R,0.036X0.036*%
%ADD16R,0.059X0.0512*%
%ADD17R,0.0354X0.0394*%
%ADD18R,0.0394X0.0354*%
%ADD19R,0.031X0.015748*%
%ADD20R,0.03X0.015748*%
%ADD21R,0.015748X0.031*%
%ADD22R,0.0846457X0.0846457*%
%ADD23R,0.0314961X0.011811*%
%ADD24R,0.011811X0.0314961*%
%ADD25R,0.063X0.071*%
%ADD26R,0.071X0.063*%
%ADD27R,0.015748X0.00787402*%
%ADD28R,0.0314961X0.0511811*%
%ADD29C,0.0295276*%
%ADD30R,0.0110236X0.0334646*%
%ADD31R,0.120079X0.0807087*%
%ADD32R,0.0334646X0.0110236*%
%ADD33R,0.0442913X0.00905512*%
%ADD34C,0.001*%
G04 APERTURE END LIST*
G54D10*
G54D11*
X88628Y-59267D02*
X88628Y-58873D01*
X88722Y-58873D01*
X88778Y-58892D01*
X88816Y-58929D01*
X88834Y-58967D01*
X88853Y-59042D01*
X88853Y-59098D01*
X88834Y-59173D01*
X88816Y-59211D01*
X88778Y-59248D01*
X88722Y-59267D01*
X88628Y-59267D01*
X89191Y-59267D02*
X89191Y-59061D01*
X89172Y-59023D01*
X89134Y-59004D01*
X89059Y-59004D01*
X89022Y-59023D01*
X89191Y-59248D02*
X89153Y-59267D01*
X89059Y-59267D01*
X89022Y-59248D01*
X89003Y-59211D01*
X89003Y-59173D01*
X89022Y-59136D01*
X89059Y-59117D01*
X89153Y-59117D01*
X89191Y-59098D01*
X89378Y-59004D02*
X89378Y-59267D01*
X89378Y-59042D02*
X89397Y-59023D01*
X89434Y-59004D01*
X89491Y-59004D01*
X89528Y-59023D01*
X89547Y-59061D01*
X89547Y-59267D01*
X89734Y-59267D02*
X89734Y-59004D01*
X89734Y-58873D02*
X89716Y-58892D01*
X89734Y-58911D01*
X89753Y-58892D01*
X89734Y-58873D01*
X89734Y-58911D01*
X90072Y-59248D02*
X90034Y-59267D01*
X89959Y-59267D01*
X89922Y-59248D01*
X89903Y-59211D01*
X89903Y-59061D01*
X89922Y-59023D01*
X89959Y-59004D01*
X90034Y-59004D01*
X90072Y-59023D01*
X90090Y-59061D01*
X90090Y-59098D01*
X89903Y-59136D01*
X90315Y-59267D02*
X90278Y-59248D01*
X90259Y-59211D01*
X90259Y-58873D01*
X90747Y-59154D02*
X90934Y-59154D01*
X90709Y-59267D02*
X90840Y-58873D01*
X90972Y-59267D01*
X91103Y-59229D02*
X91122Y-59248D01*
X91103Y-59267D01*
X91084Y-59248D01*
X91103Y-59229D01*
X91103Y-59267D01*
X88778Y-59484D02*
X88703Y-59484D01*
X88666Y-59503D01*
X88647Y-59522D01*
X88609Y-59578D01*
X88591Y-59653D01*
X88591Y-59803D01*
X88609Y-59841D01*
X88628Y-59859D01*
X88666Y-59878D01*
X88741Y-59878D01*
X88778Y-59859D01*
X88797Y-59841D01*
X88816Y-59803D01*
X88816Y-59709D01*
X88797Y-59672D01*
X88778Y-59653D01*
X88741Y-59634D01*
X88666Y-59634D01*
X88628Y-59653D01*
X88609Y-59672D01*
X88591Y-59709D01*
X89266Y-59466D02*
X88928Y-59972D01*
X89378Y-59522D02*
X89397Y-59503D01*
X89434Y-59484D01*
X89528Y-59484D01*
X89566Y-59503D01*
X89584Y-59522D01*
X89603Y-59559D01*
X89603Y-59597D01*
X89584Y-59653D01*
X89359Y-59878D01*
X89603Y-59878D01*
X89940Y-59616D02*
X89940Y-59878D01*
X89847Y-59466D02*
X89753Y-59747D01*
X89997Y-59747D01*
X90428Y-59466D02*
X90090Y-59972D01*
X90765Y-59878D02*
X90540Y-59878D01*
X90653Y-59878D02*
X90653Y-59484D01*
X90615Y-59541D01*
X90578Y-59578D01*
X90540Y-59597D01*
X91103Y-59484D02*
X91028Y-59484D01*
X90990Y-59503D01*
X90972Y-59522D01*
X90934Y-59578D01*
X90915Y-59653D01*
X90915Y-59803D01*
X90934Y-59841D01*
X90953Y-59859D01*
X90990Y-59878D01*
X91065Y-59878D01*
X91103Y-59859D01*
X91122Y-59841D01*
X91140Y-59803D01*
X91140Y-59709D01*
X91122Y-59672D01*
X91103Y-59653D01*
X91065Y-59634D01*
X90990Y-59634D01*
X90953Y-59653D01*
X90934Y-59672D01*
X90915Y-59709D01*
G54D12*
X81110Y-60678D03*
X81110Y-60934D03*
X81110Y-61190D03*
X81110Y-61445D03*
X81110Y-61701D03*
G54D13*
X81060Y-62410D03*
X81060Y-59969D03*
G54D14*
X88680Y-52030D03*
X83380Y-53680D03*
X88130Y-61220D03*
X80590Y-58250D03*
X88100Y-52020D03*
X87530Y-52020D03*
X85520Y-59810D03*
X91653Y-55944D03*
X91299Y-56377D03*
X91980Y-56530D03*
X85520Y-58135D03*
G54D15*
X92570Y-52790D03*
X91870Y-52790D03*
X92220Y-51990D03*
G54D16*
X90787Y-62815D03*
X90787Y-62065D03*
X83340Y-56175D03*
X83340Y-56925D03*
G54D17*
X84254Y-61250D03*
X84846Y-61250D03*
X84254Y-60700D03*
X84846Y-60700D03*
G54D18*
X88110Y-62932D03*
X88110Y-63524D03*
X88110Y-61869D03*
X88110Y-62461D03*
G54D17*
X84116Y-58650D03*
X83524Y-58650D03*
X83524Y-58080D03*
X84116Y-58080D03*
G54D18*
X86150Y-63206D03*
X86150Y-62614D03*
G54D17*
X81176Y-55620D03*
X80584Y-55620D03*
X81146Y-55000D03*
X80554Y-55000D03*
G54D18*
X86160Y-62106D03*
X86160Y-61514D03*
X91290Y-52544D03*
X91290Y-53136D03*
G54D17*
X82236Y-55000D03*
X81644Y-55000D03*
X92126Y-57530D03*
X91534Y-57530D03*
X92116Y-58670D03*
X91524Y-58670D03*
G54D10*
G36*
X88425Y-53386D02*
X90471Y-55433D01*
X88425Y-57479D01*
X86379Y-55433D01*
X88425Y-53386D01*
X88425Y-53386D01*
G37*
G36*
X88543Y-57555D02*
X88780Y-57792D01*
X88696Y-57875D01*
X88459Y-57639D01*
X88543Y-57555D01*
X88543Y-57555D01*
G37*
G36*
X88682Y-57416D02*
X88919Y-57653D01*
X88835Y-57736D01*
X88599Y-57500D01*
X88682Y-57416D01*
X88682Y-57416D01*
G37*
G36*
X88821Y-57277D02*
X89058Y-57514D01*
X88975Y-57597D01*
X88738Y-57360D01*
X88821Y-57277D01*
X88821Y-57277D01*
G37*
G36*
X88961Y-57138D02*
X89197Y-57374D01*
X89114Y-57458D01*
X88877Y-57221D01*
X88961Y-57138D01*
X88961Y-57138D01*
G37*
G36*
X89100Y-56999D02*
X89336Y-57235D01*
X89253Y-57319D01*
X89016Y-57082D01*
X89100Y-56999D01*
X89100Y-56999D01*
G37*
G36*
X89239Y-56859D02*
X89476Y-57096D01*
X89392Y-57179D01*
X89155Y-56943D01*
X89239Y-56859D01*
X89239Y-56859D01*
G37*
G36*
X89378Y-56720D02*
X89615Y-56957D01*
X89531Y-57040D01*
X89295Y-56804D01*
X89378Y-56720D01*
X89378Y-56720D01*
G37*
G36*
X89517Y-56581D02*
X89754Y-56818D01*
X89670Y-56901D01*
X89434Y-56664D01*
X89517Y-56581D01*
X89517Y-56581D01*
G37*
G36*
X89657Y-56442D02*
X89893Y-56678D01*
X89810Y-56762D01*
X89573Y-56525D01*
X89657Y-56442D01*
X89657Y-56442D01*
G37*
G36*
X89796Y-56303D02*
X90032Y-56539D01*
X89949Y-56623D01*
X89712Y-56386D01*
X89796Y-56303D01*
X89796Y-56303D01*
G37*
G36*
X89935Y-56163D02*
X90172Y-56400D01*
X90088Y-56483D01*
X89851Y-56247D01*
X89935Y-56163D01*
X89935Y-56163D01*
G37*
G36*
X90074Y-56024D02*
X90311Y-56261D01*
X90227Y-56344D01*
X89991Y-56108D01*
X90074Y-56024D01*
X90074Y-56024D01*
G37*
G36*
X90213Y-55885D02*
X90450Y-56122D01*
X90366Y-56205D01*
X90130Y-55968D01*
X90213Y-55885D01*
X90213Y-55885D01*
G37*
G36*
X90353Y-55746D02*
X90589Y-55982D01*
X90506Y-56066D01*
X90269Y-55829D01*
X90353Y-55746D01*
X90353Y-55746D01*
G37*
G36*
X90492Y-55607D02*
X90728Y-55843D01*
X90645Y-55927D01*
X90408Y-55690D01*
X90492Y-55607D01*
X90492Y-55607D01*
G37*
G36*
X90631Y-55467D02*
X90868Y-55704D01*
X90784Y-55788D01*
X90547Y-55551D01*
X90631Y-55467D01*
X90631Y-55467D01*
G37*
G36*
X90868Y-55161D02*
X90631Y-55398D01*
X90547Y-55314D01*
X90784Y-55078D01*
X90868Y-55161D01*
X90868Y-55161D01*
G37*
G36*
X90728Y-55022D02*
X90492Y-55259D01*
X90408Y-55175D01*
X90645Y-54938D01*
X90728Y-55022D01*
X90728Y-55022D01*
G37*
G36*
X90589Y-54883D02*
X90353Y-55119D01*
X90269Y-55036D01*
X90506Y-54799D01*
X90589Y-54883D01*
X90589Y-54883D01*
G37*
G36*
X90450Y-54744D02*
X90213Y-54980D01*
X90130Y-54897D01*
X90366Y-54660D01*
X90450Y-54744D01*
X90450Y-54744D01*
G37*
G36*
X90311Y-54604D02*
X90074Y-54841D01*
X89991Y-54757D01*
X90227Y-54521D01*
X90311Y-54604D01*
X90311Y-54604D01*
G37*
G36*
X90172Y-54465D02*
X89935Y-54702D01*
X89851Y-54618D01*
X90088Y-54382D01*
X90172Y-54465D01*
X90172Y-54465D01*
G37*
G36*
X90032Y-54326D02*
X89796Y-54563D01*
X89712Y-54479D01*
X89949Y-54242D01*
X90032Y-54326D01*
X90032Y-54326D01*
G37*
G36*
X89893Y-54187D02*
X89657Y-54423D01*
X89573Y-54340D01*
X89810Y-54103D01*
X89893Y-54187D01*
X89893Y-54187D01*
G37*
G36*
X89754Y-54048D02*
X89517Y-54284D01*
X89434Y-54201D01*
X89670Y-53964D01*
X89754Y-54048D01*
X89754Y-54048D01*
G37*
G36*
X89615Y-53908D02*
X89378Y-54145D01*
X89295Y-54062D01*
X89531Y-53825D01*
X89615Y-53908D01*
X89615Y-53908D01*
G37*
G36*
X89476Y-53769D02*
X89239Y-54006D01*
X89155Y-53922D01*
X89392Y-53686D01*
X89476Y-53769D01*
X89476Y-53769D01*
G37*
G36*
X89336Y-53630D02*
X89100Y-53867D01*
X89016Y-53783D01*
X89253Y-53546D01*
X89336Y-53630D01*
X89336Y-53630D01*
G37*
G36*
X89197Y-53491D02*
X88961Y-53727D01*
X88877Y-53644D01*
X89114Y-53407D01*
X89197Y-53491D01*
X89197Y-53491D01*
G37*
G36*
X89058Y-53352D02*
X88821Y-53588D01*
X88738Y-53505D01*
X88975Y-53268D01*
X89058Y-53352D01*
X89058Y-53352D01*
G37*
G36*
X88919Y-53212D02*
X88682Y-53449D01*
X88599Y-53366D01*
X88835Y-53129D01*
X88919Y-53212D01*
X88919Y-53212D01*
G37*
G36*
X88780Y-53073D02*
X88543Y-53310D01*
X88459Y-53226D01*
X88696Y-52990D01*
X88780Y-53073D01*
X88780Y-53073D01*
G37*
G36*
X88153Y-52990D02*
X88390Y-53226D01*
X88306Y-53310D01*
X88070Y-53073D01*
X88153Y-52990D01*
X88153Y-52990D01*
G37*
G36*
X88014Y-53129D02*
X88251Y-53366D01*
X88167Y-53449D01*
X87931Y-53212D01*
X88014Y-53129D01*
X88014Y-53129D01*
G37*
G36*
X87875Y-53268D02*
X88112Y-53505D01*
X88028Y-53588D01*
X87791Y-53352D01*
X87875Y-53268D01*
X87875Y-53268D01*
G37*
G36*
X87736Y-53407D02*
X87972Y-53644D01*
X87889Y-53727D01*
X87652Y-53491D01*
X87736Y-53407D01*
X87736Y-53407D01*
G37*
G36*
X87596Y-53546D02*
X87833Y-53783D01*
X87750Y-53867D01*
X87513Y-53630D01*
X87596Y-53546D01*
X87596Y-53546D01*
G37*
G36*
X87457Y-53686D02*
X87694Y-53922D01*
X87610Y-54006D01*
X87374Y-53769D01*
X87457Y-53686D01*
X87457Y-53686D01*
G37*
G36*
X87318Y-53825D02*
X87555Y-54062D01*
X87471Y-54145D01*
X87235Y-53908D01*
X87318Y-53825D01*
X87318Y-53825D01*
G37*
G36*
X87179Y-53964D02*
X87416Y-54201D01*
X87332Y-54284D01*
X87095Y-54048D01*
X87179Y-53964D01*
X87179Y-53964D01*
G37*
G36*
X87040Y-54103D02*
X87276Y-54340D01*
X87193Y-54423D01*
X86956Y-54187D01*
X87040Y-54103D01*
X87040Y-54103D01*
G37*
G36*
X86901Y-54242D02*
X87137Y-54479D01*
X87054Y-54563D01*
X86817Y-54326D01*
X86901Y-54242D01*
X86901Y-54242D01*
G37*
G36*
X86761Y-54382D02*
X86998Y-54618D01*
X86914Y-54702D01*
X86678Y-54465D01*
X86761Y-54382D01*
X86761Y-54382D01*
G37*
G36*
X86622Y-54521D02*
X86859Y-54757D01*
X86775Y-54841D01*
X86539Y-54604D01*
X86622Y-54521D01*
X86622Y-54521D01*
G37*
G36*
X86483Y-54660D02*
X86720Y-54897D01*
X86636Y-54980D01*
X86399Y-54744D01*
X86483Y-54660D01*
X86483Y-54660D01*
G37*
G36*
X86344Y-54799D02*
X86580Y-55036D01*
X86497Y-55119D01*
X86260Y-54883D01*
X86344Y-54799D01*
X86344Y-54799D01*
G37*
G36*
X86205Y-54938D02*
X86441Y-55175D01*
X86358Y-55259D01*
X86121Y-55022D01*
X86205Y-54938D01*
X86205Y-54938D01*
G37*
G36*
X86065Y-55078D02*
X86302Y-55314D01*
X86218Y-55398D01*
X85982Y-55161D01*
X86065Y-55078D01*
X86065Y-55078D01*
G37*
G36*
X86302Y-55551D02*
X86065Y-55788D01*
X85982Y-55704D01*
X86218Y-55467D01*
X86302Y-55551D01*
X86302Y-55551D01*
G37*
G36*
X86441Y-55690D02*
X86205Y-55927D01*
X86121Y-55843D01*
X86358Y-55607D01*
X86441Y-55690D01*
X86441Y-55690D01*
G37*
G36*
X86580Y-55829D02*
X86344Y-56066D01*
X86260Y-55982D01*
X86497Y-55746D01*
X86580Y-55829D01*
X86580Y-55829D01*
G37*
G36*
X86720Y-55968D02*
X86483Y-56205D01*
X86399Y-56122D01*
X86636Y-55885D01*
X86720Y-55968D01*
X86720Y-55968D01*
G37*
G36*
X86859Y-56108D02*
X86622Y-56344D01*
X86539Y-56261D01*
X86775Y-56024D01*
X86859Y-56108D01*
X86859Y-56108D01*
G37*
G36*
X86998Y-56247D02*
X86761Y-56483D01*
X86678Y-56400D01*
X86914Y-56163D01*
X86998Y-56247D01*
X86998Y-56247D01*
G37*
G36*
X87137Y-56386D02*
X86901Y-56623D01*
X86817Y-56539D01*
X87054Y-56303D01*
X87137Y-56386D01*
X87137Y-56386D01*
G37*
G36*
X87276Y-56525D02*
X87040Y-56762D01*
X86956Y-56678D01*
X87193Y-56442D01*
X87276Y-56525D01*
X87276Y-56525D01*
G37*
G36*
X87416Y-56664D02*
X87179Y-56901D01*
X87095Y-56818D01*
X87332Y-56581D01*
X87416Y-56664D01*
X87416Y-56664D01*
G37*
G36*
X87555Y-56804D02*
X87318Y-57040D01*
X87235Y-56957D01*
X87471Y-56720D01*
X87555Y-56804D01*
X87555Y-56804D01*
G37*
G36*
X87694Y-56943D02*
X87457Y-57179D01*
X87374Y-57096D01*
X87610Y-56859D01*
X87694Y-56943D01*
X87694Y-56943D01*
G37*
G36*
X87833Y-57082D02*
X87596Y-57319D01*
X87513Y-57235D01*
X87750Y-56999D01*
X87833Y-57082D01*
X87833Y-57082D01*
G37*
G36*
X87972Y-57221D02*
X87736Y-57458D01*
X87652Y-57374D01*
X87889Y-57138D01*
X87972Y-57221D01*
X87972Y-57221D01*
G37*
G36*
X88112Y-57360D02*
X87875Y-57597D01*
X87791Y-57514D01*
X88028Y-57277D01*
X88112Y-57360D01*
X88112Y-57360D01*
G37*
G36*
X88251Y-57500D02*
X88014Y-57736D01*
X87931Y-57653D01*
X88167Y-57416D01*
X88251Y-57500D01*
X88251Y-57500D01*
G37*
G36*
X88390Y-57639D02*
X88153Y-57875D01*
X88070Y-57792D01*
X88306Y-57555D01*
X88390Y-57639D01*
X88390Y-57639D01*
G37*
G54D19*
X84020Y-62372D03*
X84020Y-62627D03*
X84020Y-62116D03*
X84020Y-62883D03*
X85379Y-62883D03*
G54D20*
X85379Y-62627D03*
G54D19*
X85379Y-62372D03*
X85379Y-62116D03*
G54D21*
X85083Y-63179D03*
X84827Y-63179D03*
X84572Y-63179D03*
X84316Y-63179D03*
X85083Y-61820D03*
X84572Y-61820D03*
X84827Y-61820D03*
X84316Y-61820D03*
G54D22*
X84700Y-62500D03*
G54D23*
X82448Y-51793D03*
X82448Y-51596D03*
X82448Y-51400D03*
X82448Y-51203D03*
X82448Y-51006D03*
G54D24*
X82753Y-50898D03*
X82950Y-50898D03*
X83146Y-50898D03*
G54D23*
X83451Y-51006D03*
X83451Y-51203D03*
X83451Y-51400D03*
X83451Y-51596D03*
X83451Y-51793D03*
G54D24*
X83146Y-51901D03*
X82753Y-51901D03*
X82950Y-51901D03*
G54D10*
G36*
X84918Y-54461D02*
X85197Y-54183D01*
X85698Y-54684D01*
X85419Y-54963D01*
X84918Y-54461D01*
X84918Y-54461D01*
G37*
G36*
X84222Y-55157D02*
X84501Y-54879D01*
X85002Y-55380D01*
X84724Y-55658D01*
X84222Y-55157D01*
X84222Y-55157D01*
G37*
G54D25*
X85735Y-56560D03*
X84635Y-56560D03*
G54D26*
X84830Y-57770D03*
X84830Y-58870D03*
G54D25*
X81740Y-58610D03*
X82840Y-58610D03*
G54D16*
X87440Y-61790D03*
X87440Y-62540D03*
G54D17*
X81836Y-50740D03*
X81244Y-50740D03*
G54D10*
G36*
X86758Y-57496D02*
X86480Y-57217D01*
X86730Y-56967D01*
X87009Y-57245D01*
X86758Y-57496D01*
X86758Y-57496D01*
G37*
G36*
X86340Y-57914D02*
X86061Y-57636D01*
X86311Y-57385D01*
X86590Y-57664D01*
X86340Y-57914D01*
X86340Y-57914D01*
G37*
G36*
X90012Y-53291D02*
X90291Y-53569D01*
X90041Y-53820D01*
X89762Y-53541D01*
X90012Y-53291D01*
X90012Y-53291D01*
G37*
G36*
X90431Y-52872D02*
X90709Y-53151D01*
X90459Y-53401D01*
X90181Y-53123D01*
X90431Y-52872D01*
X90431Y-52872D01*
G37*
G36*
X86664Y-52633D02*
X86943Y-52354D01*
X87193Y-52605D01*
X86915Y-52883D01*
X86664Y-52633D01*
X86664Y-52633D01*
G37*
G36*
X86246Y-52214D02*
X86524Y-51936D01*
X86775Y-52186D01*
X86496Y-52465D01*
X86246Y-52214D01*
X86246Y-52214D01*
G37*
G36*
X90918Y-54039D02*
X91196Y-54317D01*
X90946Y-54568D01*
X90667Y-54289D01*
X90918Y-54039D01*
X90918Y-54039D01*
G37*
G36*
X91336Y-53620D02*
X91615Y-53899D01*
X91365Y-54149D01*
X91086Y-53871D01*
X91336Y-53620D01*
X91336Y-53620D01*
G37*
G54D17*
X84024Y-51200D03*
X84616Y-51200D03*
G54D18*
X83330Y-52434D03*
X83330Y-53026D03*
G54D17*
X84024Y-50670D03*
X84616Y-50670D03*
X81826Y-51300D03*
X81234Y-51300D03*
G54D10*
G36*
X84551Y-54081D02*
X84829Y-53803D01*
X85080Y-54053D01*
X84801Y-54332D01*
X84551Y-54081D01*
X84551Y-54081D01*
G37*
G36*
X84132Y-53663D02*
X84411Y-53384D01*
X84661Y-53634D01*
X84382Y-53913D01*
X84132Y-53663D01*
X84132Y-53663D01*
G37*
G36*
X90685Y-56796D02*
X90406Y-57075D01*
X90156Y-56824D01*
X90434Y-56546D01*
X90685Y-56796D01*
X90685Y-56796D01*
G37*
G36*
X91103Y-57215D02*
X90825Y-57493D01*
X90574Y-57243D01*
X90853Y-56964D01*
X91103Y-57215D01*
X91103Y-57215D01*
G37*
G54D18*
X82000Y-63204D03*
X82000Y-63796D03*
G54D10*
G36*
X83881Y-54751D02*
X84160Y-54472D01*
X84410Y-54722D01*
X84132Y-55001D01*
X83881Y-54751D01*
X83881Y-54751D01*
G37*
G36*
X83463Y-54332D02*
X83741Y-54053D01*
X83992Y-54304D01*
X83713Y-54582D01*
X83463Y-54332D01*
X83463Y-54332D01*
G37*
G54D18*
X81050Y-58434D03*
X81050Y-59026D03*
G54D17*
X84116Y-57550D03*
X83524Y-57550D03*
X83534Y-59170D03*
X84126Y-59170D03*
G54D18*
X88700Y-62144D03*
X88700Y-62736D03*
G54D10*
G36*
X84551Y-52939D02*
X84829Y-52661D01*
X85080Y-52911D01*
X84801Y-53190D01*
X84551Y-52939D01*
X84551Y-52939D01*
G37*
G36*
X84132Y-52521D02*
X84411Y-52242D01*
X84661Y-52493D01*
X84382Y-52771D01*
X84132Y-52521D01*
X84132Y-52521D01*
G37*
G36*
X85181Y-52270D02*
X85459Y-51992D01*
X85709Y-52242D01*
X85431Y-52521D01*
X85181Y-52270D01*
X85181Y-52270D01*
G37*
G36*
X84762Y-51852D02*
X85041Y-51573D01*
X85291Y-51823D01*
X85012Y-52102D01*
X84762Y-51852D01*
X84762Y-51852D01*
G37*
G54D17*
X82956Y-54330D03*
X82364Y-54330D03*
X92126Y-58110D03*
X91534Y-58110D03*
G54D18*
X83200Y-60696D03*
X83200Y-60104D03*
X83750Y-60696D03*
X83750Y-60104D03*
G54D17*
X83046Y-62200D03*
X82454Y-62200D03*
G54D18*
X82600Y-63204D03*
X82600Y-63796D03*
X83200Y-63204D03*
X83200Y-63796D03*
G54D10*
G36*
X85615Y-53334D02*
X85253Y-53696D01*
X84961Y-53404D01*
X85323Y-53042D01*
X85615Y-53334D01*
X85615Y-53334D01*
G37*
G36*
X86130Y-53849D02*
X85768Y-54211D01*
X85476Y-53919D01*
X85838Y-53557D01*
X86130Y-53849D01*
X86130Y-53849D01*
G37*
G36*
X86255Y-52694D02*
X85893Y-53056D01*
X85601Y-52764D01*
X85963Y-52402D01*
X86255Y-52694D01*
X86255Y-52694D01*
G37*
G36*
X86770Y-53209D02*
X86408Y-53571D01*
X86116Y-53279D01*
X86478Y-52917D01*
X86770Y-53209D01*
X86770Y-53209D01*
G37*
G54D27*
X89291Y-61870D03*
X89291Y-62066D03*
X89291Y-62263D03*
X89291Y-62460D03*
X90000Y-62460D03*
X90000Y-62263D03*
X90000Y-62066D03*
X90000Y-61870D03*
G54D28*
X89645Y-62165D03*
G54D29*
X80561Y-51968D03*
X81643Y-51968D03*
X92765Y-51968D03*
X93848Y-51968D03*
X92765Y-57283D03*
X93848Y-57283D03*
X92765Y-62598D03*
X93848Y-62598D03*
G54D30*
X82363Y-57674D03*
X82167Y-57674D03*
X81970Y-57674D03*
X81773Y-57674D03*
X81576Y-57674D03*
X81379Y-57674D03*
X81182Y-57674D03*
X80986Y-57674D03*
X82363Y-56315D03*
X82167Y-56315D03*
X81970Y-56315D03*
X81773Y-56315D03*
X81576Y-56315D03*
X81379Y-56315D03*
X81182Y-56315D03*
X80986Y-56315D03*
G54D31*
X81675Y-56995D03*
G54D32*
X82550Y-57290D03*
X82550Y-56699D03*
X80799Y-57290D03*
X80799Y-56699D03*
G54D33*
X82496Y-57103D03*
X82496Y-56886D03*
X80853Y-57103D03*
X80853Y-56886D03*
G54D18*
X88105Y-50939D03*
X88105Y-51531D03*
X88690Y-50939D03*
X88690Y-51531D03*
G54D17*
X92446Y-55180D03*
X91854Y-55180D03*
X91864Y-54610D03*
X92456Y-54610D03*
G54D10*
G36*
X93753Y-61645D02*
X93503Y-61699D01*
X93417Y-61899D01*
X93557Y-62114D01*
X93368Y-62303D01*
X93152Y-62166D01*
X93068Y-62221D01*
X92874Y-61780D01*
X92940Y-61728D01*
X93010Y-61643D01*
X93038Y-61536D01*
X93025Y-61450D01*
X92998Y-61371D01*
X92955Y-61319D01*
X92885Y-61276D01*
X92820Y-61248D01*
X92714Y-61255D01*
X92625Y-61285D01*
X92564Y-61337D01*
X92524Y-61404D01*
X92500Y-61481D01*
X92500Y-61551D01*
X92518Y-61615D01*
X92545Y-61673D01*
X92588Y-61722D01*
X92640Y-61765D01*
X92669Y-61783D01*
X92481Y-62210D01*
X92372Y-62166D01*
X92169Y-62300D01*
X91986Y-62114D01*
X92126Y-61902D01*
X92043Y-61705D01*
X91787Y-61651D01*
X91789Y-61387D01*
X92046Y-61330D01*
X92123Y-61142D01*
X91983Y-60924D01*
X92163Y-60729D01*
X92387Y-60875D01*
X92584Y-60807D01*
X92632Y-60539D01*
X92905Y-60541D01*
X92956Y-60810D01*
X93141Y-60881D01*
X93350Y-60729D01*
X93554Y-60924D01*
X93414Y-61148D01*
X93485Y-61330D01*
X93751Y-61387D01*
X93753Y-61645D01*
X93753Y-61645D01*
G37*
G54D34*
X93753Y-61645D02*
X93503Y-61699D01*
X93417Y-61899D01*
X93557Y-62114D01*
X93368Y-62303D01*
X93152Y-62166D01*
X93068Y-62221D01*
X92874Y-61780D01*
X92940Y-61728D01*
X93010Y-61643D01*
X93038Y-61536D01*
X93025Y-61450D01*
X92998Y-61371D01*
X92955Y-61319D01*
X92885Y-61276D01*
X92820Y-61248D01*
X92714Y-61255D01*
X92625Y-61285D01*
X92564Y-61337D01*
X92524Y-61404D01*
X92500Y-61481D01*
X92500Y-61551D01*
X92518Y-61615D01*
X92545Y-61673D01*
X92588Y-61722D01*
X92640Y-61765D01*
X92669Y-61783D01*
X92481Y-62210D01*
X92372Y-62166D01*
X92169Y-62300D01*
X91986Y-62114D01*
X92126Y-61902D01*
X92043Y-61705D01*
X91787Y-61651D01*
X91789Y-61387D01*
X92046Y-61330D01*
X92123Y-61142D01*
X91983Y-60924D01*
X92163Y-60729D01*
X92387Y-60875D01*
X92584Y-60807D01*
X92632Y-60539D01*
X92905Y-60541D01*
X92956Y-60810D01*
X93141Y-60881D01*
X93350Y-60729D01*
X93554Y-60924D01*
X93414Y-61148D01*
X93485Y-61330D01*
X93751Y-61387D01*
X93753Y-61645D01*
M02*
