G04 (created by PCBNEW (2013-07-07 BZR 4022)-stable) date 6/24/2016 5:08:50 PM*
%MOIN*%
G04 Gerber Fmt 3.4, Leading zero omitted, Abs format*
%FSLAX34Y34*%
G01*
G70*
G90*
G04 APERTURE LIST*
%ADD10C,0.00590551*%
%ADD11C,0.014*%
%ADD12C,0.02*%
%ADD13C,0.02*%
%ADD14C,0.015*%
%ADD15C,0.04*%
%ADD16C,0.01*%
%ADD17C,0.025*%
%ADD18C,0.001*%
G04 APERTURE END LIST*
G54D10*
G54D11*
X87260Y-61390D03*
X87670Y-61380D03*
X87408Y-61193D03*
X87660Y-61060D03*
X87230Y-61110D03*
X88775Y-61000D03*
X89890Y-52870D03*
X87715Y-50945D03*
X88430Y-62200D03*
X87160Y-52400D03*
G54D12*
X82880Y-63190D03*
X82300Y-63210D03*
X84900Y-58190D03*
X84600Y-58190D03*
X90730Y-63200D03*
X90300Y-63460D03*
X90300Y-63060D03*
X90730Y-63450D03*
X90500Y-63230D03*
X90700Y-56530D03*
G54D11*
X90669Y-58740D03*
G54D12*
X81170Y-53060D03*
X93800Y-63130D03*
X93800Y-57870D03*
X93810Y-52530D03*
G54D11*
X89073Y-62066D03*
X86968Y-57007D03*
X91141Y-54566D03*
X84540Y-57340D03*
X84300Y-57220D03*
X84050Y-57120D03*
X83830Y-56980D03*
X87900Y-59705D03*
X86245Y-54610D03*
X90005Y-52045D03*
X88395Y-57885D03*
X87204Y-57637D03*
X87480Y-57637D03*
X87755Y-57637D03*
X87795Y-57874D03*
X87795Y-58149D03*
X88858Y-57992D03*
X89094Y-57952D03*
X89330Y-57913D03*
X87110Y-59715D03*
X89080Y-52730D03*
X82760Y-51210D03*
X83720Y-51410D03*
X88580Y-52420D03*
X87295Y-59565D03*
X88290Y-59710D03*
X86335Y-54435D03*
X85265Y-63540D03*
X92135Y-63535D03*
X91405Y-51570D03*
X87840Y-52270D03*
X82100Y-51920D03*
X88915Y-52200D03*
X89690Y-51840D03*
X87750Y-52630D03*
X82760Y-52230D03*
X87470Y-52370D03*
X86160Y-54350D03*
X89815Y-56980D03*
G54D12*
X90520Y-57900D03*
X90700Y-58160D03*
X89820Y-58090D03*
G54D11*
X88440Y-52980D03*
X89030Y-62280D03*
X92210Y-53595D03*
X89920Y-54110D03*
X82950Y-62735D03*
X89725Y-53405D03*
X87660Y-58930D03*
X81380Y-57935D03*
X81185Y-57980D03*
X87550Y-59200D03*
X81340Y-58435D03*
X83440Y-62895D03*
X87880Y-53060D03*
X81520Y-55870D03*
G54D12*
X81710Y-61680D03*
X81060Y-63259D03*
X80680Y-62950D03*
X80700Y-63380D03*
X81130Y-63810D03*
X80750Y-63850D03*
X81625Y-60215D03*
X81535Y-59785D03*
G54D11*
X89120Y-56250D03*
X88460Y-55380D03*
X86680Y-55450D03*
X90175Y-55480D03*
X88440Y-53750D03*
X92805Y-52290D03*
X92665Y-54165D03*
G54D12*
X85170Y-59610D03*
G54D11*
X82970Y-51560D03*
X86460Y-52810D03*
X82770Y-53190D03*
X82360Y-53210D03*
X82390Y-52920D03*
X82390Y-53570D03*
X82780Y-53580D03*
X82760Y-52880D03*
G54D12*
X81600Y-53750D03*
X85050Y-59410D03*
X91090Y-56970D03*
G54D11*
X90157Y-58740D03*
G54D12*
X93810Y-53730D03*
X93850Y-60850D03*
X93830Y-59060D03*
X82460Y-52020D03*
X83730Y-53100D03*
X85010Y-50680D03*
X81160Y-51630D03*
G54D11*
X90354Y-60118D03*
X87440Y-63130D03*
X87680Y-63490D03*
X89640Y-62560D03*
X89360Y-62750D03*
X89580Y-62720D03*
X89150Y-62730D03*
X89560Y-62320D03*
X89710Y-62150D03*
X89570Y-61990D03*
X90413Y-62421D03*
X86045Y-54595D03*
X85944Y-55393D03*
X84881Y-53622D03*
X84251Y-52992D03*
X84921Y-56023D03*
X84527Y-56023D03*
X86535Y-57874D03*
X91614Y-54133D03*
X90236Y-52913D03*
X83149Y-59842D03*
X83010Y-59670D03*
X91653Y-59566D03*
X89055Y-58740D03*
X82060Y-56780D03*
X83858Y-59566D03*
X84055Y-59448D03*
X81670Y-57200D03*
X81670Y-56760D03*
X81270Y-56780D03*
X80584Y-55294D03*
X85780Y-63260D03*
X82460Y-62670D03*
X84700Y-62500D03*
G54D12*
X83035Y-62485D03*
X85400Y-63180D03*
G54D11*
X92590Y-55510D03*
X81875Y-55980D03*
X81970Y-57955D03*
X83010Y-54890D03*
X82740Y-55150D03*
X83030Y-55160D03*
X82710Y-54860D03*
G54D13*
X81130Y-63328D02*
X81130Y-63420D01*
X81060Y-63259D02*
X81130Y-63328D01*
X80700Y-63380D02*
X80700Y-63390D01*
X80750Y-63850D02*
X80760Y-63840D01*
X89030Y-55800D02*
X89030Y-56160D01*
X89030Y-56160D02*
X89120Y-56250D01*
X88680Y-56430D02*
X88680Y-55600D01*
X88680Y-55600D02*
X88460Y-55380D01*
X87180Y-55910D02*
X87140Y-55910D01*
X87140Y-55910D02*
X86680Y-55450D01*
X89700Y-55260D02*
X89955Y-55260D01*
X89955Y-55260D02*
X90175Y-55480D01*
X89000Y-54420D02*
X89000Y-54310D01*
X89000Y-54310D02*
X88440Y-53750D01*
G54D14*
X92660Y-54170D02*
X92660Y-54180D01*
X92665Y-54165D02*
X92660Y-54170D01*
X83350Y-53630D02*
X83210Y-53630D01*
X83210Y-53630D02*
X82770Y-53190D01*
X81890Y-53460D02*
X82110Y-53460D01*
X82110Y-53460D02*
X82360Y-53210D01*
X82030Y-52640D02*
X82110Y-52640D01*
X82110Y-52640D02*
X82390Y-52920D01*
X82180Y-53980D02*
X82180Y-53780D01*
X82180Y-53780D02*
X82390Y-53570D01*
X83140Y-53960D02*
X83140Y-53940D01*
X83140Y-53940D02*
X82780Y-53580D01*
X83080Y-53500D02*
X83080Y-53200D01*
X83080Y-53200D02*
X82760Y-52880D01*
G54D15*
X89570Y-61990D02*
X89570Y-60902D01*
X89570Y-60902D02*
X90354Y-60118D01*
G54D16*
X87260Y-63780D02*
X87260Y-63310D01*
X87260Y-63310D02*
X87440Y-63130D01*
X88650Y-63910D02*
X88100Y-63910D01*
X88100Y-63910D02*
X87680Y-63490D01*
X90000Y-62870D02*
X89950Y-62870D01*
X89950Y-62870D02*
X89640Y-62560D01*
X89340Y-63090D02*
X89340Y-62770D01*
X89340Y-62770D02*
X89360Y-62750D01*
X89740Y-63190D02*
X89740Y-62880D01*
X89740Y-62880D02*
X89580Y-62720D01*
X89220Y-63140D02*
X89220Y-62800D01*
X89220Y-62800D02*
X89150Y-62730D01*
X89420Y-62900D02*
X89420Y-62460D01*
X89420Y-62460D02*
X89560Y-62320D01*
X89850Y-62740D02*
X89850Y-62710D01*
X89710Y-62570D02*
X89710Y-62150D01*
X89850Y-62710D02*
X89710Y-62570D01*
X89460Y-61670D02*
X89460Y-61880D01*
X89460Y-61880D02*
X89570Y-61990D01*
G54D17*
X80629Y-55236D02*
X81968Y-55236D01*
X81968Y-55236D02*
X82362Y-55629D01*
X82362Y-55629D02*
X82362Y-56477D01*
X82362Y-56477D02*
X82060Y-56780D01*
G54D16*
X81500Y-56630D02*
X81420Y-56630D01*
X81420Y-56630D02*
X81270Y-56780D01*
G54D14*
X82460Y-62670D02*
X82470Y-62660D01*
X82470Y-62660D02*
X82500Y-62660D01*
G54D13*
X84710Y-62490D02*
X84720Y-62490D01*
X84700Y-62500D02*
X84710Y-62490D01*
G54D10*
G36*
X84184Y-56568D02*
X83957Y-56825D01*
X82955Y-56825D01*
X82925Y-57768D01*
X82677Y-58045D01*
X82044Y-58057D01*
X82075Y-58025D01*
X82094Y-57979D01*
X82095Y-57930D01*
X82076Y-57884D01*
X82040Y-57849D01*
X81994Y-57830D01*
X81945Y-57829D01*
X81899Y-57848D01*
X81864Y-57884D01*
X81845Y-57930D01*
X81844Y-57979D01*
X81863Y-58025D01*
X81898Y-58060D01*
X81268Y-58073D01*
X81290Y-58050D01*
X81299Y-58030D01*
X81309Y-58040D01*
X81355Y-58059D01*
X81404Y-58060D01*
X81450Y-58041D01*
X81485Y-58005D01*
X81504Y-57959D01*
X81505Y-57910D01*
X81486Y-57864D01*
X81450Y-57829D01*
X81404Y-57810D01*
X81355Y-57809D01*
X81309Y-57828D01*
X81274Y-57864D01*
X81265Y-57884D01*
X81255Y-57874D01*
X81209Y-57855D01*
X81160Y-57854D01*
X81114Y-57873D01*
X81079Y-57909D01*
X81060Y-57955D01*
X81059Y-58004D01*
X81078Y-58050D01*
X81104Y-58076D01*
X80669Y-58085D01*
X80274Y-58085D01*
X80274Y-57610D01*
X80304Y-56114D01*
X80510Y-56074D01*
X81425Y-55952D01*
X81449Y-55975D01*
X81495Y-55994D01*
X81544Y-55995D01*
X81590Y-55976D01*
X81625Y-55940D01*
X81632Y-55924D01*
X81772Y-55906D01*
X81769Y-55909D01*
X81750Y-55955D01*
X81749Y-56004D01*
X81768Y-56050D01*
X81804Y-56085D01*
X81850Y-56104D01*
X81899Y-56105D01*
X81945Y-56086D01*
X81980Y-56050D01*
X81999Y-56004D01*
X82000Y-55955D01*
X81981Y-55909D01*
X81945Y-55874D01*
X81945Y-55873D01*
X82441Y-55455D01*
X83937Y-55455D01*
X84175Y-55692D01*
X84184Y-56568D01*
X84184Y-56568D01*
G37*
G54D18*
X84184Y-56568D02*
X83957Y-56825D01*
X82955Y-56825D01*
X82925Y-57768D01*
X82677Y-58045D01*
X82044Y-58057D01*
X82075Y-58025D01*
X82094Y-57979D01*
X82095Y-57930D01*
X82076Y-57884D01*
X82040Y-57849D01*
X81994Y-57830D01*
X81945Y-57829D01*
X81899Y-57848D01*
X81864Y-57884D01*
X81845Y-57930D01*
X81844Y-57979D01*
X81863Y-58025D01*
X81898Y-58060D01*
X81268Y-58073D01*
X81290Y-58050D01*
X81299Y-58030D01*
X81309Y-58040D01*
X81355Y-58059D01*
X81404Y-58060D01*
X81450Y-58041D01*
X81485Y-58005D01*
X81504Y-57959D01*
X81505Y-57910D01*
X81486Y-57864D01*
X81450Y-57829D01*
X81404Y-57810D01*
X81355Y-57809D01*
X81309Y-57828D01*
X81274Y-57864D01*
X81265Y-57884D01*
X81255Y-57874D01*
X81209Y-57855D01*
X81160Y-57854D01*
X81114Y-57873D01*
X81079Y-57909D01*
X81060Y-57955D01*
X81059Y-58004D01*
X81078Y-58050D01*
X81104Y-58076D01*
X80669Y-58085D01*
X80274Y-58085D01*
X80274Y-57610D01*
X80304Y-56114D01*
X80510Y-56074D01*
X81425Y-55952D01*
X81449Y-55975D01*
X81495Y-55994D01*
X81544Y-55995D01*
X81590Y-55976D01*
X81625Y-55940D01*
X81632Y-55924D01*
X81772Y-55906D01*
X81769Y-55909D01*
X81750Y-55955D01*
X81749Y-56004D01*
X81768Y-56050D01*
X81804Y-56085D01*
X81850Y-56104D01*
X81899Y-56105D01*
X81945Y-56086D01*
X81980Y-56050D01*
X81999Y-56004D01*
X82000Y-55955D01*
X81981Y-55909D01*
X81945Y-55874D01*
X81945Y-55873D01*
X82441Y-55455D01*
X83937Y-55455D01*
X84175Y-55692D01*
X84184Y-56568D01*
G54D10*
G36*
X91315Y-64175D02*
X90935Y-64175D01*
X90935Y-63409D01*
X90903Y-63334D01*
X90894Y-63325D01*
X90903Y-63316D01*
X90934Y-63240D01*
X90935Y-63159D01*
X90903Y-63084D01*
X90846Y-63026D01*
X90770Y-62995D01*
X90689Y-62994D01*
X90614Y-63026D01*
X90593Y-63046D01*
X90540Y-63025D01*
X90505Y-63025D01*
X90505Y-63019D01*
X90473Y-62944D01*
X90416Y-62886D01*
X90340Y-62855D01*
X90259Y-62854D01*
X90184Y-62886D01*
X90126Y-62943D01*
X90095Y-63019D01*
X90094Y-63100D01*
X90126Y-63175D01*
X90183Y-63233D01*
X90247Y-63260D01*
X90184Y-63286D01*
X90126Y-63343D01*
X90095Y-63419D01*
X90094Y-63500D01*
X90126Y-63575D01*
X90183Y-63633D01*
X90259Y-63664D01*
X90340Y-63665D01*
X90415Y-63633D01*
X90473Y-63576D01*
X90504Y-63500D01*
X90505Y-63435D01*
X90525Y-63435D01*
X90524Y-63490D01*
X90556Y-63565D01*
X90613Y-63623D01*
X90689Y-63654D01*
X90770Y-63655D01*
X90845Y-63623D01*
X90903Y-63566D01*
X90934Y-63490D01*
X90935Y-63409D01*
X90935Y-64175D01*
X89248Y-64175D01*
X89248Y-62032D01*
X89221Y-61967D01*
X89172Y-61918D01*
X89108Y-61891D01*
X89038Y-61891D01*
X88974Y-61918D01*
X88924Y-61967D01*
X88898Y-62031D01*
X88898Y-62101D01*
X88916Y-62146D01*
X88881Y-62180D01*
X88855Y-62245D01*
X88854Y-62314D01*
X88881Y-62379D01*
X88930Y-62428D01*
X88995Y-62454D01*
X89064Y-62455D01*
X89129Y-62428D01*
X89178Y-62379D01*
X89204Y-62314D01*
X89205Y-62245D01*
X89186Y-62200D01*
X89221Y-62166D01*
X89248Y-62101D01*
X89248Y-62032D01*
X89248Y-64175D01*
X88605Y-64175D01*
X88605Y-62165D01*
X88578Y-62101D01*
X88529Y-62051D01*
X88464Y-62025D01*
X88395Y-62024D01*
X88331Y-62051D01*
X88281Y-62100D01*
X88255Y-62165D01*
X88254Y-62234D01*
X88281Y-62299D01*
X88330Y-62348D01*
X88395Y-62374D01*
X88464Y-62375D01*
X88529Y-62348D01*
X88578Y-62299D01*
X88604Y-62234D01*
X88605Y-62165D01*
X88605Y-64175D01*
X87064Y-64175D01*
X87055Y-61455D01*
X87097Y-61455D01*
X87111Y-61489D01*
X87160Y-61538D01*
X87225Y-61564D01*
X87294Y-61565D01*
X87359Y-61538D01*
X87408Y-61489D01*
X87422Y-61455D01*
X87512Y-61456D01*
X87521Y-61479D01*
X87570Y-61528D01*
X87635Y-61554D01*
X87704Y-61555D01*
X87769Y-61528D01*
X87818Y-61479D01*
X87827Y-61456D01*
X91315Y-61464D01*
X91315Y-64175D01*
X91315Y-64175D01*
G37*
G54D18*
X91315Y-64175D02*
X90935Y-64175D01*
X90935Y-63409D01*
X90903Y-63334D01*
X90894Y-63325D01*
X90903Y-63316D01*
X90934Y-63240D01*
X90935Y-63159D01*
X90903Y-63084D01*
X90846Y-63026D01*
X90770Y-62995D01*
X90689Y-62994D01*
X90614Y-63026D01*
X90593Y-63046D01*
X90540Y-63025D01*
X90505Y-63025D01*
X90505Y-63019D01*
X90473Y-62944D01*
X90416Y-62886D01*
X90340Y-62855D01*
X90259Y-62854D01*
X90184Y-62886D01*
X90126Y-62943D01*
X90095Y-63019D01*
X90094Y-63100D01*
X90126Y-63175D01*
X90183Y-63233D01*
X90247Y-63260D01*
X90184Y-63286D01*
X90126Y-63343D01*
X90095Y-63419D01*
X90094Y-63500D01*
X90126Y-63575D01*
X90183Y-63633D01*
X90259Y-63664D01*
X90340Y-63665D01*
X90415Y-63633D01*
X90473Y-63576D01*
X90504Y-63500D01*
X90505Y-63435D01*
X90525Y-63435D01*
X90524Y-63490D01*
X90556Y-63565D01*
X90613Y-63623D01*
X90689Y-63654D01*
X90770Y-63655D01*
X90845Y-63623D01*
X90903Y-63566D01*
X90934Y-63490D01*
X90935Y-63409D01*
X90935Y-64175D01*
X89248Y-64175D01*
X89248Y-62032D01*
X89221Y-61967D01*
X89172Y-61918D01*
X89108Y-61891D01*
X89038Y-61891D01*
X88974Y-61918D01*
X88924Y-61967D01*
X88898Y-62031D01*
X88898Y-62101D01*
X88916Y-62146D01*
X88881Y-62180D01*
X88855Y-62245D01*
X88854Y-62314D01*
X88881Y-62379D01*
X88930Y-62428D01*
X88995Y-62454D01*
X89064Y-62455D01*
X89129Y-62428D01*
X89178Y-62379D01*
X89204Y-62314D01*
X89205Y-62245D01*
X89186Y-62200D01*
X89221Y-62166D01*
X89248Y-62101D01*
X89248Y-62032D01*
X89248Y-64175D01*
X88605Y-64175D01*
X88605Y-62165D01*
X88578Y-62101D01*
X88529Y-62051D01*
X88464Y-62025D01*
X88395Y-62024D01*
X88331Y-62051D01*
X88281Y-62100D01*
X88255Y-62165D01*
X88254Y-62234D01*
X88281Y-62299D01*
X88330Y-62348D01*
X88395Y-62374D01*
X88464Y-62375D01*
X88529Y-62348D01*
X88578Y-62299D01*
X88604Y-62234D01*
X88605Y-62165D01*
X88605Y-64175D01*
X87064Y-64175D01*
X87055Y-61455D01*
X87097Y-61455D01*
X87111Y-61489D01*
X87160Y-61538D01*
X87225Y-61564D01*
X87294Y-61565D01*
X87359Y-61538D01*
X87408Y-61489D01*
X87422Y-61455D01*
X87512Y-61456D01*
X87521Y-61479D01*
X87570Y-61528D01*
X87635Y-61554D01*
X87704Y-61555D01*
X87769Y-61528D01*
X87818Y-61479D01*
X87827Y-61456D01*
X91315Y-61464D01*
X91315Y-64175D01*
G54D10*
G36*
X94075Y-64165D02*
X94005Y-64165D01*
X94005Y-63089D01*
X93973Y-63014D01*
X93916Y-62956D01*
X93840Y-62925D01*
X93759Y-62924D01*
X93684Y-62956D01*
X93626Y-63013D01*
X93595Y-63089D01*
X93594Y-63170D01*
X93626Y-63245D01*
X93683Y-63303D01*
X93759Y-63334D01*
X93840Y-63335D01*
X93915Y-63303D01*
X93973Y-63246D01*
X94004Y-63170D01*
X94005Y-63089D01*
X94005Y-64165D01*
X93018Y-64169D01*
X93018Y-62548D01*
X93018Y-57233D01*
X93018Y-51918D01*
X92980Y-51825D01*
X92909Y-51754D01*
X92816Y-51715D01*
X92715Y-51715D01*
X92622Y-51754D01*
X92551Y-51825D01*
X92513Y-51918D01*
X92513Y-52018D01*
X92551Y-52111D01*
X92622Y-52182D01*
X92715Y-52221D01*
X92815Y-52221D01*
X92908Y-52182D01*
X92979Y-52111D01*
X93018Y-52018D01*
X93018Y-51918D01*
X93018Y-57233D01*
X92980Y-57140D01*
X92909Y-57069D01*
X92816Y-57030D01*
X92765Y-57030D01*
X92765Y-55475D01*
X92738Y-55411D01*
X92689Y-55361D01*
X92624Y-55335D01*
X92555Y-55334D01*
X92491Y-55361D01*
X92441Y-55410D01*
X92415Y-55475D01*
X92414Y-55544D01*
X92441Y-55609D01*
X92490Y-55658D01*
X92555Y-55684D01*
X92624Y-55685D01*
X92689Y-55658D01*
X92738Y-55609D01*
X92764Y-55544D01*
X92765Y-55475D01*
X92765Y-57030D01*
X92715Y-57030D01*
X92622Y-57069D01*
X92551Y-57140D01*
X92513Y-57232D01*
X92513Y-57333D01*
X92551Y-57426D01*
X92622Y-57497D01*
X92715Y-57536D01*
X92815Y-57536D01*
X92908Y-57497D01*
X92979Y-57426D01*
X93018Y-57333D01*
X93018Y-57233D01*
X93018Y-62548D01*
X92980Y-62455D01*
X92909Y-62384D01*
X92816Y-62345D01*
X92715Y-62345D01*
X92622Y-62384D01*
X92551Y-62455D01*
X92513Y-62547D01*
X92513Y-62648D01*
X92551Y-62741D01*
X92622Y-62812D01*
X92715Y-62851D01*
X92815Y-62851D01*
X92908Y-62812D01*
X92979Y-62741D01*
X93018Y-62648D01*
X93018Y-62548D01*
X93018Y-64169D01*
X92385Y-64171D01*
X92385Y-53560D01*
X92358Y-53496D01*
X92309Y-53446D01*
X92244Y-53420D01*
X92175Y-53419D01*
X92111Y-53446D01*
X92061Y-53495D01*
X92035Y-53560D01*
X92034Y-53629D01*
X92061Y-53694D01*
X92110Y-53743D01*
X92175Y-53769D01*
X92244Y-53770D01*
X92309Y-53743D01*
X92358Y-53694D01*
X92384Y-53629D01*
X92385Y-53560D01*
X92385Y-64171D01*
X92310Y-64172D01*
X92310Y-63500D01*
X92283Y-63436D01*
X92234Y-63386D01*
X92169Y-63360D01*
X92100Y-63359D01*
X92036Y-63386D01*
X91986Y-63435D01*
X91960Y-63500D01*
X91959Y-63569D01*
X91986Y-63634D01*
X92035Y-63683D01*
X92100Y-63709D01*
X92169Y-63710D01*
X92234Y-63683D01*
X92283Y-63634D01*
X92309Y-63569D01*
X92310Y-63500D01*
X92310Y-64172D01*
X91594Y-64174D01*
X91584Y-61125D01*
X91580Y-61125D01*
X91580Y-51535D01*
X91553Y-51471D01*
X91504Y-51421D01*
X91439Y-51395D01*
X91370Y-51394D01*
X91306Y-51421D01*
X91256Y-51470D01*
X91230Y-51535D01*
X91229Y-51604D01*
X91256Y-51669D01*
X91305Y-51718D01*
X91370Y-51744D01*
X91439Y-51745D01*
X91504Y-51718D01*
X91553Y-51669D01*
X91579Y-51604D01*
X91580Y-51535D01*
X91580Y-61125D01*
X91316Y-61125D01*
X91316Y-54532D01*
X91290Y-54467D01*
X91240Y-54418D01*
X91176Y-54391D01*
X91107Y-54391D01*
X91042Y-54418D01*
X90993Y-54467D01*
X90966Y-54531D01*
X90966Y-54601D01*
X90993Y-54665D01*
X91042Y-54715D01*
X91106Y-54741D01*
X91176Y-54741D01*
X91240Y-54715D01*
X91290Y-54666D01*
X91316Y-54601D01*
X91316Y-54532D01*
X91316Y-61125D01*
X90905Y-61125D01*
X90905Y-58119D01*
X90905Y-56489D01*
X90873Y-56414D01*
X90816Y-56356D01*
X90740Y-56325D01*
X90659Y-56324D01*
X90584Y-56356D01*
X90526Y-56413D01*
X90495Y-56489D01*
X90494Y-56570D01*
X90526Y-56645D01*
X90583Y-56703D01*
X90659Y-56734D01*
X90740Y-56735D01*
X90815Y-56703D01*
X90873Y-56646D01*
X90904Y-56570D01*
X90905Y-56489D01*
X90905Y-58119D01*
X90873Y-58044D01*
X90816Y-57986D01*
X90740Y-57955D01*
X90719Y-57955D01*
X90724Y-57940D01*
X90725Y-57859D01*
X90693Y-57784D01*
X90636Y-57726D01*
X90560Y-57695D01*
X90479Y-57694D01*
X90404Y-57726D01*
X90346Y-57783D01*
X90315Y-57859D01*
X90314Y-57940D01*
X90346Y-58015D01*
X90403Y-58073D01*
X90479Y-58104D01*
X90500Y-58104D01*
X90495Y-58119D01*
X90494Y-58200D01*
X90526Y-58275D01*
X90583Y-58333D01*
X90659Y-58364D01*
X90740Y-58365D01*
X90815Y-58333D01*
X90873Y-58276D01*
X90904Y-58200D01*
X90905Y-58119D01*
X90905Y-61125D01*
X90844Y-61125D01*
X90844Y-58705D01*
X90817Y-58641D01*
X90768Y-58591D01*
X90704Y-58565D01*
X90634Y-58565D01*
X90570Y-58591D01*
X90521Y-58640D01*
X90494Y-58705D01*
X90494Y-58774D01*
X90520Y-58839D01*
X90570Y-58888D01*
X90634Y-58915D01*
X90703Y-58915D01*
X90768Y-58888D01*
X90817Y-58839D01*
X90844Y-58775D01*
X90844Y-58705D01*
X90844Y-61125D01*
X90180Y-61125D01*
X90180Y-52010D01*
X90153Y-51946D01*
X90104Y-51896D01*
X90039Y-51870D01*
X89970Y-51869D01*
X89906Y-51896D01*
X89865Y-51937D01*
X89865Y-51805D01*
X89838Y-51741D01*
X89789Y-51691D01*
X89724Y-51665D01*
X89655Y-51664D01*
X89591Y-51691D01*
X89541Y-51740D01*
X89515Y-51805D01*
X89514Y-51874D01*
X89541Y-51939D01*
X89590Y-51988D01*
X89655Y-52014D01*
X89724Y-52015D01*
X89789Y-51988D01*
X89838Y-51939D01*
X89864Y-51874D01*
X89865Y-51805D01*
X89865Y-51937D01*
X89856Y-51945D01*
X89830Y-52010D01*
X89829Y-52079D01*
X89856Y-52144D01*
X89905Y-52193D01*
X89970Y-52219D01*
X90039Y-52220D01*
X90104Y-52193D01*
X90153Y-52144D01*
X90179Y-52079D01*
X90180Y-52010D01*
X90180Y-61125D01*
X90095Y-61125D01*
X90095Y-54075D01*
X90068Y-54011D01*
X90065Y-54007D01*
X90065Y-52835D01*
X90038Y-52771D01*
X89989Y-52721D01*
X89924Y-52695D01*
X89855Y-52694D01*
X89791Y-52721D01*
X89741Y-52770D01*
X89715Y-52835D01*
X89714Y-52904D01*
X89741Y-52969D01*
X89790Y-53018D01*
X89855Y-53044D01*
X89924Y-53045D01*
X89989Y-53018D01*
X90038Y-52969D01*
X90064Y-52904D01*
X90065Y-52835D01*
X90065Y-54007D01*
X90019Y-53961D01*
X89954Y-53935D01*
X89900Y-53934D01*
X89900Y-53370D01*
X89873Y-53306D01*
X89824Y-53256D01*
X89759Y-53230D01*
X89690Y-53229D01*
X89626Y-53256D01*
X89576Y-53305D01*
X89550Y-53370D01*
X89549Y-53439D01*
X89576Y-53504D01*
X89625Y-53553D01*
X89690Y-53579D01*
X89759Y-53580D01*
X89824Y-53553D01*
X89873Y-53504D01*
X89899Y-53439D01*
X89900Y-53370D01*
X89900Y-53934D01*
X89885Y-53934D01*
X89821Y-53961D01*
X89771Y-54010D01*
X89745Y-54075D01*
X89744Y-54144D01*
X89771Y-54209D01*
X89820Y-54258D01*
X89885Y-54284D01*
X89954Y-54285D01*
X90019Y-54258D01*
X90068Y-54209D01*
X90094Y-54144D01*
X90095Y-54075D01*
X90095Y-61125D01*
X90025Y-61125D01*
X90025Y-58049D01*
X89993Y-57974D01*
X89990Y-57970D01*
X89990Y-56945D01*
X89963Y-56881D01*
X89914Y-56831D01*
X89849Y-56805D01*
X89780Y-56804D01*
X89716Y-56831D01*
X89666Y-56880D01*
X89640Y-56945D01*
X89639Y-57014D01*
X89666Y-57079D01*
X89715Y-57128D01*
X89780Y-57154D01*
X89849Y-57155D01*
X89914Y-57128D01*
X89963Y-57079D01*
X89989Y-57014D01*
X89990Y-56945D01*
X89990Y-57970D01*
X89936Y-57916D01*
X89860Y-57885D01*
X89779Y-57884D01*
X89704Y-57916D01*
X89646Y-57973D01*
X89615Y-58049D01*
X89614Y-58130D01*
X89646Y-58205D01*
X89703Y-58263D01*
X89779Y-58294D01*
X89860Y-58295D01*
X89935Y-58263D01*
X89993Y-58206D01*
X90024Y-58130D01*
X90025Y-58049D01*
X90025Y-61125D01*
X89505Y-61125D01*
X89505Y-57878D01*
X89479Y-57814D01*
X89429Y-57765D01*
X89365Y-57738D01*
X89296Y-57738D01*
X89255Y-57755D01*
X89255Y-52695D01*
X89228Y-52631D01*
X89179Y-52581D01*
X89114Y-52555D01*
X89090Y-52555D01*
X89090Y-52165D01*
X89063Y-52101D01*
X89014Y-52051D01*
X88949Y-52025D01*
X88880Y-52024D01*
X88816Y-52051D01*
X88766Y-52100D01*
X88740Y-52165D01*
X88739Y-52234D01*
X88766Y-52299D01*
X88815Y-52348D01*
X88880Y-52374D01*
X88949Y-52375D01*
X89014Y-52348D01*
X89063Y-52299D01*
X89089Y-52234D01*
X89090Y-52165D01*
X89090Y-52555D01*
X89045Y-52554D01*
X88981Y-52581D01*
X88931Y-52630D01*
X88905Y-52695D01*
X88904Y-52764D01*
X88931Y-52829D01*
X88980Y-52878D01*
X89045Y-52904D01*
X89114Y-52905D01*
X89179Y-52878D01*
X89228Y-52829D01*
X89254Y-52764D01*
X89255Y-52695D01*
X89255Y-57755D01*
X89231Y-57764D01*
X89192Y-57804D01*
X89129Y-57777D01*
X89059Y-57777D01*
X88995Y-57804D01*
X88956Y-57843D01*
X88893Y-57817D01*
X88823Y-57817D01*
X88759Y-57843D01*
X88755Y-57847D01*
X88755Y-52385D01*
X88728Y-52321D01*
X88679Y-52271D01*
X88614Y-52245D01*
X88545Y-52244D01*
X88481Y-52271D01*
X88431Y-52320D01*
X88405Y-52385D01*
X88404Y-52454D01*
X88431Y-52519D01*
X88480Y-52568D01*
X88545Y-52594D01*
X88614Y-52595D01*
X88679Y-52568D01*
X88728Y-52519D01*
X88754Y-52454D01*
X88755Y-52385D01*
X88755Y-57847D01*
X88709Y-57892D01*
X88683Y-57957D01*
X88683Y-58026D01*
X88709Y-58091D01*
X88759Y-58140D01*
X88823Y-58167D01*
X88892Y-58167D01*
X88957Y-58140D01*
X88996Y-58101D01*
X89059Y-58127D01*
X89129Y-58127D01*
X89193Y-58101D01*
X89232Y-58062D01*
X89295Y-58088D01*
X89365Y-58088D01*
X89429Y-58061D01*
X89478Y-58012D01*
X89505Y-57948D01*
X89505Y-57878D01*
X89505Y-61125D01*
X88897Y-61125D01*
X88923Y-61099D01*
X88949Y-61034D01*
X88950Y-60965D01*
X88923Y-60901D01*
X88874Y-60851D01*
X88809Y-60825D01*
X88740Y-60824D01*
X88676Y-60851D01*
X88626Y-60900D01*
X88615Y-60928D01*
X88615Y-52945D01*
X88588Y-52881D01*
X88539Y-52831D01*
X88474Y-52805D01*
X88405Y-52804D01*
X88341Y-52831D01*
X88291Y-52880D01*
X88265Y-52945D01*
X88264Y-53014D01*
X88291Y-53079D01*
X88340Y-53128D01*
X88405Y-53154D01*
X88474Y-53155D01*
X88539Y-53128D01*
X88588Y-53079D01*
X88614Y-53014D01*
X88615Y-52945D01*
X88615Y-60928D01*
X88600Y-60965D01*
X88599Y-61034D01*
X88626Y-61099D01*
X88652Y-61125D01*
X88570Y-61125D01*
X88570Y-57850D01*
X88543Y-57786D01*
X88494Y-57736D01*
X88429Y-57710D01*
X88360Y-57709D01*
X88296Y-57736D01*
X88246Y-57785D01*
X88220Y-57850D01*
X88219Y-57919D01*
X88246Y-57984D01*
X88295Y-58033D01*
X88360Y-58059D01*
X88429Y-58060D01*
X88494Y-58033D01*
X88543Y-57984D01*
X88569Y-57919D01*
X88570Y-57850D01*
X88570Y-61125D01*
X88465Y-61125D01*
X88465Y-59675D01*
X88438Y-59611D01*
X88389Y-59561D01*
X88324Y-59535D01*
X88255Y-59534D01*
X88191Y-59561D01*
X88141Y-59610D01*
X88115Y-59675D01*
X88114Y-59744D01*
X88141Y-59809D01*
X88190Y-59858D01*
X88255Y-59884D01*
X88324Y-59885D01*
X88389Y-59858D01*
X88438Y-59809D01*
X88464Y-59744D01*
X88465Y-59675D01*
X88465Y-61125D01*
X88075Y-61125D01*
X88075Y-59670D01*
X88055Y-59621D01*
X88055Y-53025D01*
X88028Y-52961D01*
X88015Y-52947D01*
X88015Y-52235D01*
X87988Y-52171D01*
X87939Y-52121D01*
X87890Y-52101D01*
X87890Y-50910D01*
X87863Y-50846D01*
X87814Y-50796D01*
X87749Y-50770D01*
X87680Y-50769D01*
X87616Y-50796D01*
X87566Y-50845D01*
X87540Y-50910D01*
X87539Y-50979D01*
X87566Y-51044D01*
X87615Y-51093D01*
X87680Y-51119D01*
X87749Y-51120D01*
X87814Y-51093D01*
X87863Y-51044D01*
X87889Y-50979D01*
X87890Y-50910D01*
X87890Y-52101D01*
X87874Y-52095D01*
X87805Y-52094D01*
X87741Y-52121D01*
X87691Y-52170D01*
X87665Y-52235D01*
X87664Y-52304D01*
X87691Y-52369D01*
X87740Y-52418D01*
X87805Y-52444D01*
X87874Y-52445D01*
X87939Y-52418D01*
X87988Y-52369D01*
X88014Y-52304D01*
X88015Y-52235D01*
X88015Y-52947D01*
X87979Y-52911D01*
X87925Y-52889D01*
X87925Y-52595D01*
X87898Y-52531D01*
X87849Y-52481D01*
X87784Y-52455D01*
X87715Y-52454D01*
X87651Y-52481D01*
X87645Y-52487D01*
X87645Y-52335D01*
X87618Y-52271D01*
X87569Y-52221D01*
X87504Y-52195D01*
X87435Y-52194D01*
X87371Y-52221D01*
X87321Y-52270D01*
X87308Y-52301D01*
X87308Y-52301D01*
X87259Y-52251D01*
X87194Y-52225D01*
X87125Y-52224D01*
X87061Y-52251D01*
X87011Y-52300D01*
X86985Y-52365D01*
X86984Y-52434D01*
X87011Y-52499D01*
X87060Y-52548D01*
X87125Y-52574D01*
X87194Y-52575D01*
X87259Y-52548D01*
X87308Y-52499D01*
X87321Y-52468D01*
X87321Y-52469D01*
X87370Y-52518D01*
X87435Y-52544D01*
X87504Y-52545D01*
X87569Y-52518D01*
X87618Y-52469D01*
X87644Y-52404D01*
X87645Y-52335D01*
X87645Y-52487D01*
X87601Y-52530D01*
X87575Y-52595D01*
X87574Y-52664D01*
X87601Y-52729D01*
X87650Y-52778D01*
X87715Y-52804D01*
X87784Y-52805D01*
X87849Y-52778D01*
X87898Y-52729D01*
X87924Y-52664D01*
X87925Y-52595D01*
X87925Y-52889D01*
X87914Y-52885D01*
X87845Y-52884D01*
X87781Y-52911D01*
X87731Y-52960D01*
X87705Y-53025D01*
X87704Y-53094D01*
X87731Y-53159D01*
X87780Y-53208D01*
X87845Y-53234D01*
X87914Y-53235D01*
X87979Y-53208D01*
X88028Y-53159D01*
X88054Y-53094D01*
X88055Y-53025D01*
X88055Y-59621D01*
X88048Y-59606D01*
X87999Y-59556D01*
X87970Y-59544D01*
X87970Y-58114D01*
X87943Y-58050D01*
X87904Y-58011D01*
X87943Y-57973D01*
X87970Y-57908D01*
X87970Y-57839D01*
X87943Y-57775D01*
X87904Y-57735D01*
X87930Y-57672D01*
X87930Y-57603D01*
X87904Y-57538D01*
X87855Y-57489D01*
X87790Y-57462D01*
X87721Y-57462D01*
X87656Y-57489D01*
X87618Y-57528D01*
X87579Y-57489D01*
X87515Y-57462D01*
X87445Y-57462D01*
X87381Y-57489D01*
X87342Y-57528D01*
X87303Y-57489D01*
X87239Y-57462D01*
X87170Y-57462D01*
X87143Y-57473D01*
X87143Y-56973D01*
X87116Y-56908D01*
X87067Y-56859D01*
X87003Y-56832D01*
X86933Y-56832D01*
X86869Y-56859D01*
X86820Y-56908D01*
X86793Y-56972D01*
X86793Y-57042D01*
X86820Y-57106D01*
X86869Y-57156D01*
X86933Y-57182D01*
X87003Y-57182D01*
X87067Y-57156D01*
X87116Y-57107D01*
X87143Y-57042D01*
X87143Y-56973D01*
X87143Y-57473D01*
X87105Y-57489D01*
X87056Y-57538D01*
X87029Y-57602D01*
X87029Y-57672D01*
X87056Y-57736D01*
X87105Y-57786D01*
X87169Y-57812D01*
X87239Y-57812D01*
X87303Y-57786D01*
X87342Y-57747D01*
X87381Y-57786D01*
X87445Y-57812D01*
X87514Y-57812D01*
X87579Y-57786D01*
X87618Y-57747D01*
X87646Y-57775D01*
X87620Y-57839D01*
X87620Y-57908D01*
X87646Y-57973D01*
X87685Y-58011D01*
X87647Y-58050D01*
X87620Y-58114D01*
X87620Y-58184D01*
X87646Y-58248D01*
X87696Y-58297D01*
X87760Y-58324D01*
X87829Y-58324D01*
X87894Y-58298D01*
X87943Y-58248D01*
X87970Y-58184D01*
X87970Y-58114D01*
X87970Y-59544D01*
X87934Y-59530D01*
X87865Y-59529D01*
X87835Y-59542D01*
X87835Y-58895D01*
X87808Y-58831D01*
X87759Y-58781D01*
X87694Y-58755D01*
X87625Y-58754D01*
X87561Y-58781D01*
X87511Y-58830D01*
X87485Y-58895D01*
X87484Y-58964D01*
X87510Y-59026D01*
X87451Y-59051D01*
X87401Y-59100D01*
X87375Y-59165D01*
X87374Y-59234D01*
X87401Y-59299D01*
X87450Y-59348D01*
X87515Y-59374D01*
X87584Y-59375D01*
X87649Y-59348D01*
X87698Y-59299D01*
X87724Y-59234D01*
X87725Y-59165D01*
X87699Y-59103D01*
X87759Y-59078D01*
X87808Y-59029D01*
X87834Y-58964D01*
X87835Y-58895D01*
X87835Y-59542D01*
X87801Y-59556D01*
X87751Y-59605D01*
X87725Y-59670D01*
X87724Y-59739D01*
X87751Y-59804D01*
X87800Y-59853D01*
X87865Y-59879D01*
X87934Y-59880D01*
X87999Y-59853D01*
X88048Y-59804D01*
X88074Y-59739D01*
X88075Y-59670D01*
X88075Y-61125D01*
X87822Y-61125D01*
X87834Y-61094D01*
X87835Y-61025D01*
X87808Y-60961D01*
X87759Y-60911D01*
X87694Y-60885D01*
X87625Y-60884D01*
X87561Y-60911D01*
X87511Y-60960D01*
X87485Y-61025D01*
X87485Y-61035D01*
X87470Y-61029D01*
X87470Y-59530D01*
X87443Y-59466D01*
X87394Y-59416D01*
X87329Y-59390D01*
X87260Y-59389D01*
X87196Y-59416D01*
X87146Y-59465D01*
X87120Y-59530D01*
X87120Y-59540D01*
X87075Y-59539D01*
X87011Y-59566D01*
X86961Y-59615D01*
X86935Y-59680D01*
X86934Y-59749D01*
X86961Y-59814D01*
X87010Y-59863D01*
X87075Y-59889D01*
X87144Y-59890D01*
X87209Y-59863D01*
X87258Y-59814D01*
X87284Y-59749D01*
X87284Y-59739D01*
X87329Y-59740D01*
X87394Y-59713D01*
X87443Y-59664D01*
X87469Y-59599D01*
X87470Y-59530D01*
X87470Y-61029D01*
X87443Y-61018D01*
X87381Y-61018D01*
X87378Y-61011D01*
X87329Y-60961D01*
X87264Y-60935D01*
X87195Y-60934D01*
X87131Y-60961D01*
X87081Y-61010D01*
X87055Y-61075D01*
X87054Y-61125D01*
X86694Y-61125D01*
X86714Y-64164D01*
X86510Y-64164D01*
X86510Y-54400D01*
X86483Y-54336D01*
X86434Y-54286D01*
X86369Y-54260D01*
X86312Y-54259D01*
X86308Y-54251D01*
X86259Y-54201D01*
X86194Y-54175D01*
X86125Y-54174D01*
X86061Y-54201D01*
X86011Y-54250D01*
X85985Y-54315D01*
X85984Y-54384D01*
X86011Y-54449D01*
X86060Y-54498D01*
X86095Y-54512D01*
X86070Y-54575D01*
X86069Y-54644D01*
X86096Y-54709D01*
X86145Y-54758D01*
X86210Y-54784D01*
X86279Y-54785D01*
X86344Y-54758D01*
X86393Y-54709D01*
X86419Y-54644D01*
X86420Y-54589D01*
X86434Y-54583D01*
X86483Y-54534D01*
X86509Y-54469D01*
X86510Y-54400D01*
X86510Y-64164D01*
X85605Y-64163D01*
X85605Y-63139D01*
X85573Y-63064D01*
X85516Y-63006D01*
X85440Y-62975D01*
X85359Y-62974D01*
X85284Y-63006D01*
X85226Y-63063D01*
X85195Y-63139D01*
X85194Y-63220D01*
X85226Y-63295D01*
X85283Y-63353D01*
X85359Y-63384D01*
X85440Y-63385D01*
X85515Y-63353D01*
X85573Y-63296D01*
X85604Y-63220D01*
X85605Y-63139D01*
X85605Y-64163D01*
X85440Y-64163D01*
X85440Y-63505D01*
X85413Y-63441D01*
X85364Y-63391D01*
X85299Y-63365D01*
X85230Y-63364D01*
X85166Y-63391D01*
X85116Y-63440D01*
X85105Y-63468D01*
X85105Y-58149D01*
X85073Y-58074D01*
X85016Y-58016D01*
X84940Y-57985D01*
X84859Y-57984D01*
X84784Y-58016D01*
X84749Y-58050D01*
X84716Y-58016D01*
X84640Y-57985D01*
X84559Y-57984D01*
X84484Y-58016D01*
X84426Y-58073D01*
X84395Y-58149D01*
X84394Y-58230D01*
X84426Y-58305D01*
X84483Y-58363D01*
X84559Y-58394D01*
X84640Y-58395D01*
X84715Y-58363D01*
X84750Y-58329D01*
X84783Y-58363D01*
X84859Y-58394D01*
X84940Y-58395D01*
X85015Y-58363D01*
X85073Y-58306D01*
X85104Y-58230D01*
X85105Y-58149D01*
X85105Y-63468D01*
X85090Y-63505D01*
X85089Y-63574D01*
X85116Y-63639D01*
X85165Y-63688D01*
X85230Y-63714D01*
X85299Y-63715D01*
X85364Y-63688D01*
X85413Y-63639D01*
X85439Y-63574D01*
X85440Y-63505D01*
X85440Y-64163D01*
X83615Y-64160D01*
X83615Y-62860D01*
X83588Y-62796D01*
X83539Y-62746D01*
X83474Y-62720D01*
X83405Y-62719D01*
X83341Y-62746D01*
X83291Y-62795D01*
X83265Y-62860D01*
X83264Y-62929D01*
X83291Y-62994D01*
X83340Y-63043D01*
X83405Y-63069D01*
X83474Y-63070D01*
X83539Y-63043D01*
X83588Y-62994D01*
X83614Y-62929D01*
X83615Y-62860D01*
X83615Y-64160D01*
X83240Y-64159D01*
X83240Y-62444D01*
X83208Y-62369D01*
X83151Y-62311D01*
X83075Y-62280D01*
X82994Y-62279D01*
X82919Y-62311D01*
X82861Y-62368D01*
X82830Y-62444D01*
X82829Y-62525D01*
X82854Y-62585D01*
X82851Y-62586D01*
X82801Y-62635D01*
X82775Y-62700D01*
X82774Y-62769D01*
X82801Y-62834D01*
X82850Y-62883D01*
X82915Y-62909D01*
X82984Y-62910D01*
X83049Y-62883D01*
X83098Y-62834D01*
X83124Y-62769D01*
X83125Y-62700D01*
X83114Y-62674D01*
X83150Y-62658D01*
X83208Y-62601D01*
X83239Y-62525D01*
X83240Y-62444D01*
X83240Y-64159D01*
X83085Y-64159D01*
X83085Y-63149D01*
X83053Y-63074D01*
X82996Y-63016D01*
X82920Y-62985D01*
X82839Y-62984D01*
X82764Y-63016D01*
X82706Y-63073D01*
X82675Y-63149D01*
X82674Y-63230D01*
X82706Y-63305D01*
X82763Y-63363D01*
X82839Y-63394D01*
X82920Y-63395D01*
X82995Y-63363D01*
X83053Y-63306D01*
X83084Y-63230D01*
X83085Y-63149D01*
X83085Y-64159D01*
X82505Y-64158D01*
X82505Y-63169D01*
X82473Y-63094D01*
X82416Y-63036D01*
X82340Y-63005D01*
X82259Y-63004D01*
X82184Y-63036D01*
X82126Y-63093D01*
X82095Y-63169D01*
X82094Y-63250D01*
X82126Y-63325D01*
X82183Y-63383D01*
X82259Y-63414D01*
X82340Y-63415D01*
X82415Y-63383D01*
X82473Y-63326D01*
X82504Y-63250D01*
X82505Y-63169D01*
X82505Y-64158D01*
X80324Y-64155D01*
X80324Y-58374D01*
X81178Y-58368D01*
X81165Y-58400D01*
X81164Y-58469D01*
X81191Y-58534D01*
X81240Y-58583D01*
X81305Y-58609D01*
X81374Y-58610D01*
X81439Y-58583D01*
X81488Y-58534D01*
X81514Y-58469D01*
X81515Y-58400D01*
X81500Y-58365D01*
X82872Y-58354D01*
X83234Y-57911D01*
X83244Y-57105D01*
X83723Y-57120D01*
X83730Y-57128D01*
X83795Y-57154D01*
X83864Y-57155D01*
X83874Y-57150D01*
X83874Y-57154D01*
X83901Y-57219D01*
X83950Y-57268D01*
X84015Y-57294D01*
X84084Y-57295D01*
X84133Y-57274D01*
X84151Y-57319D01*
X84200Y-57368D01*
X84265Y-57394D01*
X84334Y-57395D01*
X84367Y-57381D01*
X84391Y-57439D01*
X84440Y-57488D01*
X84505Y-57514D01*
X84574Y-57515D01*
X84639Y-57488D01*
X84688Y-57439D01*
X84714Y-57374D01*
X84715Y-57305D01*
X84688Y-57241D01*
X84639Y-57191D01*
X84574Y-57165D01*
X84505Y-57164D01*
X84472Y-57178D01*
X84448Y-57121D01*
X84399Y-57071D01*
X84334Y-57045D01*
X84265Y-57044D01*
X84216Y-57065D01*
X84216Y-57064D01*
X84474Y-56781D01*
X84495Y-55658D01*
X84072Y-55215D01*
X83895Y-55207D01*
X83895Y-51375D01*
X83868Y-51311D01*
X83819Y-51261D01*
X83754Y-51235D01*
X83685Y-51234D01*
X83621Y-51261D01*
X83571Y-51310D01*
X83545Y-51375D01*
X83544Y-51444D01*
X83571Y-51509D01*
X83620Y-51558D01*
X83685Y-51584D01*
X83754Y-51585D01*
X83819Y-51558D01*
X83868Y-51509D01*
X83894Y-51444D01*
X83895Y-51375D01*
X83895Y-55207D01*
X83204Y-55177D01*
X83205Y-55125D01*
X83178Y-55061D01*
X83132Y-55014D01*
X83158Y-54989D01*
X83184Y-54924D01*
X83185Y-54855D01*
X83158Y-54791D01*
X83109Y-54741D01*
X83044Y-54715D01*
X82975Y-54714D01*
X82935Y-54731D01*
X82935Y-52195D01*
X82935Y-51175D01*
X82908Y-51111D01*
X82859Y-51061D01*
X82794Y-51035D01*
X82725Y-51034D01*
X82661Y-51061D01*
X82611Y-51110D01*
X82585Y-51175D01*
X82584Y-51244D01*
X82611Y-51309D01*
X82660Y-51358D01*
X82725Y-51384D01*
X82794Y-51385D01*
X82859Y-51358D01*
X82908Y-51309D01*
X82934Y-51244D01*
X82935Y-51175D01*
X82935Y-52195D01*
X82908Y-52131D01*
X82859Y-52081D01*
X82794Y-52055D01*
X82725Y-52054D01*
X82661Y-52081D01*
X82611Y-52130D01*
X82585Y-52195D01*
X82584Y-52264D01*
X82611Y-52329D01*
X82660Y-52378D01*
X82725Y-52404D01*
X82794Y-52405D01*
X82859Y-52378D01*
X82908Y-52329D01*
X82934Y-52264D01*
X82935Y-52195D01*
X82935Y-54731D01*
X82911Y-54741D01*
X82868Y-54784D01*
X82858Y-54761D01*
X82809Y-54711D01*
X82744Y-54685D01*
X82675Y-54684D01*
X82611Y-54711D01*
X82561Y-54760D01*
X82535Y-54825D01*
X82534Y-54894D01*
X82561Y-54959D01*
X82610Y-55008D01*
X82627Y-55015D01*
X82591Y-55050D01*
X82565Y-55115D01*
X82565Y-55149D01*
X82275Y-55137D01*
X82275Y-51885D01*
X82248Y-51821D01*
X82199Y-51771D01*
X82134Y-51745D01*
X82065Y-51744D01*
X82001Y-51771D01*
X81951Y-51820D01*
X81925Y-51885D01*
X81924Y-51954D01*
X81951Y-52019D01*
X82000Y-52068D01*
X82065Y-52094D01*
X82134Y-52095D01*
X82199Y-52068D01*
X82248Y-52019D01*
X82274Y-51954D01*
X82275Y-51885D01*
X82275Y-55137D01*
X82217Y-55134D01*
X81896Y-55528D01*
X81896Y-51918D01*
X81858Y-51825D01*
X81786Y-51754D01*
X81694Y-51715D01*
X81593Y-51715D01*
X81500Y-51754D01*
X81429Y-51825D01*
X81391Y-51918D01*
X81391Y-52018D01*
X81429Y-52111D01*
X81500Y-52182D01*
X81593Y-52221D01*
X81693Y-52221D01*
X81786Y-52182D01*
X81857Y-52111D01*
X81896Y-52018D01*
X81896Y-51918D01*
X81896Y-55528D01*
X81817Y-55625D01*
X81375Y-55683D01*
X81375Y-53019D01*
X81343Y-52944D01*
X81286Y-52886D01*
X81210Y-52855D01*
X81129Y-52854D01*
X81054Y-52886D01*
X80996Y-52943D01*
X80965Y-53019D01*
X80964Y-53100D01*
X80996Y-53175D01*
X81053Y-53233D01*
X81129Y-53264D01*
X81210Y-53265D01*
X81285Y-53233D01*
X81343Y-53176D01*
X81374Y-53100D01*
X81375Y-53019D01*
X81375Y-55683D01*
X80324Y-55823D01*
X80324Y-52058D01*
X80346Y-52111D01*
X80417Y-52182D01*
X80510Y-52221D01*
X80611Y-52221D01*
X80703Y-52182D01*
X80775Y-52111D01*
X80813Y-52018D01*
X80813Y-51918D01*
X80775Y-51825D01*
X80704Y-51754D01*
X80611Y-51715D01*
X80510Y-51715D01*
X80418Y-51754D01*
X80346Y-51825D01*
X80324Y-51878D01*
X80324Y-50561D01*
X80324Y-50424D01*
X94075Y-50424D01*
X94075Y-50616D01*
X94075Y-51856D01*
X94062Y-51825D01*
X93991Y-51754D01*
X93898Y-51715D01*
X93798Y-51715D01*
X93705Y-51754D01*
X93634Y-51825D01*
X93595Y-51918D01*
X93595Y-52018D01*
X93634Y-52111D01*
X93705Y-52182D01*
X93797Y-52221D01*
X93898Y-52221D01*
X93991Y-52182D01*
X94062Y-52111D01*
X94075Y-52080D01*
X94075Y-57171D01*
X94062Y-57140D01*
X94015Y-57092D01*
X94015Y-52489D01*
X93983Y-52414D01*
X93926Y-52356D01*
X93850Y-52325D01*
X93769Y-52324D01*
X93694Y-52356D01*
X93636Y-52413D01*
X93605Y-52489D01*
X93604Y-52570D01*
X93636Y-52645D01*
X93693Y-52703D01*
X93769Y-52734D01*
X93850Y-52735D01*
X93925Y-52703D01*
X93983Y-52646D01*
X94014Y-52570D01*
X94015Y-52489D01*
X94015Y-57092D01*
X93991Y-57069D01*
X93898Y-57030D01*
X93798Y-57030D01*
X93705Y-57069D01*
X93634Y-57140D01*
X93595Y-57232D01*
X93595Y-57333D01*
X93634Y-57426D01*
X93705Y-57497D01*
X93797Y-57536D01*
X93898Y-57536D01*
X93991Y-57497D01*
X94062Y-57426D01*
X94075Y-57395D01*
X94075Y-62485D01*
X94062Y-62455D01*
X94005Y-62397D01*
X94005Y-57829D01*
X93973Y-57754D01*
X93916Y-57696D01*
X93840Y-57665D01*
X93759Y-57664D01*
X93684Y-57696D01*
X93626Y-57753D01*
X93595Y-57829D01*
X93594Y-57910D01*
X93626Y-57985D01*
X93683Y-58043D01*
X93759Y-58074D01*
X93840Y-58075D01*
X93915Y-58043D01*
X93973Y-57986D01*
X94004Y-57910D01*
X94005Y-57829D01*
X94005Y-62397D01*
X93991Y-62384D01*
X93898Y-62345D01*
X93798Y-62345D01*
X93705Y-62384D01*
X93634Y-62455D01*
X93595Y-62547D01*
X93595Y-62648D01*
X93634Y-62741D01*
X93705Y-62812D01*
X93797Y-62851D01*
X93898Y-62851D01*
X93991Y-62812D01*
X94062Y-62741D01*
X94075Y-62710D01*
X94075Y-64165D01*
X94075Y-64165D01*
G37*
G54D18*
X94075Y-64165D02*
X94005Y-64165D01*
X94005Y-63089D01*
X93973Y-63014D01*
X93916Y-62956D01*
X93840Y-62925D01*
X93759Y-62924D01*
X93684Y-62956D01*
X93626Y-63013D01*
X93595Y-63089D01*
X93594Y-63170D01*
X93626Y-63245D01*
X93683Y-63303D01*
X93759Y-63334D01*
X93840Y-63335D01*
X93915Y-63303D01*
X93973Y-63246D01*
X94004Y-63170D01*
X94005Y-63089D01*
X94005Y-64165D01*
X93018Y-64169D01*
X93018Y-62548D01*
X93018Y-57233D01*
X93018Y-51918D01*
X92980Y-51825D01*
X92909Y-51754D01*
X92816Y-51715D01*
X92715Y-51715D01*
X92622Y-51754D01*
X92551Y-51825D01*
X92513Y-51918D01*
X92513Y-52018D01*
X92551Y-52111D01*
X92622Y-52182D01*
X92715Y-52221D01*
X92815Y-52221D01*
X92908Y-52182D01*
X92979Y-52111D01*
X93018Y-52018D01*
X93018Y-51918D01*
X93018Y-57233D01*
X92980Y-57140D01*
X92909Y-57069D01*
X92816Y-57030D01*
X92765Y-57030D01*
X92765Y-55475D01*
X92738Y-55411D01*
X92689Y-55361D01*
X92624Y-55335D01*
X92555Y-55334D01*
X92491Y-55361D01*
X92441Y-55410D01*
X92415Y-55475D01*
X92414Y-55544D01*
X92441Y-55609D01*
X92490Y-55658D01*
X92555Y-55684D01*
X92624Y-55685D01*
X92689Y-55658D01*
X92738Y-55609D01*
X92764Y-55544D01*
X92765Y-55475D01*
X92765Y-57030D01*
X92715Y-57030D01*
X92622Y-57069D01*
X92551Y-57140D01*
X92513Y-57232D01*
X92513Y-57333D01*
X92551Y-57426D01*
X92622Y-57497D01*
X92715Y-57536D01*
X92815Y-57536D01*
X92908Y-57497D01*
X92979Y-57426D01*
X93018Y-57333D01*
X93018Y-57233D01*
X93018Y-62548D01*
X92980Y-62455D01*
X92909Y-62384D01*
X92816Y-62345D01*
X92715Y-62345D01*
X92622Y-62384D01*
X92551Y-62455D01*
X92513Y-62547D01*
X92513Y-62648D01*
X92551Y-62741D01*
X92622Y-62812D01*
X92715Y-62851D01*
X92815Y-62851D01*
X92908Y-62812D01*
X92979Y-62741D01*
X93018Y-62648D01*
X93018Y-62548D01*
X93018Y-64169D01*
X92385Y-64171D01*
X92385Y-53560D01*
X92358Y-53496D01*
X92309Y-53446D01*
X92244Y-53420D01*
X92175Y-53419D01*
X92111Y-53446D01*
X92061Y-53495D01*
X92035Y-53560D01*
X92034Y-53629D01*
X92061Y-53694D01*
X92110Y-53743D01*
X92175Y-53769D01*
X92244Y-53770D01*
X92309Y-53743D01*
X92358Y-53694D01*
X92384Y-53629D01*
X92385Y-53560D01*
X92385Y-64171D01*
X92310Y-64172D01*
X92310Y-63500D01*
X92283Y-63436D01*
X92234Y-63386D01*
X92169Y-63360D01*
X92100Y-63359D01*
X92036Y-63386D01*
X91986Y-63435D01*
X91960Y-63500D01*
X91959Y-63569D01*
X91986Y-63634D01*
X92035Y-63683D01*
X92100Y-63709D01*
X92169Y-63710D01*
X92234Y-63683D01*
X92283Y-63634D01*
X92309Y-63569D01*
X92310Y-63500D01*
X92310Y-64172D01*
X91594Y-64174D01*
X91584Y-61125D01*
X91580Y-61125D01*
X91580Y-51535D01*
X91553Y-51471D01*
X91504Y-51421D01*
X91439Y-51395D01*
X91370Y-51394D01*
X91306Y-51421D01*
X91256Y-51470D01*
X91230Y-51535D01*
X91229Y-51604D01*
X91256Y-51669D01*
X91305Y-51718D01*
X91370Y-51744D01*
X91439Y-51745D01*
X91504Y-51718D01*
X91553Y-51669D01*
X91579Y-51604D01*
X91580Y-51535D01*
X91580Y-61125D01*
X91316Y-61125D01*
X91316Y-54532D01*
X91290Y-54467D01*
X91240Y-54418D01*
X91176Y-54391D01*
X91107Y-54391D01*
X91042Y-54418D01*
X90993Y-54467D01*
X90966Y-54531D01*
X90966Y-54601D01*
X90993Y-54665D01*
X91042Y-54715D01*
X91106Y-54741D01*
X91176Y-54741D01*
X91240Y-54715D01*
X91290Y-54666D01*
X91316Y-54601D01*
X91316Y-54532D01*
X91316Y-61125D01*
X90905Y-61125D01*
X90905Y-58119D01*
X90905Y-56489D01*
X90873Y-56414D01*
X90816Y-56356D01*
X90740Y-56325D01*
X90659Y-56324D01*
X90584Y-56356D01*
X90526Y-56413D01*
X90495Y-56489D01*
X90494Y-56570D01*
X90526Y-56645D01*
X90583Y-56703D01*
X90659Y-56734D01*
X90740Y-56735D01*
X90815Y-56703D01*
X90873Y-56646D01*
X90904Y-56570D01*
X90905Y-56489D01*
X90905Y-58119D01*
X90873Y-58044D01*
X90816Y-57986D01*
X90740Y-57955D01*
X90719Y-57955D01*
X90724Y-57940D01*
X90725Y-57859D01*
X90693Y-57784D01*
X90636Y-57726D01*
X90560Y-57695D01*
X90479Y-57694D01*
X90404Y-57726D01*
X90346Y-57783D01*
X90315Y-57859D01*
X90314Y-57940D01*
X90346Y-58015D01*
X90403Y-58073D01*
X90479Y-58104D01*
X90500Y-58104D01*
X90495Y-58119D01*
X90494Y-58200D01*
X90526Y-58275D01*
X90583Y-58333D01*
X90659Y-58364D01*
X90740Y-58365D01*
X90815Y-58333D01*
X90873Y-58276D01*
X90904Y-58200D01*
X90905Y-58119D01*
X90905Y-61125D01*
X90844Y-61125D01*
X90844Y-58705D01*
X90817Y-58641D01*
X90768Y-58591D01*
X90704Y-58565D01*
X90634Y-58565D01*
X90570Y-58591D01*
X90521Y-58640D01*
X90494Y-58705D01*
X90494Y-58774D01*
X90520Y-58839D01*
X90570Y-58888D01*
X90634Y-58915D01*
X90703Y-58915D01*
X90768Y-58888D01*
X90817Y-58839D01*
X90844Y-58775D01*
X90844Y-58705D01*
X90844Y-61125D01*
X90180Y-61125D01*
X90180Y-52010D01*
X90153Y-51946D01*
X90104Y-51896D01*
X90039Y-51870D01*
X89970Y-51869D01*
X89906Y-51896D01*
X89865Y-51937D01*
X89865Y-51805D01*
X89838Y-51741D01*
X89789Y-51691D01*
X89724Y-51665D01*
X89655Y-51664D01*
X89591Y-51691D01*
X89541Y-51740D01*
X89515Y-51805D01*
X89514Y-51874D01*
X89541Y-51939D01*
X89590Y-51988D01*
X89655Y-52014D01*
X89724Y-52015D01*
X89789Y-51988D01*
X89838Y-51939D01*
X89864Y-51874D01*
X89865Y-51805D01*
X89865Y-51937D01*
X89856Y-51945D01*
X89830Y-52010D01*
X89829Y-52079D01*
X89856Y-52144D01*
X89905Y-52193D01*
X89970Y-52219D01*
X90039Y-52220D01*
X90104Y-52193D01*
X90153Y-52144D01*
X90179Y-52079D01*
X90180Y-52010D01*
X90180Y-61125D01*
X90095Y-61125D01*
X90095Y-54075D01*
X90068Y-54011D01*
X90065Y-54007D01*
X90065Y-52835D01*
X90038Y-52771D01*
X89989Y-52721D01*
X89924Y-52695D01*
X89855Y-52694D01*
X89791Y-52721D01*
X89741Y-52770D01*
X89715Y-52835D01*
X89714Y-52904D01*
X89741Y-52969D01*
X89790Y-53018D01*
X89855Y-53044D01*
X89924Y-53045D01*
X89989Y-53018D01*
X90038Y-52969D01*
X90064Y-52904D01*
X90065Y-52835D01*
X90065Y-54007D01*
X90019Y-53961D01*
X89954Y-53935D01*
X89900Y-53934D01*
X89900Y-53370D01*
X89873Y-53306D01*
X89824Y-53256D01*
X89759Y-53230D01*
X89690Y-53229D01*
X89626Y-53256D01*
X89576Y-53305D01*
X89550Y-53370D01*
X89549Y-53439D01*
X89576Y-53504D01*
X89625Y-53553D01*
X89690Y-53579D01*
X89759Y-53580D01*
X89824Y-53553D01*
X89873Y-53504D01*
X89899Y-53439D01*
X89900Y-53370D01*
X89900Y-53934D01*
X89885Y-53934D01*
X89821Y-53961D01*
X89771Y-54010D01*
X89745Y-54075D01*
X89744Y-54144D01*
X89771Y-54209D01*
X89820Y-54258D01*
X89885Y-54284D01*
X89954Y-54285D01*
X90019Y-54258D01*
X90068Y-54209D01*
X90094Y-54144D01*
X90095Y-54075D01*
X90095Y-61125D01*
X90025Y-61125D01*
X90025Y-58049D01*
X89993Y-57974D01*
X89990Y-57970D01*
X89990Y-56945D01*
X89963Y-56881D01*
X89914Y-56831D01*
X89849Y-56805D01*
X89780Y-56804D01*
X89716Y-56831D01*
X89666Y-56880D01*
X89640Y-56945D01*
X89639Y-57014D01*
X89666Y-57079D01*
X89715Y-57128D01*
X89780Y-57154D01*
X89849Y-57155D01*
X89914Y-57128D01*
X89963Y-57079D01*
X89989Y-57014D01*
X89990Y-56945D01*
X89990Y-57970D01*
X89936Y-57916D01*
X89860Y-57885D01*
X89779Y-57884D01*
X89704Y-57916D01*
X89646Y-57973D01*
X89615Y-58049D01*
X89614Y-58130D01*
X89646Y-58205D01*
X89703Y-58263D01*
X89779Y-58294D01*
X89860Y-58295D01*
X89935Y-58263D01*
X89993Y-58206D01*
X90024Y-58130D01*
X90025Y-58049D01*
X90025Y-61125D01*
X89505Y-61125D01*
X89505Y-57878D01*
X89479Y-57814D01*
X89429Y-57765D01*
X89365Y-57738D01*
X89296Y-57738D01*
X89255Y-57755D01*
X89255Y-52695D01*
X89228Y-52631D01*
X89179Y-52581D01*
X89114Y-52555D01*
X89090Y-52555D01*
X89090Y-52165D01*
X89063Y-52101D01*
X89014Y-52051D01*
X88949Y-52025D01*
X88880Y-52024D01*
X88816Y-52051D01*
X88766Y-52100D01*
X88740Y-52165D01*
X88739Y-52234D01*
X88766Y-52299D01*
X88815Y-52348D01*
X88880Y-52374D01*
X88949Y-52375D01*
X89014Y-52348D01*
X89063Y-52299D01*
X89089Y-52234D01*
X89090Y-52165D01*
X89090Y-52555D01*
X89045Y-52554D01*
X88981Y-52581D01*
X88931Y-52630D01*
X88905Y-52695D01*
X88904Y-52764D01*
X88931Y-52829D01*
X88980Y-52878D01*
X89045Y-52904D01*
X89114Y-52905D01*
X89179Y-52878D01*
X89228Y-52829D01*
X89254Y-52764D01*
X89255Y-52695D01*
X89255Y-57755D01*
X89231Y-57764D01*
X89192Y-57804D01*
X89129Y-57777D01*
X89059Y-57777D01*
X88995Y-57804D01*
X88956Y-57843D01*
X88893Y-57817D01*
X88823Y-57817D01*
X88759Y-57843D01*
X88755Y-57847D01*
X88755Y-52385D01*
X88728Y-52321D01*
X88679Y-52271D01*
X88614Y-52245D01*
X88545Y-52244D01*
X88481Y-52271D01*
X88431Y-52320D01*
X88405Y-52385D01*
X88404Y-52454D01*
X88431Y-52519D01*
X88480Y-52568D01*
X88545Y-52594D01*
X88614Y-52595D01*
X88679Y-52568D01*
X88728Y-52519D01*
X88754Y-52454D01*
X88755Y-52385D01*
X88755Y-57847D01*
X88709Y-57892D01*
X88683Y-57957D01*
X88683Y-58026D01*
X88709Y-58091D01*
X88759Y-58140D01*
X88823Y-58167D01*
X88892Y-58167D01*
X88957Y-58140D01*
X88996Y-58101D01*
X89059Y-58127D01*
X89129Y-58127D01*
X89193Y-58101D01*
X89232Y-58062D01*
X89295Y-58088D01*
X89365Y-58088D01*
X89429Y-58061D01*
X89478Y-58012D01*
X89505Y-57948D01*
X89505Y-57878D01*
X89505Y-61125D01*
X88897Y-61125D01*
X88923Y-61099D01*
X88949Y-61034D01*
X88950Y-60965D01*
X88923Y-60901D01*
X88874Y-60851D01*
X88809Y-60825D01*
X88740Y-60824D01*
X88676Y-60851D01*
X88626Y-60900D01*
X88615Y-60928D01*
X88615Y-52945D01*
X88588Y-52881D01*
X88539Y-52831D01*
X88474Y-52805D01*
X88405Y-52804D01*
X88341Y-52831D01*
X88291Y-52880D01*
X88265Y-52945D01*
X88264Y-53014D01*
X88291Y-53079D01*
X88340Y-53128D01*
X88405Y-53154D01*
X88474Y-53155D01*
X88539Y-53128D01*
X88588Y-53079D01*
X88614Y-53014D01*
X88615Y-52945D01*
X88615Y-60928D01*
X88600Y-60965D01*
X88599Y-61034D01*
X88626Y-61099D01*
X88652Y-61125D01*
X88570Y-61125D01*
X88570Y-57850D01*
X88543Y-57786D01*
X88494Y-57736D01*
X88429Y-57710D01*
X88360Y-57709D01*
X88296Y-57736D01*
X88246Y-57785D01*
X88220Y-57850D01*
X88219Y-57919D01*
X88246Y-57984D01*
X88295Y-58033D01*
X88360Y-58059D01*
X88429Y-58060D01*
X88494Y-58033D01*
X88543Y-57984D01*
X88569Y-57919D01*
X88570Y-57850D01*
X88570Y-61125D01*
X88465Y-61125D01*
X88465Y-59675D01*
X88438Y-59611D01*
X88389Y-59561D01*
X88324Y-59535D01*
X88255Y-59534D01*
X88191Y-59561D01*
X88141Y-59610D01*
X88115Y-59675D01*
X88114Y-59744D01*
X88141Y-59809D01*
X88190Y-59858D01*
X88255Y-59884D01*
X88324Y-59885D01*
X88389Y-59858D01*
X88438Y-59809D01*
X88464Y-59744D01*
X88465Y-59675D01*
X88465Y-61125D01*
X88075Y-61125D01*
X88075Y-59670D01*
X88055Y-59621D01*
X88055Y-53025D01*
X88028Y-52961D01*
X88015Y-52947D01*
X88015Y-52235D01*
X87988Y-52171D01*
X87939Y-52121D01*
X87890Y-52101D01*
X87890Y-50910D01*
X87863Y-50846D01*
X87814Y-50796D01*
X87749Y-50770D01*
X87680Y-50769D01*
X87616Y-50796D01*
X87566Y-50845D01*
X87540Y-50910D01*
X87539Y-50979D01*
X87566Y-51044D01*
X87615Y-51093D01*
X87680Y-51119D01*
X87749Y-51120D01*
X87814Y-51093D01*
X87863Y-51044D01*
X87889Y-50979D01*
X87890Y-50910D01*
X87890Y-52101D01*
X87874Y-52095D01*
X87805Y-52094D01*
X87741Y-52121D01*
X87691Y-52170D01*
X87665Y-52235D01*
X87664Y-52304D01*
X87691Y-52369D01*
X87740Y-52418D01*
X87805Y-52444D01*
X87874Y-52445D01*
X87939Y-52418D01*
X87988Y-52369D01*
X88014Y-52304D01*
X88015Y-52235D01*
X88015Y-52947D01*
X87979Y-52911D01*
X87925Y-52889D01*
X87925Y-52595D01*
X87898Y-52531D01*
X87849Y-52481D01*
X87784Y-52455D01*
X87715Y-52454D01*
X87651Y-52481D01*
X87645Y-52487D01*
X87645Y-52335D01*
X87618Y-52271D01*
X87569Y-52221D01*
X87504Y-52195D01*
X87435Y-52194D01*
X87371Y-52221D01*
X87321Y-52270D01*
X87308Y-52301D01*
X87308Y-52301D01*
X87259Y-52251D01*
X87194Y-52225D01*
X87125Y-52224D01*
X87061Y-52251D01*
X87011Y-52300D01*
X86985Y-52365D01*
X86984Y-52434D01*
X87011Y-52499D01*
X87060Y-52548D01*
X87125Y-52574D01*
X87194Y-52575D01*
X87259Y-52548D01*
X87308Y-52499D01*
X87321Y-52468D01*
X87321Y-52469D01*
X87370Y-52518D01*
X87435Y-52544D01*
X87504Y-52545D01*
X87569Y-52518D01*
X87618Y-52469D01*
X87644Y-52404D01*
X87645Y-52335D01*
X87645Y-52487D01*
X87601Y-52530D01*
X87575Y-52595D01*
X87574Y-52664D01*
X87601Y-52729D01*
X87650Y-52778D01*
X87715Y-52804D01*
X87784Y-52805D01*
X87849Y-52778D01*
X87898Y-52729D01*
X87924Y-52664D01*
X87925Y-52595D01*
X87925Y-52889D01*
X87914Y-52885D01*
X87845Y-52884D01*
X87781Y-52911D01*
X87731Y-52960D01*
X87705Y-53025D01*
X87704Y-53094D01*
X87731Y-53159D01*
X87780Y-53208D01*
X87845Y-53234D01*
X87914Y-53235D01*
X87979Y-53208D01*
X88028Y-53159D01*
X88054Y-53094D01*
X88055Y-53025D01*
X88055Y-59621D01*
X88048Y-59606D01*
X87999Y-59556D01*
X87970Y-59544D01*
X87970Y-58114D01*
X87943Y-58050D01*
X87904Y-58011D01*
X87943Y-57973D01*
X87970Y-57908D01*
X87970Y-57839D01*
X87943Y-57775D01*
X87904Y-57735D01*
X87930Y-57672D01*
X87930Y-57603D01*
X87904Y-57538D01*
X87855Y-57489D01*
X87790Y-57462D01*
X87721Y-57462D01*
X87656Y-57489D01*
X87618Y-57528D01*
X87579Y-57489D01*
X87515Y-57462D01*
X87445Y-57462D01*
X87381Y-57489D01*
X87342Y-57528D01*
X87303Y-57489D01*
X87239Y-57462D01*
X87170Y-57462D01*
X87143Y-57473D01*
X87143Y-56973D01*
X87116Y-56908D01*
X87067Y-56859D01*
X87003Y-56832D01*
X86933Y-56832D01*
X86869Y-56859D01*
X86820Y-56908D01*
X86793Y-56972D01*
X86793Y-57042D01*
X86820Y-57106D01*
X86869Y-57156D01*
X86933Y-57182D01*
X87003Y-57182D01*
X87067Y-57156D01*
X87116Y-57107D01*
X87143Y-57042D01*
X87143Y-56973D01*
X87143Y-57473D01*
X87105Y-57489D01*
X87056Y-57538D01*
X87029Y-57602D01*
X87029Y-57672D01*
X87056Y-57736D01*
X87105Y-57786D01*
X87169Y-57812D01*
X87239Y-57812D01*
X87303Y-57786D01*
X87342Y-57747D01*
X87381Y-57786D01*
X87445Y-57812D01*
X87514Y-57812D01*
X87579Y-57786D01*
X87618Y-57747D01*
X87646Y-57775D01*
X87620Y-57839D01*
X87620Y-57908D01*
X87646Y-57973D01*
X87685Y-58011D01*
X87647Y-58050D01*
X87620Y-58114D01*
X87620Y-58184D01*
X87646Y-58248D01*
X87696Y-58297D01*
X87760Y-58324D01*
X87829Y-58324D01*
X87894Y-58298D01*
X87943Y-58248D01*
X87970Y-58184D01*
X87970Y-58114D01*
X87970Y-59544D01*
X87934Y-59530D01*
X87865Y-59529D01*
X87835Y-59542D01*
X87835Y-58895D01*
X87808Y-58831D01*
X87759Y-58781D01*
X87694Y-58755D01*
X87625Y-58754D01*
X87561Y-58781D01*
X87511Y-58830D01*
X87485Y-58895D01*
X87484Y-58964D01*
X87510Y-59026D01*
X87451Y-59051D01*
X87401Y-59100D01*
X87375Y-59165D01*
X87374Y-59234D01*
X87401Y-59299D01*
X87450Y-59348D01*
X87515Y-59374D01*
X87584Y-59375D01*
X87649Y-59348D01*
X87698Y-59299D01*
X87724Y-59234D01*
X87725Y-59165D01*
X87699Y-59103D01*
X87759Y-59078D01*
X87808Y-59029D01*
X87834Y-58964D01*
X87835Y-58895D01*
X87835Y-59542D01*
X87801Y-59556D01*
X87751Y-59605D01*
X87725Y-59670D01*
X87724Y-59739D01*
X87751Y-59804D01*
X87800Y-59853D01*
X87865Y-59879D01*
X87934Y-59880D01*
X87999Y-59853D01*
X88048Y-59804D01*
X88074Y-59739D01*
X88075Y-59670D01*
X88075Y-61125D01*
X87822Y-61125D01*
X87834Y-61094D01*
X87835Y-61025D01*
X87808Y-60961D01*
X87759Y-60911D01*
X87694Y-60885D01*
X87625Y-60884D01*
X87561Y-60911D01*
X87511Y-60960D01*
X87485Y-61025D01*
X87485Y-61035D01*
X87470Y-61029D01*
X87470Y-59530D01*
X87443Y-59466D01*
X87394Y-59416D01*
X87329Y-59390D01*
X87260Y-59389D01*
X87196Y-59416D01*
X87146Y-59465D01*
X87120Y-59530D01*
X87120Y-59540D01*
X87075Y-59539D01*
X87011Y-59566D01*
X86961Y-59615D01*
X86935Y-59680D01*
X86934Y-59749D01*
X86961Y-59814D01*
X87010Y-59863D01*
X87075Y-59889D01*
X87144Y-59890D01*
X87209Y-59863D01*
X87258Y-59814D01*
X87284Y-59749D01*
X87284Y-59739D01*
X87329Y-59740D01*
X87394Y-59713D01*
X87443Y-59664D01*
X87469Y-59599D01*
X87470Y-59530D01*
X87470Y-61029D01*
X87443Y-61018D01*
X87381Y-61018D01*
X87378Y-61011D01*
X87329Y-60961D01*
X87264Y-60935D01*
X87195Y-60934D01*
X87131Y-60961D01*
X87081Y-61010D01*
X87055Y-61075D01*
X87054Y-61125D01*
X86694Y-61125D01*
X86714Y-64164D01*
X86510Y-64164D01*
X86510Y-54400D01*
X86483Y-54336D01*
X86434Y-54286D01*
X86369Y-54260D01*
X86312Y-54259D01*
X86308Y-54251D01*
X86259Y-54201D01*
X86194Y-54175D01*
X86125Y-54174D01*
X86061Y-54201D01*
X86011Y-54250D01*
X85985Y-54315D01*
X85984Y-54384D01*
X86011Y-54449D01*
X86060Y-54498D01*
X86095Y-54512D01*
X86070Y-54575D01*
X86069Y-54644D01*
X86096Y-54709D01*
X86145Y-54758D01*
X86210Y-54784D01*
X86279Y-54785D01*
X86344Y-54758D01*
X86393Y-54709D01*
X86419Y-54644D01*
X86420Y-54589D01*
X86434Y-54583D01*
X86483Y-54534D01*
X86509Y-54469D01*
X86510Y-54400D01*
X86510Y-64164D01*
X85605Y-64163D01*
X85605Y-63139D01*
X85573Y-63064D01*
X85516Y-63006D01*
X85440Y-62975D01*
X85359Y-62974D01*
X85284Y-63006D01*
X85226Y-63063D01*
X85195Y-63139D01*
X85194Y-63220D01*
X85226Y-63295D01*
X85283Y-63353D01*
X85359Y-63384D01*
X85440Y-63385D01*
X85515Y-63353D01*
X85573Y-63296D01*
X85604Y-63220D01*
X85605Y-63139D01*
X85605Y-64163D01*
X85440Y-64163D01*
X85440Y-63505D01*
X85413Y-63441D01*
X85364Y-63391D01*
X85299Y-63365D01*
X85230Y-63364D01*
X85166Y-63391D01*
X85116Y-63440D01*
X85105Y-63468D01*
X85105Y-58149D01*
X85073Y-58074D01*
X85016Y-58016D01*
X84940Y-57985D01*
X84859Y-57984D01*
X84784Y-58016D01*
X84749Y-58050D01*
X84716Y-58016D01*
X84640Y-57985D01*
X84559Y-57984D01*
X84484Y-58016D01*
X84426Y-58073D01*
X84395Y-58149D01*
X84394Y-58230D01*
X84426Y-58305D01*
X84483Y-58363D01*
X84559Y-58394D01*
X84640Y-58395D01*
X84715Y-58363D01*
X84750Y-58329D01*
X84783Y-58363D01*
X84859Y-58394D01*
X84940Y-58395D01*
X85015Y-58363D01*
X85073Y-58306D01*
X85104Y-58230D01*
X85105Y-58149D01*
X85105Y-63468D01*
X85090Y-63505D01*
X85089Y-63574D01*
X85116Y-63639D01*
X85165Y-63688D01*
X85230Y-63714D01*
X85299Y-63715D01*
X85364Y-63688D01*
X85413Y-63639D01*
X85439Y-63574D01*
X85440Y-63505D01*
X85440Y-64163D01*
X83615Y-64160D01*
X83615Y-62860D01*
X83588Y-62796D01*
X83539Y-62746D01*
X83474Y-62720D01*
X83405Y-62719D01*
X83341Y-62746D01*
X83291Y-62795D01*
X83265Y-62860D01*
X83264Y-62929D01*
X83291Y-62994D01*
X83340Y-63043D01*
X83405Y-63069D01*
X83474Y-63070D01*
X83539Y-63043D01*
X83588Y-62994D01*
X83614Y-62929D01*
X83615Y-62860D01*
X83615Y-64160D01*
X83240Y-64159D01*
X83240Y-62444D01*
X83208Y-62369D01*
X83151Y-62311D01*
X83075Y-62280D01*
X82994Y-62279D01*
X82919Y-62311D01*
X82861Y-62368D01*
X82830Y-62444D01*
X82829Y-62525D01*
X82854Y-62585D01*
X82851Y-62586D01*
X82801Y-62635D01*
X82775Y-62700D01*
X82774Y-62769D01*
X82801Y-62834D01*
X82850Y-62883D01*
X82915Y-62909D01*
X82984Y-62910D01*
X83049Y-62883D01*
X83098Y-62834D01*
X83124Y-62769D01*
X83125Y-62700D01*
X83114Y-62674D01*
X83150Y-62658D01*
X83208Y-62601D01*
X83239Y-62525D01*
X83240Y-62444D01*
X83240Y-64159D01*
X83085Y-64159D01*
X83085Y-63149D01*
X83053Y-63074D01*
X82996Y-63016D01*
X82920Y-62985D01*
X82839Y-62984D01*
X82764Y-63016D01*
X82706Y-63073D01*
X82675Y-63149D01*
X82674Y-63230D01*
X82706Y-63305D01*
X82763Y-63363D01*
X82839Y-63394D01*
X82920Y-63395D01*
X82995Y-63363D01*
X83053Y-63306D01*
X83084Y-63230D01*
X83085Y-63149D01*
X83085Y-64159D01*
X82505Y-64158D01*
X82505Y-63169D01*
X82473Y-63094D01*
X82416Y-63036D01*
X82340Y-63005D01*
X82259Y-63004D01*
X82184Y-63036D01*
X82126Y-63093D01*
X82095Y-63169D01*
X82094Y-63250D01*
X82126Y-63325D01*
X82183Y-63383D01*
X82259Y-63414D01*
X82340Y-63415D01*
X82415Y-63383D01*
X82473Y-63326D01*
X82504Y-63250D01*
X82505Y-63169D01*
X82505Y-64158D01*
X80324Y-64155D01*
X80324Y-58374D01*
X81178Y-58368D01*
X81165Y-58400D01*
X81164Y-58469D01*
X81191Y-58534D01*
X81240Y-58583D01*
X81305Y-58609D01*
X81374Y-58610D01*
X81439Y-58583D01*
X81488Y-58534D01*
X81514Y-58469D01*
X81515Y-58400D01*
X81500Y-58365D01*
X82872Y-58354D01*
X83234Y-57911D01*
X83244Y-57105D01*
X83723Y-57120D01*
X83730Y-57128D01*
X83795Y-57154D01*
X83864Y-57155D01*
X83874Y-57150D01*
X83874Y-57154D01*
X83901Y-57219D01*
X83950Y-57268D01*
X84015Y-57294D01*
X84084Y-57295D01*
X84133Y-57274D01*
X84151Y-57319D01*
X84200Y-57368D01*
X84265Y-57394D01*
X84334Y-57395D01*
X84367Y-57381D01*
X84391Y-57439D01*
X84440Y-57488D01*
X84505Y-57514D01*
X84574Y-57515D01*
X84639Y-57488D01*
X84688Y-57439D01*
X84714Y-57374D01*
X84715Y-57305D01*
X84688Y-57241D01*
X84639Y-57191D01*
X84574Y-57165D01*
X84505Y-57164D01*
X84472Y-57178D01*
X84448Y-57121D01*
X84399Y-57071D01*
X84334Y-57045D01*
X84265Y-57044D01*
X84216Y-57065D01*
X84216Y-57064D01*
X84474Y-56781D01*
X84495Y-55658D01*
X84072Y-55215D01*
X83895Y-55207D01*
X83895Y-51375D01*
X83868Y-51311D01*
X83819Y-51261D01*
X83754Y-51235D01*
X83685Y-51234D01*
X83621Y-51261D01*
X83571Y-51310D01*
X83545Y-51375D01*
X83544Y-51444D01*
X83571Y-51509D01*
X83620Y-51558D01*
X83685Y-51584D01*
X83754Y-51585D01*
X83819Y-51558D01*
X83868Y-51509D01*
X83894Y-51444D01*
X83895Y-51375D01*
X83895Y-55207D01*
X83204Y-55177D01*
X83205Y-55125D01*
X83178Y-55061D01*
X83132Y-55014D01*
X83158Y-54989D01*
X83184Y-54924D01*
X83185Y-54855D01*
X83158Y-54791D01*
X83109Y-54741D01*
X83044Y-54715D01*
X82975Y-54714D01*
X82935Y-54731D01*
X82935Y-52195D01*
X82935Y-51175D01*
X82908Y-51111D01*
X82859Y-51061D01*
X82794Y-51035D01*
X82725Y-51034D01*
X82661Y-51061D01*
X82611Y-51110D01*
X82585Y-51175D01*
X82584Y-51244D01*
X82611Y-51309D01*
X82660Y-51358D01*
X82725Y-51384D01*
X82794Y-51385D01*
X82859Y-51358D01*
X82908Y-51309D01*
X82934Y-51244D01*
X82935Y-51175D01*
X82935Y-52195D01*
X82908Y-52131D01*
X82859Y-52081D01*
X82794Y-52055D01*
X82725Y-52054D01*
X82661Y-52081D01*
X82611Y-52130D01*
X82585Y-52195D01*
X82584Y-52264D01*
X82611Y-52329D01*
X82660Y-52378D01*
X82725Y-52404D01*
X82794Y-52405D01*
X82859Y-52378D01*
X82908Y-52329D01*
X82934Y-52264D01*
X82935Y-52195D01*
X82935Y-54731D01*
X82911Y-54741D01*
X82868Y-54784D01*
X82858Y-54761D01*
X82809Y-54711D01*
X82744Y-54685D01*
X82675Y-54684D01*
X82611Y-54711D01*
X82561Y-54760D01*
X82535Y-54825D01*
X82534Y-54894D01*
X82561Y-54959D01*
X82610Y-55008D01*
X82627Y-55015D01*
X82591Y-55050D01*
X82565Y-55115D01*
X82565Y-55149D01*
X82275Y-55137D01*
X82275Y-51885D01*
X82248Y-51821D01*
X82199Y-51771D01*
X82134Y-51745D01*
X82065Y-51744D01*
X82001Y-51771D01*
X81951Y-51820D01*
X81925Y-51885D01*
X81924Y-51954D01*
X81951Y-52019D01*
X82000Y-52068D01*
X82065Y-52094D01*
X82134Y-52095D01*
X82199Y-52068D01*
X82248Y-52019D01*
X82274Y-51954D01*
X82275Y-51885D01*
X82275Y-55137D01*
X82217Y-55134D01*
X81896Y-55528D01*
X81896Y-51918D01*
X81858Y-51825D01*
X81786Y-51754D01*
X81694Y-51715D01*
X81593Y-51715D01*
X81500Y-51754D01*
X81429Y-51825D01*
X81391Y-51918D01*
X81391Y-52018D01*
X81429Y-52111D01*
X81500Y-52182D01*
X81593Y-52221D01*
X81693Y-52221D01*
X81786Y-52182D01*
X81857Y-52111D01*
X81896Y-52018D01*
X81896Y-51918D01*
X81896Y-55528D01*
X81817Y-55625D01*
X81375Y-55683D01*
X81375Y-53019D01*
X81343Y-52944D01*
X81286Y-52886D01*
X81210Y-52855D01*
X81129Y-52854D01*
X81054Y-52886D01*
X80996Y-52943D01*
X80965Y-53019D01*
X80964Y-53100D01*
X80996Y-53175D01*
X81053Y-53233D01*
X81129Y-53264D01*
X81210Y-53265D01*
X81285Y-53233D01*
X81343Y-53176D01*
X81374Y-53100D01*
X81375Y-53019D01*
X81375Y-55683D01*
X80324Y-55823D01*
X80324Y-52058D01*
X80346Y-52111D01*
X80417Y-52182D01*
X80510Y-52221D01*
X80611Y-52221D01*
X80703Y-52182D01*
X80775Y-52111D01*
X80813Y-52018D01*
X80813Y-51918D01*
X80775Y-51825D01*
X80704Y-51754D01*
X80611Y-51715D01*
X80510Y-51715D01*
X80418Y-51754D01*
X80346Y-51825D01*
X80324Y-51878D01*
X80324Y-50561D01*
X80324Y-50424D01*
X94075Y-50424D01*
X94075Y-50616D01*
X94075Y-51856D01*
X94062Y-51825D01*
X93991Y-51754D01*
X93898Y-51715D01*
X93798Y-51715D01*
X93705Y-51754D01*
X93634Y-51825D01*
X93595Y-51918D01*
X93595Y-52018D01*
X93634Y-52111D01*
X93705Y-52182D01*
X93797Y-52221D01*
X93898Y-52221D01*
X93991Y-52182D01*
X94062Y-52111D01*
X94075Y-52080D01*
X94075Y-57171D01*
X94062Y-57140D01*
X94015Y-57092D01*
X94015Y-52489D01*
X93983Y-52414D01*
X93926Y-52356D01*
X93850Y-52325D01*
X93769Y-52324D01*
X93694Y-52356D01*
X93636Y-52413D01*
X93605Y-52489D01*
X93604Y-52570D01*
X93636Y-52645D01*
X93693Y-52703D01*
X93769Y-52734D01*
X93850Y-52735D01*
X93925Y-52703D01*
X93983Y-52646D01*
X94014Y-52570D01*
X94015Y-52489D01*
X94015Y-57092D01*
X93991Y-57069D01*
X93898Y-57030D01*
X93798Y-57030D01*
X93705Y-57069D01*
X93634Y-57140D01*
X93595Y-57232D01*
X93595Y-57333D01*
X93634Y-57426D01*
X93705Y-57497D01*
X93797Y-57536D01*
X93898Y-57536D01*
X93991Y-57497D01*
X94062Y-57426D01*
X94075Y-57395D01*
X94075Y-62485D01*
X94062Y-62455D01*
X94005Y-62397D01*
X94005Y-57829D01*
X93973Y-57754D01*
X93916Y-57696D01*
X93840Y-57665D01*
X93759Y-57664D01*
X93684Y-57696D01*
X93626Y-57753D01*
X93595Y-57829D01*
X93594Y-57910D01*
X93626Y-57985D01*
X93683Y-58043D01*
X93759Y-58074D01*
X93840Y-58075D01*
X93915Y-58043D01*
X93973Y-57986D01*
X94004Y-57910D01*
X94005Y-57829D01*
X94005Y-62397D01*
X93991Y-62384D01*
X93898Y-62345D01*
X93798Y-62345D01*
X93705Y-62384D01*
X93634Y-62455D01*
X93595Y-62547D01*
X93595Y-62648D01*
X93634Y-62741D01*
X93705Y-62812D01*
X93797Y-62851D01*
X93898Y-62851D01*
X93991Y-62812D01*
X94062Y-62741D01*
X94075Y-62710D01*
X94075Y-64165D01*
M02*
