M48
;DRILL file {Pcbnew (2013-07-07 BZR 4022)-stable} date 6/24/2016 5:10:20 PM
;FORMAT={-:-/ absolute / inch / decimal}
FMAT,2
INCH,TZ
T1C0.010
T2C0.012
%
G90
G05
M72
T1
X8.0584Y-5.5294
X8.1185Y-5.798
X8.127Y-5.678
X8.134Y-5.8435
X8.138Y-5.7935
X8.152Y-5.587
X8.167Y-5.676
X8.167Y-5.72
X8.1875Y-5.598
X8.197Y-5.7955
X8.206Y-5.678
X8.21Y-5.192
X8.236Y-5.321
X8.239Y-5.292
X8.239Y-5.357
X8.246Y-6.267
X8.271Y-5.486
X8.274Y-5.515
X8.276Y-5.121
X8.276Y-5.223
X8.276Y-5.288
X8.277Y-5.319
X8.278Y-5.358
X8.295Y-6.2735
X8.297Y-5.156
X8.301Y-5.489
X8.301Y-5.967
X8.303Y-5.516
X8.315Y-5.9843
X8.344Y-6.2895
X8.372Y-5.141
X8.383Y-5.698
X8.3858Y-5.9567
X8.405Y-5.712
X8.4055Y-5.9449
X8.4252Y-5.2992
X8.43Y-5.722
X8.4528Y-5.6024
X8.454Y-5.734
X8.47Y-6.25
X8.4882Y-5.3622
X8.4921Y-5.6024
X8.5265Y-6.354
X8.578Y-6.326
X8.5945Y-5.5394
X8.6045Y-5.4595
X8.616Y-5.435
X8.6245Y-5.461
X8.6335Y-5.4435
X8.646Y-5.281
X8.6535Y-5.7874
X8.668Y-5.545
X8.6969Y-5.7008
X8.711Y-5.9715
X8.716Y-5.24
X8.7205Y-5.7638
X8.723Y-6.111
X8.726Y-6.139
X8.7295Y-5.9565
X8.7409Y-6.1193
X8.744Y-6.313
X8.747Y-5.237
X8.748Y-5.7638
X8.755Y-5.92
X8.766Y-5.893
X8.766Y-6.106
X8.767Y-6.138
X8.768Y-6.349
X8.7715Y-5.0945
X8.775Y-5.263
X8.7756Y-5.7638
X8.7795Y-5.7874
X8.7795Y-5.815
X8.784Y-5.227
X8.788Y-5.306
X8.79Y-5.9705
X8.829Y-5.971
X8.8395Y-5.7885
X8.843Y-6.22
X8.844Y-5.298
X8.844Y-5.375
X8.846Y-5.538
X8.858Y-5.242
X8.8775Y-6.1
X8.8858Y-5.7992
X8.8915Y-5.22
X8.903Y-6.228
X8.9055Y-5.874
X8.9073Y-6.2067
X8.908Y-5.273
X8.9094Y-5.7953
X8.912Y-5.625
X8.915Y-6.273
X8.9331Y-5.7913
X8.936Y-6.275
X8.956Y-6.232
X8.957Y-6.199
X8.958Y-6.272
X8.964Y-6.256
X8.969Y-5.184
X8.971Y-6.215
X8.9725Y-5.3405
X8.9815Y-5.698
X8.989Y-5.287
X8.992Y-5.411
X9.0005Y-5.2045
X9.0157Y-5.874
X9.0175Y-5.548
X9.0236Y-5.2913
X9.0354Y-6.0118
X9.0413Y-6.2421
X9.0669Y-5.874
X9.1142Y-5.4567
X9.1405Y-5.157
X9.1614Y-5.4134
X9.1654Y-5.9567
X9.2135Y-6.3535
X9.221Y-5.3595
X9.259Y-5.551
X9.2665Y-5.4165
X9.2805Y-5.229
T2
X8.068Y-6.295
X8.07Y-6.338
X8.075Y-6.385
X8.1061Y-6.3259
X8.113Y-6.381
X8.116Y-5.163
X8.117Y-5.306
X8.1535Y-5.9785
X8.16Y-5.375
X8.1625Y-6.0215
X8.171Y-6.168
X8.23Y-6.321
X8.246Y-5.202
X8.288Y-6.319
X8.3035Y-6.2485
X8.373Y-5.31
X8.46Y-5.819
X8.49Y-5.819
X8.501Y-5.068
X8.505Y-5.941
X8.517Y-5.961
X8.54Y-6.318
X8.982Y-5.809
X9.03Y-6.306
X9.03Y-6.346
X9.05Y-6.323
X9.052Y-5.79
X9.07Y-5.653
X9.07Y-5.816
X9.073Y-6.32
X9.073Y-6.345
X9.109Y-5.697
X9.38Y-5.787
X9.38Y-6.313
X9.381Y-5.253
X9.381Y-5.373
X9.383Y-5.906
X9.385Y-6.085
T0
M30
