G04 (created by PCBNEW (2013-07-07 BZR 4022)-stable) date 6/24/2016 5:08:50 PM*
%MOIN*%
G04 Gerber Fmt 3.4, Leading zero omitted, Abs format*
%FSLAX34Y34*%
G01*
G70*
G90*
G04 APERTURE LIST*
%ADD10C,0.00590551*%
%ADD11C,0.005*%
G04 APERTURE END LIST*
G54D10*
G54D11*
X92820Y-52540D02*
X91620Y-52540D01*
X91620Y-52540D02*
X91620Y-52240D01*
X91620Y-52240D02*
X92820Y-52240D01*
X92820Y-52240D02*
X92820Y-52540D01*
X91037Y-62690D02*
X90537Y-62690D01*
X91037Y-62190D02*
X90547Y-62190D01*
X91037Y-62040D02*
X91037Y-62840D01*
X91037Y-62840D02*
X90537Y-62840D01*
X90537Y-62840D02*
X90537Y-62040D01*
X90537Y-62040D02*
X91037Y-62040D01*
X83090Y-56300D02*
X83590Y-56300D01*
X83090Y-56800D02*
X83580Y-56800D01*
X83090Y-56950D02*
X83090Y-56150D01*
X83090Y-56150D02*
X83590Y-56150D01*
X83590Y-56150D02*
X83590Y-56950D01*
X83590Y-56950D02*
X83090Y-56950D01*
G54D10*
X84609Y-61112D02*
X84490Y-61112D01*
X84609Y-61387D02*
X84490Y-61387D01*
X84609Y-60562D02*
X84490Y-60562D01*
X84609Y-60837D02*
X84490Y-60837D01*
X88248Y-63287D02*
X88248Y-63169D01*
X87972Y-63287D02*
X87972Y-63169D01*
X88248Y-62224D02*
X88248Y-62106D01*
X87972Y-62224D02*
X87972Y-62106D01*
X83760Y-58787D02*
X83879Y-58787D01*
X83760Y-58512D02*
X83879Y-58512D01*
X83879Y-57942D02*
X83760Y-57942D01*
X83879Y-58217D02*
X83760Y-58217D01*
X86012Y-62850D02*
X86012Y-62969D01*
X86287Y-62850D02*
X86287Y-62969D01*
X80820Y-55757D02*
X80939Y-55757D01*
X80820Y-55482D02*
X80939Y-55482D01*
X80790Y-55137D02*
X80909Y-55137D01*
X80790Y-54862D02*
X80909Y-54862D01*
X86022Y-61750D02*
X86022Y-61869D01*
X86297Y-61750D02*
X86297Y-61869D01*
X91427Y-52899D02*
X91427Y-52780D01*
X91152Y-52899D02*
X91152Y-52780D01*
X81880Y-55137D02*
X81999Y-55137D01*
X81880Y-54862D02*
X81999Y-54862D01*
X91770Y-57667D02*
X91889Y-57667D01*
X91770Y-57392D02*
X91889Y-57392D01*
X91760Y-58807D02*
X91879Y-58807D01*
X91760Y-58532D02*
X91879Y-58532D01*
X88731Y-58133D02*
G75*
G03X88731Y-58133I-55J0D01*
G74*
G01*
X88731Y-58133D02*
G75*
G03X88731Y-58133I-55J0D01*
G74*
G01*
X88731Y-58133D02*
G75*
G03X88731Y-58133I-55J0D01*
G74*
G01*
X88763Y-58133D02*
G75*
G03X88763Y-58133I-88J0D01*
G74*
G01*
X88286Y-57938D02*
X88425Y-58077D01*
X88425Y-58077D02*
X88564Y-57938D01*
X90930Y-55572D02*
X91069Y-55433D01*
X91069Y-55433D02*
X90930Y-55293D01*
X88564Y-52927D02*
X88425Y-52788D01*
X88425Y-52788D02*
X88286Y-52927D01*
X85919Y-55572D02*
X85780Y-55433D01*
X85780Y-55433D02*
X85919Y-55293D01*
X84109Y-63287D02*
X83912Y-63287D01*
X83912Y-63287D02*
X83912Y-63090D01*
X85487Y-63090D02*
X85290Y-63287D01*
X85290Y-61712D02*
X85487Y-61712D01*
X85487Y-61712D02*
X85487Y-61909D01*
X83912Y-61909D02*
X83912Y-61712D01*
X83912Y-61712D02*
X84109Y-61712D01*
X82359Y-51990D02*
X82359Y-52088D01*
X82359Y-52088D02*
X82556Y-52088D01*
X82359Y-50809D02*
X82556Y-50711D01*
X83540Y-51990D02*
X83540Y-52088D01*
X83540Y-52088D02*
X83343Y-52088D01*
X83343Y-50711D02*
X83540Y-50711D01*
X83540Y-50711D02*
X83540Y-50809D01*
X84849Y-54587D02*
X84626Y-54809D01*
X85294Y-55032D02*
X85071Y-55255D01*
X85501Y-55199D02*
G75*
G03X85501Y-55199I-39J0D01*
G74*
G01*
X85549Y-55199D02*
G75*
G03X85549Y-55199I-88J0D01*
G74*
G01*
X85579Y-55199D02*
G75*
G03X85579Y-55199I-118J0D01*
G74*
G01*
G54D11*
X85635Y-56880D02*
X85635Y-56240D01*
X84735Y-56240D02*
X84735Y-56880D01*
X84555Y-56240D02*
X84555Y-56880D01*
X84555Y-56880D02*
X85815Y-56880D01*
X85815Y-56880D02*
X85815Y-56240D01*
X85815Y-56240D02*
X84555Y-56240D01*
X85150Y-57870D02*
X84510Y-57870D01*
X84510Y-58770D02*
X85150Y-58770D01*
X84510Y-58950D02*
X85150Y-58950D01*
X85150Y-58950D02*
X85150Y-57690D01*
X85150Y-57690D02*
X84510Y-57690D01*
X84510Y-57690D02*
X84510Y-58950D01*
X81840Y-58290D02*
X81840Y-58930D01*
X82740Y-58930D02*
X82740Y-58290D01*
X82920Y-58930D02*
X82920Y-58290D01*
X82920Y-58290D02*
X81660Y-58290D01*
X81660Y-58290D02*
X81660Y-58930D01*
X81660Y-58930D02*
X82920Y-58930D01*
X87190Y-61915D02*
X87690Y-61915D01*
X87190Y-62415D02*
X87680Y-62415D01*
X87190Y-62565D02*
X87190Y-61765D01*
X87190Y-61765D02*
X87690Y-61765D01*
X87690Y-61765D02*
X87690Y-62565D01*
X87690Y-62565D02*
X87190Y-62565D01*
X81760Y-50900D02*
X81760Y-50580D01*
X81320Y-50590D02*
X81320Y-50900D01*
X81220Y-50580D02*
X81860Y-50580D01*
X81860Y-50580D02*
X81860Y-50900D01*
X81860Y-50900D02*
X81220Y-50900D01*
X81220Y-50900D02*
X81220Y-50580D01*
X86804Y-57398D02*
X86577Y-57172D01*
X86273Y-57490D02*
X86493Y-57709D01*
X86196Y-57554D02*
X86648Y-57101D01*
X86648Y-57101D02*
X86874Y-57327D01*
X86874Y-57327D02*
X86422Y-57780D01*
X86422Y-57780D02*
X86196Y-57554D01*
X89967Y-53388D02*
X90193Y-53615D01*
X90497Y-53296D02*
X90278Y-53077D01*
X90575Y-53233D02*
X90123Y-53685D01*
X90123Y-53685D02*
X89896Y-53459D01*
X89896Y-53459D02*
X90349Y-53007D01*
X90349Y-53007D02*
X90575Y-53233D01*
X86762Y-52678D02*
X86988Y-52452D01*
X86670Y-52148D02*
X86451Y-52367D01*
X86606Y-52070D02*
X87059Y-52523D01*
X87059Y-52523D02*
X86833Y-52749D01*
X86833Y-52749D02*
X86380Y-52296D01*
X86380Y-52296D02*
X86606Y-52070D01*
X90873Y-54136D02*
X91099Y-54363D01*
X91403Y-54044D02*
X91184Y-53825D01*
X91481Y-53981D02*
X91028Y-54433D01*
X91028Y-54433D02*
X90802Y-54207D01*
X90802Y-54207D02*
X91254Y-53755D01*
X91254Y-53755D02*
X91481Y-53981D01*
X84100Y-51040D02*
X84100Y-51360D01*
X84540Y-51350D02*
X84540Y-51040D01*
X84640Y-51360D02*
X84000Y-51360D01*
X84000Y-51360D02*
X84000Y-51040D01*
X84000Y-51040D02*
X84640Y-51040D01*
X84640Y-51040D02*
X84640Y-51360D01*
X83490Y-52510D02*
X83170Y-52510D01*
X83180Y-52950D02*
X83490Y-52950D01*
X83170Y-53050D02*
X83170Y-52410D01*
X83170Y-52410D02*
X83490Y-52410D01*
X83490Y-52410D02*
X83490Y-53050D01*
X83490Y-53050D02*
X83170Y-53050D01*
X84100Y-50510D02*
X84100Y-50830D01*
X84540Y-50820D02*
X84540Y-50510D01*
X84640Y-50830D02*
X84000Y-50830D01*
X84000Y-50830D02*
X84000Y-50510D01*
X84000Y-50510D02*
X84640Y-50510D01*
X84640Y-50510D02*
X84640Y-50830D01*
X81750Y-51460D02*
X81750Y-51140D01*
X81310Y-51150D02*
X81310Y-51460D01*
X81210Y-51140D02*
X81850Y-51140D01*
X81850Y-51140D02*
X81850Y-51460D01*
X81850Y-51460D02*
X81210Y-51460D01*
X81210Y-51460D02*
X81210Y-51140D01*
X84648Y-54126D02*
X84874Y-53900D01*
X84556Y-53596D02*
X84337Y-53815D01*
X84493Y-53518D02*
X84945Y-53971D01*
X84945Y-53971D02*
X84719Y-54197D01*
X84719Y-54197D02*
X84266Y-53745D01*
X84266Y-53745D02*
X84493Y-53518D01*
X90587Y-56751D02*
X90361Y-56977D01*
X90679Y-57281D02*
X90898Y-57062D01*
X90743Y-57359D02*
X90290Y-56906D01*
X90290Y-56906D02*
X90516Y-56680D01*
X90516Y-56680D02*
X90969Y-57133D01*
X90969Y-57133D02*
X90743Y-57359D01*
X82160Y-63280D02*
X81840Y-63280D01*
X81850Y-63720D02*
X82160Y-63720D01*
X81840Y-63820D02*
X81840Y-63180D01*
X81840Y-63180D02*
X82160Y-63180D01*
X82160Y-63180D02*
X82160Y-63820D01*
X82160Y-63820D02*
X81840Y-63820D01*
X83979Y-54796D02*
X84205Y-54569D01*
X83887Y-54265D02*
X83668Y-54485D01*
X83823Y-54188D02*
X84276Y-54640D01*
X84276Y-54640D02*
X84050Y-54866D01*
X84050Y-54866D02*
X83597Y-54414D01*
X83597Y-54414D02*
X83823Y-54188D01*
X81210Y-58510D02*
X80890Y-58510D01*
X80900Y-58950D02*
X81210Y-58950D01*
X80890Y-59050D02*
X80890Y-58410D01*
X80890Y-58410D02*
X81210Y-58410D01*
X81210Y-58410D02*
X81210Y-59050D01*
X81210Y-59050D02*
X80890Y-59050D01*
X84040Y-57710D02*
X84040Y-57390D01*
X83600Y-57400D02*
X83600Y-57710D01*
X83500Y-57390D02*
X84140Y-57390D01*
X84140Y-57390D02*
X84140Y-57710D01*
X84140Y-57710D02*
X83500Y-57710D01*
X83500Y-57710D02*
X83500Y-57390D01*
X83610Y-59010D02*
X83610Y-59330D01*
X84050Y-59320D02*
X84050Y-59010D01*
X84150Y-59330D02*
X83510Y-59330D01*
X83510Y-59330D02*
X83510Y-59010D01*
X83510Y-59010D02*
X84150Y-59010D01*
X84150Y-59010D02*
X84150Y-59330D01*
X88860Y-62220D02*
X88540Y-62220D01*
X88550Y-62660D02*
X88860Y-62660D01*
X88540Y-62760D02*
X88540Y-62120D01*
X88540Y-62120D02*
X88860Y-62120D01*
X88860Y-62120D02*
X88860Y-62760D01*
X88860Y-62760D02*
X88540Y-62760D01*
X84648Y-52985D02*
X84874Y-52758D01*
X84556Y-52454D02*
X84337Y-52674D01*
X84493Y-52377D02*
X84945Y-52829D01*
X84945Y-52829D02*
X84719Y-53055D01*
X84719Y-53055D02*
X84266Y-52603D01*
X84266Y-52603D02*
X84493Y-52377D01*
X85278Y-52315D02*
X85504Y-52089D01*
X85186Y-51785D02*
X84967Y-52004D01*
X85123Y-51707D02*
X85575Y-52160D01*
X85575Y-52160D02*
X85349Y-52386D01*
X85349Y-52386D02*
X84896Y-51934D01*
X84896Y-51934D02*
X85123Y-51707D01*
X82880Y-54490D02*
X82880Y-54170D01*
X82440Y-54180D02*
X82440Y-54490D01*
X82340Y-54170D02*
X82980Y-54170D01*
X82980Y-54170D02*
X82980Y-54490D01*
X82980Y-54490D02*
X82340Y-54490D01*
X82340Y-54490D02*
X82340Y-54170D01*
X92050Y-58270D02*
X92050Y-57950D01*
X91610Y-57960D02*
X91610Y-58270D01*
X91510Y-57950D02*
X92150Y-57950D01*
X92150Y-57950D02*
X92150Y-58270D01*
X92150Y-58270D02*
X91510Y-58270D01*
X91510Y-58270D02*
X91510Y-57950D01*
X83040Y-60620D02*
X83360Y-60620D01*
X83350Y-60180D02*
X83040Y-60180D01*
X83360Y-60080D02*
X83360Y-60720D01*
X83360Y-60720D02*
X83040Y-60720D01*
X83040Y-60720D02*
X83040Y-60080D01*
X83040Y-60080D02*
X83360Y-60080D01*
X83590Y-60620D02*
X83910Y-60620D01*
X83900Y-60180D02*
X83590Y-60180D01*
X83910Y-60080D02*
X83910Y-60720D01*
X83910Y-60720D02*
X83590Y-60720D01*
X83590Y-60720D02*
X83590Y-60080D01*
X83590Y-60080D02*
X83910Y-60080D01*
X82970Y-62360D02*
X82970Y-62040D01*
X82530Y-62050D02*
X82530Y-62360D01*
X82430Y-62040D02*
X83070Y-62040D01*
X83070Y-62040D02*
X83070Y-62360D01*
X83070Y-62360D02*
X82430Y-62360D01*
X82430Y-62360D02*
X82430Y-62040D01*
X82760Y-63280D02*
X82440Y-63280D01*
X82450Y-63720D02*
X82760Y-63720D01*
X82440Y-63820D02*
X82440Y-63180D01*
X82440Y-63180D02*
X82760Y-63180D01*
X82760Y-63180D02*
X82760Y-63820D01*
X82760Y-63820D02*
X82440Y-63820D01*
X83360Y-63280D02*
X83040Y-63280D01*
X83050Y-63720D02*
X83360Y-63720D01*
X83040Y-63820D02*
X83040Y-63180D01*
X83040Y-63180D02*
X83360Y-63180D01*
X83360Y-63180D02*
X83360Y-63820D01*
X83360Y-63820D02*
X83040Y-63820D01*
G54D10*
X85654Y-54448D02*
G75*
G03X85654Y-54448I-39J0D01*
G74*
G01*
X85671Y-54448D02*
G75*
G03X85671Y-54448I-55J0D01*
G74*
G01*
X85703Y-54448D02*
G75*
G03X85703Y-54448I-88J0D01*
G74*
G01*
X85726Y-54448D02*
G75*
G03X85726Y-54448I-111J0D01*
G74*
G01*
X85757Y-54448D02*
G75*
G03X85757Y-54448I-141J0D01*
G74*
G01*
X89330Y-61732D02*
G75*
G03X89330Y-61732I-39J0D01*
G74*
G01*
X89291Y-62559D02*
X90000Y-62559D01*
X89291Y-61771D02*
X90000Y-61771D01*
X82560Y-57782D02*
X82659Y-57683D01*
X80789Y-57782D02*
X80690Y-57782D01*
X80690Y-57782D02*
X80690Y-57487D01*
X80789Y-56207D02*
X80690Y-56207D01*
X80690Y-56207D02*
X80690Y-56502D01*
X82659Y-56502D02*
X82659Y-56207D01*
X82659Y-56207D02*
X82560Y-56207D01*
X82659Y-57487D02*
X82659Y-57782D01*
X82659Y-57782D02*
X82560Y-57782D01*
X88242Y-51294D02*
X88242Y-51175D01*
X87967Y-51294D02*
X87967Y-51175D01*
X88827Y-51294D02*
X88827Y-51175D01*
X88552Y-51294D02*
X88552Y-51175D01*
X92090Y-55317D02*
X92209Y-55317D01*
X92090Y-55042D02*
X92209Y-55042D01*
X92219Y-54472D02*
X92100Y-54472D01*
X92219Y-54747D02*
X92100Y-54747D01*
X82019Y-61340D02*
X81625Y-61340D01*
X81625Y-61190D01*
X81644Y-61153D01*
X81663Y-61134D01*
X81700Y-61115D01*
X81756Y-61115D01*
X81794Y-61134D01*
X81813Y-61153D01*
X81831Y-61190D01*
X81831Y-61340D01*
X82019Y-60740D02*
X82019Y-60965D01*
X82019Y-60853D02*
X81625Y-60853D01*
X81681Y-60890D01*
X81719Y-60928D01*
X81738Y-60965D01*
X88973Y-51865D02*
X89198Y-51865D01*
X89085Y-52259D02*
X89085Y-51865D01*
X89329Y-52259D02*
X89329Y-51865D01*
X89479Y-51865D01*
X89516Y-51884D01*
X89535Y-51903D01*
X89554Y-51940D01*
X89554Y-51996D01*
X89535Y-52034D01*
X89516Y-52053D01*
X89479Y-52071D01*
X89329Y-52071D01*
X89779Y-52034D02*
X89741Y-52015D01*
X89723Y-51996D01*
X89704Y-51959D01*
X89704Y-51940D01*
X89723Y-51903D01*
X89741Y-51884D01*
X89779Y-51865D01*
X89854Y-51865D01*
X89891Y-51884D01*
X89910Y-51903D01*
X89929Y-51940D01*
X89929Y-51959D01*
X89910Y-51996D01*
X89891Y-52015D01*
X89854Y-52034D01*
X89779Y-52034D01*
X89741Y-52053D01*
X89723Y-52071D01*
X89704Y-52109D01*
X89704Y-52184D01*
X89723Y-52221D01*
X89741Y-52240D01*
X89779Y-52259D01*
X89854Y-52259D01*
X89891Y-52240D01*
X89910Y-52221D01*
X89929Y-52184D01*
X89929Y-52109D01*
X89910Y-52071D01*
X89891Y-52053D01*
X89854Y-52034D01*
X81860Y-53230D02*
X82085Y-53230D01*
X81973Y-53624D02*
X81973Y-53230D01*
X82216Y-53624D02*
X82216Y-53230D01*
X82366Y-53230D01*
X82404Y-53249D01*
X82423Y-53268D01*
X82441Y-53305D01*
X82441Y-53361D01*
X82423Y-53399D01*
X82404Y-53418D01*
X82366Y-53436D01*
X82216Y-53436D01*
X82816Y-53624D02*
X82591Y-53624D01*
X82704Y-53624D02*
X82704Y-53230D01*
X82666Y-53286D01*
X82629Y-53324D01*
X82591Y-53343D01*
X83191Y-53624D02*
X82966Y-53624D01*
X83079Y-53624D02*
X83079Y-53230D01*
X83041Y-53286D01*
X83004Y-53324D01*
X82966Y-53343D01*
X87633Y-60395D02*
X87858Y-60395D01*
X87745Y-60788D02*
X87745Y-60395D01*
X87989Y-60788D02*
X87989Y-60395D01*
X88139Y-60395D01*
X88176Y-60413D01*
X88195Y-60432D01*
X88214Y-60470D01*
X88214Y-60526D01*
X88195Y-60563D01*
X88176Y-60582D01*
X88139Y-60601D01*
X87989Y-60601D01*
X88401Y-60788D02*
X88476Y-60788D01*
X88514Y-60770D01*
X88533Y-60751D01*
X88570Y-60695D01*
X88589Y-60620D01*
X88589Y-60470D01*
X88570Y-60432D01*
X88551Y-60413D01*
X88514Y-60395D01*
X88439Y-60395D01*
X88401Y-60413D01*
X88383Y-60432D01*
X88364Y-60470D01*
X88364Y-60563D01*
X88383Y-60601D01*
X88401Y-60620D01*
X88439Y-60638D01*
X88514Y-60638D01*
X88551Y-60620D01*
X88570Y-60601D01*
X88589Y-60563D01*
X80355Y-58814D02*
X80355Y-58589D01*
X80749Y-58701D02*
X80355Y-58701D01*
X80749Y-58458D02*
X80355Y-58458D01*
X80355Y-58308D01*
X80374Y-58270D01*
X80393Y-58251D01*
X80430Y-58233D01*
X80486Y-58233D01*
X80524Y-58251D01*
X80543Y-58270D01*
X80561Y-58308D01*
X80561Y-58458D01*
X80749Y-57858D02*
X80749Y-58083D01*
X80749Y-57970D02*
X80355Y-57970D01*
X80411Y-58008D01*
X80449Y-58045D01*
X80468Y-58083D01*
X80355Y-57614D02*
X80355Y-57576D01*
X80374Y-57539D01*
X80393Y-57520D01*
X80430Y-57501D01*
X80505Y-57483D01*
X80599Y-57483D01*
X80674Y-57501D01*
X80711Y-57520D01*
X80730Y-57539D01*
X80749Y-57576D01*
X80749Y-57614D01*
X80730Y-57651D01*
X80711Y-57670D01*
X80674Y-57689D01*
X80599Y-57708D01*
X80505Y-57708D01*
X80430Y-57689D01*
X80393Y-57670D01*
X80374Y-57651D01*
X80355Y-57614D01*
X87643Y-52315D02*
X87868Y-52315D01*
X87755Y-52709D02*
X87755Y-52315D01*
X87999Y-52709D02*
X87999Y-52315D01*
X88149Y-52315D01*
X88186Y-52334D01*
X88205Y-52353D01*
X88224Y-52390D01*
X88224Y-52446D01*
X88205Y-52484D01*
X88186Y-52503D01*
X88149Y-52521D01*
X87999Y-52521D01*
X88355Y-52315D02*
X88618Y-52315D01*
X88449Y-52709D01*
X86845Y-52106D02*
X86845Y-51881D01*
X87239Y-51994D02*
X86845Y-51994D01*
X87239Y-51750D02*
X86845Y-51750D01*
X86845Y-51600D01*
X86864Y-51563D01*
X86883Y-51544D01*
X86920Y-51525D01*
X86976Y-51525D01*
X87014Y-51544D01*
X87033Y-51563D01*
X87051Y-51600D01*
X87051Y-51750D01*
X86845Y-51188D02*
X86845Y-51263D01*
X86864Y-51300D01*
X86883Y-51319D01*
X86939Y-51356D01*
X87014Y-51375D01*
X87164Y-51375D01*
X87201Y-51356D01*
X87220Y-51338D01*
X87239Y-51300D01*
X87239Y-51225D01*
X87220Y-51188D01*
X87201Y-51169D01*
X87164Y-51150D01*
X87070Y-51150D01*
X87033Y-51169D01*
X87014Y-51188D01*
X86995Y-51225D01*
X86995Y-51300D01*
X87014Y-51338D01*
X87033Y-51356D01*
X87070Y-51375D01*
X85808Y-59585D02*
X86033Y-59585D01*
X85920Y-59979D02*
X85920Y-59585D01*
X86164Y-59979D02*
X86164Y-59585D01*
X86314Y-59585D01*
X86351Y-59604D01*
X86370Y-59623D01*
X86389Y-59660D01*
X86389Y-59716D01*
X86370Y-59754D01*
X86351Y-59773D01*
X86314Y-59791D01*
X86164Y-59791D01*
X86539Y-59623D02*
X86558Y-59604D01*
X86595Y-59585D01*
X86689Y-59585D01*
X86726Y-59604D01*
X86745Y-59623D01*
X86764Y-59660D01*
X86764Y-59698D01*
X86745Y-59754D01*
X86520Y-59979D01*
X86764Y-59979D01*
X91863Y-55735D02*
X92088Y-55735D01*
X91975Y-56129D02*
X91975Y-55735D01*
X92219Y-56129D02*
X92219Y-55735D01*
X92369Y-55735D01*
X92406Y-55754D01*
X92425Y-55773D01*
X92444Y-55810D01*
X92444Y-55866D01*
X92425Y-55904D01*
X92406Y-55923D01*
X92369Y-55941D01*
X92219Y-55941D01*
X92575Y-55735D02*
X92819Y-55735D01*
X92688Y-55885D01*
X92744Y-55885D01*
X92781Y-55904D01*
X92800Y-55923D01*
X92819Y-55960D01*
X92819Y-56054D01*
X92800Y-56091D01*
X92781Y-56110D01*
X92744Y-56129D01*
X92631Y-56129D01*
X92594Y-56110D01*
X92575Y-56091D01*
X90608Y-56600D02*
X90833Y-56600D01*
X90720Y-56994D02*
X90720Y-56600D01*
X90964Y-56994D02*
X90964Y-56600D01*
X91114Y-56600D01*
X91151Y-56619D01*
X91170Y-56638D01*
X91189Y-56675D01*
X91189Y-56731D01*
X91170Y-56769D01*
X91151Y-56788D01*
X91114Y-56806D01*
X90964Y-56806D01*
X91526Y-56731D02*
X91526Y-56994D01*
X91433Y-56581D02*
X91339Y-56863D01*
X91583Y-56863D01*
X92233Y-56335D02*
X92458Y-56335D01*
X92345Y-56729D02*
X92345Y-56335D01*
X92589Y-56729D02*
X92589Y-56335D01*
X92739Y-56335D01*
X92776Y-56354D01*
X92795Y-56373D01*
X92814Y-56410D01*
X92814Y-56466D01*
X92795Y-56504D01*
X92776Y-56523D01*
X92739Y-56541D01*
X92589Y-56541D01*
X93170Y-56335D02*
X92983Y-56335D01*
X92964Y-56523D01*
X92983Y-56504D01*
X93020Y-56485D01*
X93114Y-56485D01*
X93151Y-56504D01*
X93170Y-56523D01*
X93189Y-56560D01*
X93189Y-56654D01*
X93170Y-56691D01*
X93151Y-56710D01*
X93114Y-56729D01*
X93020Y-56729D01*
X92983Y-56710D01*
X92964Y-56691D01*
X85798Y-57985D02*
X86023Y-57985D01*
X85910Y-58379D02*
X85910Y-57985D01*
X86154Y-58379D02*
X86154Y-57985D01*
X86304Y-57985D01*
X86341Y-58004D01*
X86360Y-58023D01*
X86379Y-58060D01*
X86379Y-58116D01*
X86360Y-58154D01*
X86341Y-58173D01*
X86304Y-58191D01*
X86154Y-58191D01*
X86754Y-58379D02*
X86529Y-58379D01*
X86641Y-58379D02*
X86641Y-57985D01*
X86604Y-58041D01*
X86566Y-58079D01*
X86529Y-58098D01*
X92227Y-51701D02*
X92190Y-51683D01*
X92152Y-51645D01*
X92096Y-51589D01*
X92058Y-51570D01*
X92021Y-51570D01*
X92040Y-51664D02*
X92002Y-51645D01*
X91965Y-51608D01*
X91946Y-51533D01*
X91946Y-51401D01*
X91965Y-51326D01*
X92002Y-51289D01*
X92040Y-51270D01*
X92115Y-51270D01*
X92152Y-51289D01*
X92190Y-51326D01*
X92208Y-51401D01*
X92208Y-51533D01*
X92190Y-51608D01*
X92152Y-51645D01*
X92115Y-51664D01*
X92040Y-51664D01*
X92583Y-51664D02*
X92358Y-51664D01*
X92471Y-51664D02*
X92471Y-51270D01*
X92433Y-51326D01*
X92396Y-51364D01*
X92358Y-51383D01*
X91629Y-62602D02*
X91235Y-62602D01*
X91273Y-62433D02*
X91254Y-62415D01*
X91235Y-62377D01*
X91235Y-62283D01*
X91254Y-62246D01*
X91273Y-62227D01*
X91310Y-62208D01*
X91348Y-62208D01*
X91404Y-62227D01*
X91629Y-62452D01*
X91629Y-62208D01*
X83192Y-55739D02*
X83192Y-55345D01*
X83586Y-55739D02*
X83361Y-55739D01*
X83473Y-55739D02*
X83473Y-55345D01*
X83436Y-55401D01*
X83398Y-55439D01*
X83361Y-55458D01*
X85384Y-61459D02*
X85253Y-61271D01*
X85159Y-61459D02*
X85159Y-61065D01*
X85309Y-61065D01*
X85346Y-61084D01*
X85365Y-61103D01*
X85384Y-61140D01*
X85384Y-61196D01*
X85365Y-61234D01*
X85346Y-61253D01*
X85309Y-61271D01*
X85159Y-61271D01*
X85571Y-61459D02*
X85646Y-61459D01*
X85684Y-61440D01*
X85703Y-61421D01*
X85740Y-61365D01*
X85759Y-61290D01*
X85759Y-61140D01*
X85740Y-61103D01*
X85721Y-61084D01*
X85684Y-61065D01*
X85609Y-61065D01*
X85571Y-61084D01*
X85553Y-61103D01*
X85534Y-61140D01*
X85534Y-61234D01*
X85553Y-61271D01*
X85571Y-61290D01*
X85609Y-61309D01*
X85684Y-61309D01*
X85721Y-61290D01*
X85740Y-61271D01*
X85759Y-61234D01*
X85384Y-60859D02*
X85253Y-60671D01*
X85159Y-60859D02*
X85159Y-60465D01*
X85309Y-60465D01*
X85346Y-60484D01*
X85365Y-60503D01*
X85384Y-60540D01*
X85384Y-60596D01*
X85365Y-60634D01*
X85346Y-60653D01*
X85309Y-60671D01*
X85159Y-60671D01*
X85609Y-60634D02*
X85571Y-60615D01*
X85553Y-60596D01*
X85534Y-60559D01*
X85534Y-60540D01*
X85553Y-60503D01*
X85571Y-60484D01*
X85609Y-60465D01*
X85684Y-60465D01*
X85721Y-60484D01*
X85740Y-60503D01*
X85759Y-60540D01*
X85759Y-60559D01*
X85740Y-60596D01*
X85721Y-60615D01*
X85684Y-60634D01*
X85609Y-60634D01*
X85571Y-60653D01*
X85553Y-60671D01*
X85534Y-60709D01*
X85534Y-60784D01*
X85553Y-60821D01*
X85571Y-60840D01*
X85609Y-60859D01*
X85684Y-60859D01*
X85721Y-60840D01*
X85740Y-60821D01*
X85759Y-60784D01*
X85759Y-60709D01*
X85740Y-60671D01*
X85721Y-60653D01*
X85684Y-60634D01*
X87749Y-63325D02*
X87561Y-63456D01*
X87749Y-63550D02*
X87355Y-63550D01*
X87355Y-63400D01*
X87374Y-63363D01*
X87393Y-63344D01*
X87430Y-63325D01*
X87486Y-63325D01*
X87524Y-63344D01*
X87543Y-63363D01*
X87561Y-63400D01*
X87561Y-63550D01*
X87355Y-63194D02*
X87355Y-62931D01*
X87749Y-63100D01*
X88799Y-61535D02*
X88611Y-61666D01*
X88799Y-61760D02*
X88405Y-61760D01*
X88405Y-61610D01*
X88424Y-61573D01*
X88443Y-61554D01*
X88480Y-61535D01*
X88536Y-61535D01*
X88574Y-61554D01*
X88593Y-61573D01*
X88611Y-61610D01*
X88611Y-61760D01*
X88405Y-61198D02*
X88405Y-61273D01*
X88424Y-61310D01*
X88443Y-61329D01*
X88499Y-61366D01*
X88574Y-61385D01*
X88724Y-61385D01*
X88761Y-61366D01*
X88780Y-61348D01*
X88799Y-61310D01*
X88799Y-61235D01*
X88780Y-61198D01*
X88761Y-61179D01*
X88724Y-61160D01*
X88630Y-61160D01*
X88593Y-61179D01*
X88574Y-61198D01*
X88555Y-61235D01*
X88555Y-61310D01*
X88574Y-61348D01*
X88593Y-61366D01*
X88630Y-61385D01*
X82904Y-58149D02*
X82773Y-57961D01*
X82679Y-58149D02*
X82679Y-57755D01*
X82829Y-57755D01*
X82866Y-57774D01*
X82885Y-57793D01*
X82904Y-57830D01*
X82904Y-57886D01*
X82885Y-57924D01*
X82866Y-57943D01*
X82829Y-57961D01*
X82679Y-57961D01*
X83260Y-57755D02*
X83073Y-57755D01*
X83054Y-57943D01*
X83073Y-57924D01*
X83110Y-57905D01*
X83204Y-57905D01*
X83241Y-57924D01*
X83260Y-57943D01*
X83279Y-57980D01*
X83279Y-58074D01*
X83260Y-58111D01*
X83241Y-58130D01*
X83204Y-58149D01*
X83110Y-58149D01*
X83073Y-58130D01*
X83054Y-58111D01*
X84684Y-59699D02*
X84553Y-59511D01*
X84459Y-59699D02*
X84459Y-59305D01*
X84609Y-59305D01*
X84646Y-59324D01*
X84665Y-59343D01*
X84684Y-59380D01*
X84684Y-59436D01*
X84665Y-59474D01*
X84646Y-59493D01*
X84609Y-59511D01*
X84459Y-59511D01*
X85021Y-59436D02*
X85021Y-59699D01*
X84928Y-59286D02*
X84834Y-59568D01*
X85078Y-59568D01*
X86840Y-63182D02*
X86653Y-63314D01*
X86840Y-63407D02*
X86447Y-63407D01*
X86447Y-63257D01*
X86465Y-63220D01*
X86484Y-63201D01*
X86522Y-63182D01*
X86578Y-63182D01*
X86615Y-63201D01*
X86634Y-63220D01*
X86653Y-63257D01*
X86653Y-63407D01*
X86840Y-62807D02*
X86840Y-63032D01*
X86840Y-62920D02*
X86447Y-62920D01*
X86503Y-62957D01*
X86540Y-62995D01*
X86559Y-63032D01*
X86840Y-62432D02*
X86840Y-62657D01*
X86840Y-62545D02*
X86447Y-62545D01*
X86503Y-62582D01*
X86540Y-62620D01*
X86559Y-62657D01*
X80749Y-56275D02*
X80561Y-56406D01*
X80749Y-56500D02*
X80355Y-56500D01*
X80355Y-56350D01*
X80374Y-56313D01*
X80393Y-56294D01*
X80430Y-56275D01*
X80486Y-56275D01*
X80524Y-56294D01*
X80543Y-56313D01*
X80561Y-56350D01*
X80561Y-56500D01*
X80393Y-56125D02*
X80374Y-56106D01*
X80355Y-56069D01*
X80355Y-55975D01*
X80374Y-55938D01*
X80393Y-55919D01*
X80430Y-55900D01*
X80468Y-55900D01*
X80524Y-55919D01*
X80749Y-56144D01*
X80749Y-55900D01*
X80699Y-54684D02*
X80568Y-54496D01*
X80474Y-54684D02*
X80474Y-54290D01*
X80624Y-54290D01*
X80661Y-54309D01*
X80680Y-54328D01*
X80699Y-54365D01*
X80699Y-54421D01*
X80680Y-54459D01*
X80661Y-54478D01*
X80624Y-54496D01*
X80474Y-54496D01*
X81074Y-54684D02*
X80849Y-54684D01*
X80961Y-54684D02*
X80961Y-54290D01*
X80924Y-54346D01*
X80886Y-54384D01*
X80849Y-54403D01*
X86850Y-62082D02*
X86663Y-62214D01*
X86850Y-62307D02*
X86457Y-62307D01*
X86457Y-62157D01*
X86475Y-62120D01*
X86494Y-62101D01*
X86532Y-62082D01*
X86588Y-62082D01*
X86625Y-62101D01*
X86644Y-62120D01*
X86663Y-62157D01*
X86663Y-62307D01*
X86850Y-61707D02*
X86850Y-61932D01*
X86850Y-61820D02*
X86457Y-61820D01*
X86513Y-61857D01*
X86550Y-61895D01*
X86569Y-61932D01*
X86457Y-61464D02*
X86457Y-61426D01*
X86475Y-61389D01*
X86494Y-61370D01*
X86532Y-61351D01*
X86607Y-61332D01*
X86700Y-61332D01*
X86775Y-61351D01*
X86813Y-61370D01*
X86832Y-61389D01*
X86850Y-61426D01*
X86850Y-61464D01*
X86832Y-61501D01*
X86813Y-61520D01*
X86775Y-61539D01*
X86700Y-61557D01*
X86607Y-61557D01*
X86532Y-61539D01*
X86494Y-61520D01*
X86475Y-61501D01*
X86457Y-61464D01*
X91469Y-51983D02*
X91281Y-52114D01*
X91469Y-52208D02*
X91075Y-52208D01*
X91075Y-52058D01*
X91094Y-52020D01*
X91113Y-52001D01*
X91150Y-51983D01*
X91206Y-51983D01*
X91244Y-52001D01*
X91263Y-52020D01*
X91281Y-52058D01*
X91281Y-52208D01*
X91469Y-51608D02*
X91469Y-51833D01*
X91469Y-51720D02*
X91075Y-51720D01*
X91131Y-51758D01*
X91169Y-51795D01*
X91188Y-51833D01*
X91075Y-51251D02*
X91075Y-51439D01*
X91263Y-51458D01*
X91244Y-51439D01*
X91225Y-51401D01*
X91225Y-51308D01*
X91244Y-51270D01*
X91263Y-51251D01*
X91300Y-51233D01*
X91394Y-51233D01*
X91431Y-51251D01*
X91450Y-51270D01*
X91469Y-51308D01*
X91469Y-51401D01*
X91450Y-51439D01*
X91431Y-51458D01*
X81464Y-54724D02*
X81333Y-54536D01*
X81239Y-54724D02*
X81239Y-54330D01*
X81389Y-54330D01*
X81426Y-54349D01*
X81445Y-54368D01*
X81464Y-54405D01*
X81464Y-54461D01*
X81445Y-54499D01*
X81426Y-54518D01*
X81389Y-54536D01*
X81239Y-54536D01*
X81595Y-54330D02*
X81839Y-54330D01*
X81708Y-54480D01*
X81764Y-54480D01*
X81801Y-54499D01*
X81820Y-54518D01*
X81839Y-54555D01*
X81839Y-54649D01*
X81820Y-54686D01*
X81801Y-54705D01*
X81764Y-54724D01*
X81651Y-54724D01*
X81614Y-54705D01*
X81595Y-54686D01*
X92676Y-57699D02*
X92545Y-57511D01*
X92451Y-57699D02*
X92451Y-57305D01*
X92601Y-57305D01*
X92639Y-57324D01*
X92658Y-57343D01*
X92676Y-57380D01*
X92676Y-57436D01*
X92658Y-57474D01*
X92639Y-57493D01*
X92601Y-57511D01*
X92451Y-57511D01*
X93051Y-57699D02*
X92826Y-57699D01*
X92939Y-57699D02*
X92939Y-57305D01*
X92901Y-57361D01*
X92864Y-57399D01*
X92826Y-57418D01*
X93389Y-57436D02*
X93389Y-57699D01*
X93295Y-57286D02*
X93201Y-57568D01*
X93445Y-57568D01*
X92666Y-58874D02*
X92535Y-58686D01*
X92441Y-58874D02*
X92441Y-58480D01*
X92591Y-58480D01*
X92629Y-58499D01*
X92648Y-58518D01*
X92666Y-58555D01*
X92666Y-58611D01*
X92648Y-58649D01*
X92629Y-58668D01*
X92591Y-58686D01*
X92441Y-58686D01*
X93041Y-58874D02*
X92816Y-58874D01*
X92929Y-58874D02*
X92929Y-58480D01*
X92891Y-58536D01*
X92854Y-58574D01*
X92816Y-58593D01*
X93173Y-58480D02*
X93416Y-58480D01*
X93285Y-58630D01*
X93341Y-58630D01*
X93379Y-58649D01*
X93398Y-58668D01*
X93416Y-58705D01*
X93416Y-58799D01*
X93398Y-58836D01*
X93379Y-58855D01*
X93341Y-58874D01*
X93229Y-58874D01*
X93191Y-58855D01*
X93173Y-58836D01*
X89033Y-52602D02*
X88808Y-52827D01*
X88794Y-52867D01*
X88794Y-52893D01*
X88808Y-52933D01*
X88861Y-52986D01*
X88901Y-52999D01*
X88927Y-52999D01*
X88967Y-52986D01*
X89192Y-52761D01*
X89444Y-53013D02*
X89391Y-52960D01*
X89351Y-52946D01*
X89325Y-52946D01*
X89258Y-52960D01*
X89192Y-52999D01*
X89086Y-53105D01*
X89073Y-53145D01*
X89073Y-53172D01*
X89086Y-53211D01*
X89139Y-53265D01*
X89179Y-53278D01*
X89205Y-53278D01*
X89245Y-53265D01*
X89311Y-53198D01*
X89325Y-53158D01*
X89325Y-53132D01*
X89311Y-53092D01*
X89258Y-53039D01*
X89219Y-53026D01*
X89192Y-53026D01*
X89152Y-53039D01*
X84405Y-63515D02*
X84405Y-63834D01*
X84423Y-63871D01*
X84442Y-63890D01*
X84480Y-63909D01*
X84555Y-63909D01*
X84592Y-63890D01*
X84611Y-63871D01*
X84630Y-63834D01*
X84630Y-63515D01*
X84779Y-63515D02*
X85023Y-63515D01*
X84892Y-63665D01*
X84948Y-63665D01*
X84986Y-63684D01*
X85004Y-63703D01*
X85023Y-63740D01*
X85023Y-63834D01*
X85004Y-63871D01*
X84986Y-63890D01*
X84948Y-63909D01*
X84836Y-63909D01*
X84798Y-63890D01*
X84779Y-63871D01*
X81910Y-52195D02*
X81910Y-52514D01*
X81928Y-52551D01*
X81947Y-52570D01*
X81985Y-52589D01*
X82060Y-52589D01*
X82097Y-52570D01*
X82116Y-52551D01*
X82135Y-52514D01*
X82135Y-52195D01*
X82509Y-52195D02*
X82322Y-52195D01*
X82303Y-52383D01*
X82322Y-52364D01*
X82359Y-52345D01*
X82453Y-52345D01*
X82491Y-52364D01*
X82509Y-52383D01*
X82528Y-52420D01*
X82528Y-52514D01*
X82509Y-52551D01*
X82491Y-52570D01*
X82453Y-52589D01*
X82359Y-52589D01*
X82322Y-52570D01*
X82303Y-52551D01*
X85178Y-55359D02*
X85642Y-55452D01*
X85364Y-55174D02*
X85457Y-55638D01*
X85483Y-55107D02*
X85483Y-55081D01*
X85497Y-55041D01*
X85563Y-54975D01*
X85603Y-54961D01*
X85629Y-54961D01*
X85669Y-54975D01*
X85695Y-55001D01*
X85722Y-55054D01*
X85722Y-55372D01*
X85894Y-55200D01*
X84201Y-56773D02*
X84220Y-56791D01*
X84239Y-56848D01*
X84239Y-56885D01*
X84220Y-56941D01*
X84183Y-56979D01*
X84145Y-56998D01*
X84070Y-57016D01*
X84014Y-57016D01*
X83939Y-56998D01*
X83901Y-56979D01*
X83864Y-56941D01*
X83845Y-56885D01*
X83845Y-56848D01*
X83864Y-56791D01*
X83883Y-56773D01*
X83845Y-56641D02*
X83845Y-56398D01*
X83995Y-56529D01*
X83995Y-56473D01*
X84014Y-56435D01*
X84033Y-56416D01*
X84070Y-56398D01*
X84164Y-56398D01*
X84201Y-56416D01*
X84220Y-56435D01*
X84239Y-56473D01*
X84239Y-56585D01*
X84220Y-56623D01*
X84201Y-56641D01*
X83883Y-56248D02*
X83864Y-56229D01*
X83845Y-56191D01*
X83845Y-56098D01*
X83864Y-56060D01*
X83883Y-56041D01*
X83920Y-56023D01*
X83958Y-56023D01*
X84014Y-56041D01*
X84239Y-56266D01*
X84239Y-56023D01*
X85656Y-58705D02*
X85675Y-58724D01*
X85694Y-58780D01*
X85694Y-58818D01*
X85675Y-58874D01*
X85638Y-58911D01*
X85600Y-58930D01*
X85525Y-58949D01*
X85469Y-58949D01*
X85394Y-58930D01*
X85356Y-58911D01*
X85319Y-58874D01*
X85300Y-58818D01*
X85300Y-58780D01*
X85319Y-58724D01*
X85338Y-58705D01*
X85300Y-58574D02*
X85300Y-58330D01*
X85450Y-58461D01*
X85450Y-58405D01*
X85469Y-58368D01*
X85488Y-58349D01*
X85525Y-58330D01*
X85619Y-58330D01*
X85656Y-58349D01*
X85675Y-58368D01*
X85694Y-58405D01*
X85694Y-58518D01*
X85675Y-58555D01*
X85656Y-58574D01*
X82504Y-59411D02*
X82485Y-59430D01*
X82429Y-59449D01*
X82391Y-59449D01*
X82335Y-59430D01*
X82298Y-59393D01*
X82279Y-59355D01*
X82260Y-59280D01*
X82260Y-59224D01*
X82279Y-59149D01*
X82298Y-59111D01*
X82335Y-59074D01*
X82391Y-59055D01*
X82429Y-59055D01*
X82485Y-59074D01*
X82504Y-59093D01*
X82879Y-59449D02*
X82654Y-59449D01*
X82766Y-59449D02*
X82766Y-59055D01*
X82729Y-59111D01*
X82691Y-59149D01*
X82654Y-59168D01*
X87591Y-61115D02*
X87610Y-61134D01*
X87629Y-61190D01*
X87629Y-61228D01*
X87610Y-61284D01*
X87573Y-61321D01*
X87535Y-61340D01*
X87460Y-61359D01*
X87404Y-61359D01*
X87329Y-61340D01*
X87291Y-61321D01*
X87254Y-61284D01*
X87235Y-61228D01*
X87235Y-61190D01*
X87254Y-61134D01*
X87273Y-61115D01*
X87404Y-60890D02*
X87385Y-60928D01*
X87366Y-60946D01*
X87329Y-60965D01*
X87310Y-60965D01*
X87273Y-60946D01*
X87254Y-60928D01*
X87235Y-60890D01*
X87235Y-60815D01*
X87254Y-60778D01*
X87273Y-60759D01*
X87310Y-60740D01*
X87329Y-60740D01*
X87366Y-60759D01*
X87385Y-60778D01*
X87404Y-60815D01*
X87404Y-60890D01*
X87423Y-60928D01*
X87441Y-60946D01*
X87479Y-60965D01*
X87554Y-60965D01*
X87591Y-60946D01*
X87610Y-60928D01*
X87629Y-60890D01*
X87629Y-60815D01*
X87610Y-60778D01*
X87591Y-60759D01*
X87554Y-60740D01*
X87479Y-60740D01*
X87441Y-60759D01*
X87423Y-60778D01*
X87404Y-60815D01*
X80851Y-51123D02*
X80870Y-51141D01*
X80889Y-51198D01*
X80889Y-51235D01*
X80870Y-51291D01*
X80833Y-51329D01*
X80795Y-51348D01*
X80720Y-51366D01*
X80664Y-51366D01*
X80589Y-51348D01*
X80551Y-51329D01*
X80514Y-51291D01*
X80495Y-51235D01*
X80495Y-51198D01*
X80514Y-51141D01*
X80533Y-51123D01*
X80533Y-50973D02*
X80514Y-50954D01*
X80495Y-50916D01*
X80495Y-50823D01*
X80514Y-50785D01*
X80533Y-50766D01*
X80570Y-50748D01*
X80608Y-50748D01*
X80664Y-50766D01*
X80889Y-50991D01*
X80889Y-50748D01*
X80889Y-50373D02*
X80889Y-50598D01*
X80889Y-50485D02*
X80495Y-50485D01*
X80551Y-50523D01*
X80589Y-50560D01*
X80608Y-50598D01*
X86827Y-58105D02*
X86827Y-58131D01*
X86800Y-58184D01*
X86774Y-58211D01*
X86721Y-58237D01*
X86668Y-58237D01*
X86628Y-58224D01*
X86562Y-58184D01*
X86522Y-58144D01*
X86482Y-58078D01*
X86469Y-58038D01*
X86469Y-57985D01*
X86495Y-57932D01*
X86522Y-57906D01*
X86575Y-57879D01*
X86601Y-57879D01*
X86707Y-57773D02*
X86707Y-57747D01*
X86721Y-57707D01*
X86787Y-57641D01*
X86827Y-57627D01*
X86853Y-57627D01*
X86893Y-57641D01*
X86920Y-57667D01*
X86946Y-57720D01*
X86946Y-58038D01*
X87118Y-57866D01*
X86933Y-57495D02*
X87118Y-57309D01*
X87277Y-57707D01*
X89857Y-53285D02*
X89857Y-53311D01*
X89830Y-53364D01*
X89804Y-53391D01*
X89751Y-53417D01*
X89698Y-53417D01*
X89658Y-53404D01*
X89592Y-53364D01*
X89552Y-53324D01*
X89512Y-53258D01*
X89499Y-53218D01*
X89499Y-53165D01*
X89525Y-53112D01*
X89552Y-53086D01*
X89605Y-53059D01*
X89631Y-53059D01*
X89737Y-52953D02*
X89737Y-52927D01*
X89751Y-52887D01*
X89817Y-52821D01*
X89857Y-52807D01*
X89883Y-52807D01*
X89923Y-52821D01*
X89950Y-52847D01*
X89976Y-52900D01*
X89976Y-53218D01*
X90148Y-53046D01*
X90148Y-52728D02*
X90109Y-52741D01*
X90082Y-52741D01*
X90042Y-52728D01*
X90029Y-52715D01*
X90016Y-52675D01*
X90016Y-52648D01*
X90029Y-52609D01*
X90082Y-52556D01*
X90122Y-52542D01*
X90148Y-52542D01*
X90188Y-52556D01*
X90201Y-52569D01*
X90215Y-52609D01*
X90215Y-52635D01*
X90201Y-52675D01*
X90148Y-52728D01*
X90135Y-52768D01*
X90135Y-52794D01*
X90148Y-52834D01*
X90201Y-52887D01*
X90241Y-52900D01*
X90268Y-52900D01*
X90307Y-52887D01*
X90360Y-52834D01*
X90374Y-52794D01*
X90374Y-52768D01*
X90360Y-52728D01*
X90307Y-52675D01*
X90268Y-52662D01*
X90241Y-52662D01*
X90201Y-52675D01*
X85854Y-51392D02*
X85828Y-51392D01*
X85775Y-51365D01*
X85748Y-51339D01*
X85722Y-51286D01*
X85722Y-51233D01*
X85735Y-51193D01*
X85775Y-51127D01*
X85815Y-51087D01*
X85881Y-51047D01*
X85921Y-51034D01*
X85974Y-51034D01*
X86027Y-51060D01*
X86053Y-51087D01*
X86080Y-51140D01*
X86080Y-51166D01*
X86186Y-51272D02*
X86212Y-51272D01*
X86252Y-51286D01*
X86318Y-51352D01*
X86332Y-51392D01*
X86332Y-51418D01*
X86318Y-51458D01*
X86292Y-51485D01*
X86239Y-51511D01*
X85921Y-51511D01*
X86093Y-51683D01*
X86226Y-51816D02*
X86279Y-51869D01*
X86318Y-51882D01*
X86345Y-51882D01*
X86411Y-51869D01*
X86477Y-51829D01*
X86583Y-51723D01*
X86597Y-51683D01*
X86597Y-51657D01*
X86583Y-51617D01*
X86530Y-51564D01*
X86491Y-51551D01*
X86464Y-51551D01*
X86424Y-51564D01*
X86358Y-51630D01*
X86345Y-51670D01*
X86345Y-51697D01*
X86358Y-51736D01*
X86411Y-51789D01*
X86451Y-51803D01*
X86477Y-51803D01*
X86517Y-51789D01*
X90787Y-54060D02*
X90787Y-54086D01*
X90760Y-54139D01*
X90734Y-54166D01*
X90681Y-54192D01*
X90628Y-54192D01*
X90588Y-54179D01*
X90522Y-54139D01*
X90482Y-54099D01*
X90442Y-54033D01*
X90429Y-53993D01*
X90429Y-53940D01*
X90455Y-53887D01*
X90482Y-53861D01*
X90535Y-53834D01*
X90561Y-53834D01*
X90628Y-53715D02*
X90800Y-53543D01*
X90813Y-53741D01*
X90853Y-53702D01*
X90893Y-53688D01*
X90919Y-53688D01*
X90959Y-53702D01*
X91025Y-53768D01*
X91039Y-53808D01*
X91039Y-53834D01*
X91025Y-53874D01*
X90946Y-53954D01*
X90906Y-53967D01*
X90880Y-53967D01*
X90972Y-53370D02*
X90999Y-53344D01*
X91039Y-53331D01*
X91065Y-53331D01*
X91105Y-53344D01*
X91171Y-53384D01*
X91237Y-53450D01*
X91277Y-53516D01*
X91290Y-53556D01*
X91290Y-53582D01*
X91277Y-53622D01*
X91251Y-53649D01*
X91211Y-53662D01*
X91184Y-53662D01*
X91145Y-53649D01*
X91078Y-53609D01*
X91012Y-53543D01*
X90972Y-53476D01*
X90959Y-53437D01*
X90959Y-53410D01*
X90972Y-53370D01*
X84061Y-51821D02*
X84043Y-51840D01*
X83986Y-51859D01*
X83949Y-51859D01*
X83893Y-51840D01*
X83855Y-51803D01*
X83836Y-51765D01*
X83818Y-51690D01*
X83818Y-51634D01*
X83836Y-51559D01*
X83855Y-51521D01*
X83893Y-51484D01*
X83949Y-51465D01*
X83986Y-51465D01*
X84043Y-51484D01*
X84061Y-51503D01*
X84211Y-51503D02*
X84230Y-51484D01*
X84268Y-51465D01*
X84361Y-51465D01*
X84399Y-51484D01*
X84418Y-51503D01*
X84436Y-51540D01*
X84436Y-51578D01*
X84418Y-51634D01*
X84193Y-51859D01*
X84436Y-51859D01*
X84680Y-51465D02*
X84718Y-51465D01*
X84755Y-51484D01*
X84774Y-51503D01*
X84793Y-51540D01*
X84811Y-51615D01*
X84811Y-51709D01*
X84793Y-51784D01*
X84774Y-51821D01*
X84755Y-51840D01*
X84718Y-51859D01*
X84680Y-51859D01*
X84643Y-51840D01*
X84624Y-51821D01*
X84605Y-51784D01*
X84586Y-51709D01*
X84586Y-51615D01*
X84605Y-51540D01*
X84624Y-51503D01*
X84643Y-51484D01*
X84680Y-51465D01*
X83011Y-53013D02*
X83030Y-53031D01*
X83049Y-53088D01*
X83049Y-53125D01*
X83030Y-53181D01*
X82993Y-53219D01*
X82955Y-53238D01*
X82880Y-53256D01*
X82824Y-53256D01*
X82749Y-53238D01*
X82711Y-53219D01*
X82674Y-53181D01*
X82655Y-53125D01*
X82655Y-53088D01*
X82674Y-53031D01*
X82693Y-53013D01*
X82693Y-52863D02*
X82674Y-52844D01*
X82655Y-52806D01*
X82655Y-52713D01*
X82674Y-52675D01*
X82693Y-52656D01*
X82730Y-52638D01*
X82768Y-52638D01*
X82824Y-52656D01*
X83049Y-52881D01*
X83049Y-52638D01*
X82655Y-52506D02*
X82655Y-52263D01*
X82805Y-52394D01*
X82805Y-52338D01*
X82824Y-52300D01*
X82843Y-52281D01*
X82880Y-52263D01*
X82974Y-52263D01*
X83011Y-52281D01*
X83030Y-52300D01*
X83049Y-52338D01*
X83049Y-52450D01*
X83030Y-52488D01*
X83011Y-52506D01*
X85286Y-50821D02*
X85268Y-50840D01*
X85211Y-50859D01*
X85174Y-50859D01*
X85118Y-50840D01*
X85080Y-50803D01*
X85061Y-50765D01*
X85043Y-50690D01*
X85043Y-50634D01*
X85061Y-50559D01*
X85080Y-50521D01*
X85118Y-50484D01*
X85174Y-50465D01*
X85211Y-50465D01*
X85268Y-50484D01*
X85286Y-50503D01*
X85661Y-50859D02*
X85436Y-50859D01*
X85549Y-50859D02*
X85549Y-50465D01*
X85511Y-50521D01*
X85474Y-50559D01*
X85436Y-50578D01*
X85849Y-50859D02*
X85924Y-50859D01*
X85961Y-50840D01*
X85980Y-50821D01*
X86018Y-50765D01*
X86036Y-50690D01*
X86036Y-50540D01*
X86018Y-50503D01*
X85999Y-50484D01*
X85961Y-50465D01*
X85886Y-50465D01*
X85849Y-50484D01*
X85830Y-50503D01*
X85811Y-50540D01*
X85811Y-50634D01*
X85830Y-50671D01*
X85849Y-50690D01*
X85886Y-50709D01*
X85961Y-50709D01*
X85999Y-50690D01*
X86018Y-50671D01*
X86036Y-50634D01*
X81241Y-52021D02*
X81223Y-52040D01*
X81166Y-52059D01*
X81129Y-52059D01*
X81073Y-52040D01*
X81035Y-52003D01*
X81016Y-51965D01*
X80998Y-51890D01*
X80998Y-51834D01*
X81016Y-51759D01*
X81035Y-51721D01*
X81073Y-51684D01*
X81129Y-51665D01*
X81166Y-51665D01*
X81223Y-51684D01*
X81241Y-51703D01*
X81391Y-51703D02*
X81410Y-51684D01*
X81448Y-51665D01*
X81541Y-51665D01*
X81579Y-51684D01*
X81598Y-51703D01*
X81616Y-51740D01*
X81616Y-51778D01*
X81598Y-51834D01*
X81373Y-52059D01*
X81616Y-52059D01*
X81766Y-51703D02*
X81785Y-51684D01*
X81823Y-51665D01*
X81916Y-51665D01*
X81954Y-51684D01*
X81973Y-51703D01*
X81991Y-51740D01*
X81991Y-51778D01*
X81973Y-51834D01*
X81748Y-52059D01*
X81991Y-52059D01*
X84047Y-53595D02*
X84047Y-53621D01*
X84020Y-53674D01*
X83994Y-53701D01*
X83941Y-53727D01*
X83888Y-53727D01*
X83848Y-53714D01*
X83782Y-53674D01*
X83742Y-53634D01*
X83702Y-53568D01*
X83689Y-53528D01*
X83689Y-53475D01*
X83715Y-53422D01*
X83742Y-53396D01*
X83795Y-53369D01*
X83821Y-53369D01*
X83888Y-53250D02*
X84060Y-53078D01*
X84073Y-53276D01*
X84113Y-53237D01*
X84153Y-53223D01*
X84179Y-53223D01*
X84219Y-53237D01*
X84285Y-53303D01*
X84299Y-53343D01*
X84299Y-53369D01*
X84285Y-53409D01*
X84206Y-53489D01*
X84166Y-53502D01*
X84140Y-53502D01*
X84153Y-52985D02*
X84338Y-52799D01*
X84497Y-53197D01*
X89974Y-57262D02*
X89948Y-57262D01*
X89895Y-57235D01*
X89868Y-57209D01*
X89842Y-57156D01*
X89842Y-57103D01*
X89855Y-57063D01*
X89895Y-56997D01*
X89935Y-56957D01*
X90001Y-56917D01*
X90041Y-56904D01*
X90094Y-56904D01*
X90147Y-56930D01*
X90173Y-56957D01*
X90200Y-57010D01*
X90200Y-57036D01*
X90319Y-57103D02*
X90491Y-57275D01*
X90293Y-57288D01*
X90332Y-57328D01*
X90346Y-57368D01*
X90346Y-57394D01*
X90332Y-57434D01*
X90266Y-57500D01*
X90226Y-57514D01*
X90200Y-57514D01*
X90160Y-57500D01*
X90080Y-57421D01*
X90067Y-57381D01*
X90067Y-57355D01*
X90478Y-57818D02*
X90319Y-57659D01*
X90399Y-57739D02*
X90677Y-57461D01*
X90611Y-57474D01*
X90558Y-57474D01*
X90518Y-57461D01*
X81631Y-63585D02*
X81650Y-63604D01*
X81669Y-63660D01*
X81669Y-63698D01*
X81650Y-63754D01*
X81613Y-63791D01*
X81575Y-63810D01*
X81500Y-63829D01*
X81444Y-63829D01*
X81369Y-63810D01*
X81331Y-63791D01*
X81294Y-63754D01*
X81275Y-63698D01*
X81275Y-63660D01*
X81294Y-63604D01*
X81313Y-63585D01*
X81669Y-63398D02*
X81669Y-63323D01*
X81650Y-63285D01*
X81631Y-63266D01*
X81575Y-63229D01*
X81500Y-63210D01*
X81350Y-63210D01*
X81313Y-63229D01*
X81294Y-63248D01*
X81275Y-63285D01*
X81275Y-63360D01*
X81294Y-63398D01*
X81313Y-63416D01*
X81350Y-63435D01*
X81444Y-63435D01*
X81481Y-63416D01*
X81500Y-63398D01*
X81519Y-63360D01*
X81519Y-63285D01*
X81500Y-63248D01*
X81481Y-63229D01*
X81444Y-63210D01*
X83964Y-54092D02*
X83938Y-54092D01*
X83885Y-54065D01*
X83858Y-54039D01*
X83832Y-53986D01*
X83832Y-53933D01*
X83845Y-53893D01*
X83885Y-53827D01*
X83925Y-53787D01*
X83991Y-53747D01*
X84031Y-53734D01*
X84084Y-53734D01*
X84137Y-53760D01*
X84163Y-53787D01*
X84190Y-53840D01*
X84190Y-53866D01*
X84309Y-53933D02*
X84481Y-54105D01*
X84283Y-54118D01*
X84322Y-54158D01*
X84336Y-54198D01*
X84336Y-54224D01*
X84322Y-54264D01*
X84256Y-54330D01*
X84216Y-54344D01*
X84190Y-54344D01*
X84150Y-54330D01*
X84070Y-54251D01*
X84057Y-54211D01*
X84057Y-54185D01*
X84720Y-54344D02*
X84667Y-54291D01*
X84627Y-54277D01*
X84601Y-54277D01*
X84534Y-54291D01*
X84468Y-54330D01*
X84362Y-54436D01*
X84349Y-54476D01*
X84349Y-54503D01*
X84362Y-54542D01*
X84415Y-54595D01*
X84455Y-54609D01*
X84481Y-54609D01*
X84521Y-54595D01*
X84587Y-54529D01*
X84601Y-54489D01*
X84601Y-54463D01*
X84587Y-54423D01*
X84534Y-54370D01*
X84495Y-54357D01*
X84468Y-54357D01*
X84428Y-54370D01*
X81574Y-59411D02*
X81555Y-59430D01*
X81499Y-59449D01*
X81461Y-59449D01*
X81405Y-59430D01*
X81368Y-59393D01*
X81349Y-59355D01*
X81330Y-59280D01*
X81330Y-59224D01*
X81349Y-59149D01*
X81368Y-59111D01*
X81405Y-59074D01*
X81461Y-59055D01*
X81499Y-59055D01*
X81555Y-59074D01*
X81574Y-59093D01*
X81911Y-59055D02*
X81836Y-59055D01*
X81799Y-59074D01*
X81780Y-59093D01*
X81743Y-59149D01*
X81724Y-59224D01*
X81724Y-59374D01*
X81743Y-59411D01*
X81761Y-59430D01*
X81799Y-59449D01*
X81874Y-59449D01*
X81911Y-59430D01*
X81930Y-59411D01*
X81949Y-59374D01*
X81949Y-59280D01*
X81930Y-59243D01*
X81911Y-59224D01*
X81874Y-59205D01*
X81799Y-59205D01*
X81761Y-59224D01*
X81743Y-59243D01*
X81724Y-59280D01*
X84544Y-57331D02*
X84525Y-57350D01*
X84469Y-57369D01*
X84431Y-57369D01*
X84375Y-57350D01*
X84338Y-57313D01*
X84319Y-57275D01*
X84300Y-57200D01*
X84300Y-57144D01*
X84319Y-57069D01*
X84338Y-57031D01*
X84375Y-56994D01*
X84431Y-56975D01*
X84469Y-56975D01*
X84525Y-56994D01*
X84544Y-57013D01*
X84881Y-57106D02*
X84881Y-57369D01*
X84788Y-56956D02*
X84694Y-57238D01*
X84938Y-57238D01*
X83804Y-59801D02*
X83785Y-59820D01*
X83729Y-59839D01*
X83691Y-59839D01*
X83635Y-59820D01*
X83598Y-59783D01*
X83579Y-59745D01*
X83560Y-59670D01*
X83560Y-59614D01*
X83579Y-59539D01*
X83598Y-59501D01*
X83635Y-59464D01*
X83691Y-59445D01*
X83729Y-59445D01*
X83785Y-59464D01*
X83804Y-59483D01*
X84160Y-59445D02*
X83973Y-59445D01*
X83954Y-59633D01*
X83973Y-59614D01*
X84010Y-59595D01*
X84104Y-59595D01*
X84141Y-59614D01*
X84160Y-59633D01*
X84179Y-59670D01*
X84179Y-59764D01*
X84160Y-59801D01*
X84141Y-59820D01*
X84104Y-59839D01*
X84010Y-59839D01*
X83973Y-59820D01*
X83954Y-59801D01*
X88921Y-63455D02*
X88940Y-63474D01*
X88959Y-63530D01*
X88959Y-63568D01*
X88940Y-63624D01*
X88903Y-63661D01*
X88865Y-63680D01*
X88790Y-63699D01*
X88734Y-63699D01*
X88659Y-63680D01*
X88621Y-63661D01*
X88584Y-63624D01*
X88565Y-63568D01*
X88565Y-63530D01*
X88584Y-63474D01*
X88603Y-63455D01*
X88565Y-63324D02*
X88565Y-63061D01*
X88959Y-63230D01*
X84624Y-52287D02*
X84598Y-52287D01*
X84545Y-52260D01*
X84518Y-52234D01*
X84492Y-52181D01*
X84492Y-52128D01*
X84505Y-52088D01*
X84545Y-52022D01*
X84585Y-51982D01*
X84651Y-51942D01*
X84691Y-51929D01*
X84744Y-51929D01*
X84797Y-51955D01*
X84823Y-51982D01*
X84850Y-52035D01*
X84850Y-52061D01*
X84969Y-52128D02*
X85141Y-52300D01*
X84943Y-52313D01*
X84982Y-52353D01*
X84996Y-52393D01*
X84996Y-52419D01*
X84982Y-52459D01*
X84916Y-52525D01*
X84876Y-52539D01*
X84850Y-52539D01*
X84810Y-52525D01*
X84730Y-52446D01*
X84717Y-52406D01*
X84717Y-52380D01*
X85393Y-52552D02*
X85261Y-52419D01*
X85115Y-52539D01*
X85141Y-52539D01*
X85181Y-52552D01*
X85247Y-52618D01*
X85261Y-52658D01*
X85261Y-52684D01*
X85247Y-52724D01*
X85181Y-52790D01*
X85141Y-52804D01*
X85115Y-52804D01*
X85075Y-52790D01*
X85009Y-52724D01*
X84996Y-52684D01*
X84996Y-52658D01*
X85274Y-51637D02*
X85248Y-51637D01*
X85195Y-51610D01*
X85168Y-51584D01*
X85142Y-51531D01*
X85142Y-51478D01*
X85155Y-51438D01*
X85195Y-51372D01*
X85235Y-51332D01*
X85301Y-51292D01*
X85341Y-51279D01*
X85394Y-51279D01*
X85447Y-51305D01*
X85473Y-51332D01*
X85500Y-51385D01*
X85500Y-51411D01*
X85619Y-51478D02*
X85791Y-51650D01*
X85593Y-51663D01*
X85632Y-51703D01*
X85646Y-51743D01*
X85646Y-51769D01*
X85632Y-51809D01*
X85566Y-51875D01*
X85526Y-51889D01*
X85500Y-51889D01*
X85460Y-51875D01*
X85380Y-51796D01*
X85367Y-51756D01*
X85367Y-51730D01*
X85937Y-51981D02*
X85752Y-52167D01*
X85977Y-51809D02*
X85712Y-51942D01*
X85884Y-52114D01*
X81769Y-54141D02*
X81750Y-54160D01*
X81694Y-54179D01*
X81656Y-54179D01*
X81600Y-54160D01*
X81563Y-54123D01*
X81544Y-54085D01*
X81525Y-54010D01*
X81525Y-53954D01*
X81544Y-53879D01*
X81563Y-53841D01*
X81600Y-53804D01*
X81656Y-53785D01*
X81694Y-53785D01*
X81750Y-53804D01*
X81769Y-53823D01*
X81919Y-53823D02*
X81938Y-53804D01*
X81975Y-53785D01*
X82069Y-53785D01*
X82106Y-53804D01*
X82125Y-53823D01*
X82144Y-53860D01*
X82144Y-53898D01*
X82125Y-53954D01*
X81900Y-54179D01*
X82144Y-54179D01*
X92661Y-58266D02*
X92643Y-58285D01*
X92586Y-58304D01*
X92549Y-58304D01*
X92493Y-58285D01*
X92455Y-58248D01*
X92436Y-58210D01*
X92418Y-58135D01*
X92418Y-58079D01*
X92436Y-58004D01*
X92455Y-57966D01*
X92493Y-57929D01*
X92549Y-57910D01*
X92586Y-57910D01*
X92643Y-57929D01*
X92661Y-57948D01*
X92793Y-57910D02*
X93036Y-57910D01*
X92905Y-58060D01*
X92961Y-58060D01*
X92999Y-58079D01*
X93018Y-58098D01*
X93036Y-58135D01*
X93036Y-58229D01*
X93018Y-58266D01*
X92999Y-58285D01*
X92961Y-58304D01*
X92849Y-58304D01*
X92811Y-58285D01*
X92793Y-58266D01*
X93168Y-57910D02*
X93411Y-57910D01*
X93280Y-58060D01*
X93336Y-58060D01*
X93374Y-58079D01*
X93393Y-58098D01*
X93411Y-58135D01*
X93411Y-58229D01*
X93393Y-58266D01*
X93374Y-58285D01*
X93336Y-58304D01*
X93224Y-58304D01*
X93186Y-58285D01*
X93168Y-58266D01*
X82761Y-60663D02*
X82780Y-60681D01*
X82799Y-60738D01*
X82799Y-60775D01*
X82780Y-60831D01*
X82743Y-60869D01*
X82705Y-60888D01*
X82630Y-60906D01*
X82574Y-60906D01*
X82499Y-60888D01*
X82461Y-60869D01*
X82424Y-60831D01*
X82405Y-60775D01*
X82405Y-60738D01*
X82424Y-60681D01*
X82443Y-60663D01*
X82799Y-60288D02*
X82799Y-60513D01*
X82799Y-60400D02*
X82405Y-60400D01*
X82461Y-60438D01*
X82499Y-60475D01*
X82518Y-60513D01*
X82405Y-60156D02*
X82405Y-59913D01*
X82555Y-60044D01*
X82555Y-59988D01*
X82574Y-59950D01*
X82593Y-59931D01*
X82630Y-59913D01*
X82724Y-59913D01*
X82761Y-59931D01*
X82780Y-59950D01*
X82799Y-59988D01*
X82799Y-60100D01*
X82780Y-60138D01*
X82761Y-60156D01*
X83861Y-61713D02*
X83880Y-61731D01*
X83899Y-61788D01*
X83899Y-61825D01*
X83880Y-61881D01*
X83843Y-61919D01*
X83805Y-61938D01*
X83730Y-61956D01*
X83674Y-61956D01*
X83599Y-61938D01*
X83561Y-61919D01*
X83524Y-61881D01*
X83505Y-61825D01*
X83505Y-61788D01*
X83524Y-61731D01*
X83543Y-61713D01*
X83899Y-61338D02*
X83899Y-61563D01*
X83899Y-61450D02*
X83505Y-61450D01*
X83561Y-61488D01*
X83599Y-61525D01*
X83618Y-61563D01*
X83543Y-61188D02*
X83524Y-61169D01*
X83505Y-61131D01*
X83505Y-61038D01*
X83524Y-61000D01*
X83543Y-60981D01*
X83580Y-60963D01*
X83618Y-60963D01*
X83674Y-60981D01*
X83899Y-61206D01*
X83899Y-60963D01*
X82556Y-61811D02*
X82538Y-61830D01*
X82481Y-61849D01*
X82444Y-61849D01*
X82388Y-61830D01*
X82350Y-61793D01*
X82331Y-61755D01*
X82313Y-61680D01*
X82313Y-61624D01*
X82331Y-61549D01*
X82350Y-61511D01*
X82388Y-61474D01*
X82444Y-61455D01*
X82481Y-61455D01*
X82538Y-61474D01*
X82556Y-61493D01*
X82931Y-61849D02*
X82706Y-61849D01*
X82819Y-61849D02*
X82819Y-61455D01*
X82781Y-61511D01*
X82744Y-61549D01*
X82706Y-61568D01*
X83269Y-61586D02*
X83269Y-61849D01*
X83175Y-61436D02*
X83081Y-61718D01*
X83325Y-61718D01*
X82536Y-62881D02*
X82518Y-62900D01*
X82461Y-62919D01*
X82424Y-62919D01*
X82368Y-62900D01*
X82330Y-62863D01*
X82311Y-62825D01*
X82293Y-62750D01*
X82293Y-62694D01*
X82311Y-62619D01*
X82330Y-62581D01*
X82368Y-62544D01*
X82424Y-62525D01*
X82461Y-62525D01*
X82518Y-62544D01*
X82536Y-62563D01*
X82911Y-62919D02*
X82686Y-62919D01*
X82799Y-62919D02*
X82799Y-62525D01*
X82761Y-62581D01*
X82724Y-62619D01*
X82686Y-62638D01*
X83286Y-62919D02*
X83061Y-62919D01*
X83174Y-62919D02*
X83174Y-62525D01*
X83136Y-62581D01*
X83099Y-62619D01*
X83061Y-62638D01*
X83941Y-63823D02*
X83960Y-63841D01*
X83979Y-63898D01*
X83979Y-63935D01*
X83960Y-63991D01*
X83923Y-64029D01*
X83885Y-64048D01*
X83810Y-64066D01*
X83754Y-64066D01*
X83679Y-64048D01*
X83641Y-64029D01*
X83604Y-63991D01*
X83585Y-63935D01*
X83585Y-63898D01*
X83604Y-63841D01*
X83623Y-63823D01*
X83979Y-63448D02*
X83979Y-63673D01*
X83979Y-63560D02*
X83585Y-63560D01*
X83641Y-63598D01*
X83679Y-63635D01*
X83698Y-63673D01*
X83585Y-63204D02*
X83585Y-63166D01*
X83604Y-63129D01*
X83623Y-63110D01*
X83660Y-63091D01*
X83735Y-63073D01*
X83829Y-63073D01*
X83904Y-63091D01*
X83941Y-63110D01*
X83960Y-63129D01*
X83979Y-63166D01*
X83979Y-63204D01*
X83960Y-63241D01*
X83941Y-63260D01*
X83904Y-63279D01*
X83829Y-63298D01*
X83735Y-63298D01*
X83660Y-63279D01*
X83623Y-63260D01*
X83604Y-63241D01*
X83585Y-63204D01*
X86168Y-54044D02*
X86632Y-54137D01*
X86354Y-53859D02*
X86447Y-54323D01*
X86884Y-53885D02*
X86725Y-54044D01*
X86805Y-53965D02*
X86526Y-53686D01*
X86540Y-53753D01*
X86540Y-53806D01*
X86526Y-53845D01*
X89345Y-61182D02*
X89345Y-61501D01*
X89364Y-61539D01*
X89383Y-61557D01*
X89420Y-61576D01*
X89495Y-61576D01*
X89533Y-61557D01*
X89551Y-61539D01*
X89570Y-61501D01*
X89570Y-61182D01*
X89739Y-61220D02*
X89758Y-61201D01*
X89795Y-61182D01*
X89889Y-61182D01*
X89926Y-61201D01*
X89945Y-61220D01*
X89964Y-61257D01*
X89964Y-61295D01*
X89945Y-61351D01*
X89720Y-61576D01*
X89964Y-61576D01*
X82055Y-55480D02*
X82055Y-55799D01*
X82073Y-55836D01*
X82092Y-55855D01*
X82130Y-55874D01*
X82205Y-55874D01*
X82242Y-55855D01*
X82261Y-55836D01*
X82280Y-55799D01*
X82280Y-55480D01*
X82673Y-55874D02*
X82448Y-55874D01*
X82561Y-55874D02*
X82561Y-55480D01*
X82523Y-55536D01*
X82486Y-55574D01*
X82448Y-55593D01*
X87732Y-51468D02*
X87545Y-51599D01*
X87732Y-51693D02*
X87339Y-51693D01*
X87339Y-51543D01*
X87357Y-51505D01*
X87376Y-51487D01*
X87414Y-51468D01*
X87470Y-51468D01*
X87507Y-51487D01*
X87526Y-51505D01*
X87545Y-51543D01*
X87545Y-51693D01*
X87376Y-51318D02*
X87357Y-51299D01*
X87339Y-51262D01*
X87339Y-51168D01*
X87357Y-51130D01*
X87376Y-51112D01*
X87414Y-51093D01*
X87451Y-51093D01*
X87507Y-51112D01*
X87732Y-51337D01*
X87732Y-51093D01*
X87339Y-50849D02*
X87339Y-50812D01*
X87357Y-50774D01*
X87376Y-50755D01*
X87414Y-50737D01*
X87489Y-50718D01*
X87582Y-50718D01*
X87657Y-50737D01*
X87695Y-50755D01*
X87714Y-50774D01*
X87732Y-50812D01*
X87732Y-50849D01*
X87714Y-50887D01*
X87695Y-50905D01*
X87657Y-50924D01*
X87582Y-50943D01*
X87489Y-50943D01*
X87414Y-50924D01*
X87376Y-50905D01*
X87357Y-50887D01*
X87339Y-50849D01*
X89429Y-51453D02*
X89241Y-51584D01*
X89429Y-51678D02*
X89035Y-51678D01*
X89035Y-51528D01*
X89054Y-51490D01*
X89073Y-51471D01*
X89110Y-51453D01*
X89166Y-51453D01*
X89204Y-51471D01*
X89223Y-51490D01*
X89241Y-51528D01*
X89241Y-51678D01*
X89073Y-51303D02*
X89054Y-51284D01*
X89035Y-51246D01*
X89035Y-51153D01*
X89054Y-51115D01*
X89073Y-51096D01*
X89110Y-51078D01*
X89148Y-51078D01*
X89204Y-51096D01*
X89429Y-51321D01*
X89429Y-51078D01*
X89429Y-50703D02*
X89429Y-50928D01*
X89429Y-50815D02*
X89035Y-50815D01*
X89091Y-50853D01*
X89129Y-50890D01*
X89148Y-50928D01*
X92991Y-54804D02*
X92860Y-54616D01*
X92766Y-54804D02*
X92766Y-54410D01*
X92916Y-54410D01*
X92954Y-54429D01*
X92973Y-54448D01*
X92991Y-54485D01*
X92991Y-54541D01*
X92973Y-54579D01*
X92954Y-54598D01*
X92916Y-54616D01*
X92766Y-54616D01*
X93141Y-54448D02*
X93160Y-54429D01*
X93198Y-54410D01*
X93291Y-54410D01*
X93329Y-54429D01*
X93348Y-54448D01*
X93366Y-54485D01*
X93366Y-54523D01*
X93348Y-54579D01*
X93123Y-54804D01*
X93366Y-54804D01*
X93516Y-54448D02*
X93535Y-54429D01*
X93573Y-54410D01*
X93666Y-54410D01*
X93704Y-54429D01*
X93723Y-54448D01*
X93741Y-54485D01*
X93741Y-54523D01*
X93723Y-54579D01*
X93498Y-54804D01*
X93741Y-54804D01*
X92971Y-55374D02*
X92840Y-55186D01*
X92746Y-55374D02*
X92746Y-54980D01*
X92896Y-54980D01*
X92934Y-54999D01*
X92953Y-55018D01*
X92971Y-55055D01*
X92971Y-55111D01*
X92953Y-55149D01*
X92934Y-55168D01*
X92896Y-55186D01*
X92746Y-55186D01*
X93121Y-55018D02*
X93140Y-54999D01*
X93178Y-54980D01*
X93271Y-54980D01*
X93309Y-54999D01*
X93328Y-55018D01*
X93346Y-55055D01*
X93346Y-55093D01*
X93328Y-55149D01*
X93103Y-55374D01*
X93346Y-55374D01*
X93478Y-54980D02*
X93721Y-54980D01*
X93590Y-55130D01*
X93646Y-55130D01*
X93684Y-55149D01*
X93703Y-55168D01*
X93721Y-55205D01*
X93721Y-55299D01*
X93703Y-55336D01*
X93684Y-55355D01*
X93646Y-55374D01*
X93534Y-55374D01*
X93496Y-55355D01*
X93478Y-55336D01*
M02*
