G04 (created by PCBNEW (2013-07-07 BZR 4022)-stable) date 6/24/2016 5:08:50 PM*
%MOIN*%
G04 Gerber Fmt 3.4, Leading zero omitted, Abs format*
%FSLAX34Y34*%
G01*
G70*
G90*
G04 APERTURE LIST*
%ADD10C,0.00590551*%
%ADD11C,0.014*%
%ADD12C,0.02*%
%ADD13C,0.01*%
%ADD14C,0.006*%
%ADD15C,0.001*%
G04 APERTURE END LIST*
G54D10*
G54D11*
X87260Y-61390D03*
X87670Y-61380D03*
X87408Y-61193D03*
X87660Y-61060D03*
X87230Y-61110D03*
X88775Y-61000D03*
X89890Y-52870D03*
X87715Y-50945D03*
X88430Y-62200D03*
X87160Y-52400D03*
G54D12*
X82880Y-63190D03*
X82300Y-63210D03*
X84900Y-58190D03*
X84600Y-58190D03*
X90730Y-63200D03*
X90300Y-63460D03*
X90300Y-63060D03*
X90730Y-63450D03*
X90500Y-63230D03*
X90700Y-56530D03*
G54D11*
X90669Y-58740D03*
G54D12*
X81170Y-53060D03*
X93800Y-63130D03*
X93800Y-57870D03*
X93810Y-52530D03*
G54D11*
X89073Y-62066D03*
X86968Y-57007D03*
X91141Y-54566D03*
X84540Y-57340D03*
X84300Y-57220D03*
X84050Y-57120D03*
X83830Y-56980D03*
X87900Y-59705D03*
X86245Y-54610D03*
X90005Y-52045D03*
X88395Y-57885D03*
X87204Y-57637D03*
X87480Y-57637D03*
X87755Y-57637D03*
X87795Y-57874D03*
X87795Y-58149D03*
X88858Y-57992D03*
X89094Y-57952D03*
X89330Y-57913D03*
X87110Y-59715D03*
X89080Y-52730D03*
X82760Y-51210D03*
X83720Y-51410D03*
X88580Y-52420D03*
X87295Y-59565D03*
X88290Y-59710D03*
X86335Y-54435D03*
X85265Y-63540D03*
X92135Y-63535D03*
X91405Y-51570D03*
X87840Y-52270D03*
X82100Y-51920D03*
X88915Y-52200D03*
X89690Y-51840D03*
X87750Y-52630D03*
X82760Y-52230D03*
X87470Y-52370D03*
X86160Y-54350D03*
X89815Y-56980D03*
G54D12*
X90520Y-57900D03*
X90700Y-58160D03*
X89820Y-58090D03*
G54D11*
X88440Y-52980D03*
X89030Y-62280D03*
X92210Y-53595D03*
X89920Y-54110D03*
X82950Y-62735D03*
X89725Y-53405D03*
X87660Y-58930D03*
X81380Y-57935D03*
X81185Y-57980D03*
X87550Y-59200D03*
X81340Y-58435D03*
X83440Y-62895D03*
X87880Y-53060D03*
X81520Y-55870D03*
G54D12*
X81710Y-61680D03*
X81060Y-63259D03*
X80680Y-62950D03*
X80700Y-63380D03*
X81130Y-63810D03*
X80750Y-63850D03*
X81625Y-60215D03*
X81535Y-59785D03*
G54D11*
X89120Y-56250D03*
X88460Y-55380D03*
X86680Y-55450D03*
X90175Y-55480D03*
X88440Y-53750D03*
X92805Y-52290D03*
X92665Y-54165D03*
G54D12*
X85170Y-59610D03*
G54D11*
X82970Y-51560D03*
X86460Y-52810D03*
X82770Y-53190D03*
X82360Y-53210D03*
X82390Y-52920D03*
X82390Y-53570D03*
X82780Y-53580D03*
X82760Y-52880D03*
G54D12*
X81600Y-53750D03*
X85050Y-59410D03*
X91090Y-56970D03*
G54D11*
X90157Y-58740D03*
G54D12*
X93810Y-53730D03*
X93850Y-60850D03*
X93830Y-59060D03*
X82460Y-52020D03*
X83730Y-53100D03*
X85010Y-50680D03*
X81160Y-51630D03*
G54D11*
X90354Y-60118D03*
X87440Y-63130D03*
X87680Y-63490D03*
X89640Y-62560D03*
X89360Y-62750D03*
X89580Y-62720D03*
X89150Y-62730D03*
X89560Y-62320D03*
X89710Y-62150D03*
X89570Y-61990D03*
X90413Y-62421D03*
X86045Y-54595D03*
X85944Y-55393D03*
X84881Y-53622D03*
X84251Y-52992D03*
X84921Y-56023D03*
X84527Y-56023D03*
X86535Y-57874D03*
X91614Y-54133D03*
X90236Y-52913D03*
X83149Y-59842D03*
X83010Y-59670D03*
X91653Y-59566D03*
X89055Y-58740D03*
X82060Y-56780D03*
X83858Y-59566D03*
X84055Y-59448D03*
X81670Y-57200D03*
X81670Y-56760D03*
X81270Y-56780D03*
X80584Y-55294D03*
X85780Y-63260D03*
X82460Y-62670D03*
X84700Y-62500D03*
G54D12*
X83035Y-62485D03*
X85400Y-63180D03*
G54D11*
X92590Y-55510D03*
X81875Y-55980D03*
X81970Y-57955D03*
X83010Y-54890D03*
X82740Y-55150D03*
X83030Y-55160D03*
X82710Y-54860D03*
G54D13*
X89890Y-52870D02*
X89895Y-52870D01*
G54D14*
X88045Y-59560D02*
X87900Y-59705D01*
X88045Y-56410D02*
X88045Y-59560D01*
X86245Y-54610D02*
X88045Y-56410D01*
G54D13*
X89360Y-52690D02*
X90005Y-52045D01*
X89360Y-56920D02*
X89360Y-52690D01*
X88395Y-57885D02*
X89360Y-56920D01*
G54D14*
X88205Y-59625D02*
X88290Y-59710D01*
X88205Y-55865D02*
X88205Y-59625D01*
X86765Y-54425D02*
X88205Y-55865D01*
X86345Y-54425D02*
X86765Y-54425D01*
X86335Y-54435D02*
X86345Y-54425D01*
X87430Y-58700D02*
X87660Y-58930D01*
X82145Y-58700D02*
X87430Y-58700D01*
X81380Y-57935D02*
X82145Y-58700D01*
X82085Y-58880D02*
X81185Y-57980D01*
X87230Y-58880D02*
X82085Y-58880D01*
X87550Y-59200D02*
X87230Y-58880D01*
G54D10*
G36*
X94025Y-64125D02*
X93068Y-64125D01*
X93068Y-62538D01*
X93068Y-57223D01*
X93068Y-51908D01*
X93022Y-51797D01*
X92937Y-51712D01*
X92826Y-51665D01*
X92705Y-51665D01*
X92594Y-51711D01*
X92509Y-51796D01*
X92463Y-51908D01*
X92463Y-52028D01*
X92509Y-52139D01*
X92590Y-52220D01*
X92580Y-52245D01*
X92579Y-52334D01*
X92614Y-52417D01*
X92677Y-52480D01*
X92760Y-52514D01*
X92849Y-52515D01*
X92932Y-52480D01*
X92995Y-52417D01*
X93029Y-52334D01*
X93030Y-52245D01*
X92996Y-52165D01*
X93022Y-52140D01*
X93068Y-52028D01*
X93068Y-51908D01*
X93068Y-57223D01*
X93022Y-57112D01*
X92937Y-57027D01*
X92890Y-57007D01*
X92890Y-54120D01*
X92855Y-54037D01*
X92792Y-53974D01*
X92709Y-53940D01*
X92620Y-53939D01*
X92537Y-53974D01*
X92474Y-54037D01*
X92440Y-54120D01*
X92439Y-54209D01*
X92474Y-54292D01*
X92537Y-54355D01*
X92620Y-54389D01*
X92709Y-54390D01*
X92792Y-54355D01*
X92855Y-54292D01*
X92889Y-54209D01*
X92890Y-54120D01*
X92890Y-57007D01*
X92826Y-56980D01*
X92815Y-56980D01*
X92815Y-55465D01*
X92780Y-55382D01*
X92717Y-55319D01*
X92634Y-55285D01*
X92545Y-55284D01*
X92462Y-55319D01*
X92435Y-55346D01*
X92435Y-53550D01*
X92400Y-53467D01*
X92337Y-53404D01*
X92254Y-53370D01*
X92165Y-53369D01*
X92082Y-53404D01*
X92019Y-53467D01*
X91985Y-53550D01*
X91984Y-53639D01*
X92019Y-53722D01*
X92082Y-53785D01*
X92165Y-53819D01*
X92254Y-53820D01*
X92337Y-53785D01*
X92400Y-53722D01*
X92434Y-53639D01*
X92435Y-53550D01*
X92435Y-55346D01*
X92399Y-55382D01*
X92365Y-55465D01*
X92364Y-55554D01*
X92399Y-55637D01*
X92462Y-55700D01*
X92545Y-55734D01*
X92634Y-55735D01*
X92717Y-55700D01*
X92780Y-55637D01*
X92814Y-55554D01*
X92815Y-55465D01*
X92815Y-56980D01*
X92705Y-56980D01*
X92594Y-57026D01*
X92509Y-57111D01*
X92463Y-57223D01*
X92463Y-57343D01*
X92509Y-57454D01*
X92594Y-57539D01*
X92705Y-57586D01*
X92825Y-57586D01*
X92936Y-57540D01*
X93022Y-57455D01*
X93068Y-57343D01*
X93068Y-57223D01*
X93068Y-62538D01*
X93022Y-62427D01*
X92937Y-62342D01*
X92826Y-62295D01*
X92705Y-62295D01*
X92594Y-62341D01*
X92509Y-62426D01*
X92463Y-62537D01*
X92463Y-62658D01*
X92509Y-62769D01*
X92594Y-62854D01*
X92705Y-62901D01*
X92825Y-62901D01*
X92936Y-62855D01*
X93022Y-62770D01*
X93068Y-62658D01*
X93068Y-62538D01*
X93068Y-64125D01*
X92360Y-64125D01*
X92360Y-63490D01*
X92325Y-63407D01*
X92262Y-63344D01*
X92179Y-63310D01*
X92090Y-63309D01*
X92007Y-63344D01*
X91944Y-63407D01*
X91910Y-63490D01*
X91909Y-63579D01*
X91944Y-63662D01*
X92007Y-63725D01*
X92090Y-63759D01*
X92179Y-63760D01*
X92262Y-63725D01*
X92325Y-63662D01*
X92359Y-63579D01*
X92360Y-63490D01*
X92360Y-64125D01*
X91878Y-64125D01*
X91878Y-59522D01*
X91844Y-59439D01*
X91839Y-59434D01*
X91839Y-54089D01*
X91805Y-54006D01*
X91741Y-53943D01*
X91659Y-53908D01*
X91630Y-53908D01*
X91630Y-51525D01*
X91595Y-51442D01*
X91532Y-51379D01*
X91449Y-51345D01*
X91360Y-51344D01*
X91277Y-51379D01*
X91214Y-51442D01*
X91180Y-51525D01*
X91179Y-51614D01*
X91214Y-51697D01*
X91277Y-51760D01*
X91360Y-51794D01*
X91449Y-51795D01*
X91532Y-51760D01*
X91595Y-51697D01*
X91629Y-51614D01*
X91630Y-51525D01*
X91630Y-53908D01*
X91569Y-53908D01*
X91486Y-53943D01*
X91423Y-54006D01*
X91389Y-54088D01*
X91389Y-54178D01*
X91423Y-54261D01*
X91486Y-54324D01*
X91569Y-54358D01*
X91658Y-54358D01*
X91741Y-54324D01*
X91804Y-54261D01*
X91839Y-54178D01*
X91839Y-54089D01*
X91839Y-59434D01*
X91781Y-59376D01*
X91698Y-59341D01*
X91608Y-59341D01*
X91526Y-59376D01*
X91462Y-59439D01*
X91428Y-59521D01*
X91428Y-59611D01*
X91462Y-59694D01*
X91525Y-59757D01*
X91608Y-59791D01*
X91698Y-59791D01*
X91780Y-59757D01*
X91844Y-59694D01*
X91878Y-59611D01*
X91878Y-59522D01*
X91878Y-64125D01*
X91345Y-64125D01*
X91345Y-56919D01*
X91306Y-56825D01*
X91234Y-56753D01*
X91140Y-56715D01*
X91039Y-56714D01*
X90945Y-56753D01*
X90873Y-56825D01*
X90835Y-56919D01*
X90834Y-57020D01*
X90873Y-57114D01*
X90945Y-57186D01*
X91039Y-57224D01*
X91140Y-57225D01*
X91234Y-57186D01*
X91306Y-57114D01*
X91344Y-57020D01*
X91345Y-56919D01*
X91345Y-64125D01*
X90955Y-64125D01*
X90955Y-58109D01*
X90916Y-58015D01*
X90844Y-57943D01*
X90774Y-57915D01*
X90775Y-57849D01*
X90736Y-57755D01*
X90664Y-57683D01*
X90570Y-57645D01*
X90469Y-57644D01*
X90461Y-57648D01*
X90461Y-52868D01*
X90427Y-52786D01*
X90363Y-52722D01*
X90281Y-52688D01*
X90230Y-52688D01*
X90230Y-52000D01*
X90195Y-51917D01*
X90132Y-51854D01*
X90049Y-51820D01*
X89960Y-51819D01*
X89915Y-51838D01*
X89915Y-51795D01*
X89880Y-51712D01*
X89817Y-51649D01*
X89734Y-51615D01*
X89645Y-51614D01*
X89562Y-51649D01*
X89499Y-51712D01*
X89465Y-51795D01*
X89464Y-51884D01*
X89499Y-51967D01*
X89562Y-52030D01*
X89645Y-52064D01*
X89695Y-52065D01*
X89215Y-52545D01*
X89214Y-52546D01*
X89207Y-52539D01*
X89140Y-52511D01*
X89140Y-52155D01*
X89105Y-52072D01*
X89042Y-52009D01*
X88959Y-51975D01*
X88870Y-51974D01*
X88787Y-52009D01*
X88724Y-52072D01*
X88690Y-52155D01*
X88689Y-52222D01*
X88624Y-52195D01*
X88535Y-52194D01*
X88452Y-52229D01*
X88389Y-52292D01*
X88355Y-52375D01*
X88354Y-52464D01*
X88389Y-52547D01*
X88452Y-52610D01*
X88535Y-52644D01*
X88624Y-52645D01*
X88707Y-52610D01*
X88770Y-52547D01*
X88804Y-52464D01*
X88805Y-52397D01*
X88870Y-52424D01*
X88959Y-52425D01*
X89042Y-52390D01*
X89105Y-52327D01*
X89139Y-52244D01*
X89140Y-52155D01*
X89140Y-52511D01*
X89124Y-52505D01*
X89035Y-52504D01*
X88952Y-52539D01*
X88889Y-52602D01*
X88855Y-52685D01*
X88854Y-52774D01*
X88889Y-52857D01*
X88952Y-52920D01*
X89035Y-52954D01*
X89124Y-52955D01*
X89155Y-52942D01*
X89155Y-56025D01*
X89075Y-56024D01*
X88992Y-56059D01*
X88929Y-56122D01*
X88895Y-56205D01*
X88894Y-56294D01*
X88929Y-56377D01*
X88992Y-56440D01*
X89075Y-56474D01*
X89155Y-56475D01*
X89155Y-56835D01*
X88685Y-57305D01*
X88685Y-55335D01*
X88665Y-55287D01*
X88665Y-53705D01*
X88665Y-52935D01*
X88630Y-52852D01*
X88567Y-52789D01*
X88484Y-52755D01*
X88395Y-52754D01*
X88312Y-52789D01*
X88249Y-52852D01*
X88215Y-52935D01*
X88214Y-53024D01*
X88249Y-53107D01*
X88312Y-53170D01*
X88395Y-53204D01*
X88484Y-53205D01*
X88567Y-53170D01*
X88630Y-53107D01*
X88664Y-53024D01*
X88665Y-52935D01*
X88665Y-53705D01*
X88630Y-53622D01*
X88567Y-53559D01*
X88484Y-53525D01*
X88395Y-53524D01*
X88312Y-53559D01*
X88249Y-53622D01*
X88215Y-53705D01*
X88214Y-53794D01*
X88249Y-53877D01*
X88312Y-53940D01*
X88395Y-53974D01*
X88484Y-53975D01*
X88567Y-53940D01*
X88630Y-53877D01*
X88664Y-53794D01*
X88665Y-53705D01*
X88665Y-55287D01*
X88650Y-55252D01*
X88587Y-55189D01*
X88504Y-55155D01*
X88415Y-55154D01*
X88332Y-55189D01*
X88269Y-55252D01*
X88235Y-55335D01*
X88234Y-55424D01*
X88269Y-55507D01*
X88332Y-55570D01*
X88415Y-55604D01*
X88504Y-55605D01*
X88587Y-55570D01*
X88650Y-55507D01*
X88684Y-55424D01*
X88685Y-55335D01*
X88685Y-57305D01*
X88390Y-57600D01*
X88390Y-55865D01*
X88375Y-55794D01*
X88335Y-55734D01*
X88335Y-55734D01*
X88105Y-55503D01*
X88105Y-53015D01*
X88070Y-52932D01*
X88007Y-52869D01*
X87924Y-52835D01*
X87843Y-52834D01*
X87877Y-52820D01*
X87940Y-52757D01*
X87974Y-52674D01*
X87975Y-52585D01*
X87940Y-52502D01*
X87918Y-52480D01*
X87967Y-52460D01*
X88030Y-52397D01*
X88064Y-52314D01*
X88065Y-52225D01*
X88030Y-52142D01*
X87967Y-52079D01*
X87884Y-52045D01*
X87795Y-52044D01*
X87712Y-52079D01*
X87649Y-52142D01*
X87623Y-52205D01*
X87597Y-52179D01*
X87514Y-52145D01*
X87425Y-52144D01*
X87342Y-52179D01*
X87279Y-52242D01*
X87245Y-52325D01*
X87244Y-52414D01*
X87279Y-52497D01*
X87342Y-52560D01*
X87425Y-52594D01*
X87514Y-52595D01*
X87525Y-52590D01*
X87524Y-52674D01*
X87559Y-52757D01*
X87622Y-52820D01*
X87705Y-52854D01*
X87786Y-52855D01*
X87752Y-52869D01*
X87689Y-52932D01*
X87655Y-53015D01*
X87654Y-53104D01*
X87689Y-53187D01*
X87752Y-53250D01*
X87835Y-53284D01*
X87924Y-53285D01*
X88007Y-53250D01*
X88070Y-53187D01*
X88104Y-53104D01*
X88105Y-53015D01*
X88105Y-55503D01*
X86895Y-54294D01*
X86835Y-54254D01*
X86765Y-54240D01*
X86685Y-54240D01*
X86685Y-52765D01*
X86650Y-52682D01*
X86587Y-52619D01*
X86504Y-52585D01*
X86415Y-52584D01*
X86332Y-52619D01*
X86269Y-52682D01*
X86235Y-52765D01*
X86234Y-52854D01*
X86269Y-52937D01*
X86332Y-53000D01*
X86415Y-53034D01*
X86504Y-53035D01*
X86587Y-53000D01*
X86650Y-52937D01*
X86684Y-52854D01*
X86685Y-52765D01*
X86685Y-54240D01*
X86452Y-54240D01*
X86379Y-54210D01*
X86338Y-54210D01*
X86287Y-54159D01*
X86204Y-54125D01*
X86115Y-54124D01*
X86032Y-54159D01*
X85969Y-54222D01*
X85935Y-54305D01*
X85934Y-54394D01*
X85935Y-54396D01*
X85917Y-54404D01*
X85854Y-54467D01*
X85820Y-54550D01*
X85819Y-54639D01*
X85854Y-54722D01*
X85917Y-54785D01*
X86000Y-54819D01*
X86089Y-54820D01*
X86126Y-54804D01*
X86200Y-54834D01*
X86208Y-54834D01*
X86609Y-55235D01*
X86552Y-55259D01*
X86489Y-55322D01*
X86455Y-55405D01*
X86454Y-55494D01*
X86489Y-55577D01*
X86552Y-55640D01*
X86635Y-55674D01*
X86724Y-55675D01*
X86807Y-55640D01*
X86870Y-55577D01*
X86894Y-55520D01*
X87860Y-56486D01*
X87860Y-57437D01*
X87800Y-57412D01*
X87711Y-57412D01*
X87628Y-57446D01*
X87618Y-57457D01*
X87607Y-57447D01*
X87525Y-57412D01*
X87435Y-57412D01*
X87353Y-57446D01*
X87342Y-57457D01*
X87332Y-57447D01*
X87249Y-57412D01*
X87160Y-57412D01*
X87077Y-57446D01*
X87014Y-57510D01*
X86979Y-57592D01*
X86979Y-57682D01*
X87013Y-57765D01*
X87077Y-57828D01*
X87159Y-57862D01*
X87249Y-57862D01*
X87332Y-57828D01*
X87342Y-57818D01*
X87352Y-57828D01*
X87435Y-57862D01*
X87524Y-57862D01*
X87570Y-57844D01*
X87570Y-57918D01*
X87604Y-58001D01*
X87614Y-58011D01*
X87604Y-58021D01*
X87570Y-58104D01*
X87570Y-58194D01*
X87604Y-58276D01*
X87667Y-58340D01*
X87750Y-58374D01*
X87839Y-58374D01*
X87860Y-58366D01*
X87860Y-58824D01*
X87850Y-58802D01*
X87787Y-58739D01*
X87704Y-58705D01*
X87696Y-58705D01*
X87560Y-58569D01*
X87500Y-58529D01*
X87430Y-58515D01*
X86760Y-58515D01*
X86760Y-57829D01*
X86726Y-57746D01*
X86663Y-57683D01*
X86580Y-57649D01*
X86490Y-57648D01*
X86408Y-57683D01*
X86344Y-57746D01*
X86310Y-57829D01*
X86310Y-57918D01*
X86344Y-58001D01*
X86407Y-58064D01*
X86490Y-58098D01*
X86579Y-58099D01*
X86662Y-58064D01*
X86726Y-58001D01*
X86760Y-57918D01*
X86760Y-57829D01*
X86760Y-58515D01*
X86169Y-58515D01*
X86169Y-55349D01*
X86135Y-55266D01*
X86072Y-55203D01*
X85989Y-55168D01*
X85900Y-55168D01*
X85817Y-55202D01*
X85754Y-55266D01*
X85719Y-55348D01*
X85719Y-55438D01*
X85754Y-55520D01*
X85817Y-55584D01*
X85899Y-55618D01*
X85989Y-55618D01*
X86072Y-55584D01*
X86135Y-55521D01*
X86169Y-55438D01*
X86169Y-55349D01*
X86169Y-58515D01*
X85146Y-58515D01*
X85146Y-55979D01*
X85112Y-55896D01*
X85106Y-55891D01*
X85106Y-53577D01*
X85072Y-53494D01*
X85009Y-53431D01*
X84926Y-53397D01*
X84837Y-53397D01*
X84754Y-53431D01*
X84691Y-53494D01*
X84656Y-53577D01*
X84656Y-53666D01*
X84691Y-53749D01*
X84754Y-53812D01*
X84836Y-53847D01*
X84926Y-53847D01*
X85009Y-53812D01*
X85072Y-53749D01*
X85106Y-53666D01*
X85106Y-53577D01*
X85106Y-55891D01*
X85048Y-55832D01*
X84966Y-55798D01*
X84876Y-55798D01*
X84793Y-55832D01*
X84730Y-55896D01*
X84724Y-55910D01*
X84718Y-55896D01*
X84655Y-55832D01*
X84572Y-55798D01*
X84483Y-55798D01*
X84477Y-55801D01*
X84477Y-52947D01*
X84442Y-52864D01*
X84379Y-52801D01*
X84296Y-52767D01*
X84207Y-52767D01*
X84124Y-52801D01*
X84061Y-52864D01*
X84027Y-52947D01*
X84026Y-53036D01*
X84061Y-53119D01*
X84124Y-53182D01*
X84207Y-53217D01*
X84296Y-53217D01*
X84379Y-53182D01*
X84442Y-53119D01*
X84476Y-53037D01*
X84477Y-52947D01*
X84477Y-55801D01*
X84400Y-55832D01*
X84336Y-55896D01*
X84302Y-55978D01*
X84302Y-56068D01*
X84336Y-56150D01*
X84399Y-56214D01*
X84482Y-56248D01*
X84572Y-56248D01*
X84654Y-56214D01*
X84718Y-56151D01*
X84724Y-56136D01*
X84730Y-56150D01*
X84793Y-56214D01*
X84876Y-56248D01*
X84965Y-56248D01*
X85048Y-56214D01*
X85111Y-56151D01*
X85146Y-56068D01*
X85146Y-55979D01*
X85146Y-58515D01*
X83985Y-58515D01*
X83985Y-53049D01*
X83946Y-52955D01*
X83945Y-52954D01*
X83945Y-51365D01*
X83910Y-51282D01*
X83847Y-51219D01*
X83764Y-51185D01*
X83675Y-51184D01*
X83592Y-51219D01*
X83529Y-51282D01*
X83495Y-51365D01*
X83494Y-51454D01*
X83529Y-51537D01*
X83592Y-51600D01*
X83675Y-51634D01*
X83764Y-51635D01*
X83847Y-51600D01*
X83910Y-51537D01*
X83944Y-51454D01*
X83945Y-51365D01*
X83945Y-52954D01*
X83874Y-52883D01*
X83780Y-52845D01*
X83679Y-52844D01*
X83585Y-52883D01*
X83513Y-52955D01*
X83475Y-53049D01*
X83474Y-53150D01*
X83513Y-53244D01*
X83585Y-53316D01*
X83679Y-53354D01*
X83780Y-53355D01*
X83874Y-53316D01*
X83946Y-53244D01*
X83984Y-53150D01*
X83985Y-53049D01*
X83985Y-58515D01*
X83255Y-58515D01*
X83255Y-55115D01*
X83220Y-55032D01*
X83202Y-55013D01*
X83234Y-54934D01*
X83235Y-54845D01*
X83200Y-54762D01*
X83195Y-54756D01*
X83195Y-51515D01*
X83160Y-51432D01*
X83097Y-51369D01*
X83014Y-51335D01*
X82951Y-51334D01*
X82984Y-51254D01*
X82985Y-51165D01*
X82950Y-51082D01*
X82887Y-51019D01*
X82804Y-50985D01*
X82715Y-50984D01*
X82632Y-51019D01*
X82569Y-51082D01*
X82535Y-51165D01*
X82534Y-51254D01*
X82569Y-51337D01*
X82632Y-51400D01*
X82715Y-51434D01*
X82778Y-51435D01*
X82745Y-51515D01*
X82744Y-51604D01*
X82779Y-51687D01*
X82842Y-51750D01*
X82925Y-51784D01*
X83014Y-51785D01*
X83097Y-51750D01*
X83160Y-51687D01*
X83194Y-51604D01*
X83195Y-51515D01*
X83195Y-54756D01*
X83137Y-54699D01*
X83054Y-54665D01*
X83005Y-54664D01*
X83005Y-53535D01*
X82970Y-53452D01*
X82907Y-53389D01*
X82892Y-53382D01*
X82897Y-53380D01*
X82960Y-53317D01*
X82994Y-53234D01*
X82995Y-53145D01*
X82960Y-53062D01*
X82928Y-53030D01*
X82950Y-53007D01*
X82984Y-52924D01*
X82985Y-52835D01*
X82985Y-52185D01*
X82950Y-52102D01*
X82887Y-52039D01*
X82804Y-52005D01*
X82715Y-52004D01*
X82715Y-52005D01*
X82715Y-51969D01*
X82676Y-51875D01*
X82604Y-51803D01*
X82510Y-51765D01*
X82409Y-51764D01*
X82315Y-51803D01*
X82301Y-51818D01*
X82290Y-51792D01*
X82227Y-51729D01*
X82144Y-51695D01*
X82055Y-51694D01*
X81972Y-51729D01*
X81909Y-51792D01*
X81903Y-51805D01*
X81900Y-51797D01*
X81815Y-51712D01*
X81704Y-51665D01*
X81583Y-51665D01*
X81472Y-51711D01*
X81415Y-51769D01*
X81415Y-51579D01*
X81376Y-51485D01*
X81304Y-51413D01*
X81210Y-51375D01*
X81109Y-51374D01*
X81015Y-51413D01*
X80943Y-51485D01*
X80905Y-51579D01*
X80904Y-51680D01*
X80943Y-51774D01*
X81015Y-51846D01*
X81109Y-51884D01*
X81210Y-51885D01*
X81304Y-51846D01*
X81376Y-51774D01*
X81414Y-51680D01*
X81415Y-51579D01*
X81415Y-51769D01*
X81387Y-51796D01*
X81341Y-51908D01*
X81341Y-52028D01*
X81386Y-52139D01*
X81472Y-52224D01*
X81583Y-52271D01*
X81703Y-52271D01*
X81814Y-52225D01*
X81900Y-52140D01*
X81930Y-52068D01*
X81972Y-52110D01*
X82055Y-52144D01*
X82144Y-52145D01*
X82222Y-52112D01*
X82243Y-52164D01*
X82315Y-52236D01*
X82409Y-52274D01*
X82510Y-52275D01*
X82534Y-52264D01*
X82534Y-52274D01*
X82569Y-52357D01*
X82632Y-52420D01*
X82715Y-52454D01*
X82804Y-52455D01*
X82887Y-52420D01*
X82950Y-52357D01*
X82984Y-52274D01*
X82985Y-52185D01*
X82985Y-52835D01*
X82950Y-52752D01*
X82887Y-52689D01*
X82804Y-52655D01*
X82715Y-52654D01*
X82632Y-52689D01*
X82569Y-52752D01*
X82560Y-52772D01*
X82517Y-52729D01*
X82434Y-52695D01*
X82345Y-52694D01*
X82262Y-52729D01*
X82199Y-52792D01*
X82165Y-52875D01*
X82164Y-52964D01*
X82199Y-53047D01*
X82201Y-53049D01*
X82169Y-53082D01*
X82135Y-53165D01*
X82134Y-53254D01*
X82169Y-53337D01*
X82232Y-53400D01*
X82238Y-53403D01*
X82199Y-53442D01*
X82165Y-53525D01*
X82164Y-53614D01*
X82199Y-53697D01*
X82262Y-53760D01*
X82345Y-53794D01*
X82434Y-53795D01*
X82517Y-53760D01*
X82580Y-53697D01*
X82582Y-53692D01*
X82589Y-53707D01*
X82652Y-53770D01*
X82735Y-53804D01*
X82824Y-53805D01*
X82907Y-53770D01*
X82970Y-53707D01*
X83004Y-53624D01*
X83005Y-53535D01*
X83005Y-54664D01*
X82965Y-54664D01*
X82882Y-54699D01*
X82875Y-54706D01*
X82837Y-54669D01*
X82754Y-54635D01*
X82665Y-54634D01*
X82582Y-54669D01*
X82519Y-54732D01*
X82485Y-54815D01*
X82484Y-54904D01*
X82519Y-54987D01*
X82551Y-55019D01*
X82549Y-55022D01*
X82515Y-55105D01*
X82514Y-55194D01*
X82549Y-55277D01*
X82612Y-55340D01*
X82695Y-55374D01*
X82784Y-55375D01*
X82867Y-55340D01*
X82879Y-55328D01*
X82902Y-55350D01*
X82985Y-55384D01*
X83074Y-55385D01*
X83157Y-55350D01*
X83220Y-55287D01*
X83254Y-55204D01*
X83255Y-55115D01*
X83255Y-58515D01*
X82285Y-58515D01*
X82285Y-56735D01*
X82250Y-56652D01*
X82187Y-56589D01*
X82104Y-56555D01*
X82100Y-56555D01*
X82100Y-55935D01*
X82065Y-55852D01*
X82002Y-55789D01*
X81919Y-55755D01*
X81855Y-55754D01*
X81855Y-53699D01*
X81816Y-53605D01*
X81744Y-53533D01*
X81650Y-53495D01*
X81549Y-53494D01*
X81455Y-53533D01*
X81383Y-53605D01*
X81345Y-53699D01*
X81344Y-53800D01*
X81383Y-53894D01*
X81455Y-53966D01*
X81549Y-54004D01*
X81650Y-54005D01*
X81744Y-53966D01*
X81816Y-53894D01*
X81854Y-53800D01*
X81855Y-53699D01*
X81855Y-55754D01*
X81830Y-55754D01*
X81747Y-55789D01*
X81735Y-55801D01*
X81710Y-55742D01*
X81647Y-55679D01*
X81564Y-55645D01*
X81475Y-55644D01*
X81392Y-55679D01*
X81329Y-55742D01*
X81295Y-55825D01*
X81294Y-55914D01*
X81329Y-55997D01*
X81392Y-56060D01*
X81475Y-56094D01*
X81564Y-56095D01*
X81647Y-56060D01*
X81659Y-56048D01*
X81684Y-56107D01*
X81747Y-56170D01*
X81830Y-56204D01*
X81919Y-56205D01*
X82002Y-56170D01*
X82065Y-56107D01*
X82099Y-56024D01*
X82100Y-55935D01*
X82100Y-56555D01*
X82015Y-56554D01*
X81932Y-56589D01*
X81869Y-56652D01*
X81869Y-56652D01*
X81860Y-56632D01*
X81797Y-56569D01*
X81714Y-56535D01*
X81625Y-56534D01*
X81542Y-56569D01*
X81479Y-56632D01*
X81465Y-56664D01*
X81460Y-56652D01*
X81397Y-56589D01*
X81314Y-56555D01*
X81225Y-56554D01*
X81142Y-56589D01*
X81079Y-56652D01*
X81045Y-56735D01*
X81044Y-56824D01*
X81079Y-56907D01*
X81142Y-56970D01*
X81225Y-57004D01*
X81314Y-57005D01*
X81397Y-56970D01*
X81460Y-56907D01*
X81474Y-56875D01*
X81479Y-56887D01*
X81542Y-56950D01*
X81613Y-56980D01*
X81542Y-57009D01*
X81479Y-57072D01*
X81445Y-57155D01*
X81444Y-57244D01*
X81479Y-57327D01*
X81542Y-57390D01*
X81625Y-57424D01*
X81714Y-57425D01*
X81797Y-57390D01*
X81860Y-57327D01*
X81894Y-57244D01*
X81895Y-57155D01*
X81860Y-57072D01*
X81797Y-57009D01*
X81726Y-56979D01*
X81797Y-56950D01*
X81860Y-56887D01*
X81860Y-56887D01*
X81869Y-56907D01*
X81932Y-56970D01*
X82015Y-57004D01*
X82104Y-57005D01*
X82187Y-56970D01*
X82250Y-56907D01*
X82284Y-56824D01*
X82285Y-56735D01*
X82285Y-58515D01*
X82221Y-58515D01*
X81859Y-58152D01*
X81925Y-58179D01*
X82014Y-58180D01*
X82097Y-58145D01*
X82160Y-58082D01*
X82194Y-57999D01*
X82195Y-57910D01*
X82160Y-57827D01*
X82097Y-57764D01*
X82014Y-57730D01*
X81925Y-57729D01*
X81842Y-57764D01*
X81779Y-57827D01*
X81745Y-57910D01*
X81744Y-57999D01*
X81772Y-58065D01*
X81605Y-57898D01*
X81605Y-57890D01*
X81570Y-57807D01*
X81507Y-57744D01*
X81424Y-57710D01*
X81335Y-57709D01*
X81252Y-57744D01*
X81238Y-57758D01*
X81229Y-57755D01*
X81140Y-57754D01*
X81057Y-57789D01*
X80994Y-57852D01*
X80960Y-57935D01*
X80959Y-58024D01*
X80994Y-58107D01*
X81057Y-58170D01*
X81140Y-58204D01*
X81148Y-58204D01*
X81200Y-58256D01*
X81149Y-58307D01*
X81115Y-58390D01*
X81114Y-58479D01*
X81149Y-58562D01*
X81212Y-58625D01*
X81295Y-58659D01*
X81384Y-58660D01*
X81467Y-58625D01*
X81518Y-58574D01*
X81954Y-59010D01*
X81954Y-59010D01*
X82014Y-59050D01*
X82085Y-59065D01*
X87153Y-59065D01*
X87324Y-59236D01*
X87324Y-59244D01*
X87359Y-59327D01*
X87394Y-59362D01*
X87339Y-59340D01*
X87250Y-59339D01*
X87167Y-59374D01*
X87104Y-59437D01*
X87082Y-59489D01*
X87065Y-59489D01*
X86982Y-59524D01*
X86919Y-59587D01*
X86885Y-59670D01*
X86884Y-59759D01*
X86919Y-59842D01*
X86982Y-59905D01*
X87065Y-59939D01*
X87154Y-59940D01*
X87237Y-59905D01*
X87300Y-59842D01*
X87322Y-59790D01*
X87339Y-59790D01*
X87422Y-59755D01*
X87485Y-59692D01*
X87519Y-59609D01*
X87520Y-59520D01*
X87485Y-59437D01*
X87450Y-59402D01*
X87505Y-59424D01*
X87594Y-59425D01*
X87677Y-59390D01*
X87740Y-59327D01*
X87774Y-59244D01*
X87775Y-59155D01*
X87764Y-59130D01*
X87787Y-59120D01*
X87850Y-59057D01*
X87860Y-59035D01*
X87860Y-59479D01*
X87855Y-59479D01*
X87772Y-59514D01*
X87709Y-59577D01*
X87675Y-59660D01*
X87674Y-59749D01*
X87709Y-59832D01*
X87772Y-59895D01*
X87855Y-59929D01*
X87944Y-59930D01*
X88027Y-59895D01*
X88090Y-59832D01*
X88093Y-59824D01*
X88099Y-59837D01*
X88162Y-59900D01*
X88245Y-59934D01*
X88334Y-59935D01*
X88417Y-59900D01*
X88480Y-59837D01*
X88514Y-59754D01*
X88515Y-59665D01*
X88480Y-59582D01*
X88417Y-59519D01*
X88390Y-59507D01*
X88390Y-58109D01*
X88439Y-58110D01*
X88522Y-58075D01*
X88585Y-58012D01*
X88605Y-57964D01*
X88640Y-57929D01*
X88633Y-57947D01*
X88633Y-58036D01*
X88667Y-58119D01*
X88730Y-58182D01*
X88813Y-58217D01*
X88902Y-58217D01*
X88985Y-58182D01*
X89008Y-58160D01*
X89049Y-58177D01*
X89139Y-58177D01*
X89221Y-58143D01*
X89244Y-58121D01*
X89285Y-58138D01*
X89375Y-58138D01*
X89457Y-58104D01*
X89521Y-58041D01*
X89555Y-57958D01*
X89555Y-57868D01*
X89521Y-57786D01*
X89458Y-57722D01*
X89375Y-57688D01*
X89286Y-57688D01*
X89203Y-57722D01*
X89180Y-57745D01*
X89139Y-57727D01*
X89049Y-57727D01*
X88967Y-57761D01*
X88944Y-57784D01*
X88903Y-57767D01*
X88813Y-57767D01*
X88795Y-57774D01*
X89504Y-57064D01*
X89504Y-57064D01*
X89504Y-57064D01*
X89549Y-56998D01*
X89549Y-56998D01*
X89561Y-56935D01*
X89565Y-56920D01*
X89564Y-56920D01*
X89565Y-56920D01*
X89565Y-53563D01*
X89597Y-53595D01*
X89680Y-53629D01*
X89769Y-53630D01*
X89852Y-53595D01*
X89915Y-53532D01*
X89949Y-53449D01*
X89950Y-53360D01*
X89915Y-53277D01*
X89852Y-53214D01*
X89769Y-53180D01*
X89680Y-53179D01*
X89597Y-53214D01*
X89565Y-53246D01*
X89565Y-52774D01*
X90084Y-52255D01*
X90132Y-52235D01*
X90195Y-52172D01*
X90229Y-52089D01*
X90230Y-52000D01*
X90230Y-52688D01*
X90191Y-52688D01*
X90108Y-52722D01*
X90045Y-52785D01*
X90011Y-52868D01*
X90011Y-52957D01*
X90045Y-53040D01*
X90108Y-53104D01*
X90191Y-53138D01*
X90280Y-53138D01*
X90363Y-53104D01*
X90426Y-53041D01*
X90461Y-52958D01*
X90461Y-52868D01*
X90461Y-57648D01*
X90400Y-57673D01*
X90400Y-55435D01*
X90365Y-55352D01*
X90302Y-55289D01*
X90219Y-55255D01*
X90145Y-55254D01*
X90145Y-54065D01*
X90110Y-53982D01*
X90047Y-53919D01*
X89964Y-53885D01*
X89875Y-53884D01*
X89792Y-53919D01*
X89729Y-53982D01*
X89695Y-54065D01*
X89694Y-54154D01*
X89729Y-54237D01*
X89792Y-54300D01*
X89875Y-54334D01*
X89964Y-54335D01*
X90047Y-54300D01*
X90110Y-54237D01*
X90144Y-54154D01*
X90145Y-54065D01*
X90145Y-55254D01*
X90130Y-55254D01*
X90047Y-55289D01*
X89984Y-55352D01*
X89950Y-55435D01*
X89949Y-55524D01*
X89984Y-55607D01*
X90047Y-55670D01*
X90130Y-55704D01*
X90219Y-55705D01*
X90302Y-55670D01*
X90365Y-55607D01*
X90399Y-55524D01*
X90400Y-55435D01*
X90400Y-57673D01*
X90375Y-57683D01*
X90303Y-57755D01*
X90265Y-57849D01*
X90264Y-57950D01*
X90303Y-58044D01*
X90375Y-58116D01*
X90445Y-58144D01*
X90444Y-58210D01*
X90483Y-58304D01*
X90555Y-58376D01*
X90649Y-58414D01*
X90750Y-58415D01*
X90844Y-58376D01*
X90916Y-58304D01*
X90954Y-58210D01*
X90955Y-58109D01*
X90955Y-64125D01*
X90638Y-64125D01*
X90638Y-62376D01*
X90604Y-62293D01*
X90579Y-62269D01*
X90579Y-60073D01*
X90545Y-59990D01*
X90481Y-59927D01*
X90399Y-59893D01*
X90382Y-59893D01*
X90382Y-58695D01*
X90348Y-58612D01*
X90285Y-58549D01*
X90202Y-58515D01*
X90112Y-58515D01*
X90075Y-58530D01*
X90075Y-58039D01*
X90040Y-57954D01*
X90040Y-56935D01*
X90005Y-56852D01*
X89942Y-56789D01*
X89859Y-56755D01*
X89770Y-56754D01*
X89687Y-56789D01*
X89624Y-56852D01*
X89590Y-56935D01*
X89589Y-57024D01*
X89624Y-57107D01*
X89687Y-57170D01*
X89770Y-57204D01*
X89859Y-57205D01*
X89942Y-57170D01*
X90005Y-57107D01*
X90039Y-57024D01*
X90040Y-56935D01*
X90040Y-57954D01*
X90036Y-57945D01*
X89964Y-57873D01*
X89870Y-57835D01*
X89769Y-57834D01*
X89675Y-57873D01*
X89603Y-57945D01*
X89565Y-58039D01*
X89564Y-58140D01*
X89603Y-58234D01*
X89675Y-58306D01*
X89769Y-58344D01*
X89870Y-58345D01*
X89964Y-58306D01*
X90036Y-58234D01*
X90074Y-58140D01*
X90075Y-58039D01*
X90075Y-58530D01*
X90030Y-58549D01*
X89966Y-58612D01*
X89932Y-58695D01*
X89932Y-58784D01*
X89966Y-58867D01*
X90029Y-58930D01*
X90112Y-58965D01*
X90202Y-58965D01*
X90284Y-58931D01*
X90348Y-58867D01*
X90382Y-58785D01*
X90382Y-58695D01*
X90382Y-59893D01*
X90309Y-59893D01*
X90227Y-59927D01*
X90163Y-59990D01*
X90129Y-60073D01*
X90129Y-60162D01*
X90163Y-60245D01*
X90226Y-60308D01*
X90309Y-60343D01*
X90398Y-60343D01*
X90481Y-60308D01*
X90544Y-60245D01*
X90579Y-60163D01*
X90579Y-60073D01*
X90579Y-62269D01*
X90541Y-62230D01*
X90458Y-62196D01*
X90368Y-62196D01*
X90286Y-62230D01*
X90222Y-62293D01*
X90188Y-62376D01*
X90188Y-62465D01*
X90222Y-62548D01*
X90285Y-62611D01*
X90368Y-62646D01*
X90457Y-62646D01*
X90540Y-62612D01*
X90604Y-62548D01*
X90638Y-62466D01*
X90638Y-62376D01*
X90638Y-64125D01*
X89935Y-64125D01*
X89935Y-62105D01*
X89900Y-62022D01*
X89837Y-61959D01*
X89793Y-61940D01*
X89760Y-61862D01*
X89697Y-61799D01*
X89614Y-61765D01*
X89525Y-61764D01*
X89442Y-61799D01*
X89379Y-61862D01*
X89345Y-61945D01*
X89344Y-62034D01*
X89379Y-62117D01*
X89411Y-62150D01*
X89369Y-62192D01*
X89335Y-62275D01*
X89334Y-62364D01*
X89369Y-62447D01*
X89421Y-62499D01*
X89415Y-62515D01*
X89415Y-62529D01*
X89404Y-62525D01*
X89315Y-62524D01*
X89280Y-62539D01*
X89280Y-58695D01*
X89245Y-58612D01*
X89182Y-58549D01*
X89100Y-58515D01*
X89010Y-58515D01*
X88927Y-58549D01*
X88864Y-58612D01*
X88830Y-58695D01*
X88830Y-58784D01*
X88864Y-58867D01*
X88927Y-58930D01*
X89010Y-58965D01*
X89099Y-58965D01*
X89182Y-58931D01*
X89245Y-58867D01*
X89280Y-58785D01*
X89280Y-58695D01*
X89280Y-62539D01*
X89278Y-62540D01*
X89277Y-62539D01*
X89255Y-62529D01*
X89255Y-62235D01*
X89220Y-62152D01*
X89157Y-62089D01*
X89074Y-62055D01*
X88985Y-62054D01*
X88902Y-62089D01*
X88839Y-62152D01*
X88805Y-62235D01*
X88804Y-62324D01*
X88839Y-62407D01*
X88902Y-62470D01*
X88985Y-62504D01*
X89074Y-62505D01*
X89157Y-62470D01*
X89220Y-62407D01*
X89254Y-62324D01*
X89255Y-62235D01*
X89255Y-62529D01*
X89194Y-62505D01*
X89105Y-62504D01*
X89022Y-62539D01*
X88959Y-62602D01*
X88925Y-62685D01*
X88924Y-62774D01*
X88959Y-62857D01*
X89022Y-62920D01*
X89105Y-62954D01*
X89194Y-62955D01*
X89231Y-62939D01*
X89232Y-62940D01*
X89315Y-62974D01*
X89404Y-62975D01*
X89487Y-62940D01*
X89498Y-62929D01*
X89535Y-62944D01*
X89624Y-62945D01*
X89707Y-62910D01*
X89770Y-62847D01*
X89804Y-62764D01*
X89805Y-62713D01*
X89830Y-62687D01*
X89864Y-62604D01*
X89865Y-62515D01*
X89830Y-62432D01*
X89778Y-62380D01*
X89784Y-62364D01*
X89784Y-62362D01*
X89837Y-62340D01*
X89900Y-62277D01*
X89934Y-62194D01*
X89935Y-62105D01*
X89935Y-64125D01*
X87905Y-64125D01*
X87905Y-63445D01*
X87895Y-63421D01*
X87895Y-61335D01*
X87860Y-61252D01*
X87823Y-61214D01*
X87850Y-61187D01*
X87884Y-61104D01*
X87885Y-61015D01*
X87850Y-60932D01*
X87787Y-60869D01*
X87704Y-60835D01*
X87615Y-60834D01*
X87532Y-60869D01*
X87469Y-60932D01*
X87454Y-60968D01*
X87453Y-60968D01*
X87406Y-60968D01*
X87357Y-60919D01*
X87274Y-60885D01*
X87185Y-60884D01*
X87102Y-60919D01*
X87039Y-60982D01*
X87005Y-61065D01*
X87004Y-61154D01*
X87039Y-61237D01*
X87067Y-61266D01*
X87035Y-61345D01*
X87034Y-61434D01*
X87069Y-61517D01*
X87132Y-61580D01*
X87215Y-61614D01*
X87304Y-61615D01*
X87387Y-61580D01*
X87450Y-61517D01*
X87467Y-61478D01*
X87479Y-61507D01*
X87542Y-61570D01*
X87625Y-61604D01*
X87714Y-61605D01*
X87797Y-61570D01*
X87860Y-61507D01*
X87894Y-61424D01*
X87895Y-61335D01*
X87895Y-63421D01*
X87870Y-63362D01*
X87807Y-63299D01*
X87724Y-63265D01*
X87635Y-63264D01*
X87614Y-63273D01*
X87630Y-63257D01*
X87664Y-63174D01*
X87665Y-63085D01*
X87630Y-63002D01*
X87567Y-62939D01*
X87484Y-62905D01*
X87395Y-62904D01*
X87312Y-62939D01*
X87249Y-63002D01*
X87215Y-63085D01*
X87214Y-63174D01*
X87249Y-63257D01*
X87312Y-63320D01*
X87395Y-63354D01*
X87484Y-63355D01*
X87505Y-63346D01*
X87489Y-63362D01*
X87455Y-63445D01*
X87454Y-63534D01*
X87489Y-63617D01*
X87552Y-63680D01*
X87635Y-63714D01*
X87724Y-63715D01*
X87807Y-63680D01*
X87870Y-63617D01*
X87904Y-63534D01*
X87905Y-63445D01*
X87905Y-64125D01*
X86005Y-64125D01*
X86005Y-63215D01*
X85970Y-63132D01*
X85907Y-63069D01*
X85824Y-63035D01*
X85735Y-63034D01*
X85652Y-63069D01*
X85636Y-63085D01*
X85616Y-63035D01*
X85544Y-62963D01*
X85450Y-62925D01*
X85425Y-62925D01*
X85425Y-59559D01*
X85386Y-59465D01*
X85314Y-59393D01*
X85305Y-59389D01*
X85305Y-59359D01*
X85266Y-59265D01*
X85194Y-59193D01*
X85100Y-59155D01*
X84999Y-59154D01*
X84905Y-59193D01*
X84833Y-59265D01*
X84795Y-59359D01*
X84794Y-59460D01*
X84833Y-59554D01*
X84905Y-59626D01*
X84914Y-59630D01*
X84914Y-59660D01*
X84953Y-59754D01*
X85025Y-59826D01*
X85119Y-59864D01*
X85220Y-59865D01*
X85314Y-59826D01*
X85386Y-59754D01*
X85424Y-59660D01*
X85425Y-59559D01*
X85425Y-62925D01*
X85349Y-62924D01*
X85255Y-62963D01*
X85183Y-63035D01*
X85145Y-63129D01*
X85144Y-63230D01*
X85183Y-63324D01*
X85187Y-63328D01*
X85137Y-63349D01*
X85074Y-63412D01*
X85040Y-63495D01*
X85039Y-63584D01*
X85074Y-63667D01*
X85137Y-63730D01*
X85220Y-63764D01*
X85309Y-63765D01*
X85392Y-63730D01*
X85455Y-63667D01*
X85489Y-63584D01*
X85490Y-63495D01*
X85462Y-63429D01*
X85544Y-63396D01*
X85578Y-63361D01*
X85589Y-63387D01*
X85652Y-63450D01*
X85735Y-63484D01*
X85824Y-63485D01*
X85907Y-63450D01*
X85970Y-63387D01*
X86004Y-63304D01*
X86005Y-63215D01*
X86005Y-64125D01*
X84925Y-64125D01*
X84925Y-62455D01*
X84890Y-62372D01*
X84827Y-62309D01*
X84744Y-62275D01*
X84655Y-62274D01*
X84572Y-62309D01*
X84509Y-62372D01*
X84475Y-62455D01*
X84474Y-62544D01*
X84509Y-62627D01*
X84572Y-62690D01*
X84655Y-62724D01*
X84744Y-62725D01*
X84827Y-62690D01*
X84890Y-62627D01*
X84924Y-62544D01*
X84925Y-62455D01*
X84925Y-64125D01*
X84280Y-64125D01*
X84280Y-59404D01*
X84245Y-59321D01*
X84182Y-59258D01*
X84100Y-59223D01*
X84010Y-59223D01*
X83927Y-59257D01*
X83864Y-59321D01*
X83855Y-59341D01*
X83813Y-59341D01*
X83730Y-59376D01*
X83667Y-59439D01*
X83633Y-59521D01*
X83633Y-59611D01*
X83667Y-59694D01*
X83730Y-59757D01*
X83813Y-59791D01*
X83902Y-59791D01*
X83985Y-59757D01*
X84048Y-59694D01*
X84057Y-59673D01*
X84099Y-59673D01*
X84182Y-59639D01*
X84245Y-59576D01*
X84280Y-59493D01*
X84280Y-59404D01*
X84280Y-64125D01*
X83665Y-64125D01*
X83665Y-62850D01*
X83630Y-62767D01*
X83567Y-62704D01*
X83484Y-62670D01*
X83395Y-62669D01*
X83374Y-62678D01*
X83374Y-59797D01*
X83340Y-59715D01*
X83277Y-59651D01*
X83235Y-59634D01*
X83235Y-59625D01*
X83200Y-59542D01*
X83137Y-59479D01*
X83054Y-59445D01*
X82965Y-59444D01*
X82882Y-59479D01*
X82819Y-59542D01*
X82785Y-59625D01*
X82784Y-59714D01*
X82819Y-59797D01*
X82882Y-59860D01*
X82924Y-59878D01*
X82924Y-59887D01*
X82958Y-59969D01*
X83021Y-60033D01*
X83104Y-60067D01*
X83194Y-60067D01*
X83276Y-60033D01*
X83340Y-59970D01*
X83374Y-59887D01*
X83374Y-59797D01*
X83374Y-62678D01*
X83312Y-62704D01*
X83290Y-62726D01*
X83290Y-62434D01*
X83251Y-62340D01*
X83179Y-62268D01*
X83085Y-62230D01*
X82984Y-62229D01*
X82890Y-62268D01*
X82818Y-62340D01*
X82780Y-62434D01*
X82779Y-62535D01*
X82794Y-62571D01*
X82759Y-62607D01*
X82725Y-62690D01*
X82724Y-62779D01*
X82759Y-62862D01*
X82822Y-62925D01*
X82905Y-62959D01*
X82994Y-62960D01*
X83077Y-62925D01*
X83140Y-62862D01*
X83174Y-62779D01*
X83175Y-62703D01*
X83179Y-62701D01*
X83251Y-62629D01*
X83289Y-62535D01*
X83290Y-62434D01*
X83290Y-62726D01*
X83249Y-62767D01*
X83215Y-62850D01*
X83214Y-62939D01*
X83249Y-63022D01*
X83312Y-63085D01*
X83395Y-63119D01*
X83484Y-63120D01*
X83567Y-63085D01*
X83630Y-63022D01*
X83664Y-62939D01*
X83665Y-62850D01*
X83665Y-64125D01*
X82685Y-64125D01*
X82685Y-62625D01*
X82650Y-62542D01*
X82587Y-62479D01*
X82504Y-62445D01*
X82415Y-62444D01*
X82332Y-62479D01*
X82269Y-62542D01*
X82235Y-62625D01*
X82234Y-62714D01*
X82269Y-62797D01*
X82332Y-62860D01*
X82415Y-62894D01*
X82504Y-62895D01*
X82587Y-62860D01*
X82650Y-62797D01*
X82684Y-62714D01*
X82685Y-62625D01*
X82685Y-64125D01*
X81965Y-64125D01*
X81965Y-61629D01*
X81926Y-61535D01*
X81880Y-61489D01*
X81880Y-60164D01*
X81841Y-60070D01*
X81769Y-59998D01*
X81707Y-59973D01*
X81751Y-59929D01*
X81789Y-59835D01*
X81790Y-59734D01*
X81751Y-59640D01*
X81679Y-59568D01*
X81585Y-59530D01*
X81484Y-59529D01*
X81390Y-59568D01*
X81318Y-59640D01*
X81280Y-59734D01*
X81279Y-59835D01*
X81318Y-59929D01*
X81390Y-60001D01*
X81452Y-60026D01*
X81408Y-60070D01*
X81370Y-60164D01*
X81369Y-60265D01*
X81408Y-60359D01*
X81480Y-60431D01*
X81574Y-60469D01*
X81675Y-60470D01*
X81769Y-60431D01*
X81841Y-60359D01*
X81879Y-60265D01*
X81880Y-60164D01*
X81880Y-61489D01*
X81854Y-61463D01*
X81760Y-61425D01*
X81659Y-61424D01*
X81565Y-61463D01*
X81493Y-61535D01*
X81455Y-61629D01*
X81454Y-61730D01*
X81493Y-61824D01*
X81565Y-61896D01*
X81659Y-61934D01*
X81760Y-61935D01*
X81854Y-61896D01*
X81926Y-61824D01*
X81964Y-61730D01*
X81965Y-61629D01*
X81965Y-64125D01*
X81385Y-64125D01*
X81385Y-63759D01*
X81346Y-63665D01*
X81274Y-63593D01*
X81180Y-63555D01*
X81079Y-63554D01*
X80985Y-63593D01*
X80919Y-63659D01*
X80894Y-63633D01*
X80824Y-63604D01*
X80844Y-63596D01*
X80916Y-63524D01*
X80933Y-63482D01*
X81009Y-63514D01*
X81111Y-63514D01*
X81205Y-63475D01*
X81276Y-63403D01*
X81315Y-63310D01*
X81315Y-63208D01*
X81277Y-63114D01*
X81205Y-63043D01*
X81111Y-63004D01*
X81010Y-63004D01*
X80917Y-63042D01*
X80934Y-63000D01*
X80935Y-62899D01*
X80896Y-62805D01*
X80824Y-62733D01*
X80730Y-62695D01*
X80629Y-62694D01*
X80535Y-62733D01*
X80463Y-62805D01*
X80425Y-62899D01*
X80424Y-63000D01*
X80463Y-63094D01*
X80535Y-63166D01*
X80548Y-63171D01*
X80483Y-63235D01*
X80445Y-63329D01*
X80444Y-63430D01*
X80483Y-63524D01*
X80555Y-63596D01*
X80625Y-63625D01*
X80605Y-63633D01*
X80533Y-63705D01*
X80495Y-63799D01*
X80494Y-63900D01*
X80533Y-63994D01*
X80605Y-64066D01*
X80699Y-64104D01*
X80800Y-64105D01*
X80894Y-64066D01*
X80960Y-64000D01*
X80985Y-64026D01*
X81079Y-64064D01*
X81180Y-64065D01*
X81274Y-64026D01*
X81346Y-63954D01*
X81384Y-63860D01*
X81385Y-63759D01*
X81385Y-64125D01*
X80374Y-64125D01*
X80374Y-55376D01*
X80393Y-55421D01*
X80456Y-55484D01*
X80539Y-55518D01*
X80628Y-55519D01*
X80711Y-55484D01*
X80774Y-55421D01*
X80808Y-55338D01*
X80809Y-55249D01*
X80774Y-55166D01*
X80711Y-55103D01*
X80628Y-55069D01*
X80539Y-55068D01*
X80456Y-55103D01*
X80393Y-55166D01*
X80374Y-55211D01*
X80374Y-52210D01*
X80389Y-52224D01*
X80500Y-52271D01*
X80620Y-52271D01*
X80732Y-52225D01*
X80817Y-52140D01*
X80863Y-52028D01*
X80863Y-51908D01*
X80817Y-51797D01*
X80732Y-51712D01*
X80621Y-51665D01*
X80501Y-51665D01*
X80389Y-51711D01*
X80374Y-51726D01*
X80374Y-50474D01*
X84854Y-50474D01*
X84793Y-50535D01*
X84755Y-50629D01*
X84754Y-50730D01*
X84793Y-50824D01*
X84865Y-50896D01*
X84959Y-50934D01*
X85060Y-50935D01*
X85154Y-50896D01*
X85226Y-50824D01*
X85264Y-50730D01*
X85265Y-50629D01*
X85226Y-50535D01*
X85165Y-50474D01*
X94025Y-50474D01*
X94025Y-51717D01*
X94020Y-51712D01*
X93908Y-51665D01*
X93788Y-51665D01*
X93677Y-51711D01*
X93592Y-51796D01*
X93545Y-51908D01*
X93545Y-52028D01*
X93591Y-52139D01*
X93676Y-52224D01*
X93787Y-52271D01*
X93908Y-52271D01*
X94019Y-52225D01*
X94025Y-52219D01*
X94025Y-53584D01*
X93954Y-53513D01*
X93860Y-53475D01*
X93759Y-53474D01*
X93665Y-53513D01*
X93593Y-53585D01*
X93555Y-53679D01*
X93554Y-53780D01*
X93593Y-53874D01*
X93665Y-53946D01*
X93759Y-53984D01*
X93860Y-53985D01*
X93954Y-53946D01*
X94025Y-53875D01*
X94025Y-57032D01*
X94020Y-57027D01*
X93908Y-56980D01*
X93788Y-56980D01*
X93677Y-57026D01*
X93592Y-57111D01*
X93545Y-57223D01*
X93545Y-57343D01*
X93591Y-57454D01*
X93676Y-57539D01*
X93787Y-57586D01*
X93908Y-57586D01*
X94019Y-57540D01*
X94025Y-57534D01*
X94025Y-58894D01*
X93974Y-58843D01*
X93880Y-58805D01*
X93779Y-58804D01*
X93685Y-58843D01*
X93613Y-58915D01*
X93575Y-59009D01*
X93574Y-59110D01*
X93613Y-59204D01*
X93685Y-59276D01*
X93779Y-59314D01*
X93880Y-59315D01*
X93974Y-59276D01*
X94025Y-59225D01*
X94025Y-60664D01*
X93994Y-60633D01*
X93900Y-60595D01*
X93799Y-60594D01*
X93705Y-60633D01*
X93633Y-60705D01*
X93595Y-60799D01*
X93594Y-60900D01*
X93633Y-60994D01*
X93705Y-61066D01*
X93799Y-61104D01*
X93900Y-61105D01*
X93994Y-61066D01*
X94025Y-61035D01*
X94025Y-62347D01*
X94020Y-62342D01*
X93908Y-62295D01*
X93788Y-62295D01*
X93677Y-62341D01*
X93592Y-62426D01*
X93545Y-62537D01*
X93545Y-62658D01*
X93591Y-62769D01*
X93676Y-62854D01*
X93787Y-62901D01*
X93908Y-62901D01*
X94019Y-62855D01*
X94025Y-62849D01*
X94025Y-64125D01*
X94025Y-64125D01*
G37*
G54D15*
X94025Y-64125D02*
X93068Y-64125D01*
X93068Y-62538D01*
X93068Y-57223D01*
X93068Y-51908D01*
X93022Y-51797D01*
X92937Y-51712D01*
X92826Y-51665D01*
X92705Y-51665D01*
X92594Y-51711D01*
X92509Y-51796D01*
X92463Y-51908D01*
X92463Y-52028D01*
X92509Y-52139D01*
X92590Y-52220D01*
X92580Y-52245D01*
X92579Y-52334D01*
X92614Y-52417D01*
X92677Y-52480D01*
X92760Y-52514D01*
X92849Y-52515D01*
X92932Y-52480D01*
X92995Y-52417D01*
X93029Y-52334D01*
X93030Y-52245D01*
X92996Y-52165D01*
X93022Y-52140D01*
X93068Y-52028D01*
X93068Y-51908D01*
X93068Y-57223D01*
X93022Y-57112D01*
X92937Y-57027D01*
X92890Y-57007D01*
X92890Y-54120D01*
X92855Y-54037D01*
X92792Y-53974D01*
X92709Y-53940D01*
X92620Y-53939D01*
X92537Y-53974D01*
X92474Y-54037D01*
X92440Y-54120D01*
X92439Y-54209D01*
X92474Y-54292D01*
X92537Y-54355D01*
X92620Y-54389D01*
X92709Y-54390D01*
X92792Y-54355D01*
X92855Y-54292D01*
X92889Y-54209D01*
X92890Y-54120D01*
X92890Y-57007D01*
X92826Y-56980D01*
X92815Y-56980D01*
X92815Y-55465D01*
X92780Y-55382D01*
X92717Y-55319D01*
X92634Y-55285D01*
X92545Y-55284D01*
X92462Y-55319D01*
X92435Y-55346D01*
X92435Y-53550D01*
X92400Y-53467D01*
X92337Y-53404D01*
X92254Y-53370D01*
X92165Y-53369D01*
X92082Y-53404D01*
X92019Y-53467D01*
X91985Y-53550D01*
X91984Y-53639D01*
X92019Y-53722D01*
X92082Y-53785D01*
X92165Y-53819D01*
X92254Y-53820D01*
X92337Y-53785D01*
X92400Y-53722D01*
X92434Y-53639D01*
X92435Y-53550D01*
X92435Y-55346D01*
X92399Y-55382D01*
X92365Y-55465D01*
X92364Y-55554D01*
X92399Y-55637D01*
X92462Y-55700D01*
X92545Y-55734D01*
X92634Y-55735D01*
X92717Y-55700D01*
X92780Y-55637D01*
X92814Y-55554D01*
X92815Y-55465D01*
X92815Y-56980D01*
X92705Y-56980D01*
X92594Y-57026D01*
X92509Y-57111D01*
X92463Y-57223D01*
X92463Y-57343D01*
X92509Y-57454D01*
X92594Y-57539D01*
X92705Y-57586D01*
X92825Y-57586D01*
X92936Y-57540D01*
X93022Y-57455D01*
X93068Y-57343D01*
X93068Y-57223D01*
X93068Y-62538D01*
X93022Y-62427D01*
X92937Y-62342D01*
X92826Y-62295D01*
X92705Y-62295D01*
X92594Y-62341D01*
X92509Y-62426D01*
X92463Y-62537D01*
X92463Y-62658D01*
X92509Y-62769D01*
X92594Y-62854D01*
X92705Y-62901D01*
X92825Y-62901D01*
X92936Y-62855D01*
X93022Y-62770D01*
X93068Y-62658D01*
X93068Y-62538D01*
X93068Y-64125D01*
X92360Y-64125D01*
X92360Y-63490D01*
X92325Y-63407D01*
X92262Y-63344D01*
X92179Y-63310D01*
X92090Y-63309D01*
X92007Y-63344D01*
X91944Y-63407D01*
X91910Y-63490D01*
X91909Y-63579D01*
X91944Y-63662D01*
X92007Y-63725D01*
X92090Y-63759D01*
X92179Y-63760D01*
X92262Y-63725D01*
X92325Y-63662D01*
X92359Y-63579D01*
X92360Y-63490D01*
X92360Y-64125D01*
X91878Y-64125D01*
X91878Y-59522D01*
X91844Y-59439D01*
X91839Y-59434D01*
X91839Y-54089D01*
X91805Y-54006D01*
X91741Y-53943D01*
X91659Y-53908D01*
X91630Y-53908D01*
X91630Y-51525D01*
X91595Y-51442D01*
X91532Y-51379D01*
X91449Y-51345D01*
X91360Y-51344D01*
X91277Y-51379D01*
X91214Y-51442D01*
X91180Y-51525D01*
X91179Y-51614D01*
X91214Y-51697D01*
X91277Y-51760D01*
X91360Y-51794D01*
X91449Y-51795D01*
X91532Y-51760D01*
X91595Y-51697D01*
X91629Y-51614D01*
X91630Y-51525D01*
X91630Y-53908D01*
X91569Y-53908D01*
X91486Y-53943D01*
X91423Y-54006D01*
X91389Y-54088D01*
X91389Y-54178D01*
X91423Y-54261D01*
X91486Y-54324D01*
X91569Y-54358D01*
X91658Y-54358D01*
X91741Y-54324D01*
X91804Y-54261D01*
X91839Y-54178D01*
X91839Y-54089D01*
X91839Y-59434D01*
X91781Y-59376D01*
X91698Y-59341D01*
X91608Y-59341D01*
X91526Y-59376D01*
X91462Y-59439D01*
X91428Y-59521D01*
X91428Y-59611D01*
X91462Y-59694D01*
X91525Y-59757D01*
X91608Y-59791D01*
X91698Y-59791D01*
X91780Y-59757D01*
X91844Y-59694D01*
X91878Y-59611D01*
X91878Y-59522D01*
X91878Y-64125D01*
X91345Y-64125D01*
X91345Y-56919D01*
X91306Y-56825D01*
X91234Y-56753D01*
X91140Y-56715D01*
X91039Y-56714D01*
X90945Y-56753D01*
X90873Y-56825D01*
X90835Y-56919D01*
X90834Y-57020D01*
X90873Y-57114D01*
X90945Y-57186D01*
X91039Y-57224D01*
X91140Y-57225D01*
X91234Y-57186D01*
X91306Y-57114D01*
X91344Y-57020D01*
X91345Y-56919D01*
X91345Y-64125D01*
X90955Y-64125D01*
X90955Y-58109D01*
X90916Y-58015D01*
X90844Y-57943D01*
X90774Y-57915D01*
X90775Y-57849D01*
X90736Y-57755D01*
X90664Y-57683D01*
X90570Y-57645D01*
X90469Y-57644D01*
X90461Y-57648D01*
X90461Y-52868D01*
X90427Y-52786D01*
X90363Y-52722D01*
X90281Y-52688D01*
X90230Y-52688D01*
X90230Y-52000D01*
X90195Y-51917D01*
X90132Y-51854D01*
X90049Y-51820D01*
X89960Y-51819D01*
X89915Y-51838D01*
X89915Y-51795D01*
X89880Y-51712D01*
X89817Y-51649D01*
X89734Y-51615D01*
X89645Y-51614D01*
X89562Y-51649D01*
X89499Y-51712D01*
X89465Y-51795D01*
X89464Y-51884D01*
X89499Y-51967D01*
X89562Y-52030D01*
X89645Y-52064D01*
X89695Y-52065D01*
X89215Y-52545D01*
X89214Y-52546D01*
X89207Y-52539D01*
X89140Y-52511D01*
X89140Y-52155D01*
X89105Y-52072D01*
X89042Y-52009D01*
X88959Y-51975D01*
X88870Y-51974D01*
X88787Y-52009D01*
X88724Y-52072D01*
X88690Y-52155D01*
X88689Y-52222D01*
X88624Y-52195D01*
X88535Y-52194D01*
X88452Y-52229D01*
X88389Y-52292D01*
X88355Y-52375D01*
X88354Y-52464D01*
X88389Y-52547D01*
X88452Y-52610D01*
X88535Y-52644D01*
X88624Y-52645D01*
X88707Y-52610D01*
X88770Y-52547D01*
X88804Y-52464D01*
X88805Y-52397D01*
X88870Y-52424D01*
X88959Y-52425D01*
X89042Y-52390D01*
X89105Y-52327D01*
X89139Y-52244D01*
X89140Y-52155D01*
X89140Y-52511D01*
X89124Y-52505D01*
X89035Y-52504D01*
X88952Y-52539D01*
X88889Y-52602D01*
X88855Y-52685D01*
X88854Y-52774D01*
X88889Y-52857D01*
X88952Y-52920D01*
X89035Y-52954D01*
X89124Y-52955D01*
X89155Y-52942D01*
X89155Y-56025D01*
X89075Y-56024D01*
X88992Y-56059D01*
X88929Y-56122D01*
X88895Y-56205D01*
X88894Y-56294D01*
X88929Y-56377D01*
X88992Y-56440D01*
X89075Y-56474D01*
X89155Y-56475D01*
X89155Y-56835D01*
X88685Y-57305D01*
X88685Y-55335D01*
X88665Y-55287D01*
X88665Y-53705D01*
X88665Y-52935D01*
X88630Y-52852D01*
X88567Y-52789D01*
X88484Y-52755D01*
X88395Y-52754D01*
X88312Y-52789D01*
X88249Y-52852D01*
X88215Y-52935D01*
X88214Y-53024D01*
X88249Y-53107D01*
X88312Y-53170D01*
X88395Y-53204D01*
X88484Y-53205D01*
X88567Y-53170D01*
X88630Y-53107D01*
X88664Y-53024D01*
X88665Y-52935D01*
X88665Y-53705D01*
X88630Y-53622D01*
X88567Y-53559D01*
X88484Y-53525D01*
X88395Y-53524D01*
X88312Y-53559D01*
X88249Y-53622D01*
X88215Y-53705D01*
X88214Y-53794D01*
X88249Y-53877D01*
X88312Y-53940D01*
X88395Y-53974D01*
X88484Y-53975D01*
X88567Y-53940D01*
X88630Y-53877D01*
X88664Y-53794D01*
X88665Y-53705D01*
X88665Y-55287D01*
X88650Y-55252D01*
X88587Y-55189D01*
X88504Y-55155D01*
X88415Y-55154D01*
X88332Y-55189D01*
X88269Y-55252D01*
X88235Y-55335D01*
X88234Y-55424D01*
X88269Y-55507D01*
X88332Y-55570D01*
X88415Y-55604D01*
X88504Y-55605D01*
X88587Y-55570D01*
X88650Y-55507D01*
X88684Y-55424D01*
X88685Y-55335D01*
X88685Y-57305D01*
X88390Y-57600D01*
X88390Y-55865D01*
X88375Y-55794D01*
X88335Y-55734D01*
X88335Y-55734D01*
X88105Y-55503D01*
X88105Y-53015D01*
X88070Y-52932D01*
X88007Y-52869D01*
X87924Y-52835D01*
X87843Y-52834D01*
X87877Y-52820D01*
X87940Y-52757D01*
X87974Y-52674D01*
X87975Y-52585D01*
X87940Y-52502D01*
X87918Y-52480D01*
X87967Y-52460D01*
X88030Y-52397D01*
X88064Y-52314D01*
X88065Y-52225D01*
X88030Y-52142D01*
X87967Y-52079D01*
X87884Y-52045D01*
X87795Y-52044D01*
X87712Y-52079D01*
X87649Y-52142D01*
X87623Y-52205D01*
X87597Y-52179D01*
X87514Y-52145D01*
X87425Y-52144D01*
X87342Y-52179D01*
X87279Y-52242D01*
X87245Y-52325D01*
X87244Y-52414D01*
X87279Y-52497D01*
X87342Y-52560D01*
X87425Y-52594D01*
X87514Y-52595D01*
X87525Y-52590D01*
X87524Y-52674D01*
X87559Y-52757D01*
X87622Y-52820D01*
X87705Y-52854D01*
X87786Y-52855D01*
X87752Y-52869D01*
X87689Y-52932D01*
X87655Y-53015D01*
X87654Y-53104D01*
X87689Y-53187D01*
X87752Y-53250D01*
X87835Y-53284D01*
X87924Y-53285D01*
X88007Y-53250D01*
X88070Y-53187D01*
X88104Y-53104D01*
X88105Y-53015D01*
X88105Y-55503D01*
X86895Y-54294D01*
X86835Y-54254D01*
X86765Y-54240D01*
X86685Y-54240D01*
X86685Y-52765D01*
X86650Y-52682D01*
X86587Y-52619D01*
X86504Y-52585D01*
X86415Y-52584D01*
X86332Y-52619D01*
X86269Y-52682D01*
X86235Y-52765D01*
X86234Y-52854D01*
X86269Y-52937D01*
X86332Y-53000D01*
X86415Y-53034D01*
X86504Y-53035D01*
X86587Y-53000D01*
X86650Y-52937D01*
X86684Y-52854D01*
X86685Y-52765D01*
X86685Y-54240D01*
X86452Y-54240D01*
X86379Y-54210D01*
X86338Y-54210D01*
X86287Y-54159D01*
X86204Y-54125D01*
X86115Y-54124D01*
X86032Y-54159D01*
X85969Y-54222D01*
X85935Y-54305D01*
X85934Y-54394D01*
X85935Y-54396D01*
X85917Y-54404D01*
X85854Y-54467D01*
X85820Y-54550D01*
X85819Y-54639D01*
X85854Y-54722D01*
X85917Y-54785D01*
X86000Y-54819D01*
X86089Y-54820D01*
X86126Y-54804D01*
X86200Y-54834D01*
X86208Y-54834D01*
X86609Y-55235D01*
X86552Y-55259D01*
X86489Y-55322D01*
X86455Y-55405D01*
X86454Y-55494D01*
X86489Y-55577D01*
X86552Y-55640D01*
X86635Y-55674D01*
X86724Y-55675D01*
X86807Y-55640D01*
X86870Y-55577D01*
X86894Y-55520D01*
X87860Y-56486D01*
X87860Y-57437D01*
X87800Y-57412D01*
X87711Y-57412D01*
X87628Y-57446D01*
X87618Y-57457D01*
X87607Y-57447D01*
X87525Y-57412D01*
X87435Y-57412D01*
X87353Y-57446D01*
X87342Y-57457D01*
X87332Y-57447D01*
X87249Y-57412D01*
X87160Y-57412D01*
X87077Y-57446D01*
X87014Y-57510D01*
X86979Y-57592D01*
X86979Y-57682D01*
X87013Y-57765D01*
X87077Y-57828D01*
X87159Y-57862D01*
X87249Y-57862D01*
X87332Y-57828D01*
X87342Y-57818D01*
X87352Y-57828D01*
X87435Y-57862D01*
X87524Y-57862D01*
X87570Y-57844D01*
X87570Y-57918D01*
X87604Y-58001D01*
X87614Y-58011D01*
X87604Y-58021D01*
X87570Y-58104D01*
X87570Y-58194D01*
X87604Y-58276D01*
X87667Y-58340D01*
X87750Y-58374D01*
X87839Y-58374D01*
X87860Y-58366D01*
X87860Y-58824D01*
X87850Y-58802D01*
X87787Y-58739D01*
X87704Y-58705D01*
X87696Y-58705D01*
X87560Y-58569D01*
X87500Y-58529D01*
X87430Y-58515D01*
X86760Y-58515D01*
X86760Y-57829D01*
X86726Y-57746D01*
X86663Y-57683D01*
X86580Y-57649D01*
X86490Y-57648D01*
X86408Y-57683D01*
X86344Y-57746D01*
X86310Y-57829D01*
X86310Y-57918D01*
X86344Y-58001D01*
X86407Y-58064D01*
X86490Y-58098D01*
X86579Y-58099D01*
X86662Y-58064D01*
X86726Y-58001D01*
X86760Y-57918D01*
X86760Y-57829D01*
X86760Y-58515D01*
X86169Y-58515D01*
X86169Y-55349D01*
X86135Y-55266D01*
X86072Y-55203D01*
X85989Y-55168D01*
X85900Y-55168D01*
X85817Y-55202D01*
X85754Y-55266D01*
X85719Y-55348D01*
X85719Y-55438D01*
X85754Y-55520D01*
X85817Y-55584D01*
X85899Y-55618D01*
X85989Y-55618D01*
X86072Y-55584D01*
X86135Y-55521D01*
X86169Y-55438D01*
X86169Y-55349D01*
X86169Y-58515D01*
X85146Y-58515D01*
X85146Y-55979D01*
X85112Y-55896D01*
X85106Y-55891D01*
X85106Y-53577D01*
X85072Y-53494D01*
X85009Y-53431D01*
X84926Y-53397D01*
X84837Y-53397D01*
X84754Y-53431D01*
X84691Y-53494D01*
X84656Y-53577D01*
X84656Y-53666D01*
X84691Y-53749D01*
X84754Y-53812D01*
X84836Y-53847D01*
X84926Y-53847D01*
X85009Y-53812D01*
X85072Y-53749D01*
X85106Y-53666D01*
X85106Y-53577D01*
X85106Y-55891D01*
X85048Y-55832D01*
X84966Y-55798D01*
X84876Y-55798D01*
X84793Y-55832D01*
X84730Y-55896D01*
X84724Y-55910D01*
X84718Y-55896D01*
X84655Y-55832D01*
X84572Y-55798D01*
X84483Y-55798D01*
X84477Y-55801D01*
X84477Y-52947D01*
X84442Y-52864D01*
X84379Y-52801D01*
X84296Y-52767D01*
X84207Y-52767D01*
X84124Y-52801D01*
X84061Y-52864D01*
X84027Y-52947D01*
X84026Y-53036D01*
X84061Y-53119D01*
X84124Y-53182D01*
X84207Y-53217D01*
X84296Y-53217D01*
X84379Y-53182D01*
X84442Y-53119D01*
X84476Y-53037D01*
X84477Y-52947D01*
X84477Y-55801D01*
X84400Y-55832D01*
X84336Y-55896D01*
X84302Y-55978D01*
X84302Y-56068D01*
X84336Y-56150D01*
X84399Y-56214D01*
X84482Y-56248D01*
X84572Y-56248D01*
X84654Y-56214D01*
X84718Y-56151D01*
X84724Y-56136D01*
X84730Y-56150D01*
X84793Y-56214D01*
X84876Y-56248D01*
X84965Y-56248D01*
X85048Y-56214D01*
X85111Y-56151D01*
X85146Y-56068D01*
X85146Y-55979D01*
X85146Y-58515D01*
X83985Y-58515D01*
X83985Y-53049D01*
X83946Y-52955D01*
X83945Y-52954D01*
X83945Y-51365D01*
X83910Y-51282D01*
X83847Y-51219D01*
X83764Y-51185D01*
X83675Y-51184D01*
X83592Y-51219D01*
X83529Y-51282D01*
X83495Y-51365D01*
X83494Y-51454D01*
X83529Y-51537D01*
X83592Y-51600D01*
X83675Y-51634D01*
X83764Y-51635D01*
X83847Y-51600D01*
X83910Y-51537D01*
X83944Y-51454D01*
X83945Y-51365D01*
X83945Y-52954D01*
X83874Y-52883D01*
X83780Y-52845D01*
X83679Y-52844D01*
X83585Y-52883D01*
X83513Y-52955D01*
X83475Y-53049D01*
X83474Y-53150D01*
X83513Y-53244D01*
X83585Y-53316D01*
X83679Y-53354D01*
X83780Y-53355D01*
X83874Y-53316D01*
X83946Y-53244D01*
X83984Y-53150D01*
X83985Y-53049D01*
X83985Y-58515D01*
X83255Y-58515D01*
X83255Y-55115D01*
X83220Y-55032D01*
X83202Y-55013D01*
X83234Y-54934D01*
X83235Y-54845D01*
X83200Y-54762D01*
X83195Y-54756D01*
X83195Y-51515D01*
X83160Y-51432D01*
X83097Y-51369D01*
X83014Y-51335D01*
X82951Y-51334D01*
X82984Y-51254D01*
X82985Y-51165D01*
X82950Y-51082D01*
X82887Y-51019D01*
X82804Y-50985D01*
X82715Y-50984D01*
X82632Y-51019D01*
X82569Y-51082D01*
X82535Y-51165D01*
X82534Y-51254D01*
X82569Y-51337D01*
X82632Y-51400D01*
X82715Y-51434D01*
X82778Y-51435D01*
X82745Y-51515D01*
X82744Y-51604D01*
X82779Y-51687D01*
X82842Y-51750D01*
X82925Y-51784D01*
X83014Y-51785D01*
X83097Y-51750D01*
X83160Y-51687D01*
X83194Y-51604D01*
X83195Y-51515D01*
X83195Y-54756D01*
X83137Y-54699D01*
X83054Y-54665D01*
X83005Y-54664D01*
X83005Y-53535D01*
X82970Y-53452D01*
X82907Y-53389D01*
X82892Y-53382D01*
X82897Y-53380D01*
X82960Y-53317D01*
X82994Y-53234D01*
X82995Y-53145D01*
X82960Y-53062D01*
X82928Y-53030D01*
X82950Y-53007D01*
X82984Y-52924D01*
X82985Y-52835D01*
X82985Y-52185D01*
X82950Y-52102D01*
X82887Y-52039D01*
X82804Y-52005D01*
X82715Y-52004D01*
X82715Y-52005D01*
X82715Y-51969D01*
X82676Y-51875D01*
X82604Y-51803D01*
X82510Y-51765D01*
X82409Y-51764D01*
X82315Y-51803D01*
X82301Y-51818D01*
X82290Y-51792D01*
X82227Y-51729D01*
X82144Y-51695D01*
X82055Y-51694D01*
X81972Y-51729D01*
X81909Y-51792D01*
X81903Y-51805D01*
X81900Y-51797D01*
X81815Y-51712D01*
X81704Y-51665D01*
X81583Y-51665D01*
X81472Y-51711D01*
X81415Y-51769D01*
X81415Y-51579D01*
X81376Y-51485D01*
X81304Y-51413D01*
X81210Y-51375D01*
X81109Y-51374D01*
X81015Y-51413D01*
X80943Y-51485D01*
X80905Y-51579D01*
X80904Y-51680D01*
X80943Y-51774D01*
X81015Y-51846D01*
X81109Y-51884D01*
X81210Y-51885D01*
X81304Y-51846D01*
X81376Y-51774D01*
X81414Y-51680D01*
X81415Y-51579D01*
X81415Y-51769D01*
X81387Y-51796D01*
X81341Y-51908D01*
X81341Y-52028D01*
X81386Y-52139D01*
X81472Y-52224D01*
X81583Y-52271D01*
X81703Y-52271D01*
X81814Y-52225D01*
X81900Y-52140D01*
X81930Y-52068D01*
X81972Y-52110D01*
X82055Y-52144D01*
X82144Y-52145D01*
X82222Y-52112D01*
X82243Y-52164D01*
X82315Y-52236D01*
X82409Y-52274D01*
X82510Y-52275D01*
X82534Y-52264D01*
X82534Y-52274D01*
X82569Y-52357D01*
X82632Y-52420D01*
X82715Y-52454D01*
X82804Y-52455D01*
X82887Y-52420D01*
X82950Y-52357D01*
X82984Y-52274D01*
X82985Y-52185D01*
X82985Y-52835D01*
X82950Y-52752D01*
X82887Y-52689D01*
X82804Y-52655D01*
X82715Y-52654D01*
X82632Y-52689D01*
X82569Y-52752D01*
X82560Y-52772D01*
X82517Y-52729D01*
X82434Y-52695D01*
X82345Y-52694D01*
X82262Y-52729D01*
X82199Y-52792D01*
X82165Y-52875D01*
X82164Y-52964D01*
X82199Y-53047D01*
X82201Y-53049D01*
X82169Y-53082D01*
X82135Y-53165D01*
X82134Y-53254D01*
X82169Y-53337D01*
X82232Y-53400D01*
X82238Y-53403D01*
X82199Y-53442D01*
X82165Y-53525D01*
X82164Y-53614D01*
X82199Y-53697D01*
X82262Y-53760D01*
X82345Y-53794D01*
X82434Y-53795D01*
X82517Y-53760D01*
X82580Y-53697D01*
X82582Y-53692D01*
X82589Y-53707D01*
X82652Y-53770D01*
X82735Y-53804D01*
X82824Y-53805D01*
X82907Y-53770D01*
X82970Y-53707D01*
X83004Y-53624D01*
X83005Y-53535D01*
X83005Y-54664D01*
X82965Y-54664D01*
X82882Y-54699D01*
X82875Y-54706D01*
X82837Y-54669D01*
X82754Y-54635D01*
X82665Y-54634D01*
X82582Y-54669D01*
X82519Y-54732D01*
X82485Y-54815D01*
X82484Y-54904D01*
X82519Y-54987D01*
X82551Y-55019D01*
X82549Y-55022D01*
X82515Y-55105D01*
X82514Y-55194D01*
X82549Y-55277D01*
X82612Y-55340D01*
X82695Y-55374D01*
X82784Y-55375D01*
X82867Y-55340D01*
X82879Y-55328D01*
X82902Y-55350D01*
X82985Y-55384D01*
X83074Y-55385D01*
X83157Y-55350D01*
X83220Y-55287D01*
X83254Y-55204D01*
X83255Y-55115D01*
X83255Y-58515D01*
X82285Y-58515D01*
X82285Y-56735D01*
X82250Y-56652D01*
X82187Y-56589D01*
X82104Y-56555D01*
X82100Y-56555D01*
X82100Y-55935D01*
X82065Y-55852D01*
X82002Y-55789D01*
X81919Y-55755D01*
X81855Y-55754D01*
X81855Y-53699D01*
X81816Y-53605D01*
X81744Y-53533D01*
X81650Y-53495D01*
X81549Y-53494D01*
X81455Y-53533D01*
X81383Y-53605D01*
X81345Y-53699D01*
X81344Y-53800D01*
X81383Y-53894D01*
X81455Y-53966D01*
X81549Y-54004D01*
X81650Y-54005D01*
X81744Y-53966D01*
X81816Y-53894D01*
X81854Y-53800D01*
X81855Y-53699D01*
X81855Y-55754D01*
X81830Y-55754D01*
X81747Y-55789D01*
X81735Y-55801D01*
X81710Y-55742D01*
X81647Y-55679D01*
X81564Y-55645D01*
X81475Y-55644D01*
X81392Y-55679D01*
X81329Y-55742D01*
X81295Y-55825D01*
X81294Y-55914D01*
X81329Y-55997D01*
X81392Y-56060D01*
X81475Y-56094D01*
X81564Y-56095D01*
X81647Y-56060D01*
X81659Y-56048D01*
X81684Y-56107D01*
X81747Y-56170D01*
X81830Y-56204D01*
X81919Y-56205D01*
X82002Y-56170D01*
X82065Y-56107D01*
X82099Y-56024D01*
X82100Y-55935D01*
X82100Y-56555D01*
X82015Y-56554D01*
X81932Y-56589D01*
X81869Y-56652D01*
X81869Y-56652D01*
X81860Y-56632D01*
X81797Y-56569D01*
X81714Y-56535D01*
X81625Y-56534D01*
X81542Y-56569D01*
X81479Y-56632D01*
X81465Y-56664D01*
X81460Y-56652D01*
X81397Y-56589D01*
X81314Y-56555D01*
X81225Y-56554D01*
X81142Y-56589D01*
X81079Y-56652D01*
X81045Y-56735D01*
X81044Y-56824D01*
X81079Y-56907D01*
X81142Y-56970D01*
X81225Y-57004D01*
X81314Y-57005D01*
X81397Y-56970D01*
X81460Y-56907D01*
X81474Y-56875D01*
X81479Y-56887D01*
X81542Y-56950D01*
X81613Y-56980D01*
X81542Y-57009D01*
X81479Y-57072D01*
X81445Y-57155D01*
X81444Y-57244D01*
X81479Y-57327D01*
X81542Y-57390D01*
X81625Y-57424D01*
X81714Y-57425D01*
X81797Y-57390D01*
X81860Y-57327D01*
X81894Y-57244D01*
X81895Y-57155D01*
X81860Y-57072D01*
X81797Y-57009D01*
X81726Y-56979D01*
X81797Y-56950D01*
X81860Y-56887D01*
X81860Y-56887D01*
X81869Y-56907D01*
X81932Y-56970D01*
X82015Y-57004D01*
X82104Y-57005D01*
X82187Y-56970D01*
X82250Y-56907D01*
X82284Y-56824D01*
X82285Y-56735D01*
X82285Y-58515D01*
X82221Y-58515D01*
X81859Y-58152D01*
X81925Y-58179D01*
X82014Y-58180D01*
X82097Y-58145D01*
X82160Y-58082D01*
X82194Y-57999D01*
X82195Y-57910D01*
X82160Y-57827D01*
X82097Y-57764D01*
X82014Y-57730D01*
X81925Y-57729D01*
X81842Y-57764D01*
X81779Y-57827D01*
X81745Y-57910D01*
X81744Y-57999D01*
X81772Y-58065D01*
X81605Y-57898D01*
X81605Y-57890D01*
X81570Y-57807D01*
X81507Y-57744D01*
X81424Y-57710D01*
X81335Y-57709D01*
X81252Y-57744D01*
X81238Y-57758D01*
X81229Y-57755D01*
X81140Y-57754D01*
X81057Y-57789D01*
X80994Y-57852D01*
X80960Y-57935D01*
X80959Y-58024D01*
X80994Y-58107D01*
X81057Y-58170D01*
X81140Y-58204D01*
X81148Y-58204D01*
X81200Y-58256D01*
X81149Y-58307D01*
X81115Y-58390D01*
X81114Y-58479D01*
X81149Y-58562D01*
X81212Y-58625D01*
X81295Y-58659D01*
X81384Y-58660D01*
X81467Y-58625D01*
X81518Y-58574D01*
X81954Y-59010D01*
X81954Y-59010D01*
X82014Y-59050D01*
X82085Y-59065D01*
X87153Y-59065D01*
X87324Y-59236D01*
X87324Y-59244D01*
X87359Y-59327D01*
X87394Y-59362D01*
X87339Y-59340D01*
X87250Y-59339D01*
X87167Y-59374D01*
X87104Y-59437D01*
X87082Y-59489D01*
X87065Y-59489D01*
X86982Y-59524D01*
X86919Y-59587D01*
X86885Y-59670D01*
X86884Y-59759D01*
X86919Y-59842D01*
X86982Y-59905D01*
X87065Y-59939D01*
X87154Y-59940D01*
X87237Y-59905D01*
X87300Y-59842D01*
X87322Y-59790D01*
X87339Y-59790D01*
X87422Y-59755D01*
X87485Y-59692D01*
X87519Y-59609D01*
X87520Y-59520D01*
X87485Y-59437D01*
X87450Y-59402D01*
X87505Y-59424D01*
X87594Y-59425D01*
X87677Y-59390D01*
X87740Y-59327D01*
X87774Y-59244D01*
X87775Y-59155D01*
X87764Y-59130D01*
X87787Y-59120D01*
X87850Y-59057D01*
X87860Y-59035D01*
X87860Y-59479D01*
X87855Y-59479D01*
X87772Y-59514D01*
X87709Y-59577D01*
X87675Y-59660D01*
X87674Y-59749D01*
X87709Y-59832D01*
X87772Y-59895D01*
X87855Y-59929D01*
X87944Y-59930D01*
X88027Y-59895D01*
X88090Y-59832D01*
X88093Y-59824D01*
X88099Y-59837D01*
X88162Y-59900D01*
X88245Y-59934D01*
X88334Y-59935D01*
X88417Y-59900D01*
X88480Y-59837D01*
X88514Y-59754D01*
X88515Y-59665D01*
X88480Y-59582D01*
X88417Y-59519D01*
X88390Y-59507D01*
X88390Y-58109D01*
X88439Y-58110D01*
X88522Y-58075D01*
X88585Y-58012D01*
X88605Y-57964D01*
X88640Y-57929D01*
X88633Y-57947D01*
X88633Y-58036D01*
X88667Y-58119D01*
X88730Y-58182D01*
X88813Y-58217D01*
X88902Y-58217D01*
X88985Y-58182D01*
X89008Y-58160D01*
X89049Y-58177D01*
X89139Y-58177D01*
X89221Y-58143D01*
X89244Y-58121D01*
X89285Y-58138D01*
X89375Y-58138D01*
X89457Y-58104D01*
X89521Y-58041D01*
X89555Y-57958D01*
X89555Y-57868D01*
X89521Y-57786D01*
X89458Y-57722D01*
X89375Y-57688D01*
X89286Y-57688D01*
X89203Y-57722D01*
X89180Y-57745D01*
X89139Y-57727D01*
X89049Y-57727D01*
X88967Y-57761D01*
X88944Y-57784D01*
X88903Y-57767D01*
X88813Y-57767D01*
X88795Y-57774D01*
X89504Y-57064D01*
X89504Y-57064D01*
X89504Y-57064D01*
X89549Y-56998D01*
X89549Y-56998D01*
X89561Y-56935D01*
X89565Y-56920D01*
X89564Y-56920D01*
X89565Y-56920D01*
X89565Y-53563D01*
X89597Y-53595D01*
X89680Y-53629D01*
X89769Y-53630D01*
X89852Y-53595D01*
X89915Y-53532D01*
X89949Y-53449D01*
X89950Y-53360D01*
X89915Y-53277D01*
X89852Y-53214D01*
X89769Y-53180D01*
X89680Y-53179D01*
X89597Y-53214D01*
X89565Y-53246D01*
X89565Y-52774D01*
X90084Y-52255D01*
X90132Y-52235D01*
X90195Y-52172D01*
X90229Y-52089D01*
X90230Y-52000D01*
X90230Y-52688D01*
X90191Y-52688D01*
X90108Y-52722D01*
X90045Y-52785D01*
X90011Y-52868D01*
X90011Y-52957D01*
X90045Y-53040D01*
X90108Y-53104D01*
X90191Y-53138D01*
X90280Y-53138D01*
X90363Y-53104D01*
X90426Y-53041D01*
X90461Y-52958D01*
X90461Y-52868D01*
X90461Y-57648D01*
X90400Y-57673D01*
X90400Y-55435D01*
X90365Y-55352D01*
X90302Y-55289D01*
X90219Y-55255D01*
X90145Y-55254D01*
X90145Y-54065D01*
X90110Y-53982D01*
X90047Y-53919D01*
X89964Y-53885D01*
X89875Y-53884D01*
X89792Y-53919D01*
X89729Y-53982D01*
X89695Y-54065D01*
X89694Y-54154D01*
X89729Y-54237D01*
X89792Y-54300D01*
X89875Y-54334D01*
X89964Y-54335D01*
X90047Y-54300D01*
X90110Y-54237D01*
X90144Y-54154D01*
X90145Y-54065D01*
X90145Y-55254D01*
X90130Y-55254D01*
X90047Y-55289D01*
X89984Y-55352D01*
X89950Y-55435D01*
X89949Y-55524D01*
X89984Y-55607D01*
X90047Y-55670D01*
X90130Y-55704D01*
X90219Y-55705D01*
X90302Y-55670D01*
X90365Y-55607D01*
X90399Y-55524D01*
X90400Y-55435D01*
X90400Y-57673D01*
X90375Y-57683D01*
X90303Y-57755D01*
X90265Y-57849D01*
X90264Y-57950D01*
X90303Y-58044D01*
X90375Y-58116D01*
X90445Y-58144D01*
X90444Y-58210D01*
X90483Y-58304D01*
X90555Y-58376D01*
X90649Y-58414D01*
X90750Y-58415D01*
X90844Y-58376D01*
X90916Y-58304D01*
X90954Y-58210D01*
X90955Y-58109D01*
X90955Y-64125D01*
X90638Y-64125D01*
X90638Y-62376D01*
X90604Y-62293D01*
X90579Y-62269D01*
X90579Y-60073D01*
X90545Y-59990D01*
X90481Y-59927D01*
X90399Y-59893D01*
X90382Y-59893D01*
X90382Y-58695D01*
X90348Y-58612D01*
X90285Y-58549D01*
X90202Y-58515D01*
X90112Y-58515D01*
X90075Y-58530D01*
X90075Y-58039D01*
X90040Y-57954D01*
X90040Y-56935D01*
X90005Y-56852D01*
X89942Y-56789D01*
X89859Y-56755D01*
X89770Y-56754D01*
X89687Y-56789D01*
X89624Y-56852D01*
X89590Y-56935D01*
X89589Y-57024D01*
X89624Y-57107D01*
X89687Y-57170D01*
X89770Y-57204D01*
X89859Y-57205D01*
X89942Y-57170D01*
X90005Y-57107D01*
X90039Y-57024D01*
X90040Y-56935D01*
X90040Y-57954D01*
X90036Y-57945D01*
X89964Y-57873D01*
X89870Y-57835D01*
X89769Y-57834D01*
X89675Y-57873D01*
X89603Y-57945D01*
X89565Y-58039D01*
X89564Y-58140D01*
X89603Y-58234D01*
X89675Y-58306D01*
X89769Y-58344D01*
X89870Y-58345D01*
X89964Y-58306D01*
X90036Y-58234D01*
X90074Y-58140D01*
X90075Y-58039D01*
X90075Y-58530D01*
X90030Y-58549D01*
X89966Y-58612D01*
X89932Y-58695D01*
X89932Y-58784D01*
X89966Y-58867D01*
X90029Y-58930D01*
X90112Y-58965D01*
X90202Y-58965D01*
X90284Y-58931D01*
X90348Y-58867D01*
X90382Y-58785D01*
X90382Y-58695D01*
X90382Y-59893D01*
X90309Y-59893D01*
X90227Y-59927D01*
X90163Y-59990D01*
X90129Y-60073D01*
X90129Y-60162D01*
X90163Y-60245D01*
X90226Y-60308D01*
X90309Y-60343D01*
X90398Y-60343D01*
X90481Y-60308D01*
X90544Y-60245D01*
X90579Y-60163D01*
X90579Y-60073D01*
X90579Y-62269D01*
X90541Y-62230D01*
X90458Y-62196D01*
X90368Y-62196D01*
X90286Y-62230D01*
X90222Y-62293D01*
X90188Y-62376D01*
X90188Y-62465D01*
X90222Y-62548D01*
X90285Y-62611D01*
X90368Y-62646D01*
X90457Y-62646D01*
X90540Y-62612D01*
X90604Y-62548D01*
X90638Y-62466D01*
X90638Y-62376D01*
X90638Y-64125D01*
X89935Y-64125D01*
X89935Y-62105D01*
X89900Y-62022D01*
X89837Y-61959D01*
X89793Y-61940D01*
X89760Y-61862D01*
X89697Y-61799D01*
X89614Y-61765D01*
X89525Y-61764D01*
X89442Y-61799D01*
X89379Y-61862D01*
X89345Y-61945D01*
X89344Y-62034D01*
X89379Y-62117D01*
X89411Y-62150D01*
X89369Y-62192D01*
X89335Y-62275D01*
X89334Y-62364D01*
X89369Y-62447D01*
X89421Y-62499D01*
X89415Y-62515D01*
X89415Y-62529D01*
X89404Y-62525D01*
X89315Y-62524D01*
X89280Y-62539D01*
X89280Y-58695D01*
X89245Y-58612D01*
X89182Y-58549D01*
X89100Y-58515D01*
X89010Y-58515D01*
X88927Y-58549D01*
X88864Y-58612D01*
X88830Y-58695D01*
X88830Y-58784D01*
X88864Y-58867D01*
X88927Y-58930D01*
X89010Y-58965D01*
X89099Y-58965D01*
X89182Y-58931D01*
X89245Y-58867D01*
X89280Y-58785D01*
X89280Y-58695D01*
X89280Y-62539D01*
X89278Y-62540D01*
X89277Y-62539D01*
X89255Y-62529D01*
X89255Y-62235D01*
X89220Y-62152D01*
X89157Y-62089D01*
X89074Y-62055D01*
X88985Y-62054D01*
X88902Y-62089D01*
X88839Y-62152D01*
X88805Y-62235D01*
X88804Y-62324D01*
X88839Y-62407D01*
X88902Y-62470D01*
X88985Y-62504D01*
X89074Y-62505D01*
X89157Y-62470D01*
X89220Y-62407D01*
X89254Y-62324D01*
X89255Y-62235D01*
X89255Y-62529D01*
X89194Y-62505D01*
X89105Y-62504D01*
X89022Y-62539D01*
X88959Y-62602D01*
X88925Y-62685D01*
X88924Y-62774D01*
X88959Y-62857D01*
X89022Y-62920D01*
X89105Y-62954D01*
X89194Y-62955D01*
X89231Y-62939D01*
X89232Y-62940D01*
X89315Y-62974D01*
X89404Y-62975D01*
X89487Y-62940D01*
X89498Y-62929D01*
X89535Y-62944D01*
X89624Y-62945D01*
X89707Y-62910D01*
X89770Y-62847D01*
X89804Y-62764D01*
X89805Y-62713D01*
X89830Y-62687D01*
X89864Y-62604D01*
X89865Y-62515D01*
X89830Y-62432D01*
X89778Y-62380D01*
X89784Y-62364D01*
X89784Y-62362D01*
X89837Y-62340D01*
X89900Y-62277D01*
X89934Y-62194D01*
X89935Y-62105D01*
X89935Y-64125D01*
X87905Y-64125D01*
X87905Y-63445D01*
X87895Y-63421D01*
X87895Y-61335D01*
X87860Y-61252D01*
X87823Y-61214D01*
X87850Y-61187D01*
X87884Y-61104D01*
X87885Y-61015D01*
X87850Y-60932D01*
X87787Y-60869D01*
X87704Y-60835D01*
X87615Y-60834D01*
X87532Y-60869D01*
X87469Y-60932D01*
X87454Y-60968D01*
X87453Y-60968D01*
X87406Y-60968D01*
X87357Y-60919D01*
X87274Y-60885D01*
X87185Y-60884D01*
X87102Y-60919D01*
X87039Y-60982D01*
X87005Y-61065D01*
X87004Y-61154D01*
X87039Y-61237D01*
X87067Y-61266D01*
X87035Y-61345D01*
X87034Y-61434D01*
X87069Y-61517D01*
X87132Y-61580D01*
X87215Y-61614D01*
X87304Y-61615D01*
X87387Y-61580D01*
X87450Y-61517D01*
X87467Y-61478D01*
X87479Y-61507D01*
X87542Y-61570D01*
X87625Y-61604D01*
X87714Y-61605D01*
X87797Y-61570D01*
X87860Y-61507D01*
X87894Y-61424D01*
X87895Y-61335D01*
X87895Y-63421D01*
X87870Y-63362D01*
X87807Y-63299D01*
X87724Y-63265D01*
X87635Y-63264D01*
X87614Y-63273D01*
X87630Y-63257D01*
X87664Y-63174D01*
X87665Y-63085D01*
X87630Y-63002D01*
X87567Y-62939D01*
X87484Y-62905D01*
X87395Y-62904D01*
X87312Y-62939D01*
X87249Y-63002D01*
X87215Y-63085D01*
X87214Y-63174D01*
X87249Y-63257D01*
X87312Y-63320D01*
X87395Y-63354D01*
X87484Y-63355D01*
X87505Y-63346D01*
X87489Y-63362D01*
X87455Y-63445D01*
X87454Y-63534D01*
X87489Y-63617D01*
X87552Y-63680D01*
X87635Y-63714D01*
X87724Y-63715D01*
X87807Y-63680D01*
X87870Y-63617D01*
X87904Y-63534D01*
X87905Y-63445D01*
X87905Y-64125D01*
X86005Y-64125D01*
X86005Y-63215D01*
X85970Y-63132D01*
X85907Y-63069D01*
X85824Y-63035D01*
X85735Y-63034D01*
X85652Y-63069D01*
X85636Y-63085D01*
X85616Y-63035D01*
X85544Y-62963D01*
X85450Y-62925D01*
X85425Y-62925D01*
X85425Y-59559D01*
X85386Y-59465D01*
X85314Y-59393D01*
X85305Y-59389D01*
X85305Y-59359D01*
X85266Y-59265D01*
X85194Y-59193D01*
X85100Y-59155D01*
X84999Y-59154D01*
X84905Y-59193D01*
X84833Y-59265D01*
X84795Y-59359D01*
X84794Y-59460D01*
X84833Y-59554D01*
X84905Y-59626D01*
X84914Y-59630D01*
X84914Y-59660D01*
X84953Y-59754D01*
X85025Y-59826D01*
X85119Y-59864D01*
X85220Y-59865D01*
X85314Y-59826D01*
X85386Y-59754D01*
X85424Y-59660D01*
X85425Y-59559D01*
X85425Y-62925D01*
X85349Y-62924D01*
X85255Y-62963D01*
X85183Y-63035D01*
X85145Y-63129D01*
X85144Y-63230D01*
X85183Y-63324D01*
X85187Y-63328D01*
X85137Y-63349D01*
X85074Y-63412D01*
X85040Y-63495D01*
X85039Y-63584D01*
X85074Y-63667D01*
X85137Y-63730D01*
X85220Y-63764D01*
X85309Y-63765D01*
X85392Y-63730D01*
X85455Y-63667D01*
X85489Y-63584D01*
X85490Y-63495D01*
X85462Y-63429D01*
X85544Y-63396D01*
X85578Y-63361D01*
X85589Y-63387D01*
X85652Y-63450D01*
X85735Y-63484D01*
X85824Y-63485D01*
X85907Y-63450D01*
X85970Y-63387D01*
X86004Y-63304D01*
X86005Y-63215D01*
X86005Y-64125D01*
X84925Y-64125D01*
X84925Y-62455D01*
X84890Y-62372D01*
X84827Y-62309D01*
X84744Y-62275D01*
X84655Y-62274D01*
X84572Y-62309D01*
X84509Y-62372D01*
X84475Y-62455D01*
X84474Y-62544D01*
X84509Y-62627D01*
X84572Y-62690D01*
X84655Y-62724D01*
X84744Y-62725D01*
X84827Y-62690D01*
X84890Y-62627D01*
X84924Y-62544D01*
X84925Y-62455D01*
X84925Y-64125D01*
X84280Y-64125D01*
X84280Y-59404D01*
X84245Y-59321D01*
X84182Y-59258D01*
X84100Y-59223D01*
X84010Y-59223D01*
X83927Y-59257D01*
X83864Y-59321D01*
X83855Y-59341D01*
X83813Y-59341D01*
X83730Y-59376D01*
X83667Y-59439D01*
X83633Y-59521D01*
X83633Y-59611D01*
X83667Y-59694D01*
X83730Y-59757D01*
X83813Y-59791D01*
X83902Y-59791D01*
X83985Y-59757D01*
X84048Y-59694D01*
X84057Y-59673D01*
X84099Y-59673D01*
X84182Y-59639D01*
X84245Y-59576D01*
X84280Y-59493D01*
X84280Y-59404D01*
X84280Y-64125D01*
X83665Y-64125D01*
X83665Y-62850D01*
X83630Y-62767D01*
X83567Y-62704D01*
X83484Y-62670D01*
X83395Y-62669D01*
X83374Y-62678D01*
X83374Y-59797D01*
X83340Y-59715D01*
X83277Y-59651D01*
X83235Y-59634D01*
X83235Y-59625D01*
X83200Y-59542D01*
X83137Y-59479D01*
X83054Y-59445D01*
X82965Y-59444D01*
X82882Y-59479D01*
X82819Y-59542D01*
X82785Y-59625D01*
X82784Y-59714D01*
X82819Y-59797D01*
X82882Y-59860D01*
X82924Y-59878D01*
X82924Y-59887D01*
X82958Y-59969D01*
X83021Y-60033D01*
X83104Y-60067D01*
X83194Y-60067D01*
X83276Y-60033D01*
X83340Y-59970D01*
X83374Y-59887D01*
X83374Y-59797D01*
X83374Y-62678D01*
X83312Y-62704D01*
X83290Y-62726D01*
X83290Y-62434D01*
X83251Y-62340D01*
X83179Y-62268D01*
X83085Y-62230D01*
X82984Y-62229D01*
X82890Y-62268D01*
X82818Y-62340D01*
X82780Y-62434D01*
X82779Y-62535D01*
X82794Y-62571D01*
X82759Y-62607D01*
X82725Y-62690D01*
X82724Y-62779D01*
X82759Y-62862D01*
X82822Y-62925D01*
X82905Y-62959D01*
X82994Y-62960D01*
X83077Y-62925D01*
X83140Y-62862D01*
X83174Y-62779D01*
X83175Y-62703D01*
X83179Y-62701D01*
X83251Y-62629D01*
X83289Y-62535D01*
X83290Y-62434D01*
X83290Y-62726D01*
X83249Y-62767D01*
X83215Y-62850D01*
X83214Y-62939D01*
X83249Y-63022D01*
X83312Y-63085D01*
X83395Y-63119D01*
X83484Y-63120D01*
X83567Y-63085D01*
X83630Y-63022D01*
X83664Y-62939D01*
X83665Y-62850D01*
X83665Y-64125D01*
X82685Y-64125D01*
X82685Y-62625D01*
X82650Y-62542D01*
X82587Y-62479D01*
X82504Y-62445D01*
X82415Y-62444D01*
X82332Y-62479D01*
X82269Y-62542D01*
X82235Y-62625D01*
X82234Y-62714D01*
X82269Y-62797D01*
X82332Y-62860D01*
X82415Y-62894D01*
X82504Y-62895D01*
X82587Y-62860D01*
X82650Y-62797D01*
X82684Y-62714D01*
X82685Y-62625D01*
X82685Y-64125D01*
X81965Y-64125D01*
X81965Y-61629D01*
X81926Y-61535D01*
X81880Y-61489D01*
X81880Y-60164D01*
X81841Y-60070D01*
X81769Y-59998D01*
X81707Y-59973D01*
X81751Y-59929D01*
X81789Y-59835D01*
X81790Y-59734D01*
X81751Y-59640D01*
X81679Y-59568D01*
X81585Y-59530D01*
X81484Y-59529D01*
X81390Y-59568D01*
X81318Y-59640D01*
X81280Y-59734D01*
X81279Y-59835D01*
X81318Y-59929D01*
X81390Y-60001D01*
X81452Y-60026D01*
X81408Y-60070D01*
X81370Y-60164D01*
X81369Y-60265D01*
X81408Y-60359D01*
X81480Y-60431D01*
X81574Y-60469D01*
X81675Y-60470D01*
X81769Y-60431D01*
X81841Y-60359D01*
X81879Y-60265D01*
X81880Y-60164D01*
X81880Y-61489D01*
X81854Y-61463D01*
X81760Y-61425D01*
X81659Y-61424D01*
X81565Y-61463D01*
X81493Y-61535D01*
X81455Y-61629D01*
X81454Y-61730D01*
X81493Y-61824D01*
X81565Y-61896D01*
X81659Y-61934D01*
X81760Y-61935D01*
X81854Y-61896D01*
X81926Y-61824D01*
X81964Y-61730D01*
X81965Y-61629D01*
X81965Y-64125D01*
X81385Y-64125D01*
X81385Y-63759D01*
X81346Y-63665D01*
X81274Y-63593D01*
X81180Y-63555D01*
X81079Y-63554D01*
X80985Y-63593D01*
X80919Y-63659D01*
X80894Y-63633D01*
X80824Y-63604D01*
X80844Y-63596D01*
X80916Y-63524D01*
X80933Y-63482D01*
X81009Y-63514D01*
X81111Y-63514D01*
X81205Y-63475D01*
X81276Y-63403D01*
X81315Y-63310D01*
X81315Y-63208D01*
X81277Y-63114D01*
X81205Y-63043D01*
X81111Y-63004D01*
X81010Y-63004D01*
X80917Y-63042D01*
X80934Y-63000D01*
X80935Y-62899D01*
X80896Y-62805D01*
X80824Y-62733D01*
X80730Y-62695D01*
X80629Y-62694D01*
X80535Y-62733D01*
X80463Y-62805D01*
X80425Y-62899D01*
X80424Y-63000D01*
X80463Y-63094D01*
X80535Y-63166D01*
X80548Y-63171D01*
X80483Y-63235D01*
X80445Y-63329D01*
X80444Y-63430D01*
X80483Y-63524D01*
X80555Y-63596D01*
X80625Y-63625D01*
X80605Y-63633D01*
X80533Y-63705D01*
X80495Y-63799D01*
X80494Y-63900D01*
X80533Y-63994D01*
X80605Y-64066D01*
X80699Y-64104D01*
X80800Y-64105D01*
X80894Y-64066D01*
X80960Y-64000D01*
X80985Y-64026D01*
X81079Y-64064D01*
X81180Y-64065D01*
X81274Y-64026D01*
X81346Y-63954D01*
X81384Y-63860D01*
X81385Y-63759D01*
X81385Y-64125D01*
X80374Y-64125D01*
X80374Y-55376D01*
X80393Y-55421D01*
X80456Y-55484D01*
X80539Y-55518D01*
X80628Y-55519D01*
X80711Y-55484D01*
X80774Y-55421D01*
X80808Y-55338D01*
X80809Y-55249D01*
X80774Y-55166D01*
X80711Y-55103D01*
X80628Y-55069D01*
X80539Y-55068D01*
X80456Y-55103D01*
X80393Y-55166D01*
X80374Y-55211D01*
X80374Y-52210D01*
X80389Y-52224D01*
X80500Y-52271D01*
X80620Y-52271D01*
X80732Y-52225D01*
X80817Y-52140D01*
X80863Y-52028D01*
X80863Y-51908D01*
X80817Y-51797D01*
X80732Y-51712D01*
X80621Y-51665D01*
X80501Y-51665D01*
X80389Y-51711D01*
X80374Y-51726D01*
X80374Y-50474D01*
X84854Y-50474D01*
X84793Y-50535D01*
X84755Y-50629D01*
X84754Y-50730D01*
X84793Y-50824D01*
X84865Y-50896D01*
X84959Y-50934D01*
X85060Y-50935D01*
X85154Y-50896D01*
X85226Y-50824D01*
X85264Y-50730D01*
X85265Y-50629D01*
X85226Y-50535D01*
X85165Y-50474D01*
X94025Y-50474D01*
X94025Y-51717D01*
X94020Y-51712D01*
X93908Y-51665D01*
X93788Y-51665D01*
X93677Y-51711D01*
X93592Y-51796D01*
X93545Y-51908D01*
X93545Y-52028D01*
X93591Y-52139D01*
X93676Y-52224D01*
X93787Y-52271D01*
X93908Y-52271D01*
X94019Y-52225D01*
X94025Y-52219D01*
X94025Y-53584D01*
X93954Y-53513D01*
X93860Y-53475D01*
X93759Y-53474D01*
X93665Y-53513D01*
X93593Y-53585D01*
X93555Y-53679D01*
X93554Y-53780D01*
X93593Y-53874D01*
X93665Y-53946D01*
X93759Y-53984D01*
X93860Y-53985D01*
X93954Y-53946D01*
X94025Y-53875D01*
X94025Y-57032D01*
X94020Y-57027D01*
X93908Y-56980D01*
X93788Y-56980D01*
X93677Y-57026D01*
X93592Y-57111D01*
X93545Y-57223D01*
X93545Y-57343D01*
X93591Y-57454D01*
X93676Y-57539D01*
X93787Y-57586D01*
X93908Y-57586D01*
X94019Y-57540D01*
X94025Y-57534D01*
X94025Y-58894D01*
X93974Y-58843D01*
X93880Y-58805D01*
X93779Y-58804D01*
X93685Y-58843D01*
X93613Y-58915D01*
X93575Y-59009D01*
X93574Y-59110D01*
X93613Y-59204D01*
X93685Y-59276D01*
X93779Y-59314D01*
X93880Y-59315D01*
X93974Y-59276D01*
X94025Y-59225D01*
X94025Y-60664D01*
X93994Y-60633D01*
X93900Y-60595D01*
X93799Y-60594D01*
X93705Y-60633D01*
X93633Y-60705D01*
X93595Y-60799D01*
X93594Y-60900D01*
X93633Y-60994D01*
X93705Y-61066D01*
X93799Y-61104D01*
X93900Y-61105D01*
X93994Y-61066D01*
X94025Y-61035D01*
X94025Y-62347D01*
X94020Y-62342D01*
X93908Y-62295D01*
X93788Y-62295D01*
X93677Y-62341D01*
X93592Y-62426D01*
X93545Y-62537D01*
X93545Y-62658D01*
X93591Y-62769D01*
X93676Y-62854D01*
X93787Y-62901D01*
X93908Y-62901D01*
X94019Y-62855D01*
X94025Y-62849D01*
X94025Y-64125D01*
M02*
