G04 (created by PCBNEW (2013-07-07 BZR 4022)-stable) date 6/24/2016 5:08:50 PM*
%MOIN*%
G04 Gerber Fmt 3.4, Leading zero omitted, Abs format*
%FSLAX34Y34*%
G01*
G70*
G90*
G04 APERTURE LIST*
%ADD10C,0.00590551*%
%ADD11C,0.006*%
%ADD12C,0.0001*%
%ADD13R,0.0531496X0.015748*%
%ADD14R,0.0629921X0.0826772*%
%ADD15C,0.0393701*%
%ADD16R,0.036X0.036*%
%ADD17R,0.059X0.0512*%
%ADD18R,0.0354X0.0394*%
%ADD19R,0.0394X0.0354*%
%ADD20R,0.031X0.015748*%
%ADD21R,0.03X0.015748*%
%ADD22R,0.015748X0.031*%
%ADD23R,0.0846457X0.0846457*%
%ADD24R,0.0314961X0.011811*%
%ADD25R,0.011811X0.0314961*%
%ADD26R,0.063X0.071*%
%ADD27R,0.071X0.063*%
%ADD28R,0.015748X0.00787402*%
%ADD29R,0.0314961X0.0511811*%
%ADD30R,0.0110236X0.0334646*%
%ADD31R,0.120079X0.0807087*%
%ADD32R,0.0334646X0.0110236*%
%ADD33R,0.0442913X0.00905512*%
%ADD34C,0.014*%
%ADD35C,0.02*%
%ADD36C,0.015*%
%ADD37C,0.01*%
%ADD38C,0.025*%
%ADD39C,0.02*%
%ADD40C,0.005*%
%ADD41C,0.001*%
G04 APERTURE END LIST*
G54D10*
G54D11*
X88632Y-59269D02*
X88632Y-58875D01*
X88726Y-58875D01*
X88782Y-58894D01*
X88820Y-58931D01*
X88838Y-58969D01*
X88857Y-59044D01*
X88857Y-59100D01*
X88838Y-59175D01*
X88820Y-59213D01*
X88782Y-59250D01*
X88726Y-59269D01*
X88632Y-59269D01*
X89195Y-59269D02*
X89195Y-59063D01*
X89176Y-59025D01*
X89138Y-59006D01*
X89063Y-59006D01*
X89026Y-59025D01*
X89195Y-59250D02*
X89157Y-59269D01*
X89063Y-59269D01*
X89026Y-59250D01*
X89007Y-59213D01*
X89007Y-59175D01*
X89026Y-59138D01*
X89063Y-59119D01*
X89157Y-59119D01*
X89195Y-59100D01*
X89382Y-59006D02*
X89382Y-59269D01*
X89382Y-59044D02*
X89401Y-59025D01*
X89438Y-59006D01*
X89495Y-59006D01*
X89532Y-59025D01*
X89551Y-59063D01*
X89551Y-59269D01*
X89738Y-59269D02*
X89738Y-59006D01*
X89738Y-58875D02*
X89720Y-58894D01*
X89738Y-58913D01*
X89757Y-58894D01*
X89738Y-58875D01*
X89738Y-58913D01*
X90076Y-59250D02*
X90038Y-59269D01*
X89963Y-59269D01*
X89926Y-59250D01*
X89907Y-59213D01*
X89907Y-59063D01*
X89926Y-59025D01*
X89963Y-59006D01*
X90038Y-59006D01*
X90076Y-59025D01*
X90094Y-59063D01*
X90094Y-59100D01*
X89907Y-59138D01*
X90319Y-59269D02*
X90282Y-59250D01*
X90263Y-59213D01*
X90263Y-58875D01*
X90751Y-59156D02*
X90938Y-59156D01*
X90713Y-59269D02*
X90844Y-58875D01*
X90976Y-59269D01*
X91107Y-59231D02*
X91126Y-59250D01*
X91107Y-59269D01*
X91088Y-59250D01*
X91107Y-59231D01*
X91107Y-59269D01*
X88782Y-59486D02*
X88707Y-59486D01*
X88670Y-59505D01*
X88651Y-59524D01*
X88613Y-59580D01*
X88595Y-59655D01*
X88595Y-59805D01*
X88613Y-59843D01*
X88632Y-59861D01*
X88670Y-59880D01*
X88745Y-59880D01*
X88782Y-59861D01*
X88801Y-59843D01*
X88820Y-59805D01*
X88820Y-59711D01*
X88801Y-59674D01*
X88782Y-59655D01*
X88745Y-59636D01*
X88670Y-59636D01*
X88632Y-59655D01*
X88613Y-59674D01*
X88595Y-59711D01*
X89270Y-59468D02*
X88932Y-59974D01*
X89382Y-59524D02*
X89401Y-59505D01*
X89438Y-59486D01*
X89532Y-59486D01*
X89570Y-59505D01*
X89588Y-59524D01*
X89607Y-59561D01*
X89607Y-59599D01*
X89588Y-59655D01*
X89363Y-59880D01*
X89607Y-59880D01*
X89944Y-59618D02*
X89944Y-59880D01*
X89851Y-59468D02*
X89757Y-59749D01*
X90001Y-59749D01*
X90432Y-59468D02*
X90094Y-59974D01*
X90769Y-59880D02*
X90544Y-59880D01*
X90657Y-59880D02*
X90657Y-59486D01*
X90619Y-59543D01*
X90582Y-59580D01*
X90544Y-59599D01*
X91107Y-59486D02*
X91032Y-59486D01*
X90994Y-59505D01*
X90976Y-59524D01*
X90938Y-59580D01*
X90919Y-59655D01*
X90919Y-59805D01*
X90938Y-59843D01*
X90957Y-59861D01*
X90994Y-59880D01*
X91069Y-59880D01*
X91107Y-59861D01*
X91126Y-59843D01*
X91144Y-59805D01*
X91144Y-59711D01*
X91126Y-59674D01*
X91107Y-59655D01*
X91069Y-59636D01*
X90994Y-59636D01*
X90957Y-59655D01*
X90938Y-59674D01*
X90919Y-59711D01*
G54D12*
G36*
X93366Y-62304D02*
X93356Y-62298D01*
X93333Y-62284D01*
X93300Y-62262D01*
X93261Y-62236D01*
X93222Y-62210D01*
X93190Y-62189D01*
X93168Y-62174D01*
X93158Y-62169D01*
X93153Y-62171D01*
X93135Y-62180D01*
X93108Y-62194D01*
X93092Y-62202D01*
X93068Y-62212D01*
X93055Y-62215D01*
X93053Y-62211D01*
X93044Y-62192D01*
X93030Y-62160D01*
X93012Y-62117D01*
X92990Y-62067D01*
X92968Y-62014D01*
X92945Y-61959D01*
X92923Y-61906D01*
X92904Y-61859D01*
X92888Y-61821D01*
X92878Y-61794D01*
X92874Y-61783D01*
X92875Y-61780D01*
X92888Y-61768D01*
X92909Y-61752D01*
X92956Y-61714D01*
X93002Y-61657D01*
X93030Y-61592D01*
X93039Y-61519D01*
X93031Y-61452D01*
X93005Y-61388D01*
X92960Y-61330D01*
X92905Y-61287D01*
X92841Y-61260D01*
X92770Y-61251D01*
X92702Y-61259D01*
X92636Y-61285D01*
X92578Y-61329D01*
X92553Y-61357D01*
X92519Y-61416D01*
X92500Y-61478D01*
X92498Y-61494D01*
X92501Y-61563D01*
X92521Y-61630D01*
X92558Y-61689D01*
X92609Y-61738D01*
X92615Y-61742D01*
X92638Y-61760D01*
X92654Y-61772D01*
X92666Y-61782D01*
X92578Y-61994D01*
X92564Y-62027D01*
X92540Y-62085D01*
X92519Y-62135D01*
X92502Y-62175D01*
X92490Y-62201D01*
X92485Y-62212D01*
X92485Y-62213D01*
X92477Y-62214D01*
X92461Y-62208D01*
X92431Y-62194D01*
X92412Y-62184D01*
X92389Y-62173D01*
X92379Y-62169D01*
X92370Y-62174D01*
X92349Y-62188D01*
X92317Y-62209D01*
X92279Y-62234D01*
X92243Y-62259D01*
X92210Y-62281D01*
X92186Y-62296D01*
X92174Y-62303D01*
X92172Y-62303D01*
X92162Y-62297D01*
X92143Y-62281D01*
X92114Y-62254D01*
X92073Y-62213D01*
X92067Y-62207D01*
X92033Y-62173D01*
X92006Y-62144D01*
X91988Y-62124D01*
X91981Y-62115D01*
X91981Y-62115D01*
X91987Y-62103D01*
X92002Y-62079D01*
X92024Y-62045D01*
X92051Y-62006D01*
X92121Y-61904D01*
X92083Y-61808D01*
X92071Y-61778D01*
X92056Y-61743D01*
X92045Y-61717D01*
X92039Y-61706D01*
X92029Y-61702D01*
X92002Y-61696D01*
X91964Y-61688D01*
X91919Y-61680D01*
X91875Y-61672D01*
X91836Y-61664D01*
X91808Y-61659D01*
X91795Y-61656D01*
X91792Y-61654D01*
X91789Y-61648D01*
X91788Y-61635D01*
X91787Y-61611D01*
X91786Y-61574D01*
X91786Y-61519D01*
X91786Y-61513D01*
X91787Y-61462D01*
X91788Y-61420D01*
X91789Y-61394D01*
X91791Y-61383D01*
X91791Y-61383D01*
X91803Y-61380D01*
X91831Y-61374D01*
X91870Y-61367D01*
X91917Y-61358D01*
X91920Y-61357D01*
X91966Y-61348D01*
X92005Y-61340D01*
X92033Y-61334D01*
X92044Y-61330D01*
X92047Y-61327D01*
X92056Y-61309D01*
X92069Y-61280D01*
X92085Y-61245D01*
X92100Y-61208D01*
X92113Y-61175D01*
X92122Y-61151D01*
X92125Y-61140D01*
X92124Y-61139D01*
X92117Y-61128D01*
X92101Y-61104D01*
X92079Y-61071D01*
X92052Y-61031D01*
X92050Y-61028D01*
X92023Y-60989D01*
X92001Y-60955D01*
X91987Y-60932D01*
X91981Y-60921D01*
X91981Y-60920D01*
X91990Y-60908D01*
X92010Y-60886D01*
X92039Y-60856D01*
X92073Y-60821D01*
X92084Y-60811D01*
X92123Y-60773D01*
X92149Y-60749D01*
X92166Y-60736D01*
X92174Y-60733D01*
X92174Y-60733D01*
X92186Y-60740D01*
X92211Y-60756D01*
X92244Y-60779D01*
X92284Y-60806D01*
X92287Y-60808D01*
X92326Y-60835D01*
X92359Y-60857D01*
X92382Y-60873D01*
X92393Y-60879D01*
X92394Y-60879D01*
X92410Y-60874D01*
X92438Y-60864D01*
X92473Y-60851D01*
X92509Y-60836D01*
X92542Y-60822D01*
X92567Y-60811D01*
X92579Y-60804D01*
X92579Y-60804D01*
X92583Y-60790D01*
X92590Y-60760D01*
X92598Y-60720D01*
X92608Y-60672D01*
X92609Y-60664D01*
X92618Y-60617D01*
X92625Y-60578D01*
X92631Y-60551D01*
X92634Y-60540D01*
X92640Y-60539D01*
X92663Y-60537D01*
X92698Y-60536D01*
X92741Y-60536D01*
X92785Y-60536D01*
X92828Y-60537D01*
X92865Y-60538D01*
X92892Y-60540D01*
X92903Y-60542D01*
X92903Y-60543D01*
X92907Y-60558D01*
X92914Y-60587D01*
X92922Y-60628D01*
X92931Y-60676D01*
X92933Y-60685D01*
X92942Y-60731D01*
X92950Y-60770D01*
X92955Y-60796D01*
X92958Y-60807D01*
X92963Y-60809D01*
X92982Y-60817D01*
X93013Y-60830D01*
X93052Y-60846D01*
X93142Y-60882D01*
X93253Y-60807D01*
X93263Y-60800D01*
X93303Y-60773D01*
X93335Y-60751D01*
X93358Y-60736D01*
X93367Y-60731D01*
X93368Y-60731D01*
X93379Y-60741D01*
X93401Y-60762D01*
X93431Y-60791D01*
X93466Y-60825D01*
X93491Y-60851D01*
X93522Y-60882D01*
X93541Y-60903D01*
X93552Y-60916D01*
X93555Y-60924D01*
X93554Y-60930D01*
X93547Y-60941D01*
X93531Y-60965D01*
X93508Y-60999D01*
X93481Y-61038D01*
X93459Y-61071D01*
X93435Y-61108D01*
X93420Y-61134D01*
X93414Y-61147D01*
X93416Y-61152D01*
X93423Y-61174D01*
X93437Y-61207D01*
X93453Y-61246D01*
X93492Y-61333D01*
X93549Y-61344D01*
X93584Y-61351D01*
X93632Y-61360D01*
X93679Y-61369D01*
X93751Y-61383D01*
X93754Y-61649D01*
X93743Y-61654D01*
X93732Y-61657D01*
X93705Y-61663D01*
X93667Y-61671D01*
X93621Y-61679D01*
X93583Y-61686D01*
X93544Y-61694D01*
X93516Y-61699D01*
X93504Y-61702D01*
X93500Y-61706D01*
X93491Y-61725D01*
X93477Y-61755D01*
X93461Y-61791D01*
X93446Y-61828D01*
X93432Y-61863D01*
X93423Y-61889D01*
X93419Y-61902D01*
X93424Y-61913D01*
X93439Y-61936D01*
X93460Y-61968D01*
X93487Y-62007D01*
X93513Y-62045D01*
X93536Y-62078D01*
X93551Y-62102D01*
X93558Y-62113D01*
X93554Y-62120D01*
X93539Y-62139D01*
X93510Y-62169D01*
X93466Y-62212D01*
X93459Y-62219D01*
X93425Y-62252D01*
X93396Y-62279D01*
X93375Y-62297D01*
X93366Y-62304D01*
X93366Y-62304D01*
G37*
G54D13*
X81110Y-60678D03*
X81110Y-60934D03*
X81110Y-61190D03*
X81110Y-61445D03*
X81110Y-61701D03*
G54D14*
X81060Y-62410D03*
X81060Y-59969D03*
G54D15*
X88680Y-52030D03*
X83380Y-53680D03*
X88130Y-61220D03*
X80590Y-58250D03*
X88100Y-52020D03*
X87530Y-52020D03*
X85520Y-59810D03*
X91653Y-55944D03*
X91299Y-56377D03*
X91980Y-56530D03*
X85520Y-58135D03*
G54D16*
X92570Y-52790D03*
X91870Y-52790D03*
X92220Y-51990D03*
G54D17*
X90787Y-62815D03*
X90787Y-62065D03*
X83340Y-56175D03*
X83340Y-56925D03*
G54D18*
X84254Y-61250D03*
X84846Y-61250D03*
X84254Y-60700D03*
X84846Y-60700D03*
G54D19*
X88110Y-62932D03*
X88110Y-63524D03*
X88110Y-61869D03*
X88110Y-62461D03*
G54D18*
X84116Y-58650D03*
X83524Y-58650D03*
X83524Y-58080D03*
X84116Y-58080D03*
G54D19*
X86150Y-63206D03*
X86150Y-62614D03*
G54D18*
X81176Y-55620D03*
X80584Y-55620D03*
X81146Y-55000D03*
X80554Y-55000D03*
G54D19*
X86160Y-62106D03*
X86160Y-61514D03*
X91290Y-52544D03*
X91290Y-53136D03*
G54D18*
X82236Y-55000D03*
X81644Y-55000D03*
X92126Y-57530D03*
X91534Y-57530D03*
X92116Y-58670D03*
X91524Y-58670D03*
G54D10*
G36*
X88425Y-53386D02*
X90471Y-55433D01*
X88425Y-57479D01*
X86379Y-55433D01*
X88425Y-53386D01*
X88425Y-53386D01*
G37*
G36*
X88543Y-57555D02*
X88780Y-57792D01*
X88696Y-57875D01*
X88459Y-57639D01*
X88543Y-57555D01*
X88543Y-57555D01*
G37*
G36*
X88682Y-57416D02*
X88919Y-57653D01*
X88835Y-57736D01*
X88599Y-57500D01*
X88682Y-57416D01*
X88682Y-57416D01*
G37*
G36*
X88821Y-57277D02*
X89058Y-57514D01*
X88975Y-57597D01*
X88738Y-57360D01*
X88821Y-57277D01*
X88821Y-57277D01*
G37*
G36*
X88961Y-57138D02*
X89197Y-57374D01*
X89114Y-57458D01*
X88877Y-57221D01*
X88961Y-57138D01*
X88961Y-57138D01*
G37*
G36*
X89100Y-56999D02*
X89336Y-57235D01*
X89253Y-57319D01*
X89016Y-57082D01*
X89100Y-56999D01*
X89100Y-56999D01*
G37*
G36*
X89239Y-56859D02*
X89476Y-57096D01*
X89392Y-57179D01*
X89155Y-56943D01*
X89239Y-56859D01*
X89239Y-56859D01*
G37*
G36*
X89378Y-56720D02*
X89615Y-56957D01*
X89531Y-57040D01*
X89295Y-56804D01*
X89378Y-56720D01*
X89378Y-56720D01*
G37*
G36*
X89517Y-56581D02*
X89754Y-56818D01*
X89670Y-56901D01*
X89434Y-56664D01*
X89517Y-56581D01*
X89517Y-56581D01*
G37*
G36*
X89657Y-56442D02*
X89893Y-56678D01*
X89810Y-56762D01*
X89573Y-56525D01*
X89657Y-56442D01*
X89657Y-56442D01*
G37*
G36*
X89796Y-56303D02*
X90032Y-56539D01*
X89949Y-56623D01*
X89712Y-56386D01*
X89796Y-56303D01*
X89796Y-56303D01*
G37*
G36*
X89935Y-56163D02*
X90172Y-56400D01*
X90088Y-56483D01*
X89851Y-56247D01*
X89935Y-56163D01*
X89935Y-56163D01*
G37*
G36*
X90074Y-56024D02*
X90311Y-56261D01*
X90227Y-56344D01*
X89991Y-56108D01*
X90074Y-56024D01*
X90074Y-56024D01*
G37*
G36*
X90213Y-55885D02*
X90450Y-56122D01*
X90366Y-56205D01*
X90130Y-55968D01*
X90213Y-55885D01*
X90213Y-55885D01*
G37*
G36*
X90353Y-55746D02*
X90589Y-55982D01*
X90506Y-56066D01*
X90269Y-55829D01*
X90353Y-55746D01*
X90353Y-55746D01*
G37*
G36*
X90492Y-55607D02*
X90728Y-55843D01*
X90645Y-55927D01*
X90408Y-55690D01*
X90492Y-55607D01*
X90492Y-55607D01*
G37*
G36*
X90631Y-55467D02*
X90868Y-55704D01*
X90784Y-55788D01*
X90547Y-55551D01*
X90631Y-55467D01*
X90631Y-55467D01*
G37*
G36*
X90868Y-55161D02*
X90631Y-55398D01*
X90547Y-55314D01*
X90784Y-55078D01*
X90868Y-55161D01*
X90868Y-55161D01*
G37*
G36*
X90728Y-55022D02*
X90492Y-55259D01*
X90408Y-55175D01*
X90645Y-54938D01*
X90728Y-55022D01*
X90728Y-55022D01*
G37*
G36*
X90589Y-54883D02*
X90353Y-55119D01*
X90269Y-55036D01*
X90506Y-54799D01*
X90589Y-54883D01*
X90589Y-54883D01*
G37*
G36*
X90450Y-54744D02*
X90213Y-54980D01*
X90130Y-54897D01*
X90366Y-54660D01*
X90450Y-54744D01*
X90450Y-54744D01*
G37*
G36*
X90311Y-54604D02*
X90074Y-54841D01*
X89991Y-54757D01*
X90227Y-54521D01*
X90311Y-54604D01*
X90311Y-54604D01*
G37*
G36*
X90172Y-54465D02*
X89935Y-54702D01*
X89851Y-54618D01*
X90088Y-54382D01*
X90172Y-54465D01*
X90172Y-54465D01*
G37*
G36*
X90032Y-54326D02*
X89796Y-54563D01*
X89712Y-54479D01*
X89949Y-54242D01*
X90032Y-54326D01*
X90032Y-54326D01*
G37*
G36*
X89893Y-54187D02*
X89657Y-54423D01*
X89573Y-54340D01*
X89810Y-54103D01*
X89893Y-54187D01*
X89893Y-54187D01*
G37*
G36*
X89754Y-54048D02*
X89517Y-54284D01*
X89434Y-54201D01*
X89670Y-53964D01*
X89754Y-54048D01*
X89754Y-54048D01*
G37*
G36*
X89615Y-53908D02*
X89378Y-54145D01*
X89295Y-54062D01*
X89531Y-53825D01*
X89615Y-53908D01*
X89615Y-53908D01*
G37*
G36*
X89476Y-53769D02*
X89239Y-54006D01*
X89155Y-53922D01*
X89392Y-53686D01*
X89476Y-53769D01*
X89476Y-53769D01*
G37*
G36*
X89336Y-53630D02*
X89100Y-53867D01*
X89016Y-53783D01*
X89253Y-53546D01*
X89336Y-53630D01*
X89336Y-53630D01*
G37*
G36*
X89197Y-53491D02*
X88961Y-53727D01*
X88877Y-53644D01*
X89114Y-53407D01*
X89197Y-53491D01*
X89197Y-53491D01*
G37*
G36*
X89058Y-53352D02*
X88821Y-53588D01*
X88738Y-53505D01*
X88975Y-53268D01*
X89058Y-53352D01*
X89058Y-53352D01*
G37*
G36*
X88919Y-53212D02*
X88682Y-53449D01*
X88599Y-53366D01*
X88835Y-53129D01*
X88919Y-53212D01*
X88919Y-53212D01*
G37*
G36*
X88780Y-53073D02*
X88543Y-53310D01*
X88459Y-53226D01*
X88696Y-52990D01*
X88780Y-53073D01*
X88780Y-53073D01*
G37*
G36*
X88153Y-52990D02*
X88390Y-53226D01*
X88306Y-53310D01*
X88070Y-53073D01*
X88153Y-52990D01*
X88153Y-52990D01*
G37*
G36*
X88014Y-53129D02*
X88251Y-53366D01*
X88167Y-53449D01*
X87931Y-53212D01*
X88014Y-53129D01*
X88014Y-53129D01*
G37*
G36*
X87875Y-53268D02*
X88112Y-53505D01*
X88028Y-53588D01*
X87791Y-53352D01*
X87875Y-53268D01*
X87875Y-53268D01*
G37*
G36*
X87736Y-53407D02*
X87972Y-53644D01*
X87889Y-53727D01*
X87652Y-53491D01*
X87736Y-53407D01*
X87736Y-53407D01*
G37*
G36*
X87596Y-53546D02*
X87833Y-53783D01*
X87750Y-53867D01*
X87513Y-53630D01*
X87596Y-53546D01*
X87596Y-53546D01*
G37*
G36*
X87457Y-53686D02*
X87694Y-53922D01*
X87610Y-54006D01*
X87374Y-53769D01*
X87457Y-53686D01*
X87457Y-53686D01*
G37*
G36*
X87318Y-53825D02*
X87555Y-54062D01*
X87471Y-54145D01*
X87235Y-53908D01*
X87318Y-53825D01*
X87318Y-53825D01*
G37*
G36*
X87179Y-53964D02*
X87416Y-54201D01*
X87332Y-54284D01*
X87095Y-54048D01*
X87179Y-53964D01*
X87179Y-53964D01*
G37*
G36*
X87040Y-54103D02*
X87276Y-54340D01*
X87193Y-54423D01*
X86956Y-54187D01*
X87040Y-54103D01*
X87040Y-54103D01*
G37*
G36*
X86901Y-54242D02*
X87137Y-54479D01*
X87054Y-54563D01*
X86817Y-54326D01*
X86901Y-54242D01*
X86901Y-54242D01*
G37*
G36*
X86761Y-54382D02*
X86998Y-54618D01*
X86914Y-54702D01*
X86678Y-54465D01*
X86761Y-54382D01*
X86761Y-54382D01*
G37*
G36*
X86622Y-54521D02*
X86859Y-54757D01*
X86775Y-54841D01*
X86539Y-54604D01*
X86622Y-54521D01*
X86622Y-54521D01*
G37*
G36*
X86483Y-54660D02*
X86720Y-54897D01*
X86636Y-54980D01*
X86399Y-54744D01*
X86483Y-54660D01*
X86483Y-54660D01*
G37*
G36*
X86344Y-54799D02*
X86580Y-55036D01*
X86497Y-55119D01*
X86260Y-54883D01*
X86344Y-54799D01*
X86344Y-54799D01*
G37*
G36*
X86205Y-54938D02*
X86441Y-55175D01*
X86358Y-55259D01*
X86121Y-55022D01*
X86205Y-54938D01*
X86205Y-54938D01*
G37*
G36*
X86065Y-55078D02*
X86302Y-55314D01*
X86218Y-55398D01*
X85982Y-55161D01*
X86065Y-55078D01*
X86065Y-55078D01*
G37*
G36*
X86302Y-55551D02*
X86065Y-55788D01*
X85982Y-55704D01*
X86218Y-55467D01*
X86302Y-55551D01*
X86302Y-55551D01*
G37*
G36*
X86441Y-55690D02*
X86205Y-55927D01*
X86121Y-55843D01*
X86358Y-55607D01*
X86441Y-55690D01*
X86441Y-55690D01*
G37*
G36*
X86580Y-55829D02*
X86344Y-56066D01*
X86260Y-55982D01*
X86497Y-55746D01*
X86580Y-55829D01*
X86580Y-55829D01*
G37*
G36*
X86720Y-55968D02*
X86483Y-56205D01*
X86399Y-56122D01*
X86636Y-55885D01*
X86720Y-55968D01*
X86720Y-55968D01*
G37*
G36*
X86859Y-56108D02*
X86622Y-56344D01*
X86539Y-56261D01*
X86775Y-56024D01*
X86859Y-56108D01*
X86859Y-56108D01*
G37*
G36*
X86998Y-56247D02*
X86761Y-56483D01*
X86678Y-56400D01*
X86914Y-56163D01*
X86998Y-56247D01*
X86998Y-56247D01*
G37*
G36*
X87137Y-56386D02*
X86901Y-56623D01*
X86817Y-56539D01*
X87054Y-56303D01*
X87137Y-56386D01*
X87137Y-56386D01*
G37*
G36*
X87276Y-56525D02*
X87040Y-56762D01*
X86956Y-56678D01*
X87193Y-56442D01*
X87276Y-56525D01*
X87276Y-56525D01*
G37*
G36*
X87416Y-56664D02*
X87179Y-56901D01*
X87095Y-56818D01*
X87332Y-56581D01*
X87416Y-56664D01*
X87416Y-56664D01*
G37*
G36*
X87555Y-56804D02*
X87318Y-57040D01*
X87235Y-56957D01*
X87471Y-56720D01*
X87555Y-56804D01*
X87555Y-56804D01*
G37*
G36*
X87694Y-56943D02*
X87457Y-57179D01*
X87374Y-57096D01*
X87610Y-56859D01*
X87694Y-56943D01*
X87694Y-56943D01*
G37*
G36*
X87833Y-57082D02*
X87596Y-57319D01*
X87513Y-57235D01*
X87750Y-56999D01*
X87833Y-57082D01*
X87833Y-57082D01*
G37*
G36*
X87972Y-57221D02*
X87736Y-57458D01*
X87652Y-57374D01*
X87889Y-57138D01*
X87972Y-57221D01*
X87972Y-57221D01*
G37*
G36*
X88112Y-57360D02*
X87875Y-57597D01*
X87791Y-57514D01*
X88028Y-57277D01*
X88112Y-57360D01*
X88112Y-57360D01*
G37*
G36*
X88251Y-57500D02*
X88014Y-57736D01*
X87931Y-57653D01*
X88167Y-57416D01*
X88251Y-57500D01*
X88251Y-57500D01*
G37*
G36*
X88390Y-57639D02*
X88153Y-57875D01*
X88070Y-57792D01*
X88306Y-57555D01*
X88390Y-57639D01*
X88390Y-57639D01*
G37*
G54D20*
X84020Y-62372D03*
X84020Y-62627D03*
X84020Y-62116D03*
X84020Y-62883D03*
X85379Y-62883D03*
G54D21*
X85379Y-62627D03*
G54D20*
X85379Y-62372D03*
X85379Y-62116D03*
G54D22*
X85083Y-63179D03*
X84827Y-63179D03*
X84572Y-63179D03*
X84316Y-63179D03*
X85083Y-61820D03*
X84572Y-61820D03*
X84827Y-61820D03*
X84316Y-61820D03*
G54D23*
X84700Y-62500D03*
G54D24*
X82448Y-51793D03*
X82448Y-51596D03*
X82448Y-51400D03*
X82448Y-51203D03*
X82448Y-51006D03*
G54D25*
X82753Y-50898D03*
X82950Y-50898D03*
X83146Y-50898D03*
G54D24*
X83451Y-51006D03*
X83451Y-51203D03*
X83451Y-51400D03*
X83451Y-51596D03*
X83451Y-51793D03*
G54D25*
X83146Y-51901D03*
X82753Y-51901D03*
X82950Y-51901D03*
G54D10*
G36*
X84918Y-54461D02*
X85197Y-54183D01*
X85698Y-54684D01*
X85419Y-54963D01*
X84918Y-54461D01*
X84918Y-54461D01*
G37*
G36*
X84222Y-55157D02*
X84501Y-54879D01*
X85002Y-55380D01*
X84724Y-55658D01*
X84222Y-55157D01*
X84222Y-55157D01*
G37*
G54D26*
X85735Y-56560D03*
X84635Y-56560D03*
G54D27*
X84830Y-57770D03*
X84830Y-58870D03*
G54D26*
X81740Y-58610D03*
X82840Y-58610D03*
G54D17*
X87440Y-61790D03*
X87440Y-62540D03*
G54D18*
X81836Y-50740D03*
X81244Y-50740D03*
G54D10*
G36*
X86758Y-57496D02*
X86480Y-57217D01*
X86730Y-56967D01*
X87009Y-57245D01*
X86758Y-57496D01*
X86758Y-57496D01*
G37*
G36*
X86340Y-57914D02*
X86061Y-57636D01*
X86311Y-57385D01*
X86590Y-57664D01*
X86340Y-57914D01*
X86340Y-57914D01*
G37*
G36*
X90012Y-53291D02*
X90291Y-53569D01*
X90041Y-53820D01*
X89762Y-53541D01*
X90012Y-53291D01*
X90012Y-53291D01*
G37*
G36*
X90431Y-52872D02*
X90709Y-53151D01*
X90459Y-53401D01*
X90181Y-53123D01*
X90431Y-52872D01*
X90431Y-52872D01*
G37*
G36*
X86664Y-52633D02*
X86943Y-52354D01*
X87193Y-52605D01*
X86915Y-52883D01*
X86664Y-52633D01*
X86664Y-52633D01*
G37*
G36*
X86246Y-52214D02*
X86524Y-51936D01*
X86775Y-52186D01*
X86496Y-52465D01*
X86246Y-52214D01*
X86246Y-52214D01*
G37*
G36*
X90918Y-54039D02*
X91196Y-54317D01*
X90946Y-54568D01*
X90667Y-54289D01*
X90918Y-54039D01*
X90918Y-54039D01*
G37*
G36*
X91336Y-53620D02*
X91615Y-53899D01*
X91365Y-54149D01*
X91086Y-53871D01*
X91336Y-53620D01*
X91336Y-53620D01*
G37*
G54D18*
X84024Y-51200D03*
X84616Y-51200D03*
G54D19*
X83330Y-52434D03*
X83330Y-53026D03*
G54D18*
X84024Y-50670D03*
X84616Y-50670D03*
X81826Y-51300D03*
X81234Y-51300D03*
G54D10*
G36*
X84551Y-54081D02*
X84829Y-53803D01*
X85080Y-54053D01*
X84801Y-54332D01*
X84551Y-54081D01*
X84551Y-54081D01*
G37*
G36*
X84132Y-53663D02*
X84411Y-53384D01*
X84661Y-53634D01*
X84382Y-53913D01*
X84132Y-53663D01*
X84132Y-53663D01*
G37*
G36*
X90685Y-56796D02*
X90406Y-57075D01*
X90156Y-56824D01*
X90434Y-56546D01*
X90685Y-56796D01*
X90685Y-56796D01*
G37*
G36*
X91103Y-57215D02*
X90825Y-57493D01*
X90574Y-57243D01*
X90853Y-56964D01*
X91103Y-57215D01*
X91103Y-57215D01*
G37*
G54D19*
X82000Y-63204D03*
X82000Y-63796D03*
G54D10*
G36*
X83881Y-54751D02*
X84160Y-54472D01*
X84410Y-54722D01*
X84132Y-55001D01*
X83881Y-54751D01*
X83881Y-54751D01*
G37*
G36*
X83463Y-54332D02*
X83741Y-54053D01*
X83992Y-54304D01*
X83713Y-54582D01*
X83463Y-54332D01*
X83463Y-54332D01*
G37*
G54D19*
X81050Y-58434D03*
X81050Y-59026D03*
G54D18*
X84116Y-57550D03*
X83524Y-57550D03*
X83534Y-59170D03*
X84126Y-59170D03*
G54D19*
X88700Y-62144D03*
X88700Y-62736D03*
G54D10*
G36*
X84551Y-52939D02*
X84829Y-52661D01*
X85080Y-52911D01*
X84801Y-53190D01*
X84551Y-52939D01*
X84551Y-52939D01*
G37*
G36*
X84132Y-52521D02*
X84411Y-52242D01*
X84661Y-52493D01*
X84382Y-52771D01*
X84132Y-52521D01*
X84132Y-52521D01*
G37*
G36*
X85181Y-52270D02*
X85459Y-51992D01*
X85709Y-52242D01*
X85431Y-52521D01*
X85181Y-52270D01*
X85181Y-52270D01*
G37*
G36*
X84762Y-51852D02*
X85041Y-51573D01*
X85291Y-51823D01*
X85012Y-52102D01*
X84762Y-51852D01*
X84762Y-51852D01*
G37*
G54D18*
X82956Y-54330D03*
X82364Y-54330D03*
X92126Y-58110D03*
X91534Y-58110D03*
G54D19*
X83200Y-60696D03*
X83200Y-60104D03*
X83750Y-60696D03*
X83750Y-60104D03*
G54D18*
X83046Y-62200D03*
X82454Y-62200D03*
G54D19*
X82600Y-63204D03*
X82600Y-63796D03*
X83200Y-63204D03*
X83200Y-63796D03*
G54D10*
G36*
X85615Y-53334D02*
X85253Y-53696D01*
X84961Y-53404D01*
X85323Y-53042D01*
X85615Y-53334D01*
X85615Y-53334D01*
G37*
G36*
X86130Y-53849D02*
X85768Y-54211D01*
X85476Y-53919D01*
X85838Y-53557D01*
X86130Y-53849D01*
X86130Y-53849D01*
G37*
G36*
X86255Y-52694D02*
X85893Y-53056D01*
X85601Y-52764D01*
X85963Y-52402D01*
X86255Y-52694D01*
X86255Y-52694D01*
G37*
G36*
X86770Y-53209D02*
X86408Y-53571D01*
X86116Y-53279D01*
X86478Y-52917D01*
X86770Y-53209D01*
X86770Y-53209D01*
G37*
G54D28*
X89291Y-61870D03*
X89291Y-62066D03*
X89291Y-62263D03*
X89291Y-62460D03*
X90000Y-62460D03*
X90000Y-62263D03*
X90000Y-62066D03*
X90000Y-61870D03*
G54D29*
X89645Y-62165D03*
G54D30*
X82363Y-57674D03*
X82167Y-57674D03*
X81970Y-57674D03*
X81773Y-57674D03*
X81576Y-57674D03*
X81379Y-57674D03*
X81182Y-57674D03*
X80986Y-57674D03*
X82363Y-56315D03*
X82167Y-56315D03*
X81970Y-56315D03*
X81773Y-56315D03*
X81576Y-56315D03*
X81379Y-56315D03*
X81182Y-56315D03*
X80986Y-56315D03*
G54D31*
X81675Y-56995D03*
G54D32*
X82550Y-57290D03*
X82550Y-56699D03*
X80799Y-57290D03*
X80799Y-56699D03*
G54D33*
X82496Y-57103D03*
X82496Y-56886D03*
X80853Y-57103D03*
X80853Y-56886D03*
G54D19*
X88105Y-50939D03*
X88105Y-51531D03*
X88690Y-50939D03*
X88690Y-51531D03*
G54D18*
X92446Y-55180D03*
X91854Y-55180D03*
X91864Y-54610D03*
X92456Y-54610D03*
G54D34*
X87260Y-61390D03*
X87670Y-61380D03*
X87408Y-61193D03*
X87660Y-61060D03*
X87230Y-61110D03*
X88775Y-61000D03*
X89890Y-52870D03*
X87715Y-50945D03*
X88430Y-62200D03*
X87160Y-52400D03*
G54D35*
X82880Y-63190D03*
X82300Y-63210D03*
X84900Y-58190D03*
X84600Y-58190D03*
X90730Y-63200D03*
X90300Y-63460D03*
X90300Y-63060D03*
X90730Y-63450D03*
X90500Y-63230D03*
X90700Y-56530D03*
G54D34*
X90669Y-58740D03*
G54D35*
X81170Y-53060D03*
X93800Y-63130D03*
X93800Y-57870D03*
X93810Y-52530D03*
G54D34*
X89073Y-62066D03*
X86968Y-57007D03*
X91141Y-54566D03*
X84540Y-57340D03*
X84300Y-57220D03*
X84050Y-57120D03*
X83830Y-56980D03*
X87900Y-59705D03*
X86245Y-54610D03*
X90005Y-52045D03*
X88395Y-57885D03*
X87204Y-57637D03*
X87480Y-57637D03*
X87755Y-57637D03*
X87795Y-57874D03*
X87795Y-58149D03*
X88858Y-57992D03*
X89094Y-57952D03*
X89330Y-57913D03*
X87110Y-59715D03*
X89080Y-52730D03*
X82760Y-51210D03*
X83720Y-51410D03*
X88580Y-52420D03*
X87295Y-59565D03*
X88290Y-59710D03*
X86335Y-54435D03*
X85265Y-63540D03*
X92135Y-63535D03*
X91405Y-51570D03*
X87840Y-52270D03*
X82100Y-51920D03*
X88915Y-52200D03*
X89690Y-51840D03*
X87750Y-52630D03*
X82760Y-52230D03*
X87470Y-52370D03*
X86160Y-54350D03*
X89815Y-56980D03*
G54D35*
X90520Y-57900D03*
X90700Y-58160D03*
X89820Y-58090D03*
G54D34*
X88440Y-52980D03*
X89030Y-62280D03*
X92210Y-53595D03*
X89920Y-54110D03*
X82950Y-62735D03*
X89725Y-53405D03*
X87660Y-58930D03*
X81380Y-57935D03*
X81185Y-57980D03*
X87550Y-59200D03*
X81340Y-58435D03*
X83440Y-62895D03*
X87880Y-53060D03*
X81520Y-55870D03*
G54D35*
X81710Y-61680D03*
X81060Y-63259D03*
X80680Y-62950D03*
X80700Y-63380D03*
X81130Y-63810D03*
X80750Y-63850D03*
X81625Y-60215D03*
X81535Y-59785D03*
G54D34*
X89120Y-56250D03*
X88460Y-55380D03*
X86680Y-55450D03*
X90175Y-55480D03*
X88440Y-53750D03*
X92805Y-52290D03*
X92665Y-54165D03*
G54D35*
X85170Y-59610D03*
G54D34*
X82970Y-51560D03*
X86460Y-52810D03*
X82770Y-53190D03*
X82360Y-53210D03*
X82390Y-52920D03*
X82390Y-53570D03*
X82780Y-53580D03*
X82760Y-52880D03*
G54D35*
X81600Y-53750D03*
X85050Y-59410D03*
X91090Y-56970D03*
G54D34*
X90157Y-58740D03*
G54D35*
X93810Y-53730D03*
X93850Y-60850D03*
X93830Y-59060D03*
X82460Y-52020D03*
X83730Y-53100D03*
X85010Y-50680D03*
X81160Y-51630D03*
G54D34*
X90354Y-60118D03*
X87440Y-63130D03*
X87680Y-63490D03*
X89640Y-62560D03*
X89360Y-62750D03*
X89580Y-62720D03*
X89150Y-62730D03*
X89560Y-62320D03*
X89710Y-62150D03*
X89570Y-61990D03*
X90413Y-62421D03*
X86045Y-54595D03*
X85944Y-55393D03*
X84881Y-53622D03*
X84251Y-52992D03*
X84921Y-56023D03*
X84527Y-56023D03*
X86535Y-57874D03*
X91614Y-54133D03*
X90236Y-52913D03*
X83149Y-59842D03*
X83010Y-59670D03*
X91653Y-59566D03*
X89055Y-58740D03*
X82060Y-56780D03*
X83858Y-59566D03*
X84055Y-59448D03*
X81670Y-57200D03*
X81670Y-56760D03*
X81270Y-56780D03*
X80584Y-55294D03*
X85780Y-63260D03*
X82460Y-62670D03*
X84700Y-62500D03*
G54D35*
X83035Y-62485D03*
X85400Y-63180D03*
G54D34*
X92590Y-55510D03*
X81875Y-55980D03*
X81970Y-57955D03*
X83010Y-54890D03*
X82740Y-55150D03*
X83030Y-55160D03*
X82710Y-54860D03*
G54D36*
X87440Y-61790D02*
X87440Y-61570D01*
X87440Y-61570D02*
X87260Y-61390D01*
X87670Y-61380D02*
X87560Y-61380D01*
X87440Y-61609D02*
X87670Y-61380D01*
X87440Y-61790D02*
X87440Y-61609D01*
X87560Y-61380D02*
X87408Y-61193D01*
X88110Y-61869D02*
X88110Y-61510D01*
X88110Y-61510D02*
X87660Y-61060D01*
X87408Y-61193D02*
X87230Y-61110D01*
G54D37*
X89291Y-61870D02*
X89192Y-61870D01*
X88207Y-61771D02*
X88110Y-61869D01*
X89094Y-61771D02*
X88207Y-61771D01*
X89192Y-61870D02*
X89094Y-61771D01*
X90026Y-53555D02*
X90026Y-53006D01*
X90026Y-53006D02*
X89890Y-52870D01*
G54D36*
X88105Y-50939D02*
X87721Y-50939D01*
X87721Y-50939D02*
X87715Y-50945D01*
G54D37*
X87721Y-50939D02*
X87715Y-50945D01*
G54D36*
X88690Y-50939D02*
X88105Y-50939D01*
G54D38*
X85520Y-58135D02*
X85195Y-58135D01*
X85195Y-58135D02*
X84830Y-57770D01*
G54D37*
X84020Y-62372D02*
X83690Y-62372D01*
X83690Y-62372D02*
X83250Y-62812D01*
X83250Y-62812D02*
X83250Y-63154D01*
X83250Y-63154D02*
X83200Y-63204D01*
G54D11*
X88700Y-62144D02*
X88485Y-62144D01*
X88485Y-62144D02*
X88430Y-62200D01*
G54D37*
X86929Y-52619D02*
X86940Y-52619D01*
X86940Y-52619D02*
X87160Y-52400D01*
X87534Y-53846D02*
X87534Y-53844D01*
X86929Y-53239D02*
X86929Y-52619D01*
X87534Y-53844D02*
X86929Y-53239D01*
G54D39*
X83200Y-63204D02*
X82894Y-63204D01*
X82894Y-63204D02*
X82880Y-63190D01*
X82600Y-63204D02*
X82306Y-63204D01*
X82306Y-63204D02*
X82300Y-63210D01*
G54D38*
X90730Y-63200D02*
X90530Y-63200D01*
X90300Y-63460D02*
X90720Y-63460D01*
X90787Y-62815D02*
X90544Y-62815D01*
X90544Y-62815D02*
X90300Y-63060D01*
X90300Y-63460D02*
X90300Y-63060D01*
X90720Y-63460D02*
X90730Y-63450D01*
X90730Y-63200D02*
X90730Y-63450D01*
X90530Y-63200D02*
X90500Y-63230D01*
G54D36*
X90420Y-56810D02*
X90420Y-56809D01*
X90420Y-56809D02*
X90700Y-56530D01*
X91524Y-58670D02*
X90739Y-58670D01*
X90739Y-58670D02*
X90669Y-58740D01*
G54D37*
X90420Y-56810D02*
X90220Y-56810D01*
X90220Y-56810D02*
X89872Y-56463D01*
G54D11*
X89291Y-62066D02*
X89073Y-62066D01*
G54D37*
X89291Y-62066D02*
X88778Y-62066D01*
X88778Y-62066D02*
X88700Y-62144D01*
X86744Y-57231D02*
X86968Y-57007D01*
X90932Y-54303D02*
X90932Y-54357D01*
X90932Y-54357D02*
X91141Y-54566D01*
X86744Y-57231D02*
X86765Y-57231D01*
X86765Y-57231D02*
X87255Y-56741D01*
X90932Y-54303D02*
X90932Y-54456D01*
X90932Y-54456D02*
X90429Y-54959D01*
X90026Y-53555D02*
X89884Y-53555D01*
X89884Y-53555D02*
X89455Y-53985D01*
G54D36*
X84830Y-57770D02*
X84830Y-57630D01*
X84830Y-57630D02*
X84540Y-57340D01*
X84116Y-58080D02*
X84116Y-57404D01*
X84116Y-57404D02*
X84300Y-57220D01*
X84116Y-57550D02*
X84116Y-57186D01*
X84116Y-57186D02*
X84050Y-57120D01*
X83340Y-56925D02*
X83775Y-56925D01*
X83775Y-56925D02*
X83830Y-56980D01*
G54D39*
X84830Y-57770D02*
X84336Y-57770D01*
X84336Y-57770D02*
X84116Y-57550D01*
X84116Y-58080D02*
X84116Y-57550D01*
G54D38*
X82000Y-63204D02*
X83200Y-63204D01*
G54D37*
X90707Y-55238D02*
X90707Y-55237D01*
X90765Y-55180D02*
X91854Y-55180D01*
X90707Y-55237D02*
X90765Y-55180D01*
G54D36*
X91864Y-54610D02*
X91864Y-55170D01*
X91864Y-55170D02*
X91854Y-55180D01*
G54D11*
X86699Y-54681D02*
X86686Y-54681D01*
X86380Y-54610D02*
X86245Y-54610D01*
X86425Y-54565D02*
X86380Y-54610D01*
X86570Y-54565D02*
X86425Y-54565D01*
X86686Y-54681D02*
X86570Y-54565D01*
G54D37*
X89350Y-52977D02*
X88898Y-53428D01*
X89350Y-52700D02*
X89350Y-52977D01*
X90005Y-52045D02*
X89350Y-52700D01*
X87673Y-57159D02*
X87673Y-57168D01*
X87673Y-57168D02*
X87204Y-57637D01*
X87812Y-57298D02*
X87812Y-57305D01*
X87812Y-57305D02*
X87480Y-57637D01*
X87951Y-57437D02*
X87951Y-57441D01*
X87951Y-57441D02*
X87755Y-57637D01*
X88091Y-57576D02*
X88091Y-57578D01*
X88091Y-57578D02*
X87795Y-57874D01*
X88230Y-57715D02*
X88229Y-57715D01*
X88229Y-57715D02*
X87795Y-58149D01*
X88620Y-57753D02*
X88620Y-57715D01*
X88858Y-57992D02*
X88620Y-57753D01*
X88759Y-57617D02*
X88759Y-57576D01*
X89094Y-57952D02*
X88759Y-57617D01*
X88898Y-57481D02*
X88898Y-57437D01*
X89330Y-57913D02*
X88898Y-57481D01*
G54D11*
X86559Y-56045D02*
X86559Y-56050D01*
X87110Y-59235D02*
X87110Y-59715D01*
X85055Y-57180D02*
X87110Y-59235D01*
X85055Y-56200D02*
X85055Y-57180D01*
X85325Y-55930D02*
X85055Y-56200D01*
X86080Y-55930D02*
X85325Y-55930D01*
X86325Y-56175D02*
X86080Y-55930D01*
X86435Y-56175D02*
X86325Y-56175D01*
X86559Y-56050D02*
X86435Y-56175D01*
G54D37*
X88759Y-53289D02*
X88759Y-53275D01*
X88759Y-53275D02*
X89080Y-52955D01*
X89080Y-52955D02*
X89080Y-52730D01*
X82753Y-51203D02*
X82753Y-50898D01*
X82760Y-51210D02*
X82753Y-51203D01*
X87951Y-53428D02*
X87918Y-53428D01*
X83710Y-51400D02*
X83451Y-51400D01*
X83720Y-51410D02*
X83710Y-51400D01*
X88480Y-52520D02*
X88580Y-52420D01*
X88120Y-52520D02*
X88480Y-52520D01*
X87590Y-53050D02*
X88120Y-52520D01*
X87590Y-53100D02*
X87590Y-53050D01*
X87918Y-53428D02*
X87590Y-53100D01*
X84965Y-51435D02*
X85880Y-50520D01*
X89190Y-50750D02*
X89190Y-51220D01*
X88960Y-50520D02*
X89190Y-50750D01*
X85880Y-50520D02*
X88960Y-50520D01*
X88620Y-53150D02*
X88620Y-52819D01*
X88620Y-52819D02*
X89190Y-52250D01*
X84606Y-51793D02*
X83451Y-51793D01*
X84965Y-51435D02*
X84606Y-51793D01*
X89190Y-52250D02*
X89190Y-51220D01*
G54D11*
X86518Y-56365D02*
X86699Y-56184D01*
X86340Y-56365D02*
X86518Y-56365D01*
X86065Y-56090D02*
X86340Y-56365D01*
X85355Y-56090D02*
X86065Y-56090D01*
X85220Y-56225D02*
X85355Y-56090D01*
X85220Y-57120D02*
X85220Y-56225D01*
X87290Y-59190D02*
X85220Y-57120D01*
X87290Y-59560D02*
X87290Y-59190D01*
X87295Y-59565D02*
X87290Y-59560D01*
X86838Y-54542D02*
X86822Y-54542D01*
X86715Y-54435D02*
X86335Y-54435D01*
X86822Y-54542D02*
X86715Y-54435D01*
G54D37*
X93565Y-59005D02*
X93565Y-59015D01*
X93565Y-59015D02*
X91400Y-61180D01*
X91400Y-62800D02*
X92135Y-63535D01*
X85265Y-63540D02*
X85083Y-63358D01*
X85083Y-63358D02*
X85083Y-63179D01*
X91400Y-61180D02*
X91400Y-62800D01*
X93580Y-52400D02*
X93580Y-51245D01*
X91405Y-50910D02*
X91405Y-51570D01*
X91675Y-50640D02*
X91405Y-50910D01*
X92975Y-50640D02*
X91675Y-50640D01*
X93580Y-51245D02*
X92975Y-50640D01*
G54D36*
X88105Y-51531D02*
X88105Y-52015D01*
X88105Y-52015D02*
X88100Y-52020D01*
G54D37*
X93580Y-58990D02*
X93565Y-59005D01*
X93580Y-52400D02*
X93580Y-58990D01*
X82448Y-51596D02*
X82163Y-51596D01*
X87840Y-52270D02*
X87840Y-52280D01*
X82100Y-51660D02*
X82100Y-51920D01*
X82163Y-51596D02*
X82100Y-51660D01*
X87673Y-53707D02*
X87673Y-53703D01*
X87140Y-52980D02*
X87840Y-52280D01*
X87840Y-52280D02*
X88100Y-52020D01*
X87140Y-53170D02*
X87140Y-52980D01*
X87673Y-53703D02*
X87140Y-53170D01*
X90985Y-51840D02*
X91450Y-51840D01*
X93420Y-51420D02*
X93420Y-53140D01*
X92840Y-50840D02*
X93420Y-51420D01*
X91860Y-50840D02*
X92840Y-50840D01*
X91680Y-51020D02*
X91860Y-50840D01*
X91680Y-51610D02*
X91680Y-51020D01*
X91450Y-51840D02*
X91680Y-51610D01*
G54D36*
X88690Y-51531D02*
X88690Y-52020D01*
X88690Y-52020D02*
X88680Y-52030D01*
G54D37*
X85379Y-62627D02*
X85607Y-62627D01*
X88745Y-52030D02*
X88680Y-52030D01*
X88915Y-52200D02*
X88745Y-52030D01*
X90985Y-51840D02*
X89690Y-51840D01*
X93420Y-58870D02*
X93420Y-53140D01*
X91530Y-60760D02*
X93420Y-58870D01*
X86260Y-60760D02*
X91530Y-60760D01*
X85790Y-61230D02*
X86260Y-60760D01*
X85790Y-62445D02*
X85790Y-61230D01*
X85607Y-62627D02*
X85790Y-62445D01*
X82753Y-51901D02*
X82753Y-52223D01*
X87750Y-52630D02*
X87750Y-52620D01*
X82753Y-52223D02*
X82760Y-52230D01*
X88680Y-52030D02*
X88640Y-52030D01*
X87350Y-53105D02*
X87812Y-53567D01*
X87350Y-53020D02*
X87350Y-53105D01*
X88010Y-52360D02*
X87750Y-52620D01*
X87750Y-52620D02*
X87350Y-53020D01*
X88310Y-52360D02*
X88010Y-52360D01*
X88640Y-52030D02*
X88310Y-52360D01*
G54D11*
X90568Y-55099D02*
X90575Y-55099D01*
X91800Y-53646D02*
X91290Y-53136D01*
X91800Y-54165D02*
X91800Y-53646D01*
X91205Y-54760D02*
X91800Y-54165D01*
X90915Y-54760D02*
X91205Y-54760D01*
X90575Y-55099D02*
X90915Y-54760D01*
G54D37*
X86977Y-54403D02*
X86977Y-54397D01*
X87530Y-52310D02*
X87530Y-52020D01*
X87470Y-52370D02*
X87530Y-52310D01*
X86250Y-54260D02*
X86160Y-54350D01*
X86840Y-54260D02*
X86250Y-54260D01*
X86977Y-54397D02*
X86840Y-54260D01*
G54D11*
X89594Y-56741D02*
X89594Y-56759D01*
X89594Y-56759D02*
X89815Y-56980D01*
G54D37*
X89316Y-57019D02*
X89316Y-57066D01*
X90150Y-57900D02*
X90520Y-57900D01*
X89316Y-57066D02*
X90150Y-57900D01*
X89176Y-57159D02*
X89189Y-57159D01*
X90190Y-58160D02*
X90700Y-58160D01*
X89189Y-57159D02*
X90190Y-58160D01*
X89037Y-57298D02*
X89037Y-57307D01*
X89037Y-57307D02*
X89820Y-58090D01*
X88269Y-53150D02*
X88230Y-53150D01*
X88440Y-52980D02*
X88269Y-53150D01*
G54D11*
X89291Y-62263D02*
X89046Y-62263D01*
X89046Y-62263D02*
X89030Y-62280D01*
G54D37*
X89733Y-54263D02*
X89766Y-54263D01*
X85200Y-61704D02*
X85083Y-61820D01*
X85200Y-61310D02*
X85200Y-61704D01*
X86140Y-60370D02*
X85200Y-61310D01*
X91300Y-60370D02*
X86140Y-60370D01*
X93080Y-58590D02*
X91300Y-60370D01*
X93080Y-53780D02*
X93080Y-58590D01*
X92910Y-53610D02*
X93080Y-53780D01*
X92225Y-53610D02*
X92910Y-53610D01*
X92210Y-53595D02*
X92225Y-53610D01*
X89766Y-54263D02*
X89920Y-54110D01*
X90845Y-52045D02*
X91540Y-52045D01*
X91540Y-52045D02*
X91880Y-51705D01*
X90707Y-53567D02*
X89872Y-54403D01*
X93250Y-53215D02*
X93245Y-53210D01*
X93250Y-58690D02*
X93250Y-53215D01*
X91385Y-60555D02*
X93250Y-58690D01*
X86205Y-60555D02*
X91385Y-60555D01*
X85379Y-61380D02*
X86205Y-60555D01*
X85379Y-62116D02*
X85379Y-61380D01*
X90712Y-53567D02*
X90880Y-53400D01*
X90880Y-53400D02*
X90880Y-52855D01*
X90880Y-52855D02*
X90635Y-52610D01*
X90635Y-52610D02*
X90635Y-52250D01*
X90635Y-52250D02*
X90840Y-52045D01*
X90840Y-52045D02*
X90845Y-52045D01*
X90707Y-53567D02*
X90712Y-53567D01*
X91540Y-52045D02*
X91880Y-51705D01*
X91880Y-51705D02*
X91880Y-51165D01*
X91880Y-51165D02*
X92010Y-51035D01*
X92010Y-51035D02*
X92740Y-51035D01*
X92740Y-51035D02*
X93245Y-51540D01*
X93245Y-51540D02*
X93245Y-53210D01*
G54D36*
X81925Y-61220D02*
X81140Y-61220D01*
X81140Y-61220D02*
X81110Y-61190D01*
X81889Y-61220D02*
X81925Y-61220D01*
X81925Y-61220D02*
X83620Y-61220D01*
X83620Y-61220D02*
X83650Y-61250D01*
X83200Y-60696D02*
X83200Y-60800D01*
X83650Y-61250D02*
X84254Y-61250D01*
X83200Y-60800D02*
X83650Y-61250D01*
G54D37*
X81889Y-60964D02*
X81140Y-60964D01*
X83750Y-60590D02*
X83560Y-60400D01*
X83560Y-60400D02*
X82950Y-60400D01*
X82950Y-60400D02*
X82790Y-60560D01*
X82790Y-60560D02*
X82790Y-60800D01*
X82790Y-60800D02*
X82625Y-60964D01*
X82625Y-60964D02*
X81889Y-60964D01*
X83750Y-60696D02*
X83750Y-60590D01*
X81140Y-60964D02*
X81110Y-60934D01*
G54D36*
X83750Y-60696D02*
X84250Y-60696D01*
X84250Y-60696D02*
X84254Y-60700D01*
G54D37*
X84020Y-62116D02*
X83703Y-62116D01*
X83085Y-62735D02*
X82950Y-62735D01*
X83703Y-62116D02*
X83085Y-62735D01*
X89280Y-53325D02*
X89037Y-53567D01*
X89450Y-53325D02*
X89280Y-53325D01*
X89725Y-53405D02*
X89450Y-53325D01*
G54D11*
X81379Y-57674D02*
X81379Y-57934D01*
X87275Y-57279D02*
X87534Y-57019D01*
X87275Y-57335D02*
X87275Y-57279D01*
X86865Y-57745D02*
X87275Y-57335D01*
X86865Y-58135D02*
X86865Y-57745D01*
X87660Y-58930D02*
X86865Y-58135D01*
X81379Y-57934D02*
X81380Y-57935D01*
X87395Y-56880D02*
X87384Y-56880D01*
X81182Y-57977D02*
X81182Y-57674D01*
X81185Y-57980D02*
X81182Y-57977D01*
X86700Y-58350D02*
X87550Y-59200D01*
X86700Y-57725D02*
X86700Y-58350D01*
X87110Y-57315D02*
X86700Y-57725D01*
X87110Y-57155D02*
X87110Y-57315D01*
X87384Y-56880D02*
X87110Y-57155D01*
G54D39*
X81889Y-60708D02*
X81778Y-60708D01*
X81748Y-60678D02*
X81110Y-60678D01*
X81778Y-60708D02*
X81748Y-60678D01*
X82291Y-60708D02*
X82560Y-60440D01*
X82560Y-60440D02*
X82560Y-59350D01*
X82560Y-59350D02*
X81820Y-58610D01*
X81740Y-58610D02*
X81820Y-58610D01*
X81889Y-60708D02*
X82291Y-60708D01*
G54D37*
X86160Y-61514D02*
X86239Y-61514D01*
X81340Y-58435D02*
X81340Y-58434D01*
X83560Y-63015D02*
X83440Y-62895D01*
X83560Y-63510D02*
X83560Y-63015D01*
X84050Y-64000D02*
X83560Y-63510D01*
X86430Y-64000D02*
X84050Y-64000D01*
X86855Y-63575D02*
X86430Y-64000D01*
X86855Y-62130D02*
X86855Y-63575D01*
X86239Y-61514D02*
X86855Y-62130D01*
G54D39*
X81050Y-58434D02*
X80774Y-58434D01*
X80774Y-58434D02*
X80590Y-58250D01*
G54D36*
X81576Y-57674D02*
X81576Y-58446D01*
X81576Y-58446D02*
X81740Y-58610D01*
G54D38*
X81050Y-58434D02*
X81340Y-58434D01*
X81340Y-58434D02*
X81564Y-58434D01*
X81564Y-58434D02*
X81740Y-58610D01*
G54D37*
X81379Y-56315D02*
X81379Y-56010D01*
X88091Y-53271D02*
X88091Y-53289D01*
X87880Y-53060D02*
X88091Y-53271D01*
X81379Y-56010D02*
X81520Y-55870D01*
G54D39*
X81060Y-62410D02*
X81060Y-62329D01*
X81060Y-62329D02*
X81710Y-61680D01*
X80700Y-63380D02*
X80940Y-63380D01*
X80940Y-63380D02*
X81060Y-63259D01*
X80700Y-63380D02*
X80700Y-62970D01*
X80700Y-62970D02*
X80680Y-62950D01*
X80750Y-63850D02*
X80750Y-63430D01*
X80750Y-63430D02*
X80700Y-63380D01*
X81130Y-63810D02*
X80790Y-63810D01*
X81144Y-63796D02*
X81130Y-63810D01*
X82000Y-63796D02*
X81144Y-63796D01*
X80790Y-63810D02*
X80750Y-63850D01*
X81775Y-60065D02*
X81830Y-60065D01*
X81625Y-60215D02*
X81775Y-60065D01*
X81535Y-59785D02*
X81635Y-59885D01*
X81635Y-59885D02*
X81635Y-59940D01*
X81050Y-59026D02*
X81050Y-59958D01*
X81050Y-59958D02*
X81060Y-59969D01*
X82000Y-63796D02*
X81296Y-63796D01*
X81060Y-63560D02*
X81060Y-62410D01*
X81296Y-63796D02*
X81060Y-63560D01*
X81060Y-62410D02*
X81729Y-62410D01*
X81729Y-62410D02*
X81940Y-62200D01*
X81940Y-62200D02*
X82454Y-62200D01*
X81110Y-61701D02*
X81110Y-62361D01*
X81110Y-62361D02*
X81060Y-62410D01*
X89120Y-56250D02*
X88425Y-55433D01*
X88460Y-55380D02*
X88425Y-55433D01*
X86680Y-55450D02*
X88425Y-55433D01*
X90128Y-55433D02*
X88425Y-55433D01*
X90175Y-55480D02*
X90128Y-55433D01*
X88440Y-53750D02*
X88425Y-55433D01*
G54D37*
X82550Y-56699D02*
X82550Y-56832D01*
X82550Y-56832D02*
X82496Y-56886D01*
G54D36*
X92570Y-52790D02*
X92570Y-52525D01*
X92570Y-52525D02*
X92805Y-52290D01*
X92456Y-54610D02*
X92456Y-54374D01*
X92456Y-54374D02*
X92665Y-54165D01*
G54D38*
X85520Y-59810D02*
X85370Y-59810D01*
X85370Y-59810D02*
X85170Y-59610D01*
G54D11*
X80853Y-57103D02*
X81566Y-57103D01*
X81566Y-57103D02*
X81675Y-56995D01*
G54D37*
X83451Y-51596D02*
X83006Y-51596D01*
X83006Y-51596D02*
X82970Y-51560D01*
X86443Y-53244D02*
X86443Y-52826D01*
X86443Y-52826D02*
X86460Y-52810D01*
X86443Y-53244D02*
X86443Y-52690D01*
X86443Y-52690D02*
X86456Y-52677D01*
X86510Y-52200D02*
X86429Y-52200D01*
X86429Y-52200D02*
X86204Y-52425D01*
G54D36*
X82364Y-54330D02*
X81960Y-54330D01*
X81600Y-53970D02*
X81600Y-53750D01*
X81960Y-54330D02*
X81600Y-53970D01*
X82496Y-57103D02*
X82496Y-56753D01*
X82496Y-56753D02*
X82550Y-56699D01*
X80853Y-57103D02*
X80853Y-56886D01*
X90839Y-57229D02*
X90839Y-57220D01*
X90839Y-57220D02*
X91090Y-56970D01*
X90157Y-58740D02*
X90159Y-58740D01*
X91200Y-58110D02*
X91534Y-58110D01*
X90880Y-58430D02*
X91200Y-58110D01*
X90470Y-58430D02*
X90880Y-58430D01*
X90159Y-58740D02*
X90470Y-58430D01*
G54D37*
X89733Y-56602D02*
X89742Y-56602D01*
X90658Y-57410D02*
X90839Y-57229D01*
X90550Y-57410D02*
X90658Y-57410D01*
X89742Y-56602D02*
X90550Y-57410D01*
X82448Y-51400D02*
X82660Y-51400D01*
X82660Y-51400D02*
X82950Y-51690D01*
X82448Y-51793D02*
X82448Y-52008D01*
X82448Y-52008D02*
X82460Y-52020D01*
X83451Y-51203D02*
X83196Y-51203D01*
X83043Y-51356D02*
X83043Y-51596D01*
X83196Y-51203D02*
X83043Y-51356D01*
X82950Y-51901D02*
X82950Y-51690D01*
X82950Y-51690D02*
X83043Y-51596D01*
X83043Y-51596D02*
X83451Y-51596D01*
X83451Y-51203D02*
X83451Y-51006D01*
G54D38*
X83330Y-53026D02*
X83656Y-53026D01*
X83656Y-53026D02*
X83730Y-53100D01*
X84616Y-50670D02*
X85000Y-50670D01*
X85000Y-50670D02*
X85010Y-50680D01*
X81234Y-51300D02*
X81234Y-51556D01*
X81234Y-51556D02*
X81160Y-51630D01*
X84616Y-51200D02*
X84616Y-50670D01*
X81234Y-51300D02*
X81234Y-50750D01*
X81234Y-50750D02*
X81244Y-50740D01*
G54D37*
X87440Y-63129D02*
X87440Y-62540D01*
X87440Y-63130D02*
X87440Y-63129D01*
X87714Y-63524D02*
X88110Y-63524D01*
X87680Y-63490D02*
X87714Y-63524D01*
X89640Y-62560D02*
X89645Y-62560D01*
X89360Y-62750D02*
X89360Y-62736D01*
X89580Y-62720D02*
X89580Y-62736D01*
X89143Y-62736D02*
X88700Y-62736D01*
X89150Y-62730D02*
X89143Y-62736D01*
X89645Y-62234D02*
X89645Y-62165D01*
X89560Y-62320D02*
X89645Y-62234D01*
X89694Y-62165D02*
X89645Y-62165D01*
X89710Y-62150D02*
X89694Y-62165D01*
X89645Y-62065D02*
X89645Y-62165D01*
X89570Y-61990D02*
X89645Y-62065D01*
G54D38*
X87440Y-62540D02*
X87440Y-63200D01*
X87764Y-63524D02*
X88110Y-63524D01*
X87440Y-63200D02*
X87764Y-63524D01*
G54D11*
X90000Y-61870D02*
X90279Y-61870D01*
X90444Y-62452D02*
X90413Y-62421D01*
X91098Y-62452D02*
X90444Y-62452D01*
X91216Y-62334D02*
X91098Y-62452D01*
X91216Y-61763D02*
X91216Y-62334D01*
X91106Y-61653D02*
X91216Y-61763D01*
X90496Y-61653D02*
X91106Y-61653D01*
X90279Y-61870D02*
X90496Y-61653D01*
X89645Y-62165D02*
X89645Y-61929D01*
X89704Y-61870D02*
X90000Y-61870D01*
X89645Y-61929D02*
X89704Y-61870D01*
G54D37*
X89645Y-62165D02*
X89645Y-62560D01*
X89645Y-62560D02*
X89645Y-62677D01*
X89585Y-62736D02*
X89580Y-62736D01*
X89580Y-62736D02*
X89360Y-62736D01*
X89360Y-62736D02*
X89152Y-62736D01*
X89645Y-62677D02*
X89585Y-62736D01*
X88700Y-62736D02*
X89152Y-62736D01*
X89291Y-62598D02*
X89291Y-62460D01*
X89152Y-62736D02*
X89291Y-62598D01*
X85866Y-54330D02*
X85866Y-54409D01*
X85866Y-54409D02*
X86045Y-54595D01*
G54D36*
X84645Y-53385D02*
X84645Y-53400D01*
X84645Y-53400D02*
X84396Y-53648D01*
G54D38*
X83727Y-54318D02*
X84396Y-53648D01*
G54D37*
X83727Y-54318D02*
X83727Y-54908D01*
X85551Y-55787D02*
X85944Y-55393D01*
X84606Y-55787D02*
X85551Y-55787D01*
X83727Y-54908D02*
X84606Y-55787D01*
X85026Y-51837D02*
X85617Y-51837D01*
X86456Y-52677D02*
X86204Y-52425D01*
X86204Y-52425D02*
X85617Y-51837D01*
X85288Y-53369D02*
X85134Y-53369D01*
X85134Y-53369D02*
X84881Y-53622D01*
X84396Y-52507D02*
X84251Y-52652D01*
X84251Y-52652D02*
X84251Y-52992D01*
X85134Y-53369D02*
X84881Y-53622D01*
X87116Y-54263D02*
X87116Y-54242D01*
X84251Y-52992D02*
X84251Y-52652D01*
X85590Y-54330D02*
X84881Y-53622D01*
X84881Y-53622D02*
X84645Y-53385D01*
X84645Y-53385D02*
X84251Y-52992D01*
X85905Y-54330D02*
X85866Y-54330D01*
X85866Y-54330D02*
X85590Y-54330D01*
X86141Y-54094D02*
X85905Y-54330D01*
X86968Y-54094D02*
X86141Y-54094D01*
X87116Y-54242D02*
X86968Y-54094D01*
G54D39*
X84396Y-52507D02*
X84396Y-52467D01*
X84396Y-52467D02*
X85026Y-51837D01*
G54D38*
X84527Y-56023D02*
X84921Y-56023D01*
X84725Y-56219D02*
X84921Y-56023D01*
X84725Y-56219D02*
X84725Y-56535D01*
G54D37*
X86326Y-57650D02*
X86326Y-57664D01*
X86326Y-57664D02*
X86535Y-57874D01*
X91351Y-53885D02*
X91365Y-53885D01*
X91365Y-53885D02*
X91614Y-54133D01*
X90445Y-53137D02*
X90445Y-53122D01*
X90445Y-53122D02*
X90236Y-52913D01*
X90290Y-54820D02*
X90336Y-54820D01*
X91206Y-53740D02*
X91351Y-53885D01*
X91062Y-53740D02*
X91206Y-53740D01*
X90551Y-54251D02*
X91062Y-53740D01*
X90551Y-54606D02*
X90551Y-54251D01*
X90336Y-54820D02*
X90551Y-54606D01*
X90445Y-53137D02*
X90445Y-53570D01*
X89782Y-53937D02*
X89594Y-54124D01*
X90078Y-53937D02*
X89782Y-53937D01*
X90445Y-53570D02*
X90078Y-53937D01*
G54D36*
X83200Y-59860D02*
X83010Y-59670D01*
X83200Y-59860D02*
X83200Y-60104D01*
G54D37*
X82060Y-56780D02*
X81675Y-56995D01*
G54D40*
X83750Y-60104D02*
X83750Y-59675D01*
X83750Y-59675D02*
X83858Y-59566D01*
X84126Y-59170D02*
X84126Y-59377D01*
X84126Y-59377D02*
X84055Y-59448D01*
G54D37*
X81670Y-57200D02*
X81675Y-56995D01*
X81670Y-56760D02*
X81675Y-56995D01*
X81270Y-56780D02*
X81675Y-56995D01*
X81576Y-56315D02*
X81576Y-56896D01*
X81576Y-56896D02*
X81675Y-56995D01*
G54D36*
X80554Y-55000D02*
X80554Y-55264D01*
X80554Y-55264D02*
X80584Y-55294D01*
X83750Y-60104D02*
X83806Y-60104D01*
X83806Y-60104D02*
X84340Y-59570D01*
X84126Y-59170D02*
X84126Y-59356D01*
X84126Y-59356D02*
X84620Y-59850D01*
X84830Y-58870D02*
X84830Y-59460D01*
X84830Y-59460D02*
X84880Y-59510D01*
G54D39*
X84116Y-58650D02*
X84610Y-58650D01*
X84610Y-58650D02*
X84830Y-58870D01*
X84116Y-58650D02*
X84116Y-59160D01*
X84116Y-59160D02*
X84126Y-59170D01*
X80584Y-55620D02*
X80584Y-55030D01*
X80584Y-55030D02*
X80554Y-55000D01*
G54D37*
X82550Y-56699D02*
X82590Y-56699D01*
X82167Y-56032D02*
X82167Y-56315D01*
X82540Y-55660D02*
X82167Y-56032D01*
X83690Y-55660D02*
X82540Y-55660D01*
X83870Y-55840D02*
X83690Y-55660D01*
X83870Y-56470D02*
X83870Y-55840D01*
X83780Y-56560D02*
X83870Y-56470D01*
X82730Y-56560D02*
X83780Y-56560D01*
X82590Y-56699D02*
X82730Y-56560D01*
X82550Y-56699D02*
X81970Y-56699D01*
X81970Y-56699D02*
X81675Y-56995D01*
X82167Y-56315D02*
X82167Y-56502D01*
X82167Y-56502D02*
X81675Y-56995D01*
X81576Y-56896D02*
X81675Y-56995D01*
X80986Y-57674D02*
X80986Y-57473D01*
X80986Y-57473D02*
X81465Y-56995D01*
X81465Y-56995D02*
X81675Y-56995D01*
X82167Y-57674D02*
X82167Y-57462D01*
X82167Y-57462D02*
X82175Y-57455D01*
X82175Y-57455D02*
X82175Y-57405D01*
X82175Y-57405D02*
X81765Y-56995D01*
X81765Y-56995D02*
X81675Y-56995D01*
G54D36*
X86150Y-63206D02*
X85834Y-63206D01*
X85834Y-63206D02*
X85780Y-63260D01*
X83750Y-60104D02*
X84206Y-60104D01*
X84206Y-60104D02*
X84210Y-60100D01*
X82454Y-62200D02*
X82454Y-62664D01*
X82454Y-62664D02*
X82460Y-62670D01*
X83200Y-63796D02*
X82600Y-63796D01*
X84316Y-63179D02*
X84316Y-63013D01*
X84700Y-62630D02*
X84700Y-62500D01*
X84316Y-63013D02*
X84700Y-62630D01*
G54D39*
X84827Y-62372D02*
X84700Y-62500D01*
X85379Y-62372D02*
X84827Y-62372D01*
X83200Y-60104D02*
X83750Y-60104D01*
G54D38*
X83200Y-63796D02*
X82000Y-63796D01*
G54D37*
X85928Y-52729D02*
X85928Y-53330D01*
X87110Y-53700D02*
X87395Y-53985D01*
X86535Y-53700D02*
X87110Y-53700D01*
X86535Y-53700D02*
X86535Y-53700D01*
X86299Y-53700D02*
X86535Y-53700D01*
X85928Y-53330D02*
X86299Y-53700D01*
G54D39*
X85445Y-52256D02*
X85455Y-52256D01*
X85455Y-52256D02*
X85928Y-52729D01*
G54D37*
X85803Y-53884D02*
X87016Y-53884D01*
X87016Y-53884D02*
X87255Y-54124D01*
G54D36*
X84815Y-52925D02*
X84869Y-52925D01*
X85748Y-53829D02*
X85803Y-53884D01*
X85748Y-53228D02*
X85748Y-53829D01*
X85354Y-52834D02*
X85748Y-53228D01*
X84960Y-52834D02*
X85354Y-52834D01*
X84869Y-52925D02*
X84960Y-52834D01*
G54D37*
X90707Y-55627D02*
X90707Y-55629D01*
X91023Y-55944D02*
X91653Y-55944D01*
X90707Y-55629D02*
X91023Y-55944D01*
X90568Y-55767D02*
X90570Y-55767D01*
X91181Y-56377D02*
X91299Y-56377D01*
X90570Y-55767D02*
X91181Y-56377D01*
G54D36*
X92116Y-58670D02*
X92116Y-58120D01*
X92116Y-58120D02*
X92126Y-58110D01*
X92126Y-57530D02*
X92126Y-58110D01*
G54D37*
X84612Y-55269D02*
X84678Y-55269D01*
X85982Y-55078D02*
X86142Y-55238D01*
X85629Y-55078D02*
X85982Y-55078D01*
X85236Y-55472D02*
X85629Y-55078D01*
X84881Y-55472D02*
X85236Y-55472D01*
X84678Y-55269D02*
X84881Y-55472D01*
G54D39*
X84146Y-54736D02*
X84146Y-54802D01*
X84146Y-54802D02*
X84612Y-55269D01*
G54D37*
X86281Y-55099D02*
X86280Y-55099D01*
X85754Y-54573D02*
X85308Y-54573D01*
X86280Y-55099D02*
X85754Y-54573D01*
G54D39*
X85308Y-54573D02*
X85308Y-54560D01*
X85308Y-54560D02*
X84815Y-54067D01*
G54D36*
X91290Y-52544D02*
X91624Y-52544D01*
X91624Y-52544D02*
X91870Y-52790D01*
G54D37*
X89455Y-56880D02*
X89455Y-56885D01*
X91140Y-57530D02*
X91534Y-57530D01*
X91010Y-57660D02*
X91140Y-57530D01*
X90130Y-57660D02*
X91010Y-57660D01*
X89590Y-57120D02*
X90130Y-57660D01*
X89590Y-57020D02*
X89590Y-57120D01*
X89455Y-56885D02*
X89590Y-57020D01*
G54D36*
X91534Y-57530D02*
X91534Y-56976D01*
X91534Y-56976D02*
X91980Y-56530D01*
G54D37*
X87116Y-56602D02*
X87098Y-56602D01*
X85943Y-56811D02*
X85825Y-56692D01*
X86889Y-56811D02*
X85943Y-56811D01*
X87098Y-56602D02*
X86889Y-56811D01*
G54D36*
X82363Y-56315D02*
X82474Y-56315D01*
X82615Y-56175D02*
X83340Y-56175D01*
X82474Y-56315D02*
X82615Y-56175D01*
X82363Y-57674D02*
X83399Y-57674D01*
X83399Y-57674D02*
X83524Y-57550D01*
G54D39*
X83524Y-57550D02*
X83524Y-58080D01*
X83524Y-58650D02*
X83524Y-58080D01*
X83534Y-59170D02*
X83534Y-58660D01*
X83534Y-58660D02*
X83524Y-58650D01*
G54D37*
X90000Y-62066D02*
X90786Y-62066D01*
X90786Y-62066D02*
X90787Y-62065D01*
X81182Y-56315D02*
X81182Y-55626D01*
X81182Y-55626D02*
X81176Y-55620D01*
G54D39*
X81176Y-55620D02*
X81320Y-55620D01*
X81644Y-55296D02*
X81644Y-55000D01*
X81320Y-55620D02*
X81644Y-55296D01*
G54D37*
X80986Y-56315D02*
X80986Y-56176D01*
X80880Y-55266D02*
X81146Y-55000D01*
X80880Y-56070D02*
X80880Y-55266D01*
X80986Y-56176D02*
X80880Y-56070D01*
G54D36*
X84827Y-63179D02*
X84827Y-63467D01*
X86454Y-62614D02*
X86150Y-62614D01*
X86640Y-62800D02*
X86454Y-62614D01*
X86640Y-63440D02*
X86640Y-62800D01*
X86315Y-63765D02*
X86640Y-63440D01*
X85125Y-63765D02*
X86315Y-63765D01*
X84827Y-63467D02*
X85125Y-63765D01*
G54D39*
X86160Y-62106D02*
X86160Y-62604D01*
X86160Y-62604D02*
X86150Y-62614D01*
G54D36*
X85379Y-62883D02*
X85379Y-63159D01*
X83101Y-62419D02*
X83046Y-62200D01*
X83035Y-62485D02*
X83101Y-62419D01*
X85379Y-63159D02*
X85400Y-63180D01*
G54D39*
X84316Y-61820D02*
X84300Y-61820D01*
X83046Y-61984D02*
X83046Y-62200D01*
X83330Y-61700D02*
X83046Y-61984D01*
X84180Y-61700D02*
X83330Y-61700D01*
X84300Y-61820D02*
X84180Y-61700D01*
G54D37*
X84827Y-61820D02*
X84827Y-61268D01*
X84827Y-61268D02*
X84846Y-61250D01*
X88110Y-62932D02*
X88247Y-62932D01*
X90137Y-62263D02*
X90000Y-62263D01*
X90236Y-62362D02*
X90137Y-62263D01*
X90236Y-62677D02*
X90236Y-62362D01*
X89842Y-63070D02*
X90236Y-62677D01*
X88385Y-63070D02*
X89842Y-63070D01*
X88247Y-62932D02*
X88385Y-63070D01*
X88110Y-62461D02*
X88110Y-62932D01*
X84572Y-61820D02*
X84572Y-61572D01*
X84630Y-60700D02*
X84846Y-60700D01*
X84550Y-60780D02*
X84630Y-60700D01*
X84550Y-61550D02*
X84550Y-60780D01*
X84572Y-61572D02*
X84550Y-61550D01*
G54D38*
X84024Y-51200D02*
X84024Y-50670D01*
G54D37*
X83146Y-50898D02*
X83146Y-50803D01*
X83280Y-50670D02*
X84024Y-50670D01*
X83146Y-50803D02*
X83280Y-50670D01*
X82448Y-51006D02*
X82448Y-50928D01*
X82260Y-50740D02*
X81836Y-50740D01*
X82448Y-50928D02*
X82260Y-50740D01*
X82448Y-51006D02*
X82448Y-50681D01*
X83146Y-50646D02*
X83146Y-50898D01*
X83040Y-50540D02*
X83146Y-50646D01*
X82590Y-50540D02*
X83040Y-50540D01*
X82448Y-50681D02*
X82590Y-50540D01*
X81826Y-51300D02*
X81890Y-51300D01*
X81986Y-51203D02*
X82448Y-51203D01*
X81890Y-51300D02*
X81986Y-51203D01*
X83330Y-52434D02*
X83330Y-52420D01*
X83146Y-52236D02*
X83146Y-51901D01*
X83330Y-52420D02*
X83146Y-52236D01*
X92446Y-55180D02*
X92446Y-55366D01*
X92446Y-55366D02*
X92590Y-55510D01*
G54D11*
X81970Y-57674D02*
X81970Y-57954D01*
X81875Y-55980D02*
X81875Y-56015D01*
X81970Y-57954D02*
X81970Y-57955D01*
G54D39*
X83380Y-53680D02*
X83380Y-53906D01*
X83380Y-53906D02*
X82956Y-54330D01*
G54D36*
X82956Y-54330D02*
X82956Y-54614D01*
X82956Y-54614D02*
X82710Y-54860D01*
G54D39*
X82236Y-55000D02*
X82590Y-55000D01*
X82590Y-55000D02*
X82740Y-55150D01*
G54D36*
X81970Y-56315D02*
X81970Y-55689D01*
X82890Y-55010D02*
X83010Y-54890D01*
X82650Y-55010D02*
X82890Y-55010D01*
X81970Y-55689D02*
X82650Y-55010D01*
X81773Y-56315D02*
X81773Y-56116D01*
X81773Y-56116D02*
X81875Y-56015D01*
X81875Y-56015D02*
X82740Y-55150D01*
X82740Y-55150D02*
X83020Y-55150D01*
X83020Y-55150D02*
X83030Y-55160D01*
X81773Y-56315D02*
X81773Y-55796D01*
X81773Y-55796D02*
X82710Y-54860D01*
X81970Y-56315D02*
X81970Y-55919D01*
X81970Y-55919D02*
X82740Y-55150D01*
G54D10*
G36*
X83295Y-55395D02*
X82627Y-55395D01*
X82055Y-55967D01*
X82055Y-56466D01*
X82036Y-56485D01*
X81695Y-56485D01*
X81695Y-55682D01*
X82632Y-54725D01*
X83295Y-54725D01*
X83295Y-55395D01*
X83295Y-55395D01*
G37*
G54D41*
X83295Y-55395D02*
X82627Y-55395D01*
X82055Y-55967D01*
X82055Y-56466D01*
X82036Y-56485D01*
X81695Y-56485D01*
X81695Y-55682D01*
X82632Y-54725D01*
X83295Y-54725D01*
X83295Y-55395D01*
G54D10*
G36*
X83685Y-56425D02*
X82799Y-56425D01*
X82439Y-56485D01*
X82305Y-56485D01*
X82305Y-56152D01*
X82711Y-55875D01*
X83685Y-55875D01*
X83685Y-56425D01*
X83685Y-56425D01*
G37*
G54D41*
X83685Y-56425D02*
X82799Y-56425D01*
X82439Y-56485D01*
X82305Y-56485D01*
X82305Y-56152D01*
X82711Y-55875D01*
X83685Y-55875D01*
X83685Y-56425D01*
G54D10*
G36*
X85185Y-58275D02*
X83935Y-58275D01*
X83935Y-57336D01*
X83641Y-57185D01*
X83045Y-57185D01*
X83045Y-56675D01*
X83628Y-56675D01*
X85185Y-57453D01*
X85185Y-58275D01*
X85185Y-58275D01*
G37*
G54D41*
X85185Y-58275D02*
X83935Y-58275D01*
X83935Y-57336D01*
X83641Y-57185D01*
X83045Y-57185D01*
X83045Y-56675D01*
X83628Y-56675D01*
X85185Y-57453D01*
X85185Y-58275D01*
G54D10*
G36*
X85225Y-60275D02*
X83002Y-60284D01*
X82794Y-59968D01*
X82764Y-59227D01*
X82525Y-58968D01*
X82525Y-58255D01*
X83155Y-58255D01*
X83165Y-59545D01*
X83905Y-59545D01*
X83905Y-59450D01*
X83905Y-58435D01*
X85225Y-58435D01*
X85225Y-58560D01*
X85225Y-60275D01*
X85225Y-60275D01*
G37*
G54D41*
X85225Y-60275D02*
X83002Y-60284D01*
X82794Y-59968D01*
X82764Y-59227D01*
X82525Y-58968D01*
X82525Y-58255D01*
X83155Y-58255D01*
X83165Y-59545D01*
X83905Y-59545D01*
X83905Y-59450D01*
X83905Y-58435D01*
X85225Y-58435D01*
X85225Y-58560D01*
X85225Y-60275D01*
G54D10*
G36*
X89855Y-62867D02*
X89797Y-62925D01*
X88495Y-62925D01*
X88495Y-62555D01*
X89105Y-62555D01*
X89105Y-62381D01*
X89111Y-62375D01*
X89445Y-62375D01*
X89445Y-61735D01*
X89855Y-61735D01*
X89855Y-62867D01*
X89855Y-62867D01*
G37*
G54D41*
X89855Y-62867D02*
X89797Y-62925D01*
X88495Y-62925D01*
X88495Y-62555D01*
X89105Y-62555D01*
X89105Y-62381D01*
X89111Y-62375D01*
X89445Y-62375D01*
X89445Y-61735D01*
X89855Y-61735D01*
X89855Y-62867D01*
G54D10*
G36*
X89365Y-61905D02*
X88375Y-61905D01*
X88375Y-62055D01*
X87145Y-62055D01*
X87145Y-60975D01*
X87759Y-60975D01*
X88375Y-60984D01*
X88375Y-61544D01*
X89365Y-61554D01*
X89365Y-61905D01*
X89365Y-61905D01*
G37*
G54D41*
X89365Y-61905D02*
X88375Y-61905D01*
X88375Y-62055D01*
X87145Y-62055D01*
X87145Y-60975D01*
X87759Y-60975D01*
X88375Y-60984D01*
X88375Y-61544D01*
X89365Y-61554D01*
X89365Y-61905D01*
G54D10*
G36*
X89365Y-62105D02*
X89059Y-62156D01*
X89054Y-62155D01*
X89005Y-62154D01*
X88961Y-62172D01*
X88947Y-62175D01*
X88855Y-62304D01*
X88855Y-61965D01*
X89149Y-61965D01*
X89152Y-61967D01*
X89192Y-61975D01*
X89291Y-61975D01*
X89331Y-61967D01*
X89334Y-61965D01*
X89365Y-61965D01*
X89365Y-62105D01*
X89365Y-62105D01*
G37*
G54D41*
X89365Y-62105D02*
X89059Y-62156D01*
X89054Y-62155D01*
X89005Y-62154D01*
X88961Y-62172D01*
X88947Y-62175D01*
X88855Y-62304D01*
X88855Y-61965D01*
X89149Y-61965D01*
X89152Y-61967D01*
X89192Y-61975D01*
X89291Y-61975D01*
X89331Y-61967D01*
X89334Y-61965D01*
X89365Y-61965D01*
X89365Y-62105D01*
G54D10*
G36*
X91125Y-63665D02*
X89985Y-63665D01*
X89985Y-63202D01*
X90505Y-62702D01*
X90505Y-62587D01*
X91098Y-62587D01*
X91125Y-62582D01*
X91125Y-63665D01*
X91125Y-63665D01*
G37*
G54D41*
X91125Y-63665D02*
X89985Y-63665D01*
X89985Y-63202D01*
X90505Y-62702D01*
X90505Y-62587D01*
X91098Y-62587D01*
X91125Y-62582D01*
X91125Y-63665D01*
G54D10*
G36*
X83404Y-64150D02*
X80365Y-64164D01*
X80429Y-59540D01*
X82110Y-59540D01*
X82110Y-60425D01*
X80700Y-60425D01*
X80700Y-61590D01*
X82720Y-61590D01*
X82720Y-62745D01*
X81440Y-62745D01*
X81434Y-63579D01*
X83400Y-63594D01*
X83404Y-64150D01*
X83404Y-64150D01*
G37*
G54D41*
X83404Y-64150D02*
X80365Y-64164D01*
X80429Y-59540D01*
X82110Y-59540D01*
X82110Y-60425D01*
X80700Y-60425D01*
X80700Y-61590D01*
X82720Y-61590D01*
X82720Y-62745D01*
X81440Y-62745D01*
X81434Y-63579D01*
X83400Y-63594D01*
X83404Y-64150D01*
M02*
