G04 (created by PCBNEW (2013-07-07 BZR 4022)-stable) date 6/24/2016 5:08:50 PM*
%MOIN*%
G04 Gerber Fmt 3.4, Leading zero omitted, Abs format*
%FSLAX34Y34*%
G01*
G70*
G90*
G04 APERTURE LIST*
%ADD10C,0.00590551*%
%ADD11R,0.0354X0.0394*%
%ADD12O,0.11811X0.11811*%
%ADD13R,0.071X0.063*%
%ADD14R,0.0512X0.059*%
%ADD15R,0.0394X0.0354*%
%ADD16R,0.0393701X0.0472441*%
%ADD17R,0.011811X0.0492126*%
%ADD18R,0.0787402X0.11811*%
%ADD19C,0.014*%
%ADD20C,0.02*%
%ADD21C,0.03*%
%ADD22C,0.015*%
%ADD23C,0.045*%
%ADD24C,0.025*%
%ADD25C,0.01*%
%ADD26C,0.02*%
%ADD27C,0.006*%
%ADD28C,0.001*%
G04 APERTURE END LIST*
G54D10*
G54D11*
X89075Y-59133D03*
X88483Y-59133D03*
X93426Y-60860D03*
X92834Y-60860D03*
X93406Y-59055D03*
X92814Y-59055D03*
X93406Y-53740D03*
X92814Y-53740D03*
X81201Y-53740D03*
X80609Y-53740D03*
G54D12*
X82598Y-55019D03*
X82598Y-53248D03*
G54D13*
X82204Y-60237D03*
X82204Y-61337D03*
G54D14*
X83721Y-58976D03*
X82971Y-58976D03*
G54D15*
X82362Y-59666D03*
X82362Y-59074D03*
G54D11*
X84664Y-59094D03*
X85256Y-59094D03*
X90648Y-59566D03*
X91240Y-59566D03*
X90648Y-59055D03*
X91240Y-59055D03*
X89546Y-59133D03*
X90138Y-59133D03*
G54D16*
X80629Y-50866D03*
X80629Y-53070D03*
X81574Y-50866D03*
X81574Y-53070D03*
X92834Y-50866D03*
X92834Y-53070D03*
X93779Y-50866D03*
X93779Y-53070D03*
X92834Y-56181D03*
X92834Y-58385D03*
X93779Y-56181D03*
X93779Y-58385D03*
X92834Y-61496D03*
X92834Y-63700D03*
X93779Y-61496D03*
X93779Y-63700D03*
G54D17*
X90059Y-60118D03*
X89862Y-60118D03*
X89665Y-60118D03*
X89468Y-60118D03*
X89271Y-60118D03*
X89074Y-60118D03*
X88877Y-60118D03*
X88681Y-60118D03*
X88484Y-60118D03*
X88287Y-60118D03*
X88090Y-60118D03*
X87893Y-60118D03*
X87696Y-60118D03*
X87500Y-60118D03*
X87303Y-60118D03*
X87106Y-60118D03*
X86909Y-60118D03*
X86712Y-60118D03*
X86515Y-60118D03*
X86318Y-60118D03*
X86122Y-60118D03*
X85925Y-60118D03*
X85728Y-60118D03*
X85531Y-60118D03*
X85334Y-60118D03*
X85137Y-60118D03*
X84940Y-60118D03*
X84744Y-60118D03*
X84547Y-60118D03*
X84350Y-60118D03*
G54D18*
X90724Y-61033D03*
X83685Y-61033D03*
G54D19*
X87260Y-61390D03*
X87670Y-61380D03*
X87408Y-61193D03*
X87660Y-61060D03*
X87230Y-61110D03*
X88775Y-61000D03*
X89890Y-52870D03*
X87715Y-50945D03*
X88430Y-62200D03*
X87160Y-52400D03*
G54D20*
X82880Y-63190D03*
X82300Y-63210D03*
X84900Y-58190D03*
X84600Y-58190D03*
X90730Y-63200D03*
X90300Y-63460D03*
X90300Y-63060D03*
X90730Y-63450D03*
X90500Y-63230D03*
X90700Y-56530D03*
G54D19*
X90669Y-58740D03*
G54D20*
X81170Y-53060D03*
X93800Y-63130D03*
X93800Y-57870D03*
X93810Y-52530D03*
G54D19*
X89073Y-62066D03*
X86968Y-57007D03*
X91141Y-54566D03*
X84540Y-57340D03*
X84300Y-57220D03*
X84050Y-57120D03*
X83830Y-56980D03*
X87900Y-59705D03*
X86245Y-54610D03*
X90005Y-52045D03*
X88395Y-57885D03*
X87204Y-57637D03*
X87480Y-57637D03*
X87755Y-57637D03*
X87795Y-57874D03*
X87795Y-58149D03*
X88858Y-57992D03*
X89094Y-57952D03*
X89330Y-57913D03*
X87110Y-59715D03*
X89080Y-52730D03*
X82760Y-51210D03*
X83720Y-51410D03*
X88580Y-52420D03*
X87295Y-59565D03*
X88290Y-59710D03*
X86335Y-54435D03*
X85265Y-63540D03*
X92135Y-63535D03*
X91405Y-51570D03*
X87840Y-52270D03*
X82100Y-51920D03*
X88915Y-52200D03*
X89690Y-51840D03*
X87750Y-52630D03*
X82760Y-52230D03*
X87470Y-52370D03*
X86160Y-54350D03*
X89815Y-56980D03*
G54D20*
X90520Y-57900D03*
X90700Y-58160D03*
X89820Y-58090D03*
G54D19*
X88440Y-52980D03*
X89030Y-62280D03*
X92210Y-53595D03*
X89920Y-54110D03*
X82950Y-62735D03*
X89725Y-53405D03*
X87660Y-58930D03*
X81380Y-57935D03*
X81185Y-57980D03*
X87550Y-59200D03*
X81340Y-58435D03*
X83440Y-62895D03*
X87880Y-53060D03*
X81520Y-55870D03*
G54D20*
X81710Y-61680D03*
X81060Y-63259D03*
X80680Y-62950D03*
X80700Y-63380D03*
X81130Y-63810D03*
X80750Y-63850D03*
X81625Y-60215D03*
X81535Y-59785D03*
G54D19*
X89120Y-56250D03*
X88460Y-55380D03*
X86680Y-55450D03*
X90175Y-55480D03*
X88440Y-53750D03*
X92805Y-52290D03*
X92665Y-54165D03*
G54D20*
X85170Y-59610D03*
G54D19*
X82970Y-51560D03*
X86460Y-52810D03*
X82770Y-53190D03*
X82360Y-53210D03*
X82390Y-52920D03*
X82390Y-53570D03*
X82780Y-53580D03*
X82760Y-52880D03*
G54D20*
X81600Y-53750D03*
X85050Y-59410D03*
X91090Y-56970D03*
G54D19*
X90157Y-58740D03*
G54D20*
X93810Y-53730D03*
X93850Y-60850D03*
X93830Y-59060D03*
X82460Y-52020D03*
X83730Y-53100D03*
X85010Y-50680D03*
X81160Y-51630D03*
G54D19*
X90354Y-60118D03*
X87440Y-63130D03*
X87680Y-63490D03*
X89640Y-62560D03*
X89360Y-62750D03*
X89580Y-62720D03*
X89150Y-62730D03*
X89560Y-62320D03*
X89710Y-62150D03*
X89570Y-61990D03*
X90413Y-62421D03*
X86045Y-54595D03*
X85944Y-55393D03*
X84881Y-53622D03*
X84251Y-52992D03*
X84921Y-56023D03*
X84527Y-56023D03*
X86535Y-57874D03*
X91614Y-54133D03*
X90236Y-52913D03*
X83149Y-59842D03*
X83010Y-59670D03*
X91653Y-59566D03*
X89055Y-58740D03*
X82060Y-56780D03*
X83858Y-59566D03*
X84055Y-59448D03*
X81670Y-57200D03*
X81670Y-56760D03*
X81270Y-56780D03*
X80584Y-55294D03*
X85780Y-63260D03*
X82460Y-62670D03*
X84700Y-62500D03*
G54D20*
X83035Y-62485D03*
X85400Y-63180D03*
G54D19*
X92590Y-55510D03*
X81875Y-55980D03*
X81970Y-57955D03*
X83010Y-54890D03*
X82740Y-55150D03*
X83030Y-55160D03*
X82710Y-54860D03*
G54D21*
X82204Y-60237D02*
X82767Y-60237D01*
X84797Y-61207D02*
X87260Y-61207D01*
X84160Y-61845D02*
X84797Y-61207D01*
X83200Y-61845D02*
X84160Y-61845D01*
X83070Y-61715D02*
X83200Y-61845D01*
X83070Y-60540D02*
X83070Y-61715D01*
X82767Y-60237D02*
X83070Y-60540D01*
G54D22*
X87260Y-61390D02*
X87260Y-61207D01*
X87230Y-61110D02*
X87280Y-61220D01*
G54D23*
X87260Y-61207D02*
X87358Y-61203D01*
X87358Y-61203D02*
X87238Y-61203D01*
G54D24*
X82204Y-60237D02*
X82204Y-59823D01*
X82204Y-59823D02*
X82362Y-59666D01*
G54D25*
X82362Y-59666D02*
X82578Y-59666D01*
X84547Y-59822D02*
X84547Y-60118D01*
X84488Y-59763D02*
X84547Y-59822D01*
X83385Y-59763D02*
X84488Y-59763D01*
X83070Y-59448D02*
X83385Y-59763D01*
X82795Y-59448D02*
X83070Y-59448D01*
X82578Y-59666D02*
X82795Y-59448D01*
X87696Y-60118D02*
X87500Y-60118D01*
G54D22*
X89330Y-60670D02*
X89105Y-60670D01*
X89105Y-60670D02*
X88775Y-61000D01*
X87696Y-60118D02*
X87696Y-60596D01*
X89468Y-60531D02*
X89468Y-60118D01*
X89330Y-60670D02*
X89468Y-60531D01*
X87770Y-60670D02*
X89330Y-60670D01*
X87696Y-60596D02*
X87770Y-60670D01*
G54D26*
X84600Y-58190D02*
X84900Y-58190D01*
X84664Y-58425D02*
X84900Y-58190D01*
X84664Y-58425D02*
X84664Y-59094D01*
G54D25*
X90648Y-58760D02*
X90669Y-58740D01*
X90648Y-58760D02*
X90648Y-59055D01*
G54D22*
X81574Y-53070D02*
X81180Y-53070D01*
X81180Y-53070D02*
X81170Y-53060D01*
G54D24*
X93779Y-63700D02*
X93779Y-63150D01*
X93779Y-63150D02*
X93800Y-63130D01*
X93779Y-58385D02*
X93779Y-57890D01*
X93779Y-57890D02*
X93800Y-57870D01*
X93779Y-53070D02*
X93779Y-53039D01*
X93779Y-53039D02*
X93810Y-53009D01*
X93810Y-53009D02*
X93810Y-52530D01*
X93480Y-51165D02*
X93779Y-50866D01*
X93480Y-52739D02*
X93480Y-51165D01*
X93779Y-53039D02*
X93480Y-52739D01*
X93779Y-58385D02*
X93695Y-58385D01*
X93470Y-56490D02*
X93779Y-56181D01*
X93470Y-58160D02*
X93470Y-56490D01*
X93695Y-58385D02*
X93470Y-58160D01*
X93779Y-63700D02*
X93779Y-63469D01*
X93779Y-61750D02*
X93510Y-62020D01*
X93779Y-61750D02*
X93779Y-61496D01*
X93510Y-63200D02*
X93510Y-62020D01*
X93779Y-63469D02*
X93510Y-63200D01*
G54D25*
X84940Y-60118D02*
X84940Y-59704D01*
X84664Y-59428D02*
X84664Y-59094D01*
X84940Y-59704D02*
X84664Y-59428D01*
X90648Y-59055D02*
X90648Y-59566D01*
X89468Y-60118D02*
X89468Y-59822D01*
X89724Y-59566D02*
X90648Y-59566D01*
X89468Y-59822D02*
X89724Y-59566D01*
G54D27*
X87893Y-59711D02*
X87893Y-60118D01*
X87900Y-59705D02*
X87893Y-59711D01*
G54D25*
X88090Y-60118D02*
X88090Y-58189D01*
X88090Y-58189D02*
X88395Y-57885D01*
X86909Y-57933D02*
X86909Y-60118D01*
X87204Y-57637D02*
X86909Y-57933D01*
X86712Y-57854D02*
X86712Y-60118D01*
X87165Y-57401D02*
X86712Y-57854D01*
X87440Y-57401D02*
X87165Y-57401D01*
X87480Y-57362D02*
X87440Y-57401D01*
X87480Y-57637D02*
X87480Y-57362D01*
X86515Y-58129D02*
X86515Y-60118D01*
X86338Y-57952D02*
X86515Y-58129D01*
X86338Y-57795D02*
X86338Y-57952D01*
X86929Y-57204D02*
X86338Y-57795D01*
X87559Y-57204D02*
X86929Y-57204D01*
X87716Y-57362D02*
X87559Y-57204D01*
X87716Y-57598D02*
X87716Y-57362D01*
X87755Y-57637D02*
X87716Y-57598D01*
X86318Y-58208D02*
X86318Y-60118D01*
X86141Y-58031D02*
X86318Y-58208D01*
X86141Y-57519D02*
X86141Y-58031D01*
X86850Y-56811D02*
X86141Y-57519D01*
X87480Y-56811D02*
X86850Y-56811D01*
X87952Y-57283D02*
X87480Y-56811D01*
X87952Y-57716D02*
X87952Y-57283D01*
X87795Y-57874D02*
X87952Y-57716D01*
X86122Y-58248D02*
X86122Y-60118D01*
X85944Y-58070D02*
X86122Y-58248D01*
X85944Y-57440D02*
X85944Y-58070D01*
X86771Y-56614D02*
X85944Y-57440D01*
X87519Y-56614D02*
X86771Y-56614D01*
X88149Y-57244D02*
X87519Y-56614D01*
X88149Y-57795D02*
X88149Y-57244D01*
X87795Y-58149D02*
X88149Y-57795D01*
X85925Y-60118D02*
X85925Y-58287D01*
X88385Y-57519D02*
X88858Y-57992D01*
X88385Y-57204D02*
X88385Y-57519D01*
X87598Y-56417D02*
X88385Y-57204D01*
X86692Y-56417D02*
X87598Y-56417D01*
X85748Y-57362D02*
X86692Y-56417D01*
X85748Y-58110D02*
X85748Y-57362D01*
X85925Y-58287D02*
X85748Y-58110D01*
X85728Y-60118D02*
X85728Y-58366D01*
X88622Y-57480D02*
X89094Y-57952D01*
X88622Y-57125D02*
X88622Y-57480D01*
X87716Y-56220D02*
X88622Y-57125D01*
X86614Y-56220D02*
X87716Y-56220D01*
X85551Y-57283D02*
X86614Y-56220D01*
X85551Y-58188D02*
X85551Y-57283D01*
X85728Y-58366D02*
X85551Y-58188D01*
X85531Y-60118D02*
X85531Y-59849D01*
X88818Y-57401D02*
X89330Y-57913D01*
X88818Y-57047D02*
X88818Y-57401D01*
X87795Y-56023D02*
X88818Y-57047D01*
X86574Y-56023D02*
X87795Y-56023D01*
X85393Y-57204D02*
X86574Y-56023D01*
X85393Y-58307D02*
X85393Y-57204D01*
X85551Y-58464D02*
X85393Y-58307D01*
X85551Y-59830D02*
X85551Y-58464D01*
X85531Y-59849D02*
X85551Y-59830D01*
G54D27*
X87106Y-59718D02*
X87106Y-60118D01*
X87110Y-59715D02*
X87106Y-59718D01*
G54D25*
X88770Y-52340D02*
X88770Y-52420D01*
X88770Y-52420D02*
X89080Y-52730D01*
X88770Y-52340D02*
X87850Y-51420D01*
X87850Y-51420D02*
X84010Y-51420D01*
X84010Y-51420D02*
X83800Y-51210D01*
X83800Y-51210D02*
X82760Y-51210D01*
X83900Y-51590D02*
X83720Y-51410D01*
X87750Y-51590D02*
X83900Y-51590D01*
X88580Y-52420D02*
X87750Y-51590D01*
G54D27*
X87303Y-60118D02*
X87303Y-59573D01*
X87303Y-59573D02*
X87295Y-59565D01*
X88287Y-59712D02*
X88287Y-60118D01*
X88290Y-59710D02*
X88287Y-59712D01*
G54D25*
X85545Y-63820D02*
X85265Y-63540D01*
X91850Y-63820D02*
X85545Y-63820D01*
X92135Y-63535D02*
X91850Y-63820D01*
X87840Y-52270D02*
X88025Y-52270D01*
X90505Y-52470D02*
X91405Y-51570D01*
X89660Y-52470D02*
X90505Y-52470D01*
X89170Y-52960D02*
X89660Y-52470D01*
X88980Y-52960D02*
X89170Y-52960D01*
X88620Y-52600D02*
X88980Y-52960D01*
X88355Y-52600D02*
X88620Y-52600D01*
X88025Y-52270D02*
X88355Y-52600D01*
X87350Y-51780D02*
X87840Y-52270D01*
X82240Y-51780D02*
X87350Y-51780D01*
X82100Y-51920D02*
X82240Y-51780D01*
X89330Y-52200D02*
X88915Y-52200D01*
X89690Y-51840D02*
X89330Y-52200D01*
X87650Y-52530D02*
X87750Y-52630D01*
X87650Y-52300D02*
X87650Y-52530D01*
X87320Y-51970D02*
X87650Y-52300D01*
X83020Y-51970D02*
X87320Y-51970D01*
X82760Y-52230D02*
X83020Y-51970D01*
X87470Y-53040D02*
X87470Y-52370D01*
X86160Y-54350D02*
X87470Y-53040D01*
G54D27*
X80760Y-53890D02*
X80609Y-53740D01*
X80760Y-55400D02*
X80760Y-53890D01*
X81390Y-56030D02*
X80760Y-55400D01*
X81580Y-56030D02*
X81390Y-56030D01*
X81835Y-55775D02*
X81580Y-56030D01*
X82020Y-55775D02*
X81835Y-55775D01*
X82215Y-55970D02*
X82020Y-55775D01*
X83150Y-55970D02*
X82215Y-55970D01*
X83335Y-55785D02*
X83150Y-55970D01*
X85980Y-55785D02*
X83335Y-55785D01*
X87465Y-54300D02*
X85980Y-55785D01*
X89990Y-54300D02*
X87465Y-54300D01*
X90115Y-54175D02*
X89990Y-54300D01*
X90115Y-54040D02*
X90115Y-54175D01*
X89555Y-53480D02*
X90115Y-54040D01*
X89555Y-53340D02*
X89555Y-53480D01*
X89695Y-53200D02*
X89555Y-53340D01*
X89770Y-53200D02*
X89695Y-53200D01*
X90575Y-54005D02*
X89770Y-53200D01*
X90575Y-54475D02*
X90575Y-54005D01*
X89980Y-55070D02*
X90575Y-54475D01*
X89980Y-56815D02*
X89980Y-55070D01*
X89815Y-56980D02*
X89980Y-56815D01*
G54D22*
X80629Y-53070D02*
X80629Y-53719D01*
X80629Y-53719D02*
X80609Y-53740D01*
X80629Y-50866D02*
X80629Y-51489D01*
X80629Y-52630D02*
X80629Y-53070D01*
X80950Y-52310D02*
X80629Y-52630D01*
X80950Y-51810D02*
X80950Y-52310D01*
X80629Y-51489D02*
X80950Y-51810D01*
G54D25*
X92330Y-56075D02*
X92895Y-55510D01*
X92895Y-53820D02*
X92814Y-53740D01*
X92895Y-55510D02*
X92895Y-53820D01*
X92330Y-56090D02*
X92330Y-56075D01*
X90520Y-57900D02*
X92330Y-56090D01*
G54D24*
X92834Y-50866D02*
X92834Y-50974D01*
X93160Y-52745D02*
X92834Y-53070D01*
X93160Y-51300D02*
X93160Y-52745D01*
X92834Y-50974D02*
X93160Y-51300D01*
X92834Y-53070D02*
X92834Y-53719D01*
X92834Y-53719D02*
X92814Y-53740D01*
G54D25*
X92685Y-58385D02*
X92834Y-58385D01*
X92460Y-58160D02*
X92685Y-58385D01*
X90700Y-58160D02*
X92460Y-58160D01*
G54D24*
X92834Y-56181D02*
X92851Y-56181D01*
X93150Y-58070D02*
X92834Y-58385D01*
X93150Y-56480D02*
X93150Y-58070D01*
X92851Y-56181D02*
X93150Y-56480D01*
X92834Y-58385D02*
X92834Y-59034D01*
X92834Y-59034D02*
X92814Y-59055D01*
G54D25*
X92834Y-59844D02*
X92834Y-60860D01*
X91400Y-58410D02*
X92834Y-59844D01*
X90140Y-58410D02*
X91400Y-58410D01*
X89820Y-58090D02*
X90140Y-58410D01*
G54D24*
X92834Y-63700D02*
X92834Y-63555D01*
X93160Y-61821D02*
X92834Y-61496D01*
X93160Y-63230D02*
X93160Y-61821D01*
X92834Y-63555D02*
X93160Y-63230D01*
X92834Y-60860D02*
X92834Y-61495D01*
X92834Y-61495D02*
X92834Y-61496D01*
G54D25*
X89585Y-57975D02*
X89585Y-57745D01*
X89585Y-57745D02*
X89830Y-57500D01*
X90887Y-54097D02*
X90887Y-56377D01*
X90105Y-57500D02*
X89830Y-57500D01*
X90945Y-56660D02*
X90105Y-57500D01*
X90945Y-56435D02*
X90945Y-56660D01*
X90887Y-56377D02*
X90945Y-56435D01*
X88825Y-53365D02*
X88440Y-52980D01*
X89300Y-53365D02*
X88825Y-53365D01*
X89630Y-53035D02*
X89300Y-53365D01*
X89825Y-53035D02*
X89630Y-53035D01*
X90887Y-54097D02*
X89825Y-53035D01*
X89585Y-58195D02*
X89585Y-57975D01*
X89955Y-58565D02*
X89585Y-58195D01*
X91285Y-58565D02*
X89955Y-58565D01*
X91880Y-59160D02*
X91285Y-58565D01*
X91880Y-61170D02*
X91880Y-59160D01*
X91270Y-61780D02*
X91880Y-61170D01*
X89500Y-61780D02*
X91270Y-61780D01*
X89390Y-61890D02*
X89500Y-61780D01*
X89390Y-62210D02*
X89390Y-61890D01*
X89320Y-62280D02*
X89390Y-62210D01*
X89030Y-62280D02*
X89320Y-62280D01*
X91310Y-52695D02*
X92210Y-53595D01*
X89690Y-52695D02*
X91310Y-52695D01*
X89200Y-53185D02*
X89690Y-52695D01*
X88945Y-53185D02*
X89200Y-53185D01*
X88520Y-52760D02*
X88945Y-53185D01*
X88340Y-52760D02*
X88520Y-52760D01*
X88235Y-52865D02*
X88340Y-52760D01*
X88235Y-53050D02*
X88235Y-52865D01*
X88735Y-53550D02*
X88235Y-53050D01*
X89360Y-53550D02*
X88735Y-53550D01*
X89920Y-54110D02*
X89360Y-53550D01*
X89725Y-53405D02*
X90400Y-54080D01*
X90235Y-54500D02*
X89825Y-54500D01*
X90400Y-54335D02*
X90235Y-54500D01*
X90400Y-54080D02*
X90400Y-54335D01*
X87886Y-54500D02*
X89825Y-54500D01*
X84151Y-58235D02*
X87886Y-54500D01*
X81175Y-58235D02*
X84151Y-58235D01*
X80900Y-58510D02*
X81175Y-58235D01*
X80900Y-62150D02*
X80900Y-58510D01*
X82190Y-63440D02*
X80900Y-62150D01*
X83220Y-63440D02*
X82190Y-63440D01*
X83680Y-62980D02*
X83220Y-63440D01*
X83680Y-62790D02*
X83680Y-62980D01*
X83560Y-62670D02*
X83680Y-62790D01*
X83345Y-62670D02*
X83560Y-62670D01*
X83305Y-62710D02*
X83345Y-62670D01*
X82975Y-62710D02*
X83305Y-62710D01*
X82950Y-62735D02*
X82975Y-62710D01*
X81340Y-59095D02*
X81340Y-58435D01*
X81135Y-59300D02*
X81340Y-59095D01*
X81135Y-61655D02*
X81135Y-59300D01*
X82390Y-62910D02*
X81135Y-61655D01*
X83425Y-62910D02*
X82390Y-62910D01*
X83440Y-62895D02*
X83425Y-62910D01*
X81520Y-55870D02*
X81520Y-55625D01*
X81695Y-55450D02*
X81940Y-55450D01*
X81520Y-55625D02*
X81695Y-55450D01*
X82450Y-55800D02*
X82330Y-55800D01*
X81980Y-55450D02*
X81940Y-55450D01*
X82330Y-55800D02*
X81980Y-55450D01*
X87680Y-53260D02*
X87880Y-53060D01*
X87680Y-53460D02*
X87680Y-53260D01*
X86250Y-54890D02*
X87680Y-53460D01*
X83970Y-54890D02*
X86250Y-54890D01*
X83060Y-55800D02*
X83970Y-54890D01*
X82450Y-55800D02*
X83060Y-55800D01*
G54D24*
X82204Y-61337D02*
X81360Y-61337D01*
G54D26*
X81360Y-61337D02*
X81376Y-61337D01*
X81376Y-61337D02*
X81345Y-61305D01*
X81345Y-60495D02*
X81625Y-60215D01*
X81345Y-61305D02*
X81345Y-60495D01*
X82362Y-59074D02*
X81713Y-59074D01*
X81713Y-59074D02*
X81377Y-59409D01*
X81377Y-59409D02*
X81377Y-59627D01*
X81377Y-59627D02*
X81535Y-59785D01*
G54D22*
X82711Y-53248D02*
X82598Y-53248D01*
X82770Y-53190D02*
X82711Y-53248D01*
X82360Y-53210D02*
X82598Y-53248D01*
X82390Y-52920D02*
X82598Y-53248D01*
X82390Y-53570D02*
X82598Y-53248D01*
X82780Y-53580D02*
X82598Y-53248D01*
X82760Y-52880D02*
X82598Y-53248D01*
X81590Y-53740D02*
X81600Y-53750D01*
X81590Y-53740D02*
X81201Y-53740D01*
G54D26*
X85170Y-59610D02*
X85170Y-59530D01*
X85256Y-59523D02*
X85170Y-59610D01*
X85256Y-59094D02*
X85256Y-59523D01*
X85170Y-59530D02*
X85050Y-59410D01*
G54D25*
X90138Y-58759D02*
X90157Y-58740D01*
X90138Y-59133D02*
X90138Y-58759D01*
G54D24*
X93406Y-53740D02*
X93799Y-53740D01*
X93799Y-53740D02*
X93810Y-53730D01*
X93426Y-60860D02*
X93840Y-60860D01*
X93840Y-60860D02*
X93850Y-60850D01*
X93406Y-59055D02*
X93825Y-59055D01*
X93825Y-59055D02*
X93830Y-59060D01*
G54D25*
X90354Y-60118D02*
X90059Y-60118D01*
G54D22*
X83010Y-59670D02*
X83010Y-59702D01*
X83010Y-59702D02*
X83149Y-59842D01*
X84350Y-60118D02*
X83458Y-60118D01*
X83458Y-60118D02*
X83010Y-59670D01*
G54D24*
X81376Y-61337D02*
X81377Y-61336D01*
X81377Y-61336D02*
X81377Y-59409D01*
X81713Y-59074D02*
X81377Y-59409D01*
X82362Y-59074D02*
X82873Y-59074D01*
X82873Y-59074D02*
X82971Y-58976D01*
G54D25*
X82873Y-59074D02*
X82971Y-58976D01*
X89665Y-60118D02*
X89665Y-59862D01*
X89665Y-59862D02*
X89803Y-59724D01*
X89803Y-59724D02*
X90000Y-59724D01*
X90000Y-59724D02*
X90059Y-59783D01*
X90059Y-59783D02*
X90059Y-60118D01*
X91240Y-59566D02*
X91653Y-59566D01*
X91240Y-59055D02*
X91240Y-59566D01*
X89075Y-59133D02*
X89075Y-58760D01*
X89075Y-58760D02*
X89055Y-58740D01*
X85400Y-63180D02*
X85400Y-62915D01*
X83410Y-62110D02*
X83035Y-62485D01*
X84595Y-62110D02*
X83410Y-62110D01*
X85400Y-62915D02*
X84595Y-62110D01*
X88483Y-59133D02*
X88483Y-60117D01*
X88483Y-60117D02*
X88484Y-60118D01*
X89271Y-60118D02*
X89271Y-59744D01*
X89546Y-59469D02*
X89546Y-59133D01*
X89271Y-59744D02*
X89546Y-59469D01*
X84744Y-60118D02*
X84744Y-59784D01*
X83826Y-58976D02*
X83721Y-58976D01*
X84440Y-59590D02*
X83826Y-58976D01*
X84550Y-59590D02*
X84440Y-59590D01*
X84744Y-59784D02*
X84550Y-59590D01*
X83360Y-54258D02*
X82598Y-55019D01*
X83360Y-52860D02*
X83360Y-54258D01*
X82960Y-52460D02*
X83360Y-52860D01*
X81520Y-52460D02*
X82960Y-52460D01*
X81240Y-52180D02*
X81520Y-52460D01*
X81240Y-51870D02*
X81240Y-52180D01*
X82190Y-50920D02*
X81240Y-51870D01*
X83930Y-50920D02*
X82190Y-50920D01*
X84190Y-51180D02*
X83930Y-50920D01*
X91860Y-51180D02*
X84190Y-51180D01*
X92440Y-51760D02*
X91860Y-51180D01*
X92440Y-55360D02*
X92440Y-51760D01*
X92590Y-55510D02*
X92440Y-55360D01*
G54D27*
X81880Y-55985D02*
X81875Y-55980D01*
X81880Y-57865D02*
X81880Y-55985D01*
X81970Y-57955D02*
X81880Y-57865D01*
G54D22*
X83010Y-54890D02*
X82900Y-55045D01*
X82740Y-55150D02*
X82900Y-55045D01*
X83030Y-55160D02*
X82900Y-55045D01*
X82710Y-54860D02*
X82900Y-55045D01*
G54D10*
G36*
X88375Y-62033D02*
X88331Y-62051D01*
X88307Y-62075D01*
X87134Y-62075D01*
X87125Y-60965D01*
X88375Y-60984D01*
X88375Y-62033D01*
X88375Y-62033D01*
G37*
G54D28*
X88375Y-62033D02*
X88331Y-62051D01*
X88307Y-62075D01*
X87134Y-62075D01*
X87125Y-60965D01*
X88375Y-60984D01*
X88375Y-62033D01*
M02*
