solid Jig
facet normal -0.0 -1.0 -0.0
  outer loop
    vertex 1.4960629921259843 -0.11811023622047245 0.0
    vertex 0.9645669291338583 -0.11811023622047134 0.11811023622047262
    vertex -0.11811023622047245 -0.11811023622047245 0.0
  endloop
endfacet
facet normal -0.0 -1.0 -0.0
  outer loop
    vertex 0.9645669291338583 -0.11811023622047134 0.11811023622047262
    vertex 1.4960629921259843 -0.11811023622047245 0.0
    vertex 1.4960629921259843 -0.11811023622047251 0.814842519685039
  endloop
endfacet
facet normal -0.0 -1.0 -0.0
  outer loop
    vertex 0.9645669291338583 -0.11811023622047134 0.11811023622047262
    vertex 1.4960629921259843 -0.11811023622047251 0.814842519685039
    vertex 0.9645669291338583 -0.11811023622047251 0.8148425196850391
  endloop
endfacet
facet normal -0.0 -1.0 -0.0
  outer loop
    vertex -0.11811023622047245 -0.11811023622047245 0.0
    vertex 0.4133858267716535 -0.11811023622047134 0.11811023622047262
    vertex -0.11811023622047245 -0.11811023622047251 0.814842519685039
  endloop
endfacet
facet normal -0.0 -1.0 -0.0
  outer loop
    vertex 0.4133858267716535 -0.11811023622047134 0.11811023622047262
    vertex -0.11811023622047245 -0.11811023622047245 0.0
    vertex 0.9645669291338583 -0.11811023622047134 0.11811023622047262
  endloop
endfacet
facet normal -0.0 -1.0 -0.0
  outer loop
    vertex -0.11811023622047245 -0.11811023622047251 0.814842519685039
    vertex 0.4133858267716535 -0.11811023622047134 0.11811023622047262
    vertex 0.4133858267716535 -0.11811023622047251 0.814842519685039
  endloop
endfacet
facet normal -1.0 0.0 0.0
  outer loop
    vertex -0.11811023622047244 1.4960629921259843 0.8148425196850393
    vertex -0.11811023622047234 1.3188976377952757 0.17811023622047245
    vertex -0.11811023622047233 1.3188976377952757 0.8148425196850393
  endloop
endfacet
facet normal -1.0 0.0 0.0
  outer loop
    vertex -0.11811023622047245 0.05905511811023616 0.814842519685039
    vertex -0.11811023622047245 -0.11811023622047245 0.0
    vertex -0.11811023622047245 -0.11811023622047251 0.814842519685039
  endloop
endfacet
facet normal -1.0 0.0 0.0
  outer loop
    vertex -0.11811023622047245 -0.11811023622047245 0.0
    vertex -0.11811023622047245 0.05905511811023616 0.814842519685039
    vertex -0.11811023622047245 0.05905511811023621 0.17811023622047245
  endloop
endfacet
facet normal -1.0 0.0 0.0
  outer loop
    vertex -0.11811023622047245 -0.11811023622047245 0.0
    vertex -0.11811023622047245 0.05905511811023621 0.17811023622047245
    vertex -0.11811023622047245 1.4960629921259843 0.0
  endloop
endfacet
facet normal -1.0 0.0 0.0
  outer loop
    vertex -0.11811023622047245 1.4960629921259843 0.0
    vertex -0.11811023622047245 0.05905511811023621 0.17811023622047245
    vertex -0.11811023622047234 1.3188976377952757 0.17811023622047245
  endloop
endfacet
facet normal -1.0 0.0 0.0
  outer loop
    vertex -0.11811023622047245 1.4960629921259843 0.0
    vertex -0.11811023622047234 1.3188976377952757 0.17811023622047245
    vertex -0.11811023622047244 1.4960629921259843 0.8148425196850393
  endloop
endfacet
facet normal -0.0 1.0 0.0
  outer loop
    vertex -0.11811023622047245 1.4960629921259843 0.0
    vertex 0.4133858267716535 1.4960629921259843 0.11811023622047256
    vertex 1.4960629921259843 1.4960629921259843 0.0
  endloop
endfacet
facet normal -0.0 1.0 0.0
  outer loop
    vertex 0.4133858267716535 1.4960629921259843 0.11811023622047256
    vertex -0.11811023622047245 1.4960629921259843 0.0
    vertex -0.11811023622047244 1.4960629921259843 0.8148425196850393
  endloop
endfacet
facet normal -0.0 1.0 0.0
  outer loop
    vertex 0.4133858267716535 1.4960629921259843 0.11811023622047256
    vertex -0.11811023622047244 1.4960629921259843 0.8148425196850393
    vertex 0.4133858267716535 1.4960629921259843 0.8148425196850393
  endloop
endfacet
facet normal -0.0 1.0 0.0
  outer loop
    vertex 1.4960629921259843 1.4960629921259843 0.0
    vertex 0.9645669291338583 1.4960629921259843 0.11811023622047256
    vertex 1.4960629921259843 1.4960629921259843 0.8148425196850393
  endloop
endfacet
facet normal -0.0 1.0 0.0
  outer loop
    vertex 0.9645669291338583 1.4960629921259843 0.11811023622047256
    vertex 1.4960629921259843 1.4960629921259843 0.0
    vertex 0.4133858267716535 1.4960629921259843 0.11811023622047256
  endloop
endfacet
facet normal -0.0 1.0 0.0
  outer loop
    vertex 1.4960629921259843 1.4960629921259843 0.8148425196850393
    vertex 0.9645669291338583 1.4960629921259843 0.11811023622047256
    vertex 0.9645669291338583 1.4960629921259843 0.8148425196850393
  endloop
endfacet
facet normal 1.0 0.0 0.0
  outer loop
    vertex 1.4960629921259843 -0.11811023622047245 0.0
    vertex 1.4960629921259843 0.05905511811023615 0.814842519685039
    vertex 1.4960629921259843 -0.11811023622047251 0.814842519685039
  endloop
endfacet
facet normal 1.0 0.0 0.0
  outer loop
    vertex 1.4960629921259843 0.05905511811023615 0.814842519685039
    vertex 1.4960629921259843 -0.11811023622047245 0.0
    vertex 1.4960629921259843 0.059055118110236206 0.17811023622047245
  endloop
endfacet
facet normal 1.0 0.0 0.0
  outer loop
    vertex 1.4960629921259843 0.059055118110236206 0.17811023622047245
    vertex 1.4960629921259843 -0.11811023622047245 0.0
    vertex 1.4960629921259843 1.4960629921259843 0.0
  endloop
endfacet
facet normal 1.0 0.0 0.0
  outer loop
    vertex 1.4960629921259843 0.059055118110236206 0.17811023622047245
    vertex 1.4960629921259843 1.4960629921259843 0.0
    vertex 1.4960629921259843 1.318897637795273 0.17811023622047245
  endloop
endfacet
facet normal 1.0 0.0 0.0
  outer loop
    vertex 1.4960629921259843 1.318897637795273 0.17811023622047245
    vertex 1.4960629921259843 1.4960629921259843 0.0
    vertex 1.4960629921259843 1.318897637795273 0.8148425196850393
  endloop
endfacet
facet normal 1.0 0.0 0.0
  outer loop
    vertex 1.4960629921259843 1.318897637795273 0.8148425196850393
    vertex 1.4960629921259843 1.4960629921259843 0.0
    vertex 1.4960629921259843 1.4960629921259843 0.8148425196850393
  endloop
endfacet
facet normal 2.819966482547896e-16 2.2030988144905492e-17 1.0
  outer loop
    vertex 1.4960629921259843 0.059055118110236206 0.17811023622047245
    vertex 1.3976377952755905 1.3188976377952728 0.17811023622047245
    vertex 1.3976377952755905 0.059055118110236206 0.1781102362204725
  endloop
endfacet
facet normal 2.819966482547896e-16 2.2030988144905492e-17 1.0
  outer loop
    vertex 1.3976377952755905 1.3188976377952728 0.17811023622047245
    vertex 1.4960629921259843 0.059055118110236206 0.17811023622047245
    vertex 1.4960629921259843 1.318897637795273 0.17811023622047245
  endloop
endfacet
facet normal -8.459899447643694e-16 7.415397893556657e-32 1.0
  outer loop
    vertex -0.01968503937007874 0.05905511811023621 0.17811023622047253
    vertex -0.11811023622047234 1.3188976377952757 0.17811023622047245
    vertex -0.11811023622047245 0.05905511811023621 0.17811023622047245
  endloop
endfacet
facet normal -8.459899447643694e-16 7.415397893556657e-32 1.0
  outer loop
    vertex -0.11811023622047234 1.3188976377952757 0.17811023622047245
    vertex -0.01968503937007874 0.05905511811023621 0.17811023622047253
    vertex -0.01968503937007863 1.3188976377952755 0.17811023622047253
  endloop
endfacet
facet normal -2.0213848689741048e-17 1.0 8.579685118077972e-17
  outer loop
    vertex -0.11811023622047245 0.05905511811023616 0.814842519685039
    vertex -0.01968503937007874 0.05905511811023621 0.17811023622047253
    vertex -0.11811023622047245 0.05905511811023621 0.17811023622047245
  endloop
endfacet
facet normal -2.0213848689741048e-17 1.0 8.579685118077972e-17
  outer loop
    vertex -0.01968503937007874 0.05905511811023621 0.17811023622047253
    vertex -0.11811023622047245 0.05905511811023616 0.814842519685039
    vertex -0.019685039370078795 0.05905511811023618 0.6731102362204725
  endloop
endfacet
facet normal -2.0213848689741048e-17 1.0 8.579685118077972e-17
  outer loop
    vertex -0.019685039370078795 0.05905511811023618 0.6731102362204725
    vertex -0.11811023622047245 0.05905511811023616 0.814842519685039
    vertex -0.01968503937007874 0.059055118110236164 0.7361023622047242
  endloop
endfacet
facet normal -2.0213848689741048e-17 1.0 8.579685118077972e-17
  outer loop
    vertex -0.01968503937007874 0.059055118110236164 0.7361023622047242
    vertex -0.11811023622047245 0.05905511811023616 0.814842519685039
    vertex -0.01968503937007874 0.05905511811023616 0.8148425196850392
  endloop
endfacet
facet normal 3.66574418288404e-17 1.0 8.46796683785236e-17
  outer loop
    vertex 1.3976377952755905 0.059055118110236206 0.1781102362204725
    vertex 1.4960629921259843 0.05905511811023615 0.814842519685039
    vertex 1.4960629921259843 0.059055118110236206 0.17811023622047245
  endloop
endfacet
facet normal 3.66574418288404e-17 1.0 8.46796683785236e-17
  outer loop
    vertex 1.4960629921259843 0.05905511811023615 0.814842519685039
    vertex 1.3976377952755905 0.059055118110236206 0.1781102362204725
    vertex 1.39763779527559 0.05905511811023618 0.6731102362204725
  endloop
endfacet
facet normal 3.66574418288404e-17 1.0 8.46796683785236e-17
  outer loop
    vertex 1.4960629921259843 0.05905511811023615 0.814842519685039
    vertex 1.39763779527559 0.05905511811023618 0.6731102362204725
    vertex 1.3976377952755905 0.05905511811023616 0.7361023622047242
  endloop
endfacet
facet normal 3.66574418288404e-17 1.0 8.46796683785236e-17
  outer loop
    vertex 1.4960629921259843 0.05905511811023615 0.814842519685039
    vertex 1.3976377952755905 0.05905511811023616 0.7361023622047242
    vertex 1.3976377952755905 0.05905511811023615 0.8148425196850392
  endloop
endfacet
facet normal -1.762588353800072e-15 -1.0 6.678186349317258e-17
  outer loop
    vertex -0.01968503937007863 1.3188976377952755 0.17811023622047253
    vertex -0.11811023622047233 1.3188976377952757 0.8148425196850393
    vertex -0.11811023622047234 1.3188976377952757 0.17811023622047245
  endloop
endfacet
facet normal -1.762588353800072e-15 -1.0 6.678186349317258e-17
  outer loop
    vertex -0.11811023622047233 1.3188976377952757 0.8148425196850393
    vertex -0.01968503937007863 1.3188976377952755 0.17811023622047253
    vertex -0.01968503937007874 1.3188976377952755 0.6731102362204725
  endloop
endfacet
facet normal -1.762588353800072e-15 -1.0 6.678186349317258e-17
  outer loop
    vertex -0.11811023622047233 1.3188976377952757 0.8148425196850393
    vertex -0.01968503937007874 1.3188976377952755 0.6731102362204725
    vertex -0.019685039370078726 1.3188976377952757 0.7361023622047245
  endloop
endfacet
facet normal -1.762588353800072e-15 -1.0 6.678186349317258e-17
  outer loop
    vertex -0.11811023622047233 1.3188976377952757 0.8148425196850393
    vertex -0.019685039370078726 1.3188976377952757 0.7361023622047245
    vertex -0.019685039370078608 1.3188976377952755 0.8148425196850394
  endloop
endfacet
facet normal -9.978984566234649e-15 -1.0 1.2303805579844286e-15
  outer loop
    vertex 1.4960629921259843 1.318897637795273 0.8148425196850393
    vertex 1.3976377952755905 1.3188976377952728 0.17811023622047245
    vertex 1.4960629921259843 1.318897637795273 0.17811023622047245
  endloop
endfacet
facet normal -9.978984566234649e-15 -1.0 1.2303805579844286e-15
  outer loop
    vertex 1.3976377952755905 1.3188976377952728 0.17811023622047245
    vertex 1.4960629921259843 1.318897637795273 0.8148425196850393
    vertex 1.3976377952755905 1.3188976377952755 0.6731102362204724
  endloop
endfacet
facet normal -9.978984566234649e-15 -1.0 1.2303805579844286e-15
  outer loop
    vertex 1.3976377952755905 1.3188976377952755 0.6731102362204724
    vertex 1.4960629921259843 1.318897637795273 0.8148425196850393
    vertex 1.3976377952755905 1.3188976377952755 0.7361023622047244
  endloop
endfacet
facet normal -9.978984566234649e-15 -1.0 1.2303805579844286e-15
  outer loop
    vertex 1.3976377952755905 1.3188976377952755 0.7361023622047244
    vertex 1.4960629921259843 1.318897637795273 0.8148425196850393
    vertex 1.3976377952755905 1.3188976377952728 0.8148425196850393
  endloop
endfacet
facet normal -1.0 0.0 0.0
  outer loop
    vertex 1.1811023622047243 -5.144533447891429e-18 0.25685039370078744
    vertex 1.1811023622047243 -0.019685039370078747 0.17811023622047245
    vertex 1.1811023622047243 -0.019685039370078747 0.25685039370078744
  endloop
endfacet
facet normal -1.0 0.0 0.0
  outer loop
    vertex 1.1811023622047243 -0.019685039370078747 0.17811023622047245
    vertex 1.1811023622047243 -5.144533447891429e-18 0.25685039370078744
    vertex 1.1811023622047243 0.05905511811023622 0.17811023622047245
  endloop
endfacet
facet normal -2.0970214493134685e-17 0.8 0.6000000000000001
  outer loop
    vertex 1.1811023622047243 -5.144533447891429e-18 0.25685039370078744
    vertex 1.3976377952755905 0.059055118110236206 0.1781102362204725
    vertex 1.1811023622047243 0.05905511811023622 0.17811023622047245
  endloop
endfacet
facet normal -2.0970214493134685e-17 0.8 0.6000000000000001
  outer loop
    vertex 1.3976377952755905 0.059055118110236206 0.1781102362204725
    vertex 1.1811023622047243 -5.144533447891429e-18 0.25685039370078744
    vertex 1.3976377952755905 -1.016942875045994e-17 0.25685039370078744
  endloop
endfacet
facet normal 8.545352977417871e-17 3.7961087265067846e-16 -1.0
  outer loop
    vertex 1.3976377952755905 0.059055118110236206 0.1781102362204725
    vertex 1.1811023622047243 -0.019685039370078747 0.17811023622047245
    vertex 1.1811023622047243 0.05905511811023622 0.17811023622047245
  endloop
endfacet
facet normal 8.545352977417871e-17 3.7961087265067846e-16 -1.0
  outer loop
    vertex 1.1811023622047243 -0.019685039370078747 0.17811023622047245
    vertex 1.3976377952755905 0.059055118110236206 0.1781102362204725
    vertex 1.3976377952755905 -0.019685039370078747 0.17811023622047245
  endloop
endfacet
facet normal 1.0 -0.0 -0.0
  outer loop
    vertex 0.1968503937007874 0.05905511811023621 0.17811023622047265
    vertex 0.1968503937007874 -0.019685039370078747 0.2568503937007876
    vertex 0.1968503937007874 -0.019685039370078747 0.17811023622047265
  endloop
endfacet
facet normal 1.0 -0.0 -0.0
  outer loop
    vertex 0.1968503937007874 -0.019685039370078747 0.2568503937007876
    vertex 0.1968503937007874 0.05905511811023621 0.17811023622047265
    vertex 0.1968503937007874 -5.144533447891434e-18 0.2568503937007876
  endloop
endfacet
facet normal 1.0 -0.0 -0.0
  outer loop
    vertex 0.1968503937007874 1.3976377952755905 0.17811023622047245
    vertex 0.1968503937007874 1.3779527559055118 0.25685039370078744
    vertex 0.1968503937007874 1.3188976377952757 0.1781102362204725
  endloop
endfacet
facet normal 1.0 -0.0 -0.0
  outer loop
    vertex 0.1968503937007874 1.3779527559055118 0.25685039370078744
    vertex 0.1968503937007874 1.3976377952755905 0.17811023622047245
    vertex 0.1968503937007874 1.3976377952755905 0.25685039370078744
  endloop
endfacet
facet normal -1.0 0.0 0.0
  outer loop
    vertex 1.1811023622047243 1.377952755905509 0.2568503937007883
    vertex 1.1811023622047243 1.3976377952755876 0.1781102362204733
    vertex 1.1811023622047243 1.3188976377952728 0.17811023622047337
  endloop
endfacet
facet normal -1.0 0.0 0.0
  outer loop
    vertex 1.1811023622047243 1.3976377952755876 0.1781102362204733
    vertex 1.1811023622047243 1.377952755905509 0.2568503937007883
    vertex 1.1811023622047243 1.3976377952755876 0.2568503937007883
  endloop
endfacet
facet normal 4.1940428986269426e-16 -0.7999999999999997 0.6000000000000004
  outer loop
    vertex 0.1968503937007874 1.3779527559055118 0.25685039370078744
    vertex -0.01968503937007863 1.3188976377952755 0.17811023622047253
    vertex 0.1968503937007874 1.3188976377952757 0.1781102362204725
  endloop
endfacet
facet normal 4.1940428986269426e-16 -0.7999999999999997 0.6000000000000004
  outer loop
    vertex -0.01968503937007863 1.3188976377952755 0.17811023622047253
    vertex 0.1968503937007874 1.3779527559055118 0.25685039370078744
    vertex -0.01968503937007874 1.3779527559055118 0.25685039370078744
  endloop
endfacet
facet normal -4.2726764887089115e-17 -7.32106682969166e-16 -1.0
  outer loop
    vertex 0.1968503937007874 1.3976377952755905 0.17811023622047245
    vertex -0.01968503937007863 1.3188976377952755 0.17811023622047253
    vertex -0.019685039370078726 1.3976377952755905 0.17811023622047245
  endloop
endfacet
facet normal -4.2726764887089115e-17 -7.32106682969166e-16 -1.0
  outer loop
    vertex -0.01968503937007863 1.3188976377952755 0.17811023622047253
    vertex 0.1968503937007874 1.3976377952755905 0.17811023622047245
    vertex 0.1968503937007874 1.3188976377952757 0.1781102362204725
  endloop
endfacet
facet normal 3.0197108870113537e-15 -0.7999999999999998 0.6000000000000002
  outer loop
    vertex 1.3976377952755905 1.3779527559055098 0.2568503937007883
    vertex 1.1811023622047243 1.3188976377952728 0.17811023622047337
    vertex 1.3976377952755905 1.3188976377952728 0.17811023622047245
  endloop
endfacet
facet normal 3.0197108870113537e-15 -0.7999999999999998 0.6000000000000002
  outer loop
    vertex 1.1811023622047243 1.3188976377952728 0.17811023622047337
    vertex 1.3976377952755905 1.3779527559055098 0.2568503937007883
    vertex 1.1811023622047243 1.377952755905509 0.2568503937007883
  endloop
endfacet
facet normal -1.068169122177265e-15 6.480499897393754e-15 -1.0
  outer loop
    vertex 1.3976377952755905 1.3976377952755892 0.17811023622047342
    vertex 1.1811023622047243 1.3188976377952728 0.17811023622047337
    vertex 1.1811023622047243 1.3976377952755876 0.1781102362204733
  endloop
endfacet
facet normal -1.068169122177265e-15 6.480499897393754e-15 -1.0
  outer loop
    vertex 1.1811023622047243 1.3188976377952728 0.17811023622047337
    vertex 1.3976377952755905 1.3976377952755892 0.17811023622047342
    vertex 1.3976377952755905 1.3188976377952728 0.17811023622047245
  endloop
endfacet
facet normal -1.2582128695880802e-16 0.8000000000000002 0.6
  outer loop
    vertex -0.01968503937007874 -8.354827573809995e-18 0.2568503937007876
    vertex 0.1968503937007874 0.05905511811023621 0.17811023622047265
    vertex -0.01968503937007874 0.05905511811023621 0.17811023622047253
  endloop
endfacet
facet normal -1.2582128695880802e-16 0.8000000000000002 0.6
  outer loop
    vertex 0.1968503937007874 0.05905511811023621 0.17811023622047265
    vertex -0.01968503937007874 -8.354827573809995e-18 0.2568503937007876
    vertex 0.1968503937007874 -5.144533447891434e-18 0.2568503937007876
  endloop
endfacet
facet normal 5.98174708419251e-16 1.8980543632533935e-16 -1.0
  outer loop
    vertex 0.1968503937007874 0.05905511811023621 0.17811023622047265
    vertex -0.01968503937007874 -0.019685039370078747 0.1781102362204725
    vertex -0.01968503937007874 0.05905511811023621 0.17811023622047253
  endloop
endfacet
facet normal 5.98174708419251e-16 1.8980543632533935e-16 -1.0
  outer loop
    vertex -0.01968503937007874 -0.019685039370078747 0.1781102362204725
    vertex 0.1968503937007874 0.05905511811023621 0.17811023622047265
    vertex 0.1968503937007874 -0.019685039370078747 0.17811023622047265
  endloop
endfacet
facet normal -0.0 -0.0 1.0
  outer loop
    vertex -0.01968503937007874 -0.01968503937007879 0.6731102362204725
    vertex 0.4133858267716535 0.05905511811023617 0.6731102362204725
    vertex -0.019685039370078795 0.05905511811023618 0.6731102362204725
  endloop
endfacet
facet normal -0.0 -0.0 1.0
  outer loop
    vertex 0.4133858267716535 0.05905511811023617 0.6731102362204725
    vertex -0.01968503937007874 -0.01968503937007879 0.6731102362204725
    vertex 0.4133858267716535 -0.01968503937007879 0.6731102362204725
  endloop
endfacet
facet normal -3.699749414086808e-18 -0.799999999999999 -0.6000000000000015
  outer loop
    vertex 1.3976377952755905 1.3188976377952755 0.6731102362204724
    vertex 0.9645669291338583 1.3779527559055118 0.5943700787401576
    vertex 1.3976377952755905 1.3779527559055118 0.5943700787401576
  endloop
endfacet
facet normal -3.699749414086808e-18 -0.799999999999999 -0.6000000000000015
  outer loop
    vertex 0.9645669291338583 1.3779527559055118 0.5943700787401576
    vertex 1.3976377952755905 1.3188976377952755 0.6731102362204724
    vertex 0.9645669291338583 1.3188976377952755 0.6731102362204724
  endloop
endfacet
facet normal 2.522835530920188e-16 -7.192745912179536e-16 1.0
  outer loop
    vertex 1.4960629921259843 -0.11811023622047251 0.814842519685039
    vertex 0.9645669291338583 -7.042698657155481e-17 0.8148425196850392
    vertex 0.9645669291338583 -0.11811023622047251 0.8148425196850391
  endloop
endfacet
facet normal 2.522835530920188e-16 -7.192745912179536e-16 1.0
  outer loop
    vertex 0.9645669291338583 -7.042698657155481e-17 0.8148425196850392
    vertex 1.4960629921259843 -0.11811023622047251 0.814842519685039
    vertex 1.3976377952755905 -7.240602339841405e-17 0.8148425196850392
  endloop
endfacet
facet normal 2.522835530920188e-16 -7.192745912179536e-16 1.0
  outer loop
    vertex 1.3976377952755905 -7.240602339841405e-17 0.8148425196850392
    vertex 1.4960629921259843 -0.11811023622047251 0.814842519685039
    vertex 1.3976377952755905 0.05905511811023615 0.8148425196850392
  endloop
endfacet
facet normal 2.522835530920188e-16 -7.192745912179536e-16 1.0
  outer loop
    vertex 1.3976377952755905 0.05905511811023615 0.8148425196850392
    vertex 1.4960629921259843 -0.11811023622047251 0.814842519685039
    vertex 1.4960629921259843 0.05905511811023615 0.814842519685039
  endloop
endfacet
facet normal -0.0 -0.0 1.0
  outer loop
    vertex 1.4960629921259843 1.318897637795273 0.8148425196850393
    vertex 1.3976377952755905 1.3779527559055118 0.8148425196850393
    vertex 1.3976377952755905 1.3188976377952728 0.8148425196850393
  endloop
endfacet
facet normal -0.0 -0.0 1.0
  outer loop
    vertex 1.3976377952755905 1.3779527559055118 0.8148425196850393
    vertex 0.9645669291338583 1.3976377952755905 0.8148425196850393
    vertex 0.9645669291338583 1.3779527559055118 0.8148425196850393
  endloop
endfacet
facet normal -0.0 -0.0 1.0
  outer loop
    vertex 0.9645669291338583 1.3976377952755905 0.8148425196850393
    vertex 1.3976377952755905 1.3779527559055118 0.8148425196850393
    vertex 0.9645669291338583 1.4960629921259843 0.8148425196850393
  endloop
endfacet
facet normal -0.0 -0.0 1.0
  outer loop
    vertex 0.9645669291338583 1.4960629921259843 0.8148425196850393
    vertex 1.3976377952755905 1.3779527559055118 0.8148425196850393
    vertex 1.4960629921259843 1.4960629921259843 0.8148425196850393
  endloop
endfacet
facet normal -0.0 -0.0 1.0
  outer loop
    vertex 1.4960629921259843 1.4960629921259843 0.8148425196850393
    vertex 1.3976377952755905 1.3779527559055118 0.8148425196850393
    vertex 1.4960629921259843 1.318897637795273 0.8148425196850393
  endloop
endfacet
facet normal 0.0 0.0 -1.0
  outer loop
    vertex 0.4133858267716535 0.05905511811023616 0.7361023622047242
    vertex -0.01968503937007874 -0.019685039370078795 0.7361023622047242
    vertex -0.01968503937007874 0.059055118110236164 0.7361023622047242
  endloop
endfacet
facet normal 0.0 0.0 -1.0
  outer loop
    vertex -0.01968503937007874 -0.019685039370078795 0.7361023622047242
    vertex 0.4133858267716535 0.05905511811023616 0.7361023622047242
    vertex 0.4133858267716535 -0.0196850393700788 0.7361023622047242
  endloop
endfacet
facet normal 0.0 0.0 -1.0
  outer loop
    vertex 1.3976377952755905 1.3976377952755905 0.7361023622047244
    vertex 0.9645669291338583 1.3188976377952755 0.7361023622047244
    vertex 0.9645669291338583 1.3976377952755905 0.7361023622047244
  endloop
endfacet
facet normal 0.0 0.0 -1.0
  outer loop
    vertex 0.9645669291338583 1.3188976377952755 0.7361023622047244
    vertex 1.3976377952755905 1.3976377952755905 0.7361023622047244
    vertex 1.3976377952755905 1.3188976377952755 0.7361023622047244
  endloop
endfacet
facet normal 3.699749414086731e-18 -0.7999999999999995 0.6000000000000009
  outer loop
    vertex 1.3976377952755905 1.3779527559055118 0.8148425196850393
    vertex 0.9645669291338583 1.3188976377952755 0.7361023622047244
    vertex 1.3976377952755905 1.3188976377952755 0.7361023622047244
  endloop
endfacet
facet normal 3.699749414086731e-18 -0.7999999999999995 0.6000000000000009
  outer loop
    vertex 0.9645669291338583 1.3188976377952755 0.7361023622047244
    vertex 1.3976377952755905 1.3779527559055118 0.8148425196850393
    vertex 0.9645669291338583 1.3779527559055118 0.8148425196850393
  endloop
endfacet
facet normal 6.62195874857268e-17 8.925824169543723e-17 1.0
  outer loop
    vertex 1.3976377952755905 -0.01968503937007874 0.11811023622047254
    vertex 0.9645669291338583 1.3976377952755905 0.11811023622047256
    vertex 0.9645669291338583 -0.01968503937007762 0.11811023622047284
  endloop
endfacet
facet normal 6.62195874857268e-17 8.925824169543723e-17 1.0
  outer loop
    vertex 0.9645669291338583 1.3976377952755905 0.11811023622047256
    vertex 1.3976377952755905 -0.01968503937007874 0.11811023622047254
    vertex 1.3976377952755905 1.3976377952755905 0.11811023622047243
  endloop
endfacet
facet normal 6.62195874857268e-17 8.925824169543723e-17 1.0
  outer loop
    vertex 0.9645669291338583 -0.11811023622047134 0.11811023622047262
    vertex 0.4133858267716535 -0.019685039370077616 0.11811023622047284
    vertex 0.4133858267716535 -0.11811023622047134 0.11811023622047262
  endloop
endfacet
facet normal 6.62195874857268e-17 8.925824169543723e-17 1.0
  outer loop
    vertex 0.4133858267716535 -0.019685039370077616 0.11811023622047284
    vertex 0.9645669291338583 -0.11811023622047134 0.11811023622047262
    vertex 0.4133858267716535 1.3976377952755905 0.11811023622047256
  endloop
endfacet
facet normal 6.62195874857268e-17 8.925824169543723e-17 1.0
  outer loop
    vertex 0.4133858267716535 1.3976377952755905 0.11811023622047256
    vertex 0.9645669291338583 -0.11811023622047134 0.11811023622047262
    vertex 0.4133858267716535 1.4960629921259843 0.11811023622047256
  endloop
endfacet
facet normal 6.62195874857268e-17 8.925824169543723e-17 1.0
  outer loop
    vertex 0.4133858267716535 1.4960629921259843 0.11811023622047256
    vertex 0.9645669291338583 -0.11811023622047134 0.11811023622047262
    vertex 0.9645669291338583 1.4960629921259843 0.11811023622047256
  endloop
endfacet
facet normal 6.62195874857268e-17 8.925824169543723e-17 1.0
  outer loop
    vertex 0.9645669291338583 1.4960629921259843 0.11811023622047256
    vertex 0.9645669291338583 -0.11811023622047134 0.11811023622047262
    vertex 0.9645669291338583 -0.01968503937007762 0.11811023622047284
  endloop
endfacet
facet normal 6.62195874857268e-17 8.925824169543723e-17 1.0
  outer loop
    vertex 0.9645669291338583 1.4960629921259843 0.11811023622047256
    vertex 0.9645669291338583 -0.01968503937007762 0.11811023622047284
    vertex 0.9645669291338583 1.3976377952755905 0.11811023622047256
  endloop
endfacet
facet normal 6.62195874857268e-17 8.925824169543723e-17 1.0
  outer loop
    vertex 0.4133858267716535 -0.019685039370077616 0.11811023622047284
    vertex 0.2362204724409449 1.3976377952755905 0.11811023622047254
    vertex 0.2362204724409449 -0.01968503937007874 0.11811023622047258
  endloop
endfacet
facet normal 6.62195874857268e-17 8.925824169543723e-17 1.0
  outer loop
    vertex 0.2362204724409449 1.3976377952755905 0.11811023622047254
    vertex 0.4133858267716535 -0.019685039370077616 0.11811023622047284
    vertex 0.4133858267716535 1.3976377952755905 0.11811023622047256
  endloop
endfacet
facet normal 0.0 0.0 -1.0
  outer loop
    vertex -0.11811023622047245 1.4960629921259843 0.0
    vertex -0.01968503937007871 1.3976377952755905 -2.293037121147564e-16
    vertex -0.11811023622047245 -0.11811023622047245 0.0
  endloop
endfacet
facet normal 0.0 0.0 -1.0
  outer loop
    vertex -0.01968503937007871 1.3976377952755905 -2.293037121147564e-16
    vertex -0.11811023622047245 1.4960629921259843 0.0
    vertex 1.4960629921259843 1.4960629921259843 0.0
  endloop
endfacet
facet normal 0.0 0.0 -1.0
  outer loop
    vertex -0.11811023622047245 -0.11811023622047245 0.0
    vertex -0.01968503937007871 1.3976377952755905 -2.293037121147564e-16
    vertex -0.019685039370078723 -0.01968503937007874 -1.964724976397696e-16
  endloop
endfacet
facet normal 0.0 0.0 -1.0
  outer loop
    vertex -0.01968503937007871 1.3976377952755905 -2.293037121147564e-16
    vertex 1.4960629921259843 1.4960629921259843 0.0
    vertex 0.23622047244094493 1.3976377952755905 -2.2900974559460173e-16
  endloop
endfacet
facet normal 0.0 0.0 -1.0
  outer loop
    vertex 0.23622047244094493 1.3976377952755905 -2.2900974559460173e-16
    vertex 1.4960629921259843 1.4960629921259843 0.0
    vertex 0.23622047244094493 -0.01968503937007874 -1.9617853111961493e-16
  endloop
endfacet
facet normal 0.0 0.0 -1.0
  outer loop
    vertex -0.019685039370078723 -0.01968503937007874 -1.964724976397696e-16
    vertex 1.4960629921259843 -0.11811023622047245 0.0
    vertex -0.11811023622047245 -0.11811023622047245 0.0
  endloop
endfacet
facet normal 0.0 0.0 -1.0
  outer loop
    vertex 1.4960629921259843 -0.11811023622047245 0.0
    vertex -0.019685039370078723 -0.01968503937007874 -1.964724976397696e-16
    vertex 0.23622047244094493 -0.01968503937007874 -1.9617853111961493e-16
  endloop
endfacet
facet normal 0.0 0.0 -1.0
  outer loop
    vertex 1.4960629921259843 -0.11811023622047245 0.0
    vertex 0.23622047244094493 -0.01968503937007874 -1.9617853111961493e-16
    vertex 1.4960629921259843 1.4960629921259843 0.0
  endloop
endfacet
facet normal -1.0 -1.4792059082391298e-33 -1.4687325429936968e-16
  outer loop
    vertex 0.2362204724409449 1.3976377952755905 0.11811023622047254
    vertex 0.23622047244094493 -0.01968503937007874 -1.9617853111961493e-16
    vertex 0.2362204724409449 -0.01968503937007874 0.11811023622047258
  endloop
endfacet
facet normal -1.0 -1.4792059082391298e-33 -1.4687325429936968e-16
  outer loop
    vertex 0.23622047244094493 -0.01968503937007874 -1.9617853111961493e-16
    vertex 0.2362204724409449 1.3976377952755905 0.11811023622047254
    vertex 0.23622047244094493 1.3976377952755905 -2.2900974559460173e-16
  endloop
endfacet
facet normal 0.0 -1.0 0.0
  outer loop
    vertex 1.3976377952755905 1.3976377952755905 0.7361023622047244
    vertex 0.9645669291338583 1.3976377952755905 0.6731102362204724
    vertex 1.3976377952755905 1.3976377952755905 0.6731102362204724
  endloop
endfacet
facet normal 0.0 -1.0 0.0
  outer loop
    vertex 0.9645669291338583 1.3976377952755905 0.6731102362204724
    vertex 1.3976377952755905 1.3976377952755905 0.7361023622047244
    vertex 0.9645669291338583 1.3976377952755905 0.7361023622047244
  endloop
endfacet
facet normal -0.0 1.7638123872881275e-15 1.0
  outer loop
    vertex 0.1968503937007874 1.3779527559055118 0.25685039370078744
    vertex -0.019685039370078726 1.3976377952755905 0.25685039370078744
    vertex -0.01968503937007874 1.3779527559055118 0.25685039370078744
  endloop
endfacet
facet normal -0.0 1.7638123872881275e-15 1.0
  outer loop
    vertex -0.019685039370078726 1.3976377952755905 0.25685039370078744
    vertex 0.1968503937007874 1.3779527559055118 0.25685039370078744
    vertex 0.1968503937007874 1.3976377952755905 0.25685039370078744
  endloop
endfacet
facet normal -7.958226901848492e-30 1.7638123872881273e-15 1.0
  outer loop
    vertex 1.3976377952755905 1.3779527559055098 0.2568503937007883
    vertex 1.1811023622047243 1.3976377952755876 0.2568503937007883
    vertex 1.1811023622047243 1.377952755905509 0.2568503937007883
  endloop
endfacet
facet normal -7.958226901848492e-30 1.7638123872881273e-15 1.0
  outer loop
    vertex 1.1811023622047243 1.3976377952755876 0.2568503937007883
    vertex 1.3976377952755905 1.3779527559055098 0.2568503937007883
    vertex 1.3976377952755905 1.3976377952755885 0.2568503937007883
  endloop
endfacet
facet normal 0.0 0.0 -1.0
  outer loop
    vertex 1.3976377952755905 1.3976377952755905 0.5943700787401576
    vertex 0.9645669291338583 1.3779527559055118 0.5943700787401576
    vertex 0.9645669291338583 1.3976377952755905 0.5943700787401576
  endloop
endfacet
facet normal 0.0 0.0 -1.0
  outer loop
    vertex 0.9645669291338583 1.3779527559055118 0.5943700787401576
    vertex 1.3976377952755905 1.3976377952755905 0.5943700787401576
    vertex 1.3976377952755905 1.3779527559055118 0.5943700787401576
  endloop
endfacet
facet normal -1.6460224911149414e-33 -9.598669195879688e-17 1.0
  outer loop
    vertex 1.3976377952755905 -0.019685039370078747 0.25685039370078744
    vertex 1.1811023622047243 -5.144533447891429e-18 0.25685039370078744
    vertex 1.1811023622047243 -0.019685039370078747 0.25685039370078744
  endloop
endfacet
facet normal -1.6460224911149414e-33 -9.598669195879688e-17 1.0
  outer loop
    vertex 1.1811023622047243 -5.144533447891429e-18 0.25685039370078744
    vertex 1.3976377952755905 -0.019685039370078747 0.25685039370078744
    vertex 1.3976377952755905 -1.016942875045994e-17 0.25685039370078744
  endloop
endfacet
facet normal 1.646022491114945e-33 -9.598669195879691e-17 1.0
  outer loop
    vertex 0.1968503937007874 -0.019685039370078747 0.2568503937007876
    vertex -0.01968503937007874 -8.354827573809995e-18 0.2568503937007876
    vertex -0.01968503937007874 -0.019685039370078747 0.2568503937007876
  endloop
endfacet
facet normal 1.646022491114945e-33 -9.598669195879691e-17 1.0
  outer loop
    vertex -0.01968503937007874 -8.354827573809995e-18 0.2568503937007876
    vertex 0.1968503937007874 -0.019685039370078747 0.2568503937007876
    vertex 0.1968503937007874 -5.144533447891434e-18 0.2568503937007876
  endloop
endfacet
facet normal 0.0 0.0 -1.0
  outer loop
    vertex 0.4133858267716535 -4.827413460074682e-17 0.5943700787401576
    vertex -0.019685039370078795 -0.01968503937007879 0.5943700787401576
    vertex -0.019685039370078795 -4.742155040350001e-17 0.5943700787401576
  endloop
endfacet
facet normal 0.0 0.0 -1.0
  outer loop
    vertex -0.019685039370078795 -0.01968503937007879 0.5943700787401576
    vertex 0.4133858267716535 -4.827413460074682e-17 0.5943700787401576
    vertex 0.4133858267716535 -0.01968503937007879 0.5943700787401576
  endloop
endfacet
facet normal 1.0 -3.127236817505021e-17 2.4601906237063634e-17
  outer loop
    vertex -0.019685039370078723 -0.01968503937007874 -1.964724976397696e-16
    vertex -0.01968503937007874 0.05905511811023621 0.17811023622047253
    vertex -0.01968503937007874 -0.019685039370078747 0.1781102362204725
  endloop
endfacet
facet normal 1.0 -3.127236817505021e-17 2.4601906237063634e-17
  outer loop
    vertex -0.01968503937007874 0.05905511811023621 0.17811023622047253
    vertex -0.019685039370078723 -0.01968503937007874 -1.964724976397696e-16
    vertex -0.01968503937007871 1.3976377952755905 -2.293037121147564e-16
  endloop
endfacet
facet normal 1.0 -3.127236817505021e-17 2.4601906237063634e-17
  outer loop
    vertex -0.01968503937007874 0.05905511811023621 0.17811023622047253
    vertex -0.01968503937007871 1.3976377952755905 -2.293037121147564e-16
    vertex -0.01968503937007863 1.3188976377952755 0.17811023622047253
  endloop
endfacet
facet normal 1.0 -3.127236817505021e-17 2.4601906237063634e-17
  outer loop
    vertex -0.01968503937007863 1.3188976377952755 0.17811023622047253
    vertex -0.01968503937007871 1.3976377952755905 -2.293037121147564e-16
    vertex -0.019685039370078726 1.3976377952755905 0.17811023622047245
  endloop
endfacet
facet normal 1.0 -3.127236817505021e-17 2.4601906237063634e-17
  outer loop
    vertex -0.01968503937007874 -0.019685039370078747 0.2568503937007876
    vertex -0.019685039370078795 -4.742155040350001e-17 0.5943700787401576
    vertex -0.019685039370078795 -0.01968503937007879 0.5943700787401576
  endloop
endfacet
facet normal 1.0 -3.127236817505021e-17 2.4601906237063634e-17
  outer loop
    vertex -0.019685039370078795 -4.742155040350001e-17 0.5943700787401576
    vertex -0.01968503937007874 -0.019685039370078747 0.2568503937007876
    vertex -0.01968503937007874 -8.354827573809995e-18 0.2568503937007876
  endloop
endfacet
facet normal 1.0 -3.127236817505021e-17 2.4601906237063634e-17
  outer loop
    vertex -0.019685039370078795 -4.742155040350001e-17 0.5943700787401576
    vertex -0.01968503937007874 -8.354827573809995e-18 0.2568503937007876
    vertex -0.019685039370078795 0.05905511811023618 0.6731102362204725
  endloop
endfacet
facet normal 1.0 -3.127236817505021e-17 2.4601906237063634e-17
  outer loop
    vertex -0.019685039370078795 0.05905511811023618 0.6731102362204725
    vertex -0.01968503937007874 -8.354827573809995e-18 0.2568503937007876
    vertex -0.01968503937007874 0.05905511811023621 0.17811023622047253
  endloop
endfacet
facet normal 1.0 -3.127236817505021e-17 2.4601906237063634e-17
  outer loop
    vertex -0.01968503937007874 -0.01968503937007879 0.6731102362204725
    vertex -0.01968503937007874 0.059055118110236164 0.7361023622047242
    vertex -0.01968503937007874 -0.019685039370078795 0.7361023622047242
  endloop
endfacet
facet normal 1.0 -3.127236817505021e-17 2.4601906237063634e-17
  outer loop
    vertex -0.01968503937007874 0.059055118110236164 0.7361023622047242
    vertex -0.01968503937007874 -0.01968503937007879 0.6731102362204725
    vertex -0.019685039370078795 0.05905511811023618 0.6731102362204725
  endloop
endfacet
facet normal 1.0 -3.127236817505021e-17 2.4601906237063634e-17
  outer loop
    vertex -0.01968503937007874 0.059055118110236164 0.7361023622047242
    vertex -0.01968503937007874 0.05905511811023616 0.8148425196850392
    vertex -0.01968503937007874 -7.059142222176408e-17 0.8148425196850392
  endloop
endfacet
facet normal 1.0 -3.127236817505021e-17 2.4601906237063634e-17
  outer loop
    vertex -0.01968503937007874 1.3779527559055118 0.25685039370078744
    vertex -0.01968503937007874 1.3188976377952755 0.6731102362204725
    vertex -0.01968503937007863 1.3188976377952755 0.17811023622047253
  endloop
endfacet
facet normal 1.0 -3.127236817505021e-17 2.4601906237063634e-17
  outer loop
    vertex -0.01968503937007874 1.3188976377952755 0.6731102362204725
    vertex -0.01968503937007874 1.3779527559055118 0.25685039370078744
    vertex -0.01968503937007874 1.3779527559055118 0.5943700787401576
  endloop
endfacet
facet normal 1.0 -3.127236817505021e-17 2.4601906237063634e-17
  outer loop
    vertex -0.01968503937007874 1.3779527559055118 0.5943700787401576
    vertex -0.01968503937007874 1.3779527559055118 0.25685039370078744
    vertex -0.019685039370078726 1.3976377952755905 0.25685039370078744
  endloop
endfacet
facet normal 1.0 -3.127236817505021e-17 2.4601906237063634e-17
  outer loop
    vertex -0.01968503937007874 1.3779527559055118 0.5943700787401576
    vertex -0.019685039370078726 1.3976377952755905 0.25685039370078744
    vertex -0.019685039370078726 1.3976377952755905 0.5943700787401576
  endloop
endfacet
facet normal 1.0 -3.127236817505021e-17 2.4601906237063634e-17
  outer loop
    vertex -0.019685039370078712 1.3976377952755905 0.6731102362204725
    vertex -0.019685039370078726 1.3188976377952757 0.7361023622047245
    vertex -0.01968503937007874 1.3188976377952755 0.6731102362204725
  endloop
endfacet
facet normal 1.0 -3.127236817505021e-17 2.4601906237063634e-17
  outer loop
    vertex -0.019685039370078726 1.3188976377952757 0.7361023622047245
    vertex -0.019685039370078712 1.3976377952755905 0.6731102362204725
    vertex -0.019685039370078712 1.3976377952755905 0.7361023622047245
  endloop
endfacet
facet normal 1.0 -3.127236817505021e-17 2.4601906237063634e-17
  outer loop
    vertex -0.01968503937007872 1.3779527559055118 0.8148425196850394
    vertex -0.019685039370078608 1.3188976377952755 0.8148425196850394
    vertex -0.019685039370078726 1.3188976377952757 0.7361023622047245
  endloop
endfacet
facet normal -1.0 7.67376486885641e-17 -1.0817809313055257e-16
  outer loop
    vertex 1.3976377952755905 0.059055118110236206 0.1781102362204725
    vertex 1.3976377952755905 -0.01968503937007874 0.11811023622047254
    vertex 1.3976377952755905 -0.019685039370078747 0.17811023622047245
  endloop
endfacet
facet normal -1.0 7.67376486885641e-17 -1.0817809313055257e-16
  outer loop
    vertex 1.3976377952755905 -0.01968503937007874 0.11811023622047254
    vertex 1.3976377952755905 0.059055118110236206 0.1781102362204725
    vertex 1.3976377952755905 1.3976377952755905 0.11811023622047243
  endloop
endfacet
facet normal -1.0 7.67376486885641e-17 -1.0817809313055257e-16
  outer loop
    vertex 1.3976377952755905 1.3976377952755905 0.11811023622047243
    vertex 1.3976377952755905 0.059055118110236206 0.1781102362204725
    vertex 1.3976377952755905 1.3188976377952728 0.17811023622047245
  endloop
endfacet
facet normal -1.0 7.67376486885641e-17 -1.0817809313055257e-16
  outer loop
    vertex 1.3976377952755905 1.3976377952755905 0.11811023622047243
    vertex 1.3976377952755905 1.3188976377952728 0.17811023622047245
    vertex 1.3976377952755905 1.3976377952755892 0.17811023622047342
  endloop
endfacet
facet normal -1.0 7.67376486885641e-17 -1.0817809313055257e-16
  outer loop
    vertex 1.3976377952755905 1.3779527559055118 0.8148425196850393
    vertex 1.3976377952755905 1.3188976377952755 0.7361023622047244
    vertex 1.3976377952755905 1.3188976377952728 0.8148425196850393
  endloop
endfacet
facet normal -1.0 7.67376486885641e-17 -1.0817809313055257e-16
  outer loop
    vertex 1.3976377952755905 1.3188976377952755 0.6731102362204724
    vertex 1.3976377952755905 1.3779527559055098 0.2568503937007883
    vertex 1.3976377952755905 1.3188976377952728 0.17811023622047245
  endloop
endfacet
facet normal -1.0 7.67376486885641e-17 -1.0817809313055257e-16
  outer loop
    vertex 1.3976377952755905 1.3779527559055098 0.2568503937007883
    vertex 1.3976377952755905 1.3188976377952755 0.6731102362204724
    vertex 1.3976377952755905 1.3779527559055118 0.5943700787401576
  endloop
endfacet
facet normal -1.0 7.67376486885641e-17 -1.0817809313055257e-16
  outer loop
    vertex 1.3976377952755905 1.3779527559055098 0.2568503937007883
    vertex 1.3976377952755905 1.3779527559055118 0.5943700787401576
    vertex 1.3976377952755905 1.3976377952755885 0.2568503937007883
  endloop
endfacet
facet normal -1.0 7.67376486885641e-17 -1.0817809313055257e-16
  outer loop
    vertex 1.3976377952755905 1.3976377952755885 0.2568503937007883
    vertex 1.3976377952755905 1.3779527559055118 0.5943700787401576
    vertex 1.3976377952755905 1.3976377952755905 0.5943700787401576
  endloop
endfacet
facet normal -1.0 7.67376486885641e-17 -1.0817809313055257e-16
  outer loop
    vertex 1.3976377952755905 1.3976377952755905 0.7361023622047244
    vertex 1.3976377952755905 1.3188976377952755 0.6731102362204724
    vertex 1.3976377952755905 1.3188976377952755 0.7361023622047244
  endloop
endfacet
facet normal -1.0 7.67376486885641e-17 -1.0817809313055257e-16
  outer loop
    vertex 1.3976377952755905 1.3188976377952755 0.6731102362204724
    vertex 1.3976377952755905 1.3976377952755905 0.7361023622047244
    vertex 1.3976377952755905 1.3976377952755905 0.6731102362204724
  endloop
endfacet
facet normal -1.0 7.67376486885641e-17 -1.0817809313055257e-16
  outer loop
    vertex 1.39763779527559 -4.923615158014997e-17 0.5943700787401576
    vertex 1.3976377952755905 -0.019685039370078747 0.25685039370078744
    vertex 1.39763779527559 -0.01968503937007879 0.5943700787401576
  endloop
endfacet
facet normal -1.0 7.67376486885641e-17 -1.0817809313055257e-16
  outer loop
    vertex 1.3976377952755905 -0.019685039370078747 0.25685039370078744
    vertex 1.39763779527559 -4.923615158014997e-17 0.5943700787401576
    vertex 1.3976377952755905 -1.016942875045994e-17 0.25685039370078744
  endloop
endfacet
facet normal -1.0 7.67376486885641e-17 -1.0817809313055257e-16
  outer loop
    vertex 1.3976377952755905 -1.016942875045994e-17 0.25685039370078744
    vertex 1.39763779527559 -4.923615158014997e-17 0.5943700787401576
    vertex 1.39763779527559 0.05905511811023618 0.6731102362204725
  endloop
endfacet
facet normal -1.0 7.67376486885641e-17 -1.0817809313055257e-16
  outer loop
    vertex 1.3976377952755905 -1.016942875045994e-17 0.25685039370078744
    vertex 1.39763779527559 0.05905511811023618 0.6731102362204725
    vertex 1.3976377952755905 0.059055118110236206 0.1781102362204725
  endloop
endfacet
facet normal -1.0 7.67376486885641e-17 -1.0817809313055257e-16
  outer loop
    vertex 1.3976377952755905 0.05905511811023616 0.7361023622047242
    vertex 1.3976377952755905 -0.01968503937007879 0.6731102362204725
    vertex 1.3976377952755905 -0.01968503937007881 0.7361023622047242
  endloop
endfacet
facet normal -1.0 7.67376486885641e-17 -1.0817809313055257e-16
  outer loop
    vertex 1.3976377952755905 -0.01968503937007879 0.6731102362204725
    vertex 1.3976377952755905 0.05905511811023616 0.7361023622047242
    vertex 1.39763779527559 0.05905511811023618 0.6731102362204725
  endloop
endfacet
facet normal -1.0 7.67376486885641e-17 -1.0817809313055257e-16
  outer loop
    vertex 1.3976377952755905 0.05905511811023616 0.7361023622047242
    vertex 1.3976377952755905 -7.240602339841405e-17 0.8148425196850392
    vertex 1.3976377952755905 0.05905511811023615 0.8148425196850392
  endloop
endfacet
facet normal -0.0 -0.0 1.0
  outer loop
    vertex 1.3976377952755905 1.3188976377952755 0.6731102362204724
    vertex 0.9645669291338583 1.3976377952755905 0.6731102362204724
    vertex 0.9645669291338583 1.3188976377952755 0.6731102362204724
  endloop
endfacet
facet normal -0.0 -0.0 1.0
  outer loop
    vertex 0.9645669291338583 1.3976377952755905 0.6731102362204724
    vertex 1.3976377952755905 1.3188976377952755 0.6731102362204724
    vertex 1.3976377952755905 1.3976377952755905 0.6731102362204724
  endloop
endfacet
facet normal 4.005634208164628e-18 1.0 1.3769367590565956e-16
  outer loop
    vertex -0.01968503937007874 -0.019685039370078795 0.7361023622047242
    vertex 0.4133858267716535 -0.01968503937007879 0.6731102362204725
    vertex -0.01968503937007874 -0.01968503937007879 0.6731102362204725
  endloop
endfacet
facet normal 4.005634208164628e-18 1.0 1.3769367590565956e-16
  outer loop
    vertex 0.4133858267716535 -0.01968503937007879 0.6731102362204725
    vertex -0.01968503937007874 -0.019685039370078795 0.7361023622047242
    vertex 0.4133858267716535 -0.0196850393700788 0.7361023622047242
  endloop
endfacet
facet normal 7.399498828173191e-18 0.7999999999999998 -0.6000000000000002
  outer loop
    vertex -0.019685039370078795 0.05905511811023618 0.6731102362204725
    vertex 0.4133858267716535 -4.827413460074682e-17 0.5943700787401576
    vertex -0.019685039370078795 -4.742155040350001e-17 0.5943700787401576
  endloop
endfacet
facet normal 7.399498828173191e-18 0.7999999999999998 -0.6000000000000002
  outer loop
    vertex 0.4133858267716535 -4.827413460074682e-17 0.5943700787401576
    vertex -0.019685039370078795 0.05905511811023618 0.6731102362204725
    vertex 0.4133858267716535 0.05905511811023617 0.6731102362204725
  endloop
endfacet
facet normal 7.399498828173215e-18 0.7999999999999999 0.6000000000000003
  outer loop
    vertex -0.01968503937007874 -7.059142222176408e-17 0.8148425196850392
    vertex 0.4133858267716535 0.05905511811023616 0.7361023622047242
    vertex -0.01968503937007874 0.059055118110236164 0.7361023622047242
  endloop
endfacet
facet normal 7.399498828173215e-18 0.7999999999999999 0.6000000000000003
  outer loop
    vertex 0.4133858267716535 0.05905511811023616 0.7361023622047242
    vertex -0.01968503937007874 -7.059142222176408e-17 0.8148425196850392
    vertex 0.4133858267716535 -7.02674113657397e-17 0.8148425196850392
  endloop
endfacet
facet normal 3.699749414086525e-18 0.7999999999999998 0.6000000000000002
  outer loop
    vertex 0.9645669291338583 -7.042698657155481e-17 0.8148425196850392
    vertex 1.3976377952755905 0.05905511811023616 0.7361023622047242
    vertex 0.9645669291338583 0.05905511811023616 0.7361023622047242
  endloop
endfacet
facet normal 3.699749414086525e-18 0.7999999999999998 0.6000000000000002
  outer loop
    vertex 1.3976377952755905 0.05905511811023616 0.7361023622047242
    vertex 0.9645669291338583 -7.042698657155481e-17 0.8148425196850392
    vertex 1.3976377952755905 -7.240602339841405e-17 0.8148425196850392
  endloop
endfacet
facet normal 0.0 0.0 -1.0
  outer loop
    vertex 1.3976377952755905 0.05905511811023616 0.7361023622047242
    vertex 0.9645669291338583 -0.019685039370078802 0.7361023622047242
    vertex 0.9645669291338583 0.05905511811023616 0.7361023622047242
  endloop
endfacet
facet normal 0.0 0.0 -1.0
  outer loop
    vertex 0.9645669291338583 -0.019685039370078802 0.7361023622047242
    vertex 1.3976377952755905 0.05905511811023616 0.7361023622047242
    vertex 1.3976377952755905 -0.01968503937007881 0.7361023622047242
  endloop
endfacet
facet normal -1.658405311410478e-16 -9.695709484030538e-16 1.0
  outer loop
    vertex -0.11811023622047245 -0.11811023622047251 0.814842519685039
    vertex -0.01968503937007874 -7.059142222176408e-17 0.8148425196850392
    vertex -0.11811023622047245 0.05905511811023616 0.814842519685039
  endloop
endfacet
facet normal -1.658405311410478e-16 -9.695709484030538e-16 1.0
  outer loop
    vertex -0.01968503937007874 -7.059142222176408e-17 0.8148425196850392
    vertex -0.11811023622047245 -0.11811023622047251 0.814842519685039
    vertex 0.4133858267716535 -0.11811023622047251 0.814842519685039
  endloop
endfacet
facet normal -1.658405311410478e-16 -9.695709484030538e-16 1.0
  outer loop
    vertex -0.01968503937007874 -7.059142222176408e-17 0.8148425196850392
    vertex 0.4133858267716535 -0.11811023622047251 0.814842519685039
    vertex 0.4133858267716535 -7.02674113657397e-17 0.8148425196850392
  endloop
endfacet
facet normal -1.658405311410478e-16 -9.695709484030538e-16 1.0
  outer loop
    vertex -0.01968503937007874 0.05905511811023616 0.8148425196850392
    vertex -0.11811023622047245 0.05905511811023616 0.814842519685039
    vertex -0.01968503937007874 -7.059142222176408e-17 0.8148425196850392
  endloop
endfacet
facet normal -1.0 0.0 0.0
  outer loop
    vertex 0.9645669291338583 0.05905511811023617 0.6731102362204725
    vertex 0.9645669291338583 -0.01968503937007879 0.5943700787401576
    vertex 0.9645669291338583 -0.01968503937007879 0.6731102362204725
  endloop
endfacet
facet normal -1.0 0.0 0.0
  outer loop
    vertex 0.9645669291338583 -0.01968503937007879 0.5943700787401576
    vertex 0.9645669291338583 0.05905511811023617 0.6731102362204725
    vertex 0.9645669291338583 -4.869256071828159e-17 0.5943700787401576
  endloop
endfacet
facet normal -1.0 0.0 0.0
  outer loop
    vertex 0.9645669291338583 -0.11811023622047134 0.11811023622047262
    vertex 0.9645669291338583 -0.01968503937007879 0.5943700787401576
    vertex 0.9645669291338583 -0.01968503937007762 0.11811023622047284
  endloop
endfacet
facet normal -1.0 0.0 0.0
  outer loop
    vertex 0.9645669291338583 -0.01968503937007879 0.5943700787401576
    vertex 0.9645669291338583 -0.11811023622047134 0.11811023622047262
    vertex 0.9645669291338583 -0.019685039370078802 0.7361023622047242
  endloop
endfacet
facet normal -1.0 0.0 0.0
  outer loop
    vertex 0.9645669291338583 -0.01968503937007879 0.5943700787401576
    vertex 0.9645669291338583 -0.019685039370078802 0.7361023622047242
    vertex 0.9645669291338583 -0.01968503937007879 0.6731102362204725
  endloop
endfacet
facet normal -1.0 0.0 0.0
  outer loop
    vertex 0.9645669291338583 -0.11811023622047251 0.8148425196850391
    vertex 0.9645669291338583 -0.019685039370078802 0.7361023622047242
    vertex 0.9645669291338583 -0.11811023622047134 0.11811023622047262
  endloop
endfacet
facet normal -1.0 0.0 0.0
  outer loop
    vertex 0.9645669291338583 -0.019685039370078802 0.7361023622047242
    vertex 0.9645669291338583 -0.11811023622047251 0.8148425196850391
    vertex 0.9645669291338583 -7.042698657155481e-17 0.8148425196850392
  endloop
endfacet
facet normal -1.0 0.0 0.0
  outer loop
    vertex 0.9645669291338583 -0.019685039370078802 0.7361023622047242
    vertex 0.9645669291338583 -7.042698657155481e-17 0.8148425196850392
    vertex 0.9645669291338583 0.05905511811023616 0.7361023622047242
  endloop
endfacet
facet normal 1.0 1.9663383190724587e-31 -5.065883730027506e-33
  outer loop
    vertex 0.4133858267716535 -0.11811023622047251 0.814842519685039
    vertex 0.4133858267716535 -0.0196850393700788 0.7361023622047242
    vertex 0.4133858267716535 -7.02674113657397e-17 0.8148425196850392
  endloop
endfacet
facet normal 1.0 1.9663383190724587e-31 -5.065883730027506e-33
  outer loop
    vertex 0.4133858267716535 -0.0196850393700788 0.7361023622047242
    vertex 0.4133858267716535 -0.11811023622047251 0.814842519685039
    vertex 0.4133858267716535 -0.11811023622047134 0.11811023622047262
  endloop
endfacet
facet normal 1.0 1.9663383190724587e-31 -5.065883730027506e-33
  outer loop
    vertex 0.4133858267716535 -7.02674113657397e-17 0.8148425196850392
    vertex 0.4133858267716535 -0.0196850393700788 0.7361023622047242
    vertex 0.4133858267716535 0.05905511811023616 0.7361023622047242
  endloop
endfacet
facet normal 1.0 1.9663383190724587e-31 -5.065883730027506e-33
  outer loop
    vertex 0.4133858267716535 -0.11811023622047134 0.11811023622047262
    vertex 0.4133858267716535 -0.01968503937007879 0.5943700787401576
    vertex 0.4133858267716535 -0.0196850393700788 0.7361023622047242
  endloop
endfacet
facet normal 1.0 1.9663383190724587e-31 -5.065883730027506e-33
  outer loop
    vertex 0.4133858267716535 -0.01968503937007879 0.5943700787401576
    vertex 0.4133858267716535 -0.11811023622047134 0.11811023622047262
    vertex 0.4133858267716535 -0.019685039370077616 0.11811023622047284
  endloop
endfacet
facet normal 1.0 1.9663383190724587e-31 -5.065883730027506e-33
  outer loop
    vertex 0.4133858267716535 -0.01968503937007879 0.5943700787401576
    vertex 0.4133858267716535 -0.01968503937007879 0.6731102362204725
    vertex 0.4133858267716535 -0.0196850393700788 0.7361023622047242
  endloop
endfacet
facet normal 1.0 1.9663383190724587e-31 -5.065883730027506e-33
  outer loop
    vertex 0.4133858267716535 -0.01968503937007879 0.6731102362204725
    vertex 0.4133858267716535 -0.01968503937007879 0.5943700787401576
    vertex 0.4133858267716535 -4.827413460074682e-17 0.5943700787401576
  endloop
endfacet
facet normal 1.0 1.9663383190724587e-31 -5.065883730027506e-33
  outer loop
    vertex 0.4133858267716535 -0.01968503937007879 0.6731102362204725
    vertex 0.4133858267716535 -4.827413460074682e-17 0.5943700787401576
    vertex 0.4133858267716535 0.05905511811023617 0.6731102362204725
  endloop
endfacet
facet normal -0.0 -0.0 1.0
  outer loop
    vertex 1.3976377952755905 -0.01968503937007879 0.6731102362204725
    vertex 0.9645669291338583 0.05905511811023617 0.6731102362204725
    vertex 0.9645669291338583 -0.01968503937007879 0.6731102362204725
  endloop
endfacet
facet normal -0.0 -0.0 1.0
  outer loop
    vertex 0.9645669291338583 0.05905511811023617 0.6731102362204725
    vertex 1.3976377952755905 -0.01968503937007879 0.6731102362204725
    vertex 1.39763779527559 0.05905511811023618 0.6731102362204725
  endloop
endfacet
facet normal -7.399498828173301e-18 0.7999999999999998 -0.6000000000000002
  outer loop
    vertex 0.9645669291338583 0.05905511811023617 0.6731102362204725
    vertex 1.39763779527559 -4.923615158014997e-17 0.5943700787401576
    vertex 0.9645669291338583 -4.869256071828159e-17 0.5943700787401576
  endloop
endfacet
facet normal -7.399498828173301e-18 0.7999999999999998 -0.6000000000000002
  outer loop
    vertex 1.39763779527559 -4.923615158014997e-17 0.5943700787401576
    vertex 0.9645669291338583 0.05905511811023617 0.6731102362204725
    vertex 1.39763779527559 0.05905511811023618 0.6731102362204725
  endloop
endfacet
facet normal 0.0 0.0 -1.0
  outer loop
    vertex 1.39763779527559 -4.923615158014997e-17 0.5943700787401576
    vertex 0.9645669291338583 -0.01968503937007879 0.5943700787401576
    vertex 0.9645669291338583 -4.869256071828159e-17 0.5943700787401576
  endloop
endfacet
facet normal 0.0 0.0 -1.0
  outer loop
    vertex 0.9645669291338583 -0.01968503937007879 0.5943700787401576
    vertex 1.39763779527559 -4.923615158014997e-17 0.5943700787401576
    vertex 1.39763779527559 -0.01968503937007879 0.5943700787401576
  endloop
endfacet
facet normal 1.27115875510839e-15 1.0 9.40027309094783e-16
  outer loop
    vertex 0.9645669291338583 -0.01968503937007879 0.5943700787401576
    vertex 1.1811023622047243 -0.019685039370078747 0.17811023622047245
    vertex 0.9645669291338583 -0.01968503937007762 0.11811023622047284
  endloop
endfacet
facet normal 1.27115875510839e-15 1.0 9.40027309094783e-16
  outer loop
    vertex 1.1811023622047243 -0.019685039370078747 0.17811023622047245
    vertex 0.9645669291338583 -0.01968503937007879 0.5943700787401576
    vertex 1.1811023622047243 -0.019685039370078747 0.25685039370078744
  endloop
endfacet
facet normal 1.27115875510839e-15 1.0 9.40027309094783e-16
  outer loop
    vertex 1.1811023622047243 -0.019685039370078747 0.25685039370078744
    vertex 0.9645669291338583 -0.01968503937007879 0.5943700787401576
    vertex 1.3976377952755905 -0.019685039370078747 0.25685039370078744
  endloop
endfacet
facet normal 1.27115875510839e-15 1.0 9.40027309094783e-16
  outer loop
    vertex 1.3976377952755905 -0.019685039370078747 0.25685039370078744
    vertex 0.9645669291338583 -0.01968503937007879 0.5943700787401576
    vertex 1.39763779527559 -0.01968503937007879 0.5943700787401576
  endloop
endfacet
facet normal 1.27115875510839e-15 1.0 9.40027309094783e-16
  outer loop
    vertex 0.9645669291338583 -0.01968503937007762 0.11811023622047284
    vertex 1.3976377952755905 -0.019685039370078747 0.17811023622047245
    vertex 1.3976377952755905 -0.01968503937007874 0.11811023622047254
  endloop
endfacet
facet normal 1.27115875510839e-15 1.0 9.40027309094783e-16
  outer loop
    vertex 1.3976377952755905 -0.019685039370078747 0.17811023622047245
    vertex 0.9645669291338583 -0.01968503937007762 0.11811023622047284
    vertex 1.1811023622047243 -0.019685039370078747 0.17811023622047245
  endloop
endfacet
facet normal 8.011268416329256e-18 1.0 2.753873518113191e-16
  outer loop
    vertex 0.9645669291338583 -0.019685039370078802 0.7361023622047242
    vertex 1.3976377952755905 -0.01968503937007879 0.6731102362204725
    vertex 0.9645669291338583 -0.01968503937007879 0.6731102362204725
  endloop
endfacet
facet normal 8.011268416329256e-18 1.0 2.753873518113191e-16
  outer loop
    vertex 1.3976377952755905 -0.01968503937007879 0.6731102362204725
    vertex 0.9645669291338583 -0.019685039370078802 0.7361023622047242
    vertex 1.3976377952755905 -0.01968503937007881 0.7361023622047242
  endloop
endfacet
facet normal -1.064895100462854e-15 1.0 4.43445713933097e-16
  outer loop
    vertex -0.019685039370078795 -0.01968503937007879 0.5943700787401576
    vertex 0.1968503937007874 -0.019685039370078747 0.2568503937007876
    vertex -0.01968503937007874 -0.019685039370078747 0.2568503937007876
  endloop
endfacet
facet normal -1.064895100462854e-15 1.0 4.43445713933097e-16
  outer loop
    vertex -0.01968503937007874 -0.019685039370078747 0.1781102362204725
    vertex 0.23622047244094493 -0.01968503937007874 -1.9617853111961493e-16
    vertex -0.019685039370078723 -0.01968503937007874 -1.964724976397696e-16
  endloop
endfacet
facet normal -1.064895100462854e-15 1.0 4.43445713933097e-16
  outer loop
    vertex 0.23622047244094493 -0.01968503937007874 -1.9617853111961493e-16
    vertex -0.01968503937007874 -0.019685039370078747 0.1781102362204725
    vertex 0.2362204724409449 -0.01968503937007874 0.11811023622047258
  endloop
endfacet
facet normal -1.064895100462854e-15 1.0 4.43445713933097e-16
  outer loop
    vertex 0.2362204724409449 -0.01968503937007874 0.11811023622047258
    vertex -0.01968503937007874 -0.019685039370078747 0.1781102362204725
    vertex 0.4133858267716535 -0.019685039370077616 0.11811023622047284
  endloop
endfacet
facet normal -1.064895100462854e-15 1.0 4.43445713933097e-16
  outer loop
    vertex 0.4133858267716535 -0.019685039370077616 0.11811023622047284
    vertex -0.01968503937007874 -0.019685039370078747 0.1781102362204725
    vertex 0.1968503937007874 -0.019685039370078747 0.17811023622047265
  endloop
endfacet
facet normal -1.064895100462854e-15 1.0 4.43445713933097e-16
  outer loop
    vertex 0.4133858267716535 -0.019685039370077616 0.11811023622047284
    vertex 0.1968503937007874 -0.019685039370078747 0.17811023622047265
    vertex 0.4133858267716535 -0.01968503937007879 0.5943700787401576
  endloop
endfacet
facet normal -1.064895100462854e-15 1.0 4.43445713933097e-16
  outer loop
    vertex 0.4133858267716535 -0.01968503937007879 0.5943700787401576
    vertex 0.1968503937007874 -0.019685039370078747 0.17811023622047265
    vertex 0.1968503937007874 -0.019685039370078747 0.2568503937007876
  endloop
endfacet
facet normal -1.064895100462854e-15 1.0 4.43445713933097e-16
  outer loop
    vertex 0.4133858267716535 -0.01968503937007879 0.5943700787401576
    vertex 0.1968503937007874 -0.019685039370078747 0.2568503937007876
    vertex -0.019685039370078795 -0.01968503937007879 0.5943700787401576
  endloop
endfacet
facet normal 4.8505645546156095e-17 2.8778209815652444e-16 1.0
  outer loop
    vertex -0.019685039370078608 1.3188976377952755 0.8148425196850394
    vertex -0.01968503937007872 1.3779527559055118 0.8148425196850394
    vertex -0.11811023622047233 1.3188976377952757 0.8148425196850393
  endloop
endfacet
facet normal 4.8505645546156095e-17 2.8778209815652444e-16 1.0
  outer loop
    vertex -0.11811023622047244 1.4960629921259843 0.8148425196850393
    vertex -0.01968503937007872 1.3779527559055118 0.8148425196850394
    vertex 0.4133858267716535 1.4960629921259843 0.8148425196850393
  endloop
endfacet
facet normal 4.8505645546156095e-17 2.8778209815652444e-16 1.0
  outer loop
    vertex -0.01968503937007872 1.3779527559055118 0.8148425196850394
    vertex -0.11811023622047244 1.4960629921259843 0.8148425196850393
    vertex -0.11811023622047233 1.3188976377952757 0.8148425196850393
  endloop
endfacet
facet normal 4.8505645546156095e-17 2.8778209815652444e-16 1.0
  outer loop
    vertex 0.4133858267716535 1.4960629921259843 0.8148425196850393
    vertex -0.01968503937007872 1.3779527559055118 0.8148425196850394
    vertex 0.4133858267716535 1.3779527559055118 0.8148425196850393
  endloop
endfacet
facet normal 4.8505645546156095e-17 2.8778209815652444e-16 1.0
  outer loop
    vertex 0.4133858267716535 1.4960629921259843 0.8148425196850393
    vertex 0.4133858267716535 1.3779527559055118 0.8148425196850393
    vertex 0.4133858267716535 1.3976377952755905 0.8148425196850393
  endloop
endfacet
facet normal 7.584486298877534e-17 -0.8000000000000002 0.5999999999999999
  outer loop
    vertex 0.4133858267716535 1.3779527559055118 0.8148425196850393
    vertex -0.019685039370078726 1.3188976377952757 0.7361023622047245
    vertex 0.4133858267716535 1.3188976377952757 0.7361023622047245
  endloop
endfacet
facet normal 7.584486298877534e-17 -0.8000000000000002 0.5999999999999999
  outer loop
    vertex -0.019685039370078726 1.3188976377952757 0.7361023622047245
    vertex 0.4133858267716535 1.3779527559055118 0.8148425196850393
    vertex -0.01968503937007872 1.3779527559055118 0.8148425196850394
  endloop
endfacet
facet normal 0.0 0.0 -1.0
  outer loop
    vertex -0.019685039370078712 1.3976377952755905 0.7361023622047245
    vertex 0.4133858267716535 1.3188976377952757 0.7361023622047245
    vertex -0.019685039370078726 1.3188976377952757 0.7361023622047245
  endloop
endfacet
facet normal 0.0 0.0 -1.0
  outer loop
    vertex 0.4133858267716535 1.3188976377952757 0.7361023622047245
    vertex -0.019685039370078712 1.3976377952755905 0.7361023622047245
    vertex 0.4133858267716535 1.3976377952755905 0.7361023622047245
  endloop
endfacet
facet normal 1.0 -0.0 -0.0
  outer loop
    vertex 0.4133858267716535 1.3976377952755905 0.7361023622047245
    vertex 0.4133858267716535 1.3779527559055118 0.8148425196850393
    vertex 0.4133858267716535 1.3188976377952757 0.7361023622047245
  endloop
endfacet
facet normal 1.0 -0.0 -0.0
  outer loop
    vertex 0.4133858267716535 1.3779527559055118 0.8148425196850393
    vertex 0.4133858267716535 1.3976377952755905 0.7361023622047245
    vertex 0.4133858267716535 1.3976377952755905 0.8148425196850393
  endloop
endfacet
facet normal -1.0 0.0 0.0
  outer loop
    vertex 0.9645669291338583 1.3779527559055118 0.8148425196850393
    vertex 0.9645669291338583 1.3976377952755905 0.7361023622047244
    vertex 0.9645669291338583 1.3188976377952755 0.7361023622047244
  endloop
endfacet
facet normal -1.0 0.0 0.0
  outer loop
    vertex 0.9645669291338583 1.3976377952755905 0.7361023622047244
    vertex 0.9645669291338583 1.3779527559055118 0.8148425196850393
    vertex 0.9645669291338583 1.3976377952755905 0.8148425196850393
  endloop
endfacet
facet normal -0.0 -0.0 1.0
  outer loop
    vertex 0.4133858267716535 1.3188976377952755 0.6731102362204725
    vertex -0.019685039370078712 1.3976377952755905 0.6731102362204725
    vertex -0.01968503937007874 1.3188976377952755 0.6731102362204725
  endloop
endfacet
facet normal -0.0 -0.0 1.0
  outer loop
    vertex -0.019685039370078712 1.3976377952755905 0.6731102362204725
    vertex 0.4133858267716535 1.3188976377952755 0.6731102362204725
    vertex 0.4133858267716535 1.3976377952755905 0.6731102362204725
  endloop
endfacet
facet normal 3.614641346678892e-32 -0.7999999999999993 -0.6000000000000009
  outer loop
    vertex 0.4133858267716535 1.3188976377952755 0.6731102362204725
    vertex -0.01968503937007874 1.3779527559055118 0.5943700787401576
    vertex 0.4133858267716535 1.3779527559055118 0.5943700787401576
  endloop
endfacet
facet normal 3.614641346678892e-32 -0.7999999999999993 -0.6000000000000009
  outer loop
    vertex -0.01968503937007874 1.3779527559055118 0.5943700787401576
    vertex 0.4133858267716535 1.3188976377952755 0.6731102362204725
    vertex -0.01968503937007874 1.3188976377952755 0.6731102362204725
  endloop
endfacet
facet normal 0.0 0.0 -1.0
  outer loop
    vertex -0.019685039370078726 1.3976377952755905 0.5943700787401576
    vertex 0.4133858267716535 1.3779527559055118 0.5943700787401576
    vertex -0.01968503937007874 1.3779527559055118 0.5943700787401576
  endloop
endfacet
facet normal 0.0 0.0 -1.0
  outer loop
    vertex 0.4133858267716535 1.3779527559055118 0.5943700787401576
    vertex -0.019685039370078726 1.3976377952755905 0.5943700787401576
    vertex 0.4133858267716535 1.3976377952755905 0.5943700787401576
  endloop
endfacet
facet normal 1.0 -0.0 -0.0
  outer loop
    vertex 0.4133858267716535 1.3779527559055118 0.5943700787401576
    vertex 0.4133858267716535 1.3976377952755905 0.6731102362204725
    vertex 0.4133858267716535 1.3188976377952755 0.6731102362204725
  endloop
endfacet
facet normal 1.0 -0.0 -0.0
  outer loop
    vertex 0.4133858267716535 1.3976377952755905 0.6731102362204725
    vertex 0.4133858267716535 1.3779527559055118 0.5943700787401576
    vertex 0.4133858267716535 1.3976377952755905 0.5943700787401576
  endloop
endfacet
facet normal -1.0 0.0 0.0
  outer loop
    vertex 0.9645669291338583 1.3976377952755905 0.6731102362204724
    vertex 0.9645669291338583 1.3779527559055118 0.5943700787401576
    vertex 0.9645669291338583 1.3188976377952755 0.6731102362204724
  endloop
endfacet
facet normal -1.0 0.0 0.0
  outer loop
    vertex 0.9645669291338583 1.3779527559055118 0.5943700787401576
    vertex 0.9645669291338583 1.3976377952755905 0.6731102362204724
    vertex 0.9645669291338583 1.3976377952755905 0.5943700787401576
  endloop
endfacet
facet normal -1.0 0.0 0.0
  outer loop
    vertex 0.9645669291338583 1.4960629921259843 0.8148425196850393
    vertex 0.9645669291338583 1.3976377952755905 0.7361023622047244
    vertex 0.9645669291338583 1.3976377952755905 0.8148425196850393
  endloop
endfacet
facet normal -1.0 0.0 0.0
  outer loop
    vertex 0.9645669291338583 1.3976377952755905 0.7361023622047244
    vertex 0.9645669291338583 1.4960629921259843 0.8148425196850393
    vertex 0.9645669291338583 1.3976377952755905 0.6731102362204724
  endloop
endfacet
facet normal -1.0 0.0 0.0
  outer loop
    vertex 0.9645669291338583 1.3976377952755905 0.6731102362204724
    vertex 0.9645669291338583 1.4960629921259843 0.8148425196850393
    vertex 0.9645669291338583 1.3976377952755905 0.5943700787401576
  endloop
endfacet
facet normal -1.0 0.0 0.0
  outer loop
    vertex 0.9645669291338583 1.3976377952755905 0.5943700787401576
    vertex 0.9645669291338583 1.4960629921259843 0.8148425196850393
    vertex 0.9645669291338583 1.3976377952755905 0.11811023622047256
  endloop
endfacet
facet normal -1.0 0.0 0.0
  outer loop
    vertex 0.9645669291338583 1.3976377952755905 0.11811023622047256
    vertex 0.9645669291338583 1.4960629921259843 0.8148425196850393
    vertex 0.9645669291338583 1.4960629921259843 0.11811023622047256
  endloop
endfacet
facet normal 1.0 -0.0 -0.0
  outer loop
    vertex 0.4133858267716535 1.4960629921259843 0.11811023622047256
    vertex 0.4133858267716535 1.3976377952755905 0.5943700787401576
    vertex 0.4133858267716535 1.3976377952755905 0.11811023622047256
  endloop
endfacet
facet normal 1.0 -0.0 -0.0
  outer loop
    vertex 0.4133858267716535 1.3976377952755905 0.5943700787401576
    vertex 0.4133858267716535 1.4960629921259843 0.11811023622047256
    vertex 0.4133858267716535 1.3976377952755905 0.6731102362204725
  endloop
endfacet
facet normal 1.0 -0.0 -0.0
  outer loop
    vertex 0.4133858267716535 1.3976377952755905 0.6731102362204725
    vertex 0.4133858267716535 1.4960629921259843 0.11811023622047256
    vertex 0.4133858267716535 1.3976377952755905 0.7361023622047245
  endloop
endfacet
facet normal 1.0 -0.0 -0.0
  outer loop
    vertex 0.4133858267716535 1.3976377952755905 0.7361023622047245
    vertex 0.4133858267716535 1.4960629921259843 0.11811023622047256
    vertex 0.4133858267716535 1.3976377952755905 0.8148425196850393
  endloop
endfacet
facet normal 1.0 -0.0 -0.0
  outer loop
    vertex 0.4133858267716535 1.3976377952755905 0.8148425196850393
    vertex 0.4133858267716535 1.4960629921259843 0.11811023622047256
    vertex 0.4133858267716535 1.4960629921259843 0.8148425196850393
  endloop
endfacet
facet normal 0.0 -1.0 0.0
  outer loop
    vertex 0.4133858267716535 1.3976377952755905 0.5943700787401576
    vertex 0.1968503937007874 1.3976377952755905 0.17811023622047245
    vertex 0.4133858267716535 1.3976377952755905 0.11811023622047256
  endloop
endfacet
facet normal 0.0 -1.0 0.0
  outer loop
    vertex 0.1968503937007874 1.3976377952755905 0.17811023622047245
    vertex 0.4133858267716535 1.3976377952755905 0.5943700787401576
    vertex 0.1968503937007874 1.3976377952755905 0.25685039370078744
  endloop
endfacet
facet normal 0.0 -1.0 0.0
  outer loop
    vertex 0.1968503937007874 1.3976377952755905 0.25685039370078744
    vertex 0.4133858267716535 1.3976377952755905 0.5943700787401576
    vertex -0.019685039370078726 1.3976377952755905 0.25685039370078744
  endloop
endfacet
facet normal 0.0 -1.0 0.0
  outer loop
    vertex -0.019685039370078726 1.3976377952755905 0.25685039370078744
    vertex 0.4133858267716535 1.3976377952755905 0.5943700787401576
    vertex -0.019685039370078726 1.3976377952755905 0.5943700787401576
  endloop
endfacet
facet normal 0.0 -1.0 0.0
  outer loop
    vertex 0.23622047244094493 1.3976377952755905 -2.2900974559460173e-16
    vertex -0.019685039370078726 1.3976377952755905 0.17811023622047245
    vertex -0.01968503937007871 1.3976377952755905 -2.293037121147564e-16
  endloop
endfacet
facet normal 0.0 -1.0 0.0
  outer loop
    vertex -0.019685039370078726 1.3976377952755905 0.17811023622047245
    vertex 0.23622047244094493 1.3976377952755905 -2.2900974559460173e-16
    vertex 0.2362204724409449 1.3976377952755905 0.11811023622047254
  endloop
endfacet
facet normal 0.0 -1.0 0.0
  outer loop
    vertex -0.019685039370078726 1.3976377952755905 0.17811023622047245
    vertex 0.2362204724409449 1.3976377952755905 0.11811023622047254
    vertex 0.4133858267716535 1.3976377952755905 0.11811023622047256
  endloop
endfacet
facet normal 0.0 -1.0 0.0
  outer loop
    vertex -0.019685039370078726 1.3976377952755905 0.17811023622047245
    vertex 0.4133858267716535 1.3976377952755905 0.11811023622047256
    vertex 0.1968503937007874 1.3976377952755905 0.17811023622047245
  endloop
endfacet
facet normal 0.0 -1.0 0.0
  outer loop
    vertex 0.4133858267716535 1.3976377952755905 0.7361023622047245
    vertex -0.019685039370078712 1.3976377952755905 0.6731102362204725
    vertex 0.4133858267716535 1.3976377952755905 0.6731102362204725
  endloop
endfacet
facet normal 0.0 -1.0 0.0
  outer loop
    vertex -0.019685039370078712 1.3976377952755905 0.6731102362204725
    vertex 0.4133858267716535 1.3976377952755905 0.7361023622047245
    vertex -0.019685039370078712 1.3976377952755905 0.7361023622047245
  endloop
endfacet
facet normal -6.340119624480199e-16 -1.0 2.1594040914037235e-15
  outer loop
    vertex 1.3976377952755905 1.3976377952755892 0.17811023622047342
    vertex 0.9645669291338583 1.3976377952755905 0.11811023622047256
    vertex 1.3976377952755905 1.3976377952755905 0.11811023622047243
  endloop
endfacet
facet normal -6.340119624480199e-16 -1.0 2.1594040914037235e-15
  outer loop
    vertex 0.9645669291338583 1.3976377952755905 0.11811023622047256
    vertex 1.3976377952755905 1.3976377952755892 0.17811023622047342
    vertex 1.1811023622047243 1.3976377952755876 0.1781102362204733
  endloop
endfacet
facet normal -6.340119624480199e-16 -1.0 2.1594040914037235e-15
  outer loop
    vertex 1.3976377952755905 1.3976377952755905 0.5943700787401576
    vertex 1.1811023622047243 1.3976377952755876 0.2568503937007883
    vertex 1.3976377952755905 1.3976377952755885 0.2568503937007883
  endloop
endfacet
facet normal -6.340119624480199e-16 -1.0 2.1594040914037235e-15
  outer loop
    vertex 1.1811023622047243 1.3976377952755876 0.1781102362204733
    vertex 0.9645669291338583 1.3976377952755905 0.5943700787401576
    vertex 0.9645669291338583 1.3976377952755905 0.11811023622047256
  endloop
endfacet
facet normal -6.340119624480199e-16 -1.0 2.1594040914037235e-15
  outer loop
    vertex 0.9645669291338583 1.3976377952755905 0.5943700787401576
    vertex 1.1811023622047243 1.3976377952755876 0.1781102362204733
    vertex 1.1811023622047243 1.3976377952755876 0.2568503937007883
  endloop
endfacet
facet normal -6.340119624480199e-16 -1.0 2.1594040914037235e-15
  outer loop
    vertex 0.9645669291338583 1.3976377952755905 0.5943700787401576
    vertex 1.1811023622047243 1.3976377952755876 0.2568503937007883
    vertex 1.3976377952755905 1.3976377952755905 0.5943700787401576
  endloop
endfacet
endsolid Jig
