G04 (created by PCBNEW (2013-07-07 BZR 4022)-stable) date 7/7/2016 3:31:21 PM*
%MOIN*%
G04 Gerber Fmt 3.4, Leading zero omitted, Abs format*
%FSLAX34Y34*%
G01*
G70*
G90*
G04 APERTURE LIST*
%ADD10C,0.00590551*%
%ADD11C,0.01*%
%ADD12C,0.0001*%
%ADD13R,0.0472441X0.08*%
%ADD14C,0.06*%
%ADD15C,0.08*%
%ADD16C,0.0472441*%
%ADD17C,0.025*%
%ADD18C,0.001*%
G04 APERTURE END LIST*
G54D10*
G54D11*
X80545Y-50961D02*
X80545Y-50561D01*
X80640Y-50561D01*
X80697Y-50580D01*
X80735Y-50619D01*
X80754Y-50657D01*
X80773Y-50733D01*
X80773Y-50790D01*
X80754Y-50866D01*
X80735Y-50904D01*
X80697Y-50942D01*
X80640Y-50961D01*
X80545Y-50961D01*
X81116Y-50961D02*
X81116Y-50752D01*
X81097Y-50714D01*
X81059Y-50695D01*
X80983Y-50695D01*
X80945Y-50714D01*
X81116Y-50942D02*
X81078Y-50961D01*
X80983Y-50961D01*
X80945Y-50942D01*
X80926Y-50904D01*
X80926Y-50866D01*
X80945Y-50828D01*
X80983Y-50809D01*
X81078Y-50809D01*
X81116Y-50790D01*
X81307Y-50695D02*
X81307Y-50961D01*
X81307Y-50733D02*
X81326Y-50714D01*
X81364Y-50695D01*
X81421Y-50695D01*
X81459Y-50714D01*
X81478Y-50752D01*
X81478Y-50961D01*
X81669Y-50961D02*
X81669Y-50695D01*
X81669Y-50561D02*
X81650Y-50580D01*
X81669Y-50600D01*
X81688Y-50580D01*
X81669Y-50561D01*
X81669Y-50600D01*
X82011Y-50942D02*
X81973Y-50961D01*
X81897Y-50961D01*
X81859Y-50942D01*
X81840Y-50904D01*
X81840Y-50752D01*
X81859Y-50714D01*
X81897Y-50695D01*
X81973Y-50695D01*
X82011Y-50714D01*
X82030Y-50752D01*
X82030Y-50790D01*
X81840Y-50828D01*
X82259Y-50961D02*
X82221Y-50942D01*
X82202Y-50904D01*
X82202Y-50561D01*
X82697Y-50847D02*
X82888Y-50847D01*
X82659Y-50961D02*
X82792Y-50561D01*
X82926Y-50961D01*
X83059Y-50923D02*
X83078Y-50942D01*
X83059Y-50961D01*
X83040Y-50942D01*
X83059Y-50923D01*
X83059Y-50961D01*
X83516Y-50561D02*
X83783Y-50561D01*
X83611Y-50961D01*
X84221Y-50542D02*
X83878Y-51057D01*
X84316Y-50561D02*
X84583Y-50561D01*
X84411Y-50961D01*
X85021Y-50542D02*
X84678Y-51057D01*
X85364Y-50961D02*
X85135Y-50961D01*
X85250Y-50961D02*
X85250Y-50561D01*
X85211Y-50619D01*
X85173Y-50657D01*
X85135Y-50676D01*
X85707Y-50561D02*
X85630Y-50561D01*
X85592Y-50580D01*
X85573Y-50600D01*
X85535Y-50657D01*
X85516Y-50733D01*
X85516Y-50885D01*
X85535Y-50923D01*
X85554Y-50942D01*
X85592Y-50961D01*
X85669Y-50961D01*
X85707Y-50942D01*
X85726Y-50923D01*
X85745Y-50885D01*
X85745Y-50790D01*
X85726Y-50752D01*
X85707Y-50733D01*
X85669Y-50714D01*
X85592Y-50714D01*
X85554Y-50733D01*
X85535Y-50752D01*
X85516Y-50790D01*
X86202Y-50942D02*
X86259Y-50961D01*
X86354Y-50961D01*
X86392Y-50942D01*
X86411Y-50923D01*
X86430Y-50885D01*
X86430Y-50847D01*
X86411Y-50809D01*
X86392Y-50790D01*
X86354Y-50771D01*
X86278Y-50752D01*
X86240Y-50733D01*
X86221Y-50714D01*
X86202Y-50676D01*
X86202Y-50638D01*
X86221Y-50600D01*
X86240Y-50580D01*
X86278Y-50561D01*
X86373Y-50561D01*
X86430Y-50580D01*
X86602Y-50961D02*
X86602Y-50695D01*
X86602Y-50733D02*
X86621Y-50714D01*
X86659Y-50695D01*
X86716Y-50695D01*
X86754Y-50714D01*
X86773Y-50752D01*
X86773Y-50961D01*
X86773Y-50752D02*
X86792Y-50714D01*
X86830Y-50695D01*
X86888Y-50695D01*
X86926Y-50714D01*
X86945Y-50752D01*
X86945Y-50961D01*
X87307Y-50961D02*
X87307Y-50752D01*
X87288Y-50714D01*
X87249Y-50695D01*
X87173Y-50695D01*
X87135Y-50714D01*
X87307Y-50942D02*
X87269Y-50961D01*
X87173Y-50961D01*
X87135Y-50942D01*
X87116Y-50904D01*
X87116Y-50866D01*
X87135Y-50828D01*
X87173Y-50809D01*
X87269Y-50809D01*
X87307Y-50790D01*
X87497Y-50961D02*
X87497Y-50695D01*
X87497Y-50771D02*
X87516Y-50733D01*
X87535Y-50714D01*
X87573Y-50695D01*
X87611Y-50695D01*
X87688Y-50695D02*
X87840Y-50695D01*
X87745Y-50561D02*
X87745Y-50904D01*
X87764Y-50942D01*
X87802Y-50961D01*
X87840Y-50961D01*
X88240Y-50561D02*
X88335Y-50961D01*
X88411Y-50676D01*
X88488Y-50961D01*
X88583Y-50561D01*
X88907Y-50961D02*
X88907Y-50752D01*
X88888Y-50714D01*
X88849Y-50695D01*
X88773Y-50695D01*
X88735Y-50714D01*
X88907Y-50942D02*
X88869Y-50961D01*
X88773Y-50961D01*
X88735Y-50942D01*
X88716Y-50904D01*
X88716Y-50866D01*
X88735Y-50828D01*
X88773Y-50809D01*
X88869Y-50809D01*
X88907Y-50790D01*
X89040Y-50695D02*
X89192Y-50695D01*
X89097Y-50561D02*
X89097Y-50904D01*
X89116Y-50942D01*
X89154Y-50961D01*
X89192Y-50961D01*
X89497Y-50942D02*
X89459Y-50961D01*
X89383Y-50961D01*
X89345Y-50942D01*
X89326Y-50923D01*
X89307Y-50885D01*
X89307Y-50771D01*
X89326Y-50733D01*
X89345Y-50714D01*
X89383Y-50695D01*
X89459Y-50695D01*
X89497Y-50714D01*
X89669Y-50961D02*
X89669Y-50561D01*
X89840Y-50961D02*
X89840Y-50752D01*
X89821Y-50714D01*
X89783Y-50695D01*
X89726Y-50695D01*
X89688Y-50714D01*
X89669Y-50733D01*
X80545Y-51621D02*
X80545Y-51221D01*
X80716Y-51621D02*
X80716Y-51412D01*
X80697Y-51374D01*
X80659Y-51355D01*
X80602Y-51355D01*
X80564Y-51374D01*
X80545Y-51393D01*
X80850Y-51355D02*
X81002Y-51355D01*
X80907Y-51221D02*
X80907Y-51564D01*
X80926Y-51602D01*
X80964Y-51621D01*
X81002Y-51621D01*
X81078Y-51355D02*
X81230Y-51355D01*
X81135Y-51221D02*
X81135Y-51564D01*
X81154Y-51602D01*
X81192Y-51621D01*
X81230Y-51621D01*
X81364Y-51355D02*
X81364Y-51755D01*
X81364Y-51374D02*
X81402Y-51355D01*
X81478Y-51355D01*
X81516Y-51374D01*
X81535Y-51393D01*
X81554Y-51431D01*
X81554Y-51545D01*
X81535Y-51583D01*
X81516Y-51602D01*
X81478Y-51621D01*
X81402Y-51621D01*
X81364Y-51602D01*
X81726Y-51583D02*
X81745Y-51602D01*
X81726Y-51621D01*
X81707Y-51602D01*
X81726Y-51583D01*
X81726Y-51621D01*
X81726Y-51374D02*
X81745Y-51393D01*
X81726Y-51412D01*
X81707Y-51393D01*
X81726Y-51374D01*
X81726Y-51412D01*
X82202Y-51202D02*
X81859Y-51717D01*
X82621Y-51202D02*
X82278Y-51717D01*
X82754Y-51621D02*
X82754Y-51221D01*
X82754Y-51374D02*
X82792Y-51355D01*
X82869Y-51355D01*
X82907Y-51374D01*
X82926Y-51393D01*
X82945Y-51431D01*
X82945Y-51545D01*
X82926Y-51583D01*
X82907Y-51602D01*
X82869Y-51621D01*
X82792Y-51621D01*
X82754Y-51602D01*
X83116Y-51621D02*
X83116Y-51355D01*
X83116Y-51221D02*
X83097Y-51240D01*
X83116Y-51260D01*
X83135Y-51240D01*
X83116Y-51221D01*
X83116Y-51260D01*
X83250Y-51355D02*
X83402Y-51355D01*
X83307Y-51221D02*
X83307Y-51564D01*
X83326Y-51602D01*
X83364Y-51621D01*
X83402Y-51621D01*
X83535Y-51583D02*
X83554Y-51602D01*
X83535Y-51621D01*
X83516Y-51602D01*
X83535Y-51583D01*
X83535Y-51621D01*
X83783Y-51621D02*
X83745Y-51602D01*
X83726Y-51564D01*
X83726Y-51221D01*
X83897Y-51355D02*
X83992Y-51621D01*
X84088Y-51355D02*
X83992Y-51621D01*
X83954Y-51717D01*
X83935Y-51736D01*
X83897Y-51755D01*
X84526Y-51202D02*
X84183Y-51717D01*
X84640Y-51260D02*
X84659Y-51240D01*
X84697Y-51221D01*
X84792Y-51221D01*
X84830Y-51240D01*
X84849Y-51260D01*
X84869Y-51298D01*
X84869Y-51336D01*
X84849Y-51393D01*
X84621Y-51621D01*
X84869Y-51621D01*
X85059Y-51621D02*
X85135Y-51621D01*
X85173Y-51602D01*
X85192Y-51583D01*
X85230Y-51526D01*
X85249Y-51450D01*
X85249Y-51298D01*
X85230Y-51260D01*
X85211Y-51240D01*
X85173Y-51221D01*
X85097Y-51221D01*
X85059Y-51240D01*
X85040Y-51260D01*
X85021Y-51298D01*
X85021Y-51393D01*
X85040Y-51431D01*
X85059Y-51450D01*
X85097Y-51469D01*
X85173Y-51469D01*
X85211Y-51450D01*
X85230Y-51431D01*
X85249Y-51393D01*
X85402Y-51260D02*
X85421Y-51240D01*
X85459Y-51221D01*
X85554Y-51221D01*
X85592Y-51240D01*
X85611Y-51260D01*
X85630Y-51298D01*
X85630Y-51336D01*
X85611Y-51393D01*
X85383Y-51621D01*
X85630Y-51621D01*
X85992Y-51221D02*
X85802Y-51221D01*
X85783Y-51412D01*
X85802Y-51393D01*
X85840Y-51374D01*
X85935Y-51374D01*
X85973Y-51393D01*
X85992Y-51412D01*
X86011Y-51450D01*
X86011Y-51545D01*
X85992Y-51583D01*
X85973Y-51602D01*
X85935Y-51621D01*
X85840Y-51621D01*
X85802Y-51602D01*
X85783Y-51583D01*
X86183Y-51621D02*
X86183Y-51221D01*
X86354Y-51621D02*
X86354Y-51412D01*
X86335Y-51374D01*
X86297Y-51355D01*
X86240Y-51355D01*
X86202Y-51374D01*
X86183Y-51393D01*
X86602Y-51621D02*
X86564Y-51602D01*
X86545Y-51583D01*
X86526Y-51545D01*
X86526Y-51431D01*
X86545Y-51393D01*
X86564Y-51374D01*
X86602Y-51355D01*
X86659Y-51355D01*
X86697Y-51374D01*
X86716Y-51393D01*
X86735Y-51431D01*
X86735Y-51545D01*
X86716Y-51583D01*
X86697Y-51602D01*
X86659Y-51621D01*
X86602Y-51621D01*
X86869Y-51621D02*
X87078Y-51355D01*
X86869Y-51355D02*
X87078Y-51621D01*
X80678Y-52072D02*
X80735Y-52091D01*
X80754Y-52110D01*
X80773Y-52148D01*
X80773Y-52205D01*
X80754Y-52243D01*
X80735Y-52262D01*
X80697Y-52281D01*
X80545Y-52281D01*
X80545Y-51881D01*
X80678Y-51881D01*
X80716Y-51900D01*
X80735Y-51920D01*
X80754Y-51958D01*
X80754Y-51996D01*
X80735Y-52034D01*
X80716Y-52053D01*
X80678Y-52072D01*
X80545Y-52072D01*
X81097Y-52262D02*
X81059Y-52281D01*
X80983Y-52281D01*
X80945Y-52262D01*
X80926Y-52224D01*
X80926Y-52072D01*
X80945Y-52034D01*
X80983Y-52015D01*
X81059Y-52015D01*
X81097Y-52034D01*
X81116Y-52072D01*
X81116Y-52110D01*
X80926Y-52148D01*
X81459Y-52281D02*
X81459Y-51881D01*
X81459Y-52262D02*
X81421Y-52281D01*
X81345Y-52281D01*
X81307Y-52262D01*
X81288Y-52243D01*
X81269Y-52205D01*
X81269Y-52091D01*
X81288Y-52053D01*
X81307Y-52034D01*
X81345Y-52015D01*
X81421Y-52015D01*
X81459Y-52034D01*
X82011Y-52281D02*
X81973Y-52262D01*
X81954Y-52243D01*
X81935Y-52205D01*
X81935Y-52091D01*
X81954Y-52053D01*
X81973Y-52034D01*
X82011Y-52015D01*
X82069Y-52015D01*
X82107Y-52034D01*
X82126Y-52053D01*
X82145Y-52091D01*
X82145Y-52205D01*
X82126Y-52243D01*
X82107Y-52262D01*
X82069Y-52281D01*
X82011Y-52281D01*
X82259Y-52015D02*
X82411Y-52015D01*
X82316Y-52281D02*
X82316Y-51939D01*
X82335Y-51900D01*
X82373Y-51881D01*
X82411Y-51881D01*
X82849Y-52281D02*
X82849Y-51881D01*
X83078Y-52281D01*
X83078Y-51881D01*
X83440Y-52281D02*
X83440Y-52072D01*
X83421Y-52034D01*
X83383Y-52015D01*
X83307Y-52015D01*
X83269Y-52034D01*
X83440Y-52262D02*
X83402Y-52281D01*
X83307Y-52281D01*
X83269Y-52262D01*
X83249Y-52224D01*
X83249Y-52186D01*
X83269Y-52148D01*
X83307Y-52129D01*
X83402Y-52129D01*
X83440Y-52110D01*
X83630Y-52281D02*
X83630Y-52015D01*
X83630Y-51881D02*
X83611Y-51900D01*
X83630Y-51920D01*
X83649Y-51900D01*
X83630Y-51881D01*
X83630Y-51920D01*
X83878Y-52281D02*
X83840Y-52262D01*
X83821Y-52224D01*
X83821Y-51881D01*
X84011Y-52262D02*
X84049Y-52281D01*
X84126Y-52281D01*
X84164Y-52262D01*
X84183Y-52224D01*
X84183Y-52205D01*
X84164Y-52167D01*
X84126Y-52148D01*
X84069Y-52148D01*
X84030Y-52129D01*
X84011Y-52091D01*
X84011Y-52072D01*
X84030Y-52034D01*
X84069Y-52015D01*
X84126Y-52015D01*
X84164Y-52034D01*
G54D12*
G36*
X93254Y-53414D02*
X93238Y-53406D01*
X93201Y-53383D01*
X93148Y-53348D01*
X93086Y-53307D01*
X93024Y-53264D01*
X92973Y-53230D01*
X92937Y-53207D01*
X92922Y-53199D01*
X92914Y-53201D01*
X92884Y-53216D01*
X92841Y-53238D01*
X92816Y-53251D01*
X92777Y-53268D01*
X92757Y-53272D01*
X92754Y-53266D01*
X92739Y-53236D01*
X92717Y-53184D01*
X92687Y-53116D01*
X92653Y-53036D01*
X92616Y-52950D01*
X92580Y-52862D01*
X92545Y-52778D01*
X92514Y-52703D01*
X92489Y-52642D01*
X92473Y-52599D01*
X92467Y-52581D01*
X92469Y-52577D01*
X92489Y-52558D01*
X92523Y-52532D01*
X92598Y-52471D01*
X92671Y-52379D01*
X92716Y-52275D01*
X92731Y-52159D01*
X92718Y-52052D01*
X92676Y-51949D01*
X92604Y-51856D01*
X92517Y-51787D01*
X92415Y-51743D01*
X92300Y-51729D01*
X92190Y-51741D01*
X92085Y-51783D01*
X91992Y-51854D01*
X91953Y-51899D01*
X91899Y-51993D01*
X91868Y-52094D01*
X91865Y-52119D01*
X91869Y-52230D01*
X91902Y-52336D01*
X91960Y-52431D01*
X92041Y-52508D01*
X92052Y-52516D01*
X92089Y-52544D01*
X92114Y-52563D01*
X92134Y-52579D01*
X91993Y-52918D01*
X91971Y-52972D01*
X91932Y-53065D01*
X91898Y-53145D01*
X91871Y-53208D01*
X91852Y-53251D01*
X91844Y-53268D01*
X91843Y-53269D01*
X91831Y-53271D01*
X91805Y-53261D01*
X91758Y-53238D01*
X91726Y-53222D01*
X91690Y-53205D01*
X91674Y-53199D01*
X91660Y-53206D01*
X91626Y-53229D01*
X91575Y-53262D01*
X91515Y-53303D01*
X91457Y-53343D01*
X91404Y-53378D01*
X91365Y-53402D01*
X91346Y-53413D01*
X91343Y-53413D01*
X91327Y-53403D01*
X91296Y-53378D01*
X91250Y-53334D01*
X91185Y-53270D01*
X91175Y-53260D01*
X91121Y-53205D01*
X91077Y-53159D01*
X91048Y-53127D01*
X91038Y-53112D01*
X91038Y-53112D01*
X91047Y-53093D01*
X91072Y-53055D01*
X91107Y-53001D01*
X91150Y-52938D01*
X91262Y-52775D01*
X91200Y-52621D01*
X91181Y-52574D01*
X91157Y-52517D01*
X91140Y-52476D01*
X91130Y-52458D01*
X91114Y-52452D01*
X91071Y-52442D01*
X91010Y-52429D01*
X90938Y-52416D01*
X90868Y-52403D01*
X90805Y-52391D01*
X90760Y-52382D01*
X90740Y-52378D01*
X90735Y-52375D01*
X90731Y-52365D01*
X90728Y-52344D01*
X90727Y-52306D01*
X90726Y-52246D01*
X90726Y-52159D01*
X90726Y-52150D01*
X90727Y-52067D01*
X90728Y-52001D01*
X90730Y-51958D01*
X90733Y-51941D01*
X90733Y-51941D01*
X90753Y-51936D01*
X90797Y-51927D01*
X90860Y-51914D01*
X90935Y-51900D01*
X90939Y-51899D01*
X91014Y-51885D01*
X91076Y-51872D01*
X91120Y-51862D01*
X91138Y-51856D01*
X91142Y-51851D01*
X91157Y-51822D01*
X91179Y-51776D01*
X91203Y-51719D01*
X91228Y-51661D01*
X91249Y-51608D01*
X91263Y-51569D01*
X91267Y-51551D01*
X91267Y-51551D01*
X91256Y-51533D01*
X91230Y-51494D01*
X91194Y-51441D01*
X91150Y-51377D01*
X91147Y-51372D01*
X91104Y-51309D01*
X91069Y-51256D01*
X91046Y-51218D01*
X91038Y-51201D01*
X91038Y-51200D01*
X91052Y-51181D01*
X91084Y-51146D01*
X91130Y-51098D01*
X91185Y-51042D01*
X91203Y-51025D01*
X91264Y-50965D01*
X91306Y-50926D01*
X91333Y-50905D01*
X91346Y-50900D01*
X91346Y-50901D01*
X91365Y-50912D01*
X91405Y-50938D01*
X91459Y-50975D01*
X91523Y-51018D01*
X91527Y-51021D01*
X91590Y-51064D01*
X91642Y-51099D01*
X91680Y-51124D01*
X91696Y-51134D01*
X91699Y-51134D01*
X91724Y-51126D01*
X91769Y-51111D01*
X91824Y-51089D01*
X91882Y-51066D01*
X91935Y-51044D01*
X91975Y-51025D01*
X91994Y-51015D01*
X91994Y-51014D01*
X92001Y-50991D01*
X92012Y-50944D01*
X92025Y-50879D01*
X92040Y-50802D01*
X92042Y-50790D01*
X92056Y-50715D01*
X92068Y-50653D01*
X92077Y-50610D01*
X92082Y-50592D01*
X92092Y-50590D01*
X92129Y-50587D01*
X92185Y-50586D01*
X92253Y-50585D01*
X92324Y-50586D01*
X92393Y-50587D01*
X92453Y-50589D01*
X92495Y-50592D01*
X92513Y-50596D01*
X92514Y-50597D01*
X92520Y-50620D01*
X92530Y-50667D01*
X92544Y-50732D01*
X92559Y-50810D01*
X92561Y-50823D01*
X92575Y-50898D01*
X92588Y-50959D01*
X92597Y-51002D01*
X92602Y-51018D01*
X92608Y-51022D01*
X92639Y-51035D01*
X92689Y-51056D01*
X92752Y-51081D01*
X92896Y-51140D01*
X93072Y-51018D01*
X93089Y-51007D01*
X93152Y-50964D01*
X93205Y-50929D01*
X93241Y-50906D01*
X93256Y-50897D01*
X93257Y-50898D01*
X93275Y-50913D01*
X93310Y-50946D01*
X93358Y-50993D01*
X93413Y-51048D01*
X93454Y-51089D01*
X93503Y-51139D01*
X93534Y-51172D01*
X93551Y-51194D01*
X93557Y-51207D01*
X93555Y-51215D01*
X93544Y-51233D01*
X93518Y-51272D01*
X93482Y-51326D01*
X93439Y-51388D01*
X93403Y-51441D01*
X93365Y-51500D01*
X93340Y-51542D01*
X93331Y-51563D01*
X93333Y-51572D01*
X93346Y-51606D01*
X93367Y-51659D01*
X93393Y-51721D01*
X93455Y-51861D01*
X93547Y-51878D01*
X93602Y-51889D01*
X93680Y-51904D01*
X93754Y-51918D01*
X93870Y-51941D01*
X93874Y-52367D01*
X93856Y-52375D01*
X93839Y-52380D01*
X93796Y-52389D01*
X93735Y-52401D01*
X93662Y-52415D01*
X93601Y-52427D01*
X93538Y-52438D01*
X93494Y-52447D01*
X93474Y-52451D01*
X93469Y-52458D01*
X93453Y-52488D01*
X93431Y-52536D01*
X93407Y-52594D01*
X93382Y-52653D01*
X93360Y-52708D01*
X93344Y-52750D01*
X93339Y-52772D01*
X93347Y-52789D01*
X93371Y-52825D01*
X93405Y-52877D01*
X93447Y-52939D01*
X93490Y-53001D01*
X93525Y-53054D01*
X93550Y-53092D01*
X93560Y-53109D01*
X93555Y-53121D01*
X93531Y-53151D01*
X93484Y-53199D01*
X93415Y-53268D01*
X93403Y-53279D01*
X93348Y-53332D01*
X93301Y-53375D01*
X93269Y-53404D01*
X93254Y-53414D01*
X93254Y-53414D01*
G37*
G54D13*
X87530Y-52520D03*
X88680Y-52530D03*
X88100Y-52520D03*
G54D14*
X92650Y-62950D03*
X91650Y-62950D03*
X90650Y-62950D03*
X89650Y-62950D03*
X88650Y-62950D03*
X87650Y-62950D03*
X86650Y-62950D03*
X85650Y-62950D03*
X84650Y-62950D03*
X83650Y-62950D03*
X82650Y-62950D03*
G54D15*
X85520Y-58635D03*
X85520Y-60310D03*
X88130Y-61720D03*
X80590Y-58750D03*
X83380Y-54180D03*
G54D16*
X91653Y-56444D03*
X91299Y-56877D03*
X91980Y-57030D03*
G54D17*
X88650Y-62950D02*
X88650Y-62240D01*
X88650Y-62240D02*
X88130Y-61720D01*
X85520Y-58635D02*
X85215Y-58635D01*
X84650Y-59200D02*
X84650Y-62950D01*
X85215Y-58635D02*
X84650Y-59200D01*
X85520Y-60310D02*
X85520Y-62820D01*
X85520Y-62820D02*
X85650Y-62950D01*
X91980Y-57030D02*
X92580Y-57030D01*
X92650Y-57100D02*
X92650Y-62950D01*
X92580Y-57030D02*
X92650Y-57100D01*
X91299Y-56877D02*
X91299Y-59999D01*
X91650Y-60350D02*
X91650Y-62950D01*
X91299Y-59999D02*
X91650Y-60350D01*
X90650Y-62950D02*
X90650Y-57900D01*
X91653Y-55503D02*
X91653Y-56444D01*
X91400Y-55250D02*
X91653Y-55503D01*
X90900Y-55250D02*
X91400Y-55250D01*
X90300Y-55850D02*
X90900Y-55250D01*
X90300Y-57550D02*
X90300Y-55850D01*
X90650Y-57900D02*
X90300Y-57550D01*
X87530Y-52520D02*
X87530Y-51620D01*
X89650Y-52150D02*
X89650Y-62950D01*
X89100Y-51600D02*
X89650Y-52150D01*
X87550Y-51600D02*
X89100Y-51600D01*
X87530Y-51620D02*
X87550Y-51600D01*
X88680Y-52530D02*
X88680Y-54520D01*
X87300Y-62600D02*
X87650Y-62950D01*
X87300Y-55900D02*
X87300Y-62600D01*
X88680Y-54520D02*
X87300Y-55900D01*
X86650Y-62950D02*
X86650Y-55600D01*
X88100Y-54150D02*
X88100Y-52520D01*
X86650Y-55600D02*
X88100Y-54150D01*
X80590Y-58750D02*
X80590Y-61790D01*
X81750Y-62950D02*
X82650Y-62950D01*
X80590Y-61790D02*
X81750Y-62950D01*
X83380Y-54180D02*
X83380Y-62680D01*
X83380Y-62680D02*
X83650Y-62950D01*
G54D10*
G36*
X93925Y-64025D02*
X80474Y-64025D01*
X80474Y-62212D01*
X81481Y-63218D01*
X81481Y-63218D01*
X81563Y-63273D01*
X81604Y-63301D01*
X81604Y-63301D01*
X81749Y-63329D01*
X81750Y-63330D01*
X82245Y-63330D01*
X82335Y-63420D01*
X82539Y-63504D01*
X82759Y-63505D01*
X82963Y-63420D01*
X83120Y-63264D01*
X83149Y-63193D01*
X83179Y-63263D01*
X83335Y-63420D01*
X83539Y-63504D01*
X83759Y-63505D01*
X83963Y-63420D01*
X84120Y-63264D01*
X84149Y-63193D01*
X84179Y-63263D01*
X84335Y-63420D01*
X84539Y-63504D01*
X84759Y-63505D01*
X84963Y-63420D01*
X85120Y-63264D01*
X85204Y-63060D01*
X85205Y-62840D01*
X85120Y-62636D01*
X85030Y-62545D01*
X85030Y-59357D01*
X85183Y-59204D01*
X85389Y-59289D01*
X85649Y-59290D01*
X85890Y-59190D01*
X86074Y-59006D01*
X86174Y-58765D01*
X86175Y-58505D01*
X86075Y-58264D01*
X85891Y-58080D01*
X85650Y-57980D01*
X85390Y-57979D01*
X85149Y-58079D01*
X84965Y-58263D01*
X84905Y-58407D01*
X84381Y-58931D01*
X84298Y-59054D01*
X84270Y-59200D01*
X84270Y-62545D01*
X84179Y-62635D01*
X84150Y-62706D01*
X84120Y-62636D01*
X83964Y-62479D01*
X83760Y-62395D01*
X83760Y-62395D01*
X83760Y-54726D01*
X83934Y-54551D01*
X84034Y-54310D01*
X84035Y-54050D01*
X83935Y-53809D01*
X83751Y-53625D01*
X83510Y-53525D01*
X83250Y-53524D01*
X83009Y-53624D01*
X82825Y-53808D01*
X82725Y-54049D01*
X82724Y-54309D01*
X82824Y-54550D01*
X83000Y-54726D01*
X83000Y-62515D01*
X82964Y-62479D01*
X82760Y-62395D01*
X82540Y-62394D01*
X82336Y-62479D01*
X82245Y-62570D01*
X81907Y-62570D01*
X80970Y-61632D01*
X80970Y-59296D01*
X81144Y-59121D01*
X81244Y-58880D01*
X81245Y-58620D01*
X81145Y-58379D01*
X80961Y-58195D01*
X80720Y-58095D01*
X80474Y-58094D01*
X80474Y-52955D01*
X87038Y-52955D01*
X87038Y-52970D01*
X87077Y-53064D01*
X87149Y-53136D01*
X87242Y-53174D01*
X87344Y-53175D01*
X87720Y-53175D01*
X87720Y-53992D01*
X86381Y-55331D01*
X86298Y-55454D01*
X86270Y-55600D01*
X86270Y-62545D01*
X86179Y-62635D01*
X86095Y-62839D01*
X86094Y-63059D01*
X86179Y-63263D01*
X86335Y-63420D01*
X86539Y-63504D01*
X86759Y-63505D01*
X86963Y-63420D01*
X87120Y-63264D01*
X87149Y-63193D01*
X87179Y-63263D01*
X87335Y-63420D01*
X87539Y-63504D01*
X87759Y-63505D01*
X87963Y-63420D01*
X88120Y-63264D01*
X88149Y-63193D01*
X88179Y-63263D01*
X88335Y-63420D01*
X88539Y-63504D01*
X88759Y-63505D01*
X88963Y-63420D01*
X89120Y-63264D01*
X89149Y-63193D01*
X89179Y-63263D01*
X89335Y-63420D01*
X89539Y-63504D01*
X89759Y-63505D01*
X89963Y-63420D01*
X90120Y-63264D01*
X90149Y-63193D01*
X90179Y-63263D01*
X90335Y-63420D01*
X90539Y-63504D01*
X90759Y-63505D01*
X90963Y-63420D01*
X91120Y-63264D01*
X91149Y-63193D01*
X91179Y-63263D01*
X91335Y-63420D01*
X91539Y-63504D01*
X91759Y-63505D01*
X91963Y-63420D01*
X92120Y-63264D01*
X92149Y-63193D01*
X92179Y-63263D01*
X92335Y-63420D01*
X92539Y-63504D01*
X92759Y-63505D01*
X92963Y-63420D01*
X93120Y-63264D01*
X93204Y-63060D01*
X93205Y-62840D01*
X93120Y-62636D01*
X93030Y-62545D01*
X93030Y-57100D01*
X93005Y-56978D01*
X93001Y-56954D01*
X93001Y-56954D01*
X92918Y-56831D01*
X92918Y-56831D01*
X92848Y-56761D01*
X92725Y-56678D01*
X92580Y-56650D01*
X92294Y-56650D01*
X92258Y-56613D01*
X92136Y-56563D01*
X92144Y-56543D01*
X92144Y-56347D01*
X92070Y-56166D01*
X92033Y-56130D01*
X92033Y-55503D01*
X92004Y-55358D01*
X92004Y-55358D01*
X91977Y-55317D01*
X91922Y-55234D01*
X91922Y-55234D01*
X91668Y-54981D01*
X91545Y-54898D01*
X91400Y-54870D01*
X90900Y-54870D01*
X90754Y-54898D01*
X90713Y-54926D01*
X90631Y-54981D01*
X90031Y-55581D01*
X90030Y-55583D01*
X90030Y-52705D01*
X90045Y-52705D01*
X90045Y-54504D01*
X93925Y-54552D01*
X93925Y-64025D01*
X93925Y-64025D01*
G37*
G54D18*
X93925Y-64025D02*
X80474Y-64025D01*
X80474Y-62212D01*
X81481Y-63218D01*
X81481Y-63218D01*
X81563Y-63273D01*
X81604Y-63301D01*
X81604Y-63301D01*
X81749Y-63329D01*
X81750Y-63330D01*
X82245Y-63330D01*
X82335Y-63420D01*
X82539Y-63504D01*
X82759Y-63505D01*
X82963Y-63420D01*
X83120Y-63264D01*
X83149Y-63193D01*
X83179Y-63263D01*
X83335Y-63420D01*
X83539Y-63504D01*
X83759Y-63505D01*
X83963Y-63420D01*
X84120Y-63264D01*
X84149Y-63193D01*
X84179Y-63263D01*
X84335Y-63420D01*
X84539Y-63504D01*
X84759Y-63505D01*
X84963Y-63420D01*
X85120Y-63264D01*
X85204Y-63060D01*
X85205Y-62840D01*
X85120Y-62636D01*
X85030Y-62545D01*
X85030Y-59357D01*
X85183Y-59204D01*
X85389Y-59289D01*
X85649Y-59290D01*
X85890Y-59190D01*
X86074Y-59006D01*
X86174Y-58765D01*
X86175Y-58505D01*
X86075Y-58264D01*
X85891Y-58080D01*
X85650Y-57980D01*
X85390Y-57979D01*
X85149Y-58079D01*
X84965Y-58263D01*
X84905Y-58407D01*
X84381Y-58931D01*
X84298Y-59054D01*
X84270Y-59200D01*
X84270Y-62545D01*
X84179Y-62635D01*
X84150Y-62706D01*
X84120Y-62636D01*
X83964Y-62479D01*
X83760Y-62395D01*
X83760Y-62395D01*
X83760Y-54726D01*
X83934Y-54551D01*
X84034Y-54310D01*
X84035Y-54050D01*
X83935Y-53809D01*
X83751Y-53625D01*
X83510Y-53525D01*
X83250Y-53524D01*
X83009Y-53624D01*
X82825Y-53808D01*
X82725Y-54049D01*
X82724Y-54309D01*
X82824Y-54550D01*
X83000Y-54726D01*
X83000Y-62515D01*
X82964Y-62479D01*
X82760Y-62395D01*
X82540Y-62394D01*
X82336Y-62479D01*
X82245Y-62570D01*
X81907Y-62570D01*
X80970Y-61632D01*
X80970Y-59296D01*
X81144Y-59121D01*
X81244Y-58880D01*
X81245Y-58620D01*
X81145Y-58379D01*
X80961Y-58195D01*
X80720Y-58095D01*
X80474Y-58094D01*
X80474Y-52955D01*
X87038Y-52955D01*
X87038Y-52970D01*
X87077Y-53064D01*
X87149Y-53136D01*
X87242Y-53174D01*
X87344Y-53175D01*
X87720Y-53175D01*
X87720Y-53992D01*
X86381Y-55331D01*
X86298Y-55454D01*
X86270Y-55600D01*
X86270Y-62545D01*
X86179Y-62635D01*
X86095Y-62839D01*
X86094Y-63059D01*
X86179Y-63263D01*
X86335Y-63420D01*
X86539Y-63504D01*
X86759Y-63505D01*
X86963Y-63420D01*
X87120Y-63264D01*
X87149Y-63193D01*
X87179Y-63263D01*
X87335Y-63420D01*
X87539Y-63504D01*
X87759Y-63505D01*
X87963Y-63420D01*
X88120Y-63264D01*
X88149Y-63193D01*
X88179Y-63263D01*
X88335Y-63420D01*
X88539Y-63504D01*
X88759Y-63505D01*
X88963Y-63420D01*
X89120Y-63264D01*
X89149Y-63193D01*
X89179Y-63263D01*
X89335Y-63420D01*
X89539Y-63504D01*
X89759Y-63505D01*
X89963Y-63420D01*
X90120Y-63264D01*
X90149Y-63193D01*
X90179Y-63263D01*
X90335Y-63420D01*
X90539Y-63504D01*
X90759Y-63505D01*
X90963Y-63420D01*
X91120Y-63264D01*
X91149Y-63193D01*
X91179Y-63263D01*
X91335Y-63420D01*
X91539Y-63504D01*
X91759Y-63505D01*
X91963Y-63420D01*
X92120Y-63264D01*
X92149Y-63193D01*
X92179Y-63263D01*
X92335Y-63420D01*
X92539Y-63504D01*
X92759Y-63505D01*
X92963Y-63420D01*
X93120Y-63264D01*
X93204Y-63060D01*
X93205Y-62840D01*
X93120Y-62636D01*
X93030Y-62545D01*
X93030Y-57100D01*
X93005Y-56978D01*
X93001Y-56954D01*
X93001Y-56954D01*
X92918Y-56831D01*
X92918Y-56831D01*
X92848Y-56761D01*
X92725Y-56678D01*
X92580Y-56650D01*
X92294Y-56650D01*
X92258Y-56613D01*
X92136Y-56563D01*
X92144Y-56543D01*
X92144Y-56347D01*
X92070Y-56166D01*
X92033Y-56130D01*
X92033Y-55503D01*
X92004Y-55358D01*
X92004Y-55358D01*
X91977Y-55317D01*
X91922Y-55234D01*
X91922Y-55234D01*
X91668Y-54981D01*
X91545Y-54898D01*
X91400Y-54870D01*
X90900Y-54870D01*
X90754Y-54898D01*
X90713Y-54926D01*
X90631Y-54981D01*
X90031Y-55581D01*
X90030Y-55583D01*
X90030Y-52705D01*
X90045Y-52705D01*
X90045Y-54504D01*
X93925Y-54552D01*
X93925Y-64025D01*
M02*
