M48
;DRILL file {Pcbnew (2013-07-07 BZR 4022)-stable} date 7/7/2016 3:31:38 PM
;FORMAT={-:-/ absolute / inch / decimal}
FMAT,2
INCH,TZ
T1C0.040
%
G90
G05
M72
T1
X8.059Y-5.875
X8.265Y-6.295
X8.338Y-5.418
X8.365Y-6.295
X8.465Y-6.295
X8.552Y-5.8635
X8.552Y-6.031
X8.565Y-6.295
X8.665Y-6.295
X8.753Y-5.252
X8.765Y-6.295
X8.81Y-5.252
X8.813Y-6.172
X8.865Y-6.295
X8.868Y-5.253
X8.965Y-6.295
X9.065Y-6.295
X9.1299Y-5.6878
X9.165Y-6.295
X9.1654Y-5.6445
X9.198Y-5.703
X9.265Y-6.295
T0
M30
